<svg id="Contours" xmlns="http://www.w3.org/2000/svg" viewBox="0 0 269.34 681.05"><defs><style>.cls-1{fill:none;stroke:#000;stroke-miterlimit:10;}</style></defs><path d="M212.43,647.67" transform="translate(-174.96 -3.09)"/><path d="M212.49,634.06" transform="translate(-174.96 -3.09)"/><path d="M404.2,591.58q.17.45.33.93c.11.31.22.62.32.93a1.16,1.16,0,0,0,.27-1.06,1.09,1.09,0,0,0-.92-.8,3.87,3.87,0,0,0,1.54-1.22,3.58,3.58,0,0,0,.66-1.42,54.33,54.33,0,0,1,.28-13.54,1.33,1.33,0,0,0-.09-.53,1.5,1.5,0,0,0-1.36-.77c-.13-.16-.37-.46-.69-.81-4.88-5.4-11.65-6.68-14.31-7.13a30,30,0,0,0-9.78,0c-4.36.27-5.33.5-5.33.67s.2.08.91.37a11.52,11.52,0,0,0,1.69.72,4.71,4.71,0,0,0,1,.09c1.23,0,3.32,1,3.47,1.83.25,1.28-.8,2.81-1.43,4.18a3.75,3.75,0,0,1-1.79-.51c-4.71-3.35-6.91-7.88-7.34-13.61-.1-1.32-.24-2.64-.4-4a25.24,25.24,0,0,1-.94-6.66h0c-.33-2.16-.69-4.31-1-6.46-.37-2.37-1.12-4.68-1.56-7a5.5,5.5,0,0,1,.46-2,1.56,1.56,0,0,0,.2.16,47.22,47.22,0,0,1-.46-5.94,32.83,32.83,0,0,1-1-4.45c-.86-7.37-1.73-14.74-2.34-22.13a1.15,1.15,0,0,1,0-.26,5.37,5.37,0,0,1-.42-1.81c-.05-1.12-.07-2.25-.05-3.37-.11-.08-.18-.15-.18-.2a48,48,0,0,1,0-8.39c.76-5.25,1.77-10.49,3-15.65a13,13,0,0,1,6.2-8.15,14,14,0,0,0,4.53-3.94c2.74-4.26,5.13-8.75,7.6-13.19,2.36-4.26,5.09-8.41,6.83-12.91,1.62-4.2,2.06-8.84,3.18-13.24.86-3.38,2.65-6.65,2.86-10a90.22,90.22,0,0,0-2.23-26.58c-.7-2.94-.56-6.06-1.12-9-.92-4.93-1.89-9.86-3.21-14.69-1.55-5.66-2.73-11.62-5.47-16.71-3.92-7.26-6.53-14.95-9.49-22.53-3.13-8-8.48-14.19-15-19.56-5.24-4.31-6.16-9.46-4.19-15.73,1.64-5.17,3.57-10.19,3.52-15.79,0-4.47.71-8.95,1.14-13.43a3.93,3.93,0,0,1,.5-1.14c.32.19.65.37,1,.57.5.32,1,.65,1.46,1a9.49,9.49,0,0,0,.26-2.23c-.17-1.58-.65-3.13-.76-4.71-.21-2.94.49-6.17-.51-8.8-1.83-4.82-2.06-9.64-1.94-14.61,0-1.68.08-3.36,0-5,0-.59-.56-1.15-.86-1.72-.1.55-.23,1.09-.3,1.64-.22,1.69-.38,3.39-.64,5.08-.05.35-.43.65-.67,1A3.66,3.66,0,0,1,359,226c0-2-.06-4,0-5.93,0-.41.45-.82.72-1.22.55-.81,1.58-1.62,1.58-2.44,0-2.88-.41-5.75-.48-8.64,0-1.39.69-2.84.51-4.19a19.71,19.71,0,0,1,2-12.33A22.43,22.43,0,0,0,365,172.8a30.47,30.47,0,0,1-1.64-9.07A45.9,45.9,0,0,1,366,147.66a70.36,70.36,0,0,0,2.64-9.58c.72-3.3,1.09-6.67,1.69-10,1-5.8,2.52-11.55,3-17.38.39-4.36.63-8.64,2.23-12.77.24-.63-.06-2.11-.41-2.22-1.94-.58-1.73-2-1.69-3.38,0-1.87.42-3.86-.07-5.61a44.66,44.66,0,0,1-1.3-15.64c.49-6.4.8-12.89-2.12-19.21s-4.88-13.41-7.39-20.09c-1.68-4.45-3.54-8.84-5.43-13.2A26.53,26.53,0,0,0,348.44,7.4c-.39-.29-1.09-.16-1.65-.23.12.42.09,1,.36,1.24a17.36,17.36,0,0,1,4.14,6c1.63,4,4.27,7.54,6.25,11.39.84,1.65,2.91,3.49.34,5.49-.09.08.34.77.49,1.18a114.16,114.16,0,0,1,4,11.11c1,4,3.71,8,.93,12.33-.18.28.43,1,.54,1.51.43,2.2.87,4.4,1.16,6.62.06.39-.58.86-.9,1.29a5.57,5.57,0,0,1-.84-1.14c-.82-2.24-1.57-4.5-2.36-6.74a7.56,7.56,0,0,0-.43-.91c-.08.36-.32.77-.22,1.08,1,3.06,2.12,6.07,3,9.16.9,3.28,3.72,6.25,1.84,10-.79,1.59-.36,2.82.5,4.36.67,1.2.28,3,.17,4.53,0,.37-.82.68-1.27,1a10.88,10.88,0,0,1-.59-1.37c-.43-1.5-.88-3-1.2-4.54-.29-1.38-.43-2.8-.62-4.2-.12-1,.07-2.1-.36-2.91-1.37-2.62-4-5-4.26-7.69-.56-5.87-5.1-11-3.27-17.23.15-.51-.28-1.17-.44-1.76a8,8,0,0,0-1.29,1.9,12.67,12.67,0,0,0-.62,3.29c-.15,2.63-.23,5.27-.25,7.9,0,1.88.25,3.76.19,5.64-.05,1.7-.46,3.38-.54,5.09-.11,2,.1,4-.08,6-.1,1.05-1,2-1.1,3.07-.16,2.79-.08,5.59,0,8.39a4.11,4.11,0,0,0,.58,1.36c.59-.28,1.6-.47,1.69-.86a27.5,27.5,0,0,0,.69-5.34c.09-5.3,0-10.61.06-15.91a1.19,1.19,0,0,1,.65-.94,1.26,1.26,0,0,1,1.1.49,39.46,39.46,0,0,1,2.42,4.93c2,5.5,2.69,11.43,5.77,16.64.69,1.17.09,3.36-.47,4.89-.62,1.7-2.36,3.07-2.76,4.78a109.69,109.69,0,0,0-2.45,13.81c-.87,8.13-5.19,15.12-7.32,22.82-.09.35-.49.61-.75.91a4.27,4.27,0,0,1-.42-1.23,30,30,0,0,0-.07-5,103.91,103.91,0,0,1-1.76-23.87,2.45,2.45,0,0,1,3.4-2.39c2.71.9,2.24,3.1,1.91,5-.38,2.26-1.31,4.45-1.6,6.71-.11.94.83,2,1.3,3,.54-.73,1.41-1.39,1.57-2.19.92-4.49,1.1-9.21,2.64-13.47,1.46-4,.69-7.4-1-10.88a8.85,8.85,0,0,0-1.83-1.9,22.21,22.21,0,0,0,.17,2.58c.48,2.58,2.3,5.12.6,7.77-.48.74-1.87,1.58-2.56,1.39a5.31,5.31,0,0,1-4-4.08c-.87-4.26.25-9-3.42-12.57-.42-.41-.12-1.49-.24-2.25-.78-5-1.63-10-2.36-15-.79-5.46-1.46-10.81,1.12-16.21,1.1-2.3.53-5.39.63-8.13.19-4.68.25-9.36.47-14,.14-3,.91-6,.59-8.85-.18-1.64-2-3.11-3.05-4.65-1.41,1.15-3.34,2-4.1,3.52-1.05,2-1.29,4.42-1.73,6.69-1.21,6.33-2.78,12.63-3.38,19-.42,4.51-1,9.1.76,13.75,1.37,3.62,2.54,8,1.67,11.55-.83,3.36-1.55,6.37-.92,9.77.44,2.35.34,4.78.72,7.14.44,2.64,1.23,5.23,1.71,7.88a49,49,0,0,1,.57,5.69,1.71,1.71,0,0,1-.59,1.17c-.1.1-.86-.18-1-.44-.35-.74-.94-1.72-.7-2.33,1.38-3.52-1-6.47-1.51-9.66-.66-4.19-2.85-8.12-3.91-12.28a21.4,21.4,0,0,1-.58-8.3c.84-5.24.8-6-3.7-9-2-1.33-4-2.73-4.24-5.34-.29-3-.53-6-.57-8.94a14.22,14.22,0,0,1,.82-3.79c.26-1,.68-1.91.93-2.88.92-3.58,1.13-7.53,2.86-10.67,2-3.71,5.54-6.6,8.1-10.07s5.63-6.29,9.93-7.14c2-.4,2.52-1.41,1.92-2.66-.33-.66-2.15-.77-3.31-.83a20.08,20.08,0,0,0-3.51.4c1-.79,2-1.58,3-2.35.3-.22.64-.57,1-.56,1.48,0,2.92.1,3.44-1.7-1.42,0-3-.44-4.25,0a13.24,13.24,0,0,0-4,2.62c-1.45,1.22-2.59,2.81-4.11,3.92a30.62,30.62,0,0,0-10.2,12.42,5.27,5.27,0,0,1-1,1.1,13.1,13.1,0,0,0-.42-1.25c-.27-.58-.59-1.14-.89-1.71a7.51,7.51,0,0,0-1.26,1.26,7.22,7.22,0,0,0-.85,2c-1,4-2.09,8.05-3,12.1-2,8.72-4.27,17.18-2.72,26.52,1.29,7.77,3.2,15.3,4.95,22.93,1.18,5.15,1.39,10.52,1.94,15.81.06.54-.56,1.66-.78,1.64-2.47-.24-1.63,1.58-1.54,2.54.5,5,1.3,10,1.71,15,.27,3.17-.36,6.45.13,9.57a168,168,0,0,1,2.38,31,20.84,20.84,0,0,0,.8,4.7c.79,3.83,2.44,7.39,1.69,11.62-1.37,7.76-2.44,15.46-9.25,20.81-.53.42-1.13.77-1.7,1.16-.14-.88-.7-2-.34-2.57a26.14,26.14,0,0,1,3.07-3.17,28.46,28.46,0,0,0,1.77-2.29c-1,0-2.23-.29-3.05.13-1.71.85-2.58.78-2.94-1.25-.44-2.46-1.34-4.88-1.49-7.36-.26-4.07.49-8.25-.21-12.22a88.34,88.34,0,0,1-1.71-16.77c.13-7.8.11-15.6,0-23.4a46.72,46.72,0,0,0-.78-10,138.47,138.47,0,0,1-3.47-22.89,92.29,92.29,0,0,0-1.77-11.41c-1.12-5.75-2.14-11.54-3.7-17.17-.87-3.12-2.66-6-4.27-8.91-.49-.86-1.76-1.3-2.68-1.93-.06.9-.13,1.79-.2,2.69,0,.18,0,.45-.09.54-3.59,3.16-7.17,6.33-10.85,9.39-.35.29-1.33-.15-2-.25a6.13,6.13,0,0,1,.87-1.45c3.3-3.1,6.66-6.15,10-9.26a5.18,5.18,0,0,0,.77-1.62c-.6.15-1.22.27-1.8.47a2.25,2.25,0,0,0-.69.51c-4.95,4.46-9.92,8.88-14.8,13.4a9.45,9.45,0,0,0-2.42,3.44c-1.47,3.85-2.76,7.78-4,11.71-2.22,7.08-4.18,14.22-3.3,21.77.2,1.69.36,3.39.61,5.08.89,5.86,1.57,11.76,2.78,17.55,1.9,9.16,4.26,18.22,6.22,27.37.91,4.23,2,8.31,5.7,11,4.95,3.62,5.36,9.29,7,14.37,1.88,6,3.06,12.1,6.58,17.49.87,1.33,1.59,3.85.9,4.86a22.2,22.2,0,0,1-6,5.5c-3,2-6.9,2.23-8.93,6.21-1.55,3-5.31,4.39-8.89,5a5.88,5.88,0,0,1-1.55-.13c.24-.54.34-1.34.76-1.58,2.26-1.28,4.64-2.36,6.91-3.63,0,0,14.19-7.72,15-8.39-.95-.12-14.46,6-15.4,6.08a6.15,6.15,0,0,0-2.75.6c-6.09,3.54-12.59,6.43-17.35,12-2,2.33-4.94,3.89-7.47,5.77-1.52,1.13-3.63,1.91-4.49,3.39a72,72,0,0,0-6.05,12.62c-2.56,7.58-4.57,15.34-6.72,23-1.58,5.71-.28,11.27,1.24,16.78.11.43.84.68,1.23,1.06a8.54,8.54,0,0,1,1.72,1.84c2.69,5,5.25,10.11,8,15.11,1,1.81,2.09,4.12,4.79,1.67a1.08,1.08,0,0,1,1-.06c3,1.71,6,3.44,9,5.22,3.38,2,5.77,5.18,10.42,5.77,4.89.61,9.42,1.81,14.21-.38,2.39-1.09,4.57.65,4.54,3.29a16.86,16.86,0,0,1-.65,5.65c-1.83,4.87-3.11,10.31-6.25,14.27-6.18,7.79-13.58,14.64-20.26,22.07-4.22,4.7-8.12,9.69-12,14.65l-10.24,13.6c-4.6,5.71-9.22,11.34-12.18,18.16a37,37,0,0,1-10.44,13.51c-4.79,4-9.68,7.92-13,13.28s-7,10.79-10.23,16.3c-3,5-6.25,9.92-8.27,15.28a148.94,148.94,0,0,0-5.56,20.54A59.09,59.09,0,0,0,175,503.18c0,3.48,1.08,7,1,10.46-.07,4.55,1.12,8.72,2.38,13,2.61,8.9,7.57,17,9,26.33.11.78.26,1.56.42,2.33a82.12,82.12,0,0,1,3.87,11.53,14.37,14.37,0,0,1,1.94,4.37,2.63,2.63,0,0,1,0,1.08c.2.51.39,1,.54,1.53a4.35,4.35,0,0,1-4.24,5.26,14,14,0,0,1-4.57-1.26c-2.77-1.07-6.65.37-6.18,2.46a47.19,47.19,0,0,0,2.53,8.15,17.69,17.69,0,0,0,3.85,5.66,18.31,18.31,0,0,0,4.55,3.28,1.62,1.62,0,0,1,.38.32l0,0A39.57,39.57,0,0,0,195,601.1l.44.16c3.84.16,7.61,1.45,11.39,2.08,3.56.6,6.92,2.41,10.6.45.55-.29,1.5.13,2.27.22-.27.66-.56,1.32-.79,2a2.54,2.54,0,0,1,.19.84c0,13,14.46,18.64,24.12,23.72,4.69,2.47,9,5.16,14,7,1,.36,2,.7,3,1A63.6,63.6,0,0,0,271.53,640l.84-.43c1.07.12,1.73.24,2.32.36.9,0,1.81-.15,2.71-.28,1.11-.28,2.2-.61,3.29-1a.29.29,0,0,1,.29-.09,39,39,0,0,1,6.34-1.69.28.28,0,0,1,.35-.17,8,8,0,0,1,3.32,2.32,17.71,17.71,0,0,1,3.75,2.86c3.69,3.35,7.42,2.45,11.87,3.42,3.32.73,3.85,2.4,5.53,4.9a11.4,11.4,0,0,0,2.41,2.5c2.08.83,4.13,1.69,6.09,2.57a5.59,5.59,0,0,1,2.07,1.79c1,.43,1.92.86,2.79,1.31a.92.92,0,0,1,.4.52,3.29,3.29,0,0,1,.18.44c.67,2,3.11,3.19,4.85,4.16.92.52,1.83,1,2.7,1.62.79.4,1.59.79,2.39,1.17,3.77,1.79,7.58,3.5,11.17,5.54,4.74,1.93,10.14,1.33,15,3.21,5.36,2.09,11.18,2.71,16.87,3.55a.24.24,0,0,1,.13-.07,11.6,11.6,0,0,1,5.83.69.57.57,0,0,1,.22.17,33,33,0,0,0,11.74-.67l.58-.13c4-1.85,8.13-3.48,12.18-5.26,3-1.33,5.94-3,9.36-1.19.15.08.4,0,.59,0l1.09.16,3.49.51c0-.61.15-1.08.42-.93a11.94,11.94,0,0,0,4.82,1.33,6.47,6.47,0,0,1,3.41-.6c.94.06,2-1.42,3-2.13a7.32,7.32,0,0,1,1.44-.57l-.06.26a.57.57,0,0,1,.11-.11l.12-.07a1,1,0,0,1,.21-.73,8,8,0,0,1,4.19-2A.74.74,0,0,1,442,667a17.56,17.56,0,0,0,1.93-2.49,14.06,14.06,0,0,0,.28-4.58,31.37,31.37,0,0,0-1.53-6.27c-.95-3.32-3.24-4.05-5.5-6.44l0-.07a2.79,2.79,0,0,1-.57-.44c-.19-.21-.36-.43-.54-.64-.14.18-.35.09-.63-.51-.13-.28-.28-.55-.43-.81l-.53-.69a.81.81,0,0,1,0-.16,15.5,15.5,0,0,0-5.35-4.38l-.07,0a.59.59,0,0,1-.46-.3c-5.95-3.09-13.51-4.75-15.95-10.47a4.38,4.38,0,0,1-.87-.79.38.38,0,0,1-.25,0c-1.84-1.78-4.18-3-4.35-6.21-.11-2.15-1.57-4.25-2.51-6.33-.22-.51-.79-.86-1.19-1.29a5.36,5.36,0,0,1-1.26,3L398.84,615a9.31,9.31,0,0,0,1.38-.89c.78-.7,2.13-1.47,2.14-2.22.06-3.48-.22-7-.46-10.44,0-.82-1.06-6.62-1.59-7-3.12-2.13-3-.76-4-3.93-1.45-1.09-3-2.06-4.5-3.13.55,1.76.78,3.64.24,4.36-.16.21-1.53,0-1.59-.25-1.31-4.93-5.76-6.88-9.33-9.68a25,25,0,0,1-4.83-4.21,6.19,6.19,0,0,1-.71-2.2,8.93,8.93,0,0,1,2.05.65c3.67,2.3,7.3,4.67,11,7,0-.59.2-1,.52-.65,2.15,2.25,4.87,3.74,7.29,5.59a.77.77,0,0,1,.34.16c.21.22.43.43.65.63a15,15,0,0,1,2.87,3.16c.33.49.4,2.39,0,2.54l2.47,3m-3.65-22.34a9.35,9.35,0,0,1,.69,2.28,18,18,0,0,1-2.41-1.06c-.36-.22-.49-.79-.72-1.2Zm-.58,8.34a10.27,10.27,0,0,1,2.09,2c0,2.16.06,3.73,0,5.29a4.69,4.69,0,0,1-.69,1.52c-.43-.36-1.06-.63-1.25-1.09a49.94,49.94,0,0,1-2.21-6.14C396,583.45,396.87,582.6,398.55,583.49Zm-10.13-11.86a6,6,0,0,1,2.71.61,8.91,8.91,0,0,1,2.78,2.54c.24.37-.56,1.41-.88,2.15l-3.26-1.48c-.92-.71-1.59-1.07-2.15-1.55-.73-.63-1.38-1.34-2.06-2A18.63,18.63,0,0,1,388.42,571.63Zm-3.78,8.89c2.33-.55,3.62.75,4.53,2.63a27.18,27.18,0,0,1-5.3-1.65C384.12,581.16,384.32,580.59,384.64,580.52Zm-59.36-558c.14-.33.53-.56.8-.83a1.51,1.51,0,0,1,1.13-.07,3.71,3.71,0,0,1-.5,1.2c-.61.61-1.34,1.11-2,1.66A14.28,14.28,0,0,1,325.28,22.55Zm98.77,621.79c.75,0,1.5.08,2.25.14a6.83,6.83,0,0,1,2.11,2c-.44.12-1,.46-1.29.32a35.78,35.78,0,0,1-3.36-1.9S424,644.34,424.05,644.34Zm-11.72-8.2a27.37,27.37,0,0,1,3.1,1.23c2,1.13,3.66,1.9,5.25,2.84.51.3.73,1.06,1.08,1.6a8.81,8.81,0,0,1-1.73-.31c-2.93-1.15-5.88-2.3-8.74-3.59-.57-.26-.83-1.18-1.23-1.8A9.54,9.54,0,0,1,412.33,636.14Zm1.29,24.33a2,2,0,0,1-1,1.19c-.17-.27-.35-.53-.52-.79Zm-4-14.4-.82.16-.27-2.64A6.25,6.25,0,0,1,409.58,646.07Zm-.49,9.37c-.14.73-.26.91-.42,1-.89.45-1.79.87-2.71,1.26a5.65,5.65,0,0,1-.37-.59Zm-6.38-11a7.86,7.86,0,0,1,1.46-.4,5.14,5.14,0,0,1-.46,1.21c-2,2.68-5.08,3.52-8,4.43-1.59.49-1.38-.55-.48-1.4C397.91,646.85,400.3,645.65,402.71,644.49Zm-20.18,22.8a9.15,9.15,0,0,0-1.8-.32,15.15,15.15,0,0,1-2.34-.83c-.08,0,0-.5.05-.76a13.66,13.66,0,0,0,2.08.41c1.59.06,3.2,0,4.79,0a5.37,5.37,0,0,1,1.44.5c-.45.42-.86,1.13-1.36,1.19A12.69,12.69,0,0,1,382.53,667.29Zm1.32,2.67-.11.88a13,13,0,0,1-3.62-.09,1.75,1.75,0,0,1,0-.51C381.38,670.12,382.62,670,383.85,670Zm-8.68-27.49a5.86,5.86,0,0,1-1.86.36c4.07,2.28-18-1.7-17.65-2.22.21-.32,19,0,19.32-.28-.48,11.86,10.34,2.11,5.43-2.36-.24-.22.61.3.91.45a3.71,3.71,0,0,1-.65.71C378.85,640.27,377,641.43,375.17,642.47Zm3.13,28.37c-.7.3-1.15.42-1.48.27a8.71,8.71,0,0,1-1.41-1,6.54,6.54,0,0,1,2-.69C377.74,669.44,378,670.35,378.3,670.84Zm-8.85-49.29c.25-.2,1.53.22,1.54.39.1,2.65.07,5.31,0,8,0,0-.76,0-1.16.05C368.48,628,368.14,622.66,369.45,621.55Zm5.83-11.74,1.81-.59a13.57,13.57,0,0,1,.87,2.67Zm4.24,22.48c.7-1.18,1.23-2.47,2-3.62.24-.38.93-.48,1.42-.71.07.46.36,1,.18,1.37-.6,1.14-1.37,2.2-2.07,3.3a4.8,4.8,0,0,1-.52.5l-2.73,1.64C378.36,634,379,633.16,379.52,632.29Zm-4.08-13.7c.38.06.94.41,1,.73.3,1.36.44,2.74.64,4.12a9,9,0,0,1,.3,2.66c-.7-.57-1.81-1-2-1.73a23.68,23.68,0,0,1-.65-5C374.7,619.12,375.24,618.56,375.44,618.59Zm0,8.13a31.88,31.88,0,0,1,1.58,2.86c.05.11-.42.44-.64.68l-1.14-1.49a6.93,6.93,0,0,0-.56-1.81A3.11,3.11,0,0,1,375.48,626.72Zm7.86-10.22c-.15-.06-.15-.51-.18-.78a.64.64,0,0,1,.41-.13c2.17.53,4.34,1.08,6.5,1.63a9.24,9.24,0,0,1,3.08,1.22,8.49,8.49,0,0,1,1.45,1.74,5.43,5.43,0,0,1-1.71,0C389.69,619,386.51,617.75,383.34,616.5Zm7.45,6c.47.49,1.24.93,1.32,1.47s-.45,1.32-.72,2l-1.62-1.37A6.74,6.74,0,0,1,390.79,622.55Zm.49,45.63c1.82,0,3,0,4.24,0,.06,0,.11.25.16.39l-4.7.76Zm1.51-5.63a1.87,1.87,0,0,1,1.18-.29c.82.11,1.63.24,2.44.37-.08.25-.22.73-.24.73C395,663.12,393.91,662.83,392.79,662.55Zm5.8-39.28a7.74,7.74,0,0,1,.58,2.2c-.72-.33-1.73-.49-2.08-1a8.41,8.41,0,0,1-.68-2.77A4.14,4.14,0,0,1,398.59,623.27Zm-2.18,5.81c-.15.39-.3.78-.46,1.18l-.74-.89A1,1,0,0,1,396.41,629.08Zm-9.85-31.41c.67.52,1.56.91,2,1.58,1.32,2.21,2.45,4.52,3.68,6.78a7.81,7.81,0,0,0,.89,1.12A23.87,23.87,0,0,1,395.9,610c.33.46.1,1.31.12,2a5.28,5.28,0,0,1-1.47-.47c-1.58-1.06-3.13-2.16-4.62-3.34-.72-.58-2-1.22-.42-2.35a9.11,9.11,0,0,0-.87-1.62,34.38,34.38,0,0,1-2.42-4.12C386,599.43,386.42,598.48,386.56,597.67Zm-1.32,14.81a10.55,10.55,0,0,1-2.71-2l1.57-.94C384.22,610.64,387.28,610.59,385.24,612.48Zm-3.36-17.31c1.24,1.63.82,6.54-.56,8.13a11.25,11.25,0,0,1-.46,2.07c-.32-.37-.88-.71-.93-1.11a56.85,56.85,0,0,1-.58-6.5,6.38,6.38,0,0,1,.91-2.8A2,2,0,0,1,381.88,595.17Zm-4.47-4.49a21.68,21.68,0,0,1,2.64,2.61L378,594.7a8.19,8.19,0,0,1-1.34-1.35,24.06,24.06,0,0,1-1-2.24C376.24,591,377.1,590.45,377.41,590.68ZM366.36,573c.48.17,1.21.19,1.41.52,1.17,1.88,2.75,3.73,3.15,5.79a10.14,10.14,0,0,0,3.26,5.84,6.83,6.83,0,0,1,1.1,2.19A13.19,13.19,0,0,0,373,587c-1.08,0-2.16.31-3.24.39a18.73,18.73,0,0,1-2.24-.09l.57-1.81c.41-2,.86-3.71.53-5.3-.42-2-1.5-3.91-2.23-5.88A3.83,3.83,0,0,1,366.36,573ZM371,594.18c0,.35-.94.74-1.44,1.12-1.28-1.46-2.28-2.61-3.24-3.79a9.71,9.71,0,0,1-.69-1.17c.53-.13,1.11-.45,1.58-.34C369.41,590.52,370.88,591.86,371,594.18Zm-6-13.4a3.58,3.58,0,0,1,1.81,1l-2,2.08c-.15-.24-.45-.51-.42-.72C364.58,582.37,364.82,581.58,365,580.78Zm-8.94,12.33a15.3,15.3,0,0,0,2.25,2.5c1.36,1.22,2.87,2.15,3.31,1.79a3.19,3.19,0,0,0,.47-1.07c.11-1.36,1.05,2.53,1.4,3.84.11.4-.31.93-.49,1.4l-1.25-1.06a44.49,44.49,0,0,0-5.69-3.9,93.18,93.18,0,0,0-8.75-4.75c-9.1-4.27-17.06-6.29-17-6.5s4.61,1,11,2c5.78.9,8.09.9,9.25-.5.82-1,.74-2.31.75-4a13.75,13.75,0,0,0-1.5-6.25,156.39,156.39,0,0,1-6.25-16c-.07,0,8.58,19.12,8.76,19a.45.45,0,0,0,0-.35h0a21.06,21.06,0,0,1,.76,2.83,13.4,13.4,0,0,1-.26,4.57v0A25.66,25.66,0,0,0,356.08,593.11Zm6.52,69.76c3,1,6,2.07,8.94,3.11l-.78,1c-3.14-.9-5.68-1.79-8.2-2.75-.27-.1-.43-.59-.52-.94C362,663.21,362.47,662.83,362.6,662.87ZM353,560.77a1.09,1.09,0,0,1-.35.14,1.44,1.44,0,0,1-.69-.1,1.68,1.68,0,0,1-.86-1c0-.08-.06-.22-.13-.49s-.1-.4-.14-.67a5.82,5.82,0,0,1-.07-1.05,5.35,5.35,0,0,1,.13-1.1,3.35,3.35,0,0,1,.27-.81l.49-.84,0,0,.15-.26c.07-.12.14-.23.24-.37l.18-.22s.33-.39.38-.36-.06.18-.08.23a3.38,3.38,0,0,0-.14,2.3,6.4,6.4,0,0,0,.32.71c.14.29.27.52.36.67s.19.44.3.76a3.12,3.12,0,0,1,.25,1.1,1.86,1.86,0,0,1-.31,1.07A1.17,1.17,0,0,1,353,560.77Zm6.24-75.15-.84-2.61a4.8,4.8,0,0,1,.63-2.1,8.7,8.7,0,0,1,1.44-1.16,17.67,17.67,0,0,1,0,1.78,7.15,7.15,0,0,1-.3,1.65C359.91,484,359.55,484.8,359.22,485.62Zm2.07-22.18a53.07,53.07,0,0,1-3.78,5.54c-.33.43-1.17.48-1.78.7-.1-.72-.55-1.66-.24-2.1,1.35-1.95,2.91-3.75,4.4-5.6C362.54,461.05,361.44,463.19,361.29,463.44Zm-4,82.17c-.4.69-1,.43-2.76,1.37s-2.1,1.63-2.91,1.46a2.13,2.13,0,0,1-1.3-1.24,4.8,4.8,0,0,1-.32-.43h0a3.58,3.58,0,0,1-.32-.62c-.06-.36,1.09-.52,1.44-1.21s-.07-1.29-.33-1.83a8.14,8.14,0,0,0-1.83-2.17,5.81,5.81,0,0,1-2-3.5c-.07-1.23.59-2.25,1.11-4,0,0,0-.14.06-.14s-.42,1.65-.17,1.76,1.72-1.68,1.91-1.62l.07,0,.2.1a13.83,13.83,0,0,0,2.15.33c.22,0,.82.15,2.17,2.67a35.58,35.58,0,0,1,2.16,5.5C357.49,544.5,357.66,545.06,357.33,545.61Zm-2.53-16.69s.74.94.53,1.19-1-.13-1.33-.33c-1.42-.79-2-2.56-2.19-3.87,0,.25,0,.43-.06.61l-.65-1.15h0s.36.66.66,1.16l0,.18c0,.15-.05.26-.05.27-.06.3,1.67,3.28,1.49,3.46s-1-.44-2.33-1.66c-.86-.76-1.6-1.5-2.95-2.85s-1.91-1.92-2.05-1.82,2,2.71,1.17,4.67c-.19.44-.6,1-1,1s-.51-.44-.84-1.17c-1.12-2.5-1.48-3.27-2.13-4a5,5,0,0,0-.95-.76c.54-.2,1-.36,1.53-.52l0,0a4.25,4.25,0,0,1-.31-.6c-.17.29-.43.34-.67-.11a.51.51,0,0,1-.23.32.62.62,0,0,1-.75-.34h-.55a.26.26,0,0,1-.06.15.53.53,0,0,1-.39.19.73.73,0,0,1-.35,0c-.06-.13-.06-.16,0-.17a11.46,11.46,0,0,1,2.94,5.18c.19.73.79,3,0,3.5-1.08.68-4-2.5-4.33-2.16-.16.15.2.93,2,3.33l-4.33-8.33-3.17-3.84c-.47-.74-1.13-1.72-2-2.83-2-2.5-4.76-5.36-5-5.17s.32,1.14,1.06,1.34l.2,0a1.62,1.62,0,0,1,1.52,0,1.14,1.14,0,0,1,1.28-.61,2.49,2.49,0,0,1,.77.6,5.74,5.74,0,0,1,.5.83c.25.3.89.48,2.61-.08-.33-1.12-.43-1.42-.44-1.42a4.51,4.51,0,0,0,.44,1.42c.05.11.1.21.14.28a1.16,1.16,0,0,1,1.58-.45,14.9,14.9,0,0,1,2.68,1.31,10.06,10.06,0,0,1-.41-3.08,1.26,1.26,0,0,1,.54-1c-.08-.23-.16-.46-.23-.69a1.52,1.52,0,0,1,1-2.17,8.73,8.73,0,0,1,.37-5.17c.68-1.73-2-4.78-3.27-7.18-.12-.24-.88-.16-1.35-.23a4.16,4.16,0,0,0-.13,1.42c.42,1.41,1,2.75,1.39,4.17.12.51-.3,1.14-.47,1.72-.6-.26-1.66-.45-1.71-.79-.48-3-3.21-5.47-2.19-8.86a4.26,4.26,0,0,0-.43-2.34c-1.64-4.47-3.27-8.94-5-13.36a9,9,0,0,0-2.24-3.5c-4.56-3.85-5.28-9.79-8.43-14.38a11.18,11.18,0,0,0-1.68-1.61,12.37,12.37,0,0,0-.69,2.08c-.45,2.69-.77,5.41-1.31,8.08-.05.3-1.65.63-1.69.54-.64-1.29-2.74-2.55-.18-4.11.35-.21,0-1.87-.35-2.73-.27-.67-1.05-1.13-1.61-1.68a8,8,0,0,0-1.46,2.34,23.37,23.37,0,0,0-.08,3.84,3.08,3.08,0,0,1-.42.93c-.33-.17-.78-.26-1-.53a11.26,11.26,0,0,1-1.9-3.07c-1.32-4.44-4.8-7.38-7.47-10.9-.82-1.08-1.84-2.83-1.46-3.78.7-1.77,2.46-1.14,4.23-.85a7.21,7.21,0,0,0,5.49-1.55c.86-.85.56-3.42,0-5-2.59-7.53-5.59-14.92-8.05-22.48-.52-1.6.6-3.71,1-5.58.58.3,1.42.45,1.69.92,2.88,5.14,5.79,10.27,8.42,15.54.77,1.53.66,3.49,1,5.25-.91-1.29-1.93-2.53-2.71-3.9-1.09-1.9-2-3.91-3-5.87-.51-.51-.72-.73-.94-.93l-1.25-1.07a6.63,6.63,0,0,0,.21,1.8c1,2.35,2,4.72,3.21,7,1.54,2.94,3.35,5.74,4.8,8.72.33.7-.32,1.88-.57,2.82-.16.62-.42,1.21-.63,1.82.49-.09,1.08-.38,1.44-.21a18.85,18.85,0,0,1,2.19,1.54,5.48,5.48,0,0,0,1.25.7,1.29,1.29,0,0,0,.53-.76c0-2.5.07-5,0-7.51,0-.32-1-.53-1.16-.94a15,15,0,0,1-1.13-3.37c-.05-.25.8-.67,1.23-1a11.89,11.89,0,0,0,.52,1.15c1.76,3,3.52,6.07,5.31,9.09.2.33.65.86.83.8,2.94-.85,3,2.14,4.47,3.13a59.71,59.71,0,0,0,8.58,4.66c.44.2,1.85-1.2,2.46-2.09.38-.55.14-1.54,0-2.32a5.87,5.87,0,0,0-.56-1.39c-.41.37-1.17.73-1.17,1.1,0,2.72-1.75,1.61-3,1.25-4.71-1.41-6.84-5.58-7.38-9.38-.12-.81-.46-1.6-.58-2.42-.17-1.14-1-2.57,1.45-2.45,2,.1,1.32-1.29.75-2.16a19,19,0,0,0-2.09-2.12c-2.65-2.84-2.44-6.08-1.33-9.43.39-1.15.85-2.28,1.28-3.42.78,1,1.55,2,2.34,3.06,1.65,2.1,3.26,4.23,5,6.26,1.31,1.52,2.94,1.73,4.27.1.3-.36,2.85-2.32-.61-2.4-.69,0-1.62-1-2-1.78-2-4.3-3.76-8.75-5.92-13a15.44,15.44,0,0,1-2-8.39,5.13,5.13,0,0,1,.31-1c.41.21,1,.32,1.22.65a54.61,54.61,0,0,0,4,5.16,4.93,4.93,0,0,0,3.43,1.18c.85-.06,1.7-1.14,2.4-1.89a1.28,1.28,0,0,0,0-1.31c-.24-.27-.9-.14-1.37-.22-1-.16-2.21-.05-2.86-.59a39.33,39.33,0,0,1-5.33-5.23c-.71-.86-2.51-2.32.05-3.48.17-.08.06-1.69-.33-1.92-5.44-3.15-4.44-8.53-3.54-12.84,1.16-5.57,3-10.9,1.51-16.65-.09-.34.27-.9.58-1.21,2-2.06,1-3.63-.93-4.86-1.71-1.11-3.48-2.45-5.4-2.85-2.6-.54-5.15,2-5.12,4.84,0,3.51-.05,7.11.72,10.49.48,2.1,2.38,3.93,3.8,5.76.22.29,1.28-.05,2-.09-.2-.68-.19-1.59-.64-2a5.22,5.22,0,0,1-1.74-6.3c.83-2.46.85-5.18,1.33-7.76.1-.52.65-1,1-1.44a5.66,5.66,0,0,1,.76,1.46c.65,3.3,1.6,6.6,1.73,9.93.11,3,.15,6.49-1.31,8.86-2.93,4.73-.75,9.27-.8,13.88,0,.34.49.83.37,1-1.64,2.33-.44,4.86-.65,7.28-.41,4.53-.34,8.87,1.83,13,.34.63-.1,1.67-.24,2.51-.28,1.66-.53,3.33-.93,5a11.79,11.79,0,0,1-1,2.16c-.46-.61-1.2-1.18-1.31-1.85-.35-2.07-.26-4.21-.7-6.26-1.05-4.88-2.31-9.72-3.45-14.58a10.45,10.45,0,0,1-.13-2c-.21-6.67-.4-13.34-.61-20a4,4,0,0,0-.2-.81c-.33.29-.65.6-1,.86-.56.42-1.15.8-1.72,1.19a14.19,14.19,0,0,1-.29-2.23c0-2-.22-4.05.29-5.91a17.84,17.84,0,0,0,.69-7.61c-.5-3.51.29-7.18.4-10.79,0-1.1-.57-2.21-.53-3.31a31.13,31.13,0,0,1,.64-7.24c1.07-3.94-.88-6.83-3-9.6-2.41-3.17-2-6.7-1.81-10.18,0-.88,1.45-1.78,2.4-2.43.22-.15,1.3.54,1.64,1.07a1.74,1.74,0,0,1-.34,1.6c-1.3,1.38-1.28,2.29.66,2.94a3.76,3.76,0,0,1,2.84,3.52,22.06,22.06,0,0,0,1.67,5.52c.25.63,1.07,1.05,1.62,1.57.29-.77.93-1.61.8-2.31-.43-2.25-1.16-4.45-1.74-6.68a14.89,14.89,0,0,1-.24-1.63c.61.22,1.54.28,1.78.7,1.58,2.9,3.43,5.76,4.38,8.87,1.08,3.56,1.29,7.38,1.95,11.07.08.44.64.79,1,1.18.27-.38.78-.77.77-1.15-.08-2.4-.24-4.81-.44-7.21s-.52-4.94-.69-7.41c0-.42.39-.87.61-1.31.38.29,1.13.64,1.09.86-.83,4.5,3.83,7,4.11,11.1,0,.66.39,1.75.13,1.92-3.9,2.46-.5,4.79.06,7.14a8.16,8.16,0,0,1,.56,1.83,15.13,15.13,0,0,1-.47,2.63,23,23,0,0,0-1.31-1.91,10,10,0,0,0-1.26-1.06,5.16,5.16,0,0,0-.52,1.43c-.06,2.66,2.07,5.16,4.8,6a6.05,6.05,0,0,1,2.3,1.65,41.54,41.54,0,0,1,4,4.59c.45.63.23,1.73.32,2.61A7.22,7.22,0,0,1,335,369.3c-1.4-1.55-2.6-3.28-3.89-4.92a5.33,5.33,0,0,0-.85-.69c-.07.46-.37,1.05-.18,1.37a25.51,25.51,0,0,0,2.31,3.5A13,13,0,0,1,334.51,382c-.46,1.21-.5,2.56-.93,3.78-.15.41-.91.61-1.39.9a3.66,3.66,0,0,1-.35-1.28c.33-2.42.8-4.82,1.08-7.25a11.59,11.59,0,0,0-.28-2.72,10.52,10.52,0,0,0-2,1.5c-1.61,1.92-3.66,3.82-.82,6.37.31.29.22,1.11.18,1.67-.14,2.08.49,4.28,2.59,4.3,1.14,0,2.47-2.26,3.41-3.68a16.77,16.77,0,0,0,1.37-3.65c.16,1.38.64,2.8.43,4.12-.48,3.11.95,5.71,1.91,8.45.16.44.81.71,1.23,1.06.19-.47.58-1,.51-1.41-.33-2.22-.68-4.44-1.22-6.61-.8-3.23,1.39-6.9,4.56-7.34a1.32,1.32,0,0,1,.88.39,5,5,0,0,1-.51,1.56,13.6,13.6,0,0,1-1,1.48,11.1,11.1,0,0,0,2.13.65c3.05.3,5.84-2.78,6.15-5.66a20.68,20.68,0,0,1,1.15-3.8c1.21,1.21,3.17,2.25,3.5,3.66,1.1,4.81,2,9.69-1.81,14.14-1.2,1.4-1.41,3.8-1.62,5.79-.4,3.75-.47,7.54-.66,11.31a6.43,6.43,0,0,1,0,1.76,28.87,28.87,0,0,1-1.41,3,17,17,0,0,1-.95-2.45c-1-4.71-1.95-9.46-3.09-14.16a15.67,15.67,0,0,0-2-3.92c-.11-.19-.77-.23-1.11-.12-1.09.32-2.49,4.61-1.74,5.52,1.65,2,1.56,4.08.68,6.38-.75,2-1.13,4.07-1.82,6.07-.21.6-.9,1-1.37,1.56a6.3,6.3,0,0,1-.43-1.79,40.8,40.8,0,0,0,.52-4.2c-.07-1.67,2.25-3.85-1.05-5.06-.41-.15,0-2.23-.15-3.38a8.3,8.3,0,0,0-1-2.16c-.45.61-1.24,1.2-1.3,1.85-.17,2,0,4-.07,6-.17,4.6-.41,9.19-.57,13.78a4.47,4.47,0,0,0,.48,1.46c.44-.34,1.1-.61,1.25-1,.22-.62-.05-1.39.09-2.05.09-.4.57-.71.88-1.06.3.35.83.7.86,1.07a49.64,49.64,0,0,1,0,5,52.38,52.38,0,0,0,2.63,18.19,78.55,78.55,0,0,1,2.16,11.26c.11.71-.51,1.54-.79,2.31-.63-.58-1.49-1-1.85-1.75-1.45-2.92-2.59-5.68-2.39-9.32.25-4.55-1.34-9.21-2.19-13.81-.07-.41-.57-.75-.86-1.12-.31.46-.89.93-.87,1.38.11,2.79.27,5.58.58,8.35.29,2.61.71,5.21,1.2,7.8a47,47,0,0,0,1.87,8.12c1.18,3,0,5.27-1.61,7.51-1,1.31-2.34,2.38-3.12,3.78-1,1.72-1.75,3.37-.93,5.75,1,3,.49,6.48,1.47,9.49,1.21,3.71,1.72,7.7,4.52,10.94,1.33,1.54.93,4.42,2.11,6.18a7.7,7.7,0,0,1,1.38,3.44,2.74,2.74,0,0,1,.48,1,2.2,2.2,0,0,1,.63.89l.27.72c.08-.17.16-.33.23-.5a9.72,9.72,0,0,1,1.88,2c2.82,5.84,5.59,11.69,8.21,17.61a.47.47,0,0,1,0,.24,1.82,1.82,0,0,1,.15.27,7.36,7.36,0,0,1,.48,1.68l0,.2a2.69,2.69,0,0,1,.56,1.62c-.14-1.19-.07-.46,0-.1a4.35,4.35,0,0,1,.13.56l.25.09c1.54.79,1.1,5.28.33,5.41S354.72,529,354.8,528.92Zm-90,4.75-.93-2.37a2.28,2.28,0,0,1-.3-1.17c0-.8-.07-1.59-.11-2.38.44.82.91,1.62,1.3,2.46a2.29,2.29,0,0,1,0,.87C264.82,532,264.82,532.81,264.83,533.67Zm-.61-13.18c-.65-4.09-1.23-8.2-1.82-12.3a7.32,7.32,0,0,1,0-1.48,3.94,3.94,0,0,1,.21-.8c.28.22.76.4.82.67.89,4.18,1.73,8.38,2.59,12.58.11,2.05.23,3.52.35,5-.39,0-1.1.13-1.14,0A25.21,25.21,0,0,1,264.22,520.49Zm.89-15.28a10.32,10.32,0,0,1,.07-2.35,11.28,11.28,0,0,1,1.62,1.7c.73,1.16,1.3,2.42,1.93,3.63,1.18,4.43,1.58,8.55,3.4,12.62,1.46,3.25.46,7.55.47,11.39,0,.29-.71.59-1.08.88-.23-.33-.63-.65-.65-1C270.46,522.81,267,514.16,265.11,505.21Zm5,79.21c.42.15,1.2.34,1.19.45a18.67,18.67,0,0,1-.49,2.43c-.45.16-.7,0-.7-.12C270.12,586.26,270.15,585.34,270.15,584.42Zm.7-44.53c.09-2.06.16-3.54.31-5,0-.22.53-.6.59-.56.33.21.82.51.83.8.09,1.67.07,3.35.08,5Zm4.93,35c-.92.33-1.56,1.43-2.32,2.18-.55.55-1.09,1.12-1.64,1.67a10.91,10.91,0,0,1-.32-2.45,5.17,5.17,0,0,1,.85-1.69m1-8.48c.07-.56.62-1.07,1-1.6.47.5,1.12.93,1.35,1.52m12.14-18.48c1.07,1.73,2.32,3.37,3.27,5.16.33.6,0,1.54,0,2.32a6.48,6.48,0,0,1-2.19-1.13,9,9,0,0,1-1.07-2.5c-.2-.5-.49-1.44-.67-1.42-2.7.24-2.68-2.49-4.15-3.54-.81-2.82-1.66-5-2.38-7.29a7.39,7.39,0,0,1-.06-2.16,8.43,8.43,0,0,1,1.81,1.58C284.16,541.5,285.92,544.53,287.76,547.52Zm-4.69-20.22a5.79,5.79,0,0,1,.78-.08c.32,1.26.6,2.52.88,3.79-.57.22-1.06.19-1.08.08C283.41,529.83,283.25,528.57,283.07,527.3Zm29.45,24.05a8.69,8.69,0,0,1,1.21-1.68c.19.65.65,1.36.54,2-.5,2.63-1.17,5.22-1.77,7.83-.81,1.17-1.22,2.12-1.85,2.9-.34.42-1,.56-1.6.82-.09-.61-.42-1.3-.24-1.83C310,558,311.23,554.66,312.52,551.35Zm1.28-36.58c.14,0,.45.7.49,1.09M308,540.28c0,.61-.1,3.9-.35,10.48a12.56,12.56,0,0,1-1,4.52c-.72,1.72-2,3.53-2.38,3.36s.6-2.67,1-5.81c.86-7.48,1.05-15,3.49-22.28.5-1.48.86-3,1.38-4.47.16-.46.64-.81,1-1.21C308.24,531.72,307.82,536.82,308,540.28Zm-2.29,23,3.32-51-1.36-.89c-.6-2.59-1.24-4.58-1.78-6.59-.11-.41.14-.9.22-1.36.48.24,1.23.37,1.4.75a54.88,54.88,0,0,1,2.5,6.29C310.16,511,309.38,511.73,309,512.34Zm-.27-15.26c-1.6-1.78-3.16-3.59-4.7-5.42a3.9,3.9,0,0,1-.43-1.13l1.63.18c1.61,2,2.94,3.72,4.2,5.47.25.34.2.89.3,1.35C309.42,497.38,309,497.33,308.76,497.08Zm-6.24,20c-.26-.07-.62-.06-.79-.23a15.4,15.4,0,0,1-1.89-2.16c-1.46-2.24-2.83-4.53-4.24-6.79.48-.72,1.3-1,1.39-.92,2,3,3.86,6,5.72,9.12C302.84,516.32,302.59,516.75,302.52,517.08ZM295,547.42c-.11-.37.2-.87.31-1.3.33.14.81.19,1,.44,1.7,2.36,4.59,4.28,3.2,7.85a4,4,0,0,1-1.86.46Q296.23,551.18,295,547.42Zm.58,13.81a3.94,3.94,0,0,1-1.07-1.92c.34,0,1,0,1,.09A13.94,13.94,0,0,1,295.6,561.23Zm3.2-1.34a28.6,28.6,0,0,1,1-2.81,3.43,3.43,0,0,1,1.42-1.48c.13.51.47,1.08.35,1.54a14.51,14.51,0,0,1-1.21,3.32c-.25.47-1,.69-1.51,1A5.37,5.37,0,0,1,298.8,559.89Zm-2-46.19c1.5,2.63,3.4,5.17,4.24,8,.64,2.18,0,4.74-.22,7.12,0,.21-.72.59-.78.54a4.81,4.81,0,0,1-1.37-1.49c-.7-1.69-1.24-3.44-1.85-5.16-.6-3.2-1.24-5.8-1.77-8.43-.08-.39.36-.89.56-1.35C296,513.19,296.57,513.34,296.78,513.7Zm.13,27.84c-.11.74,1.1,1.66,1.7,2.5-.6.68-1.56,1-1.74.8a11.52,11.52,0,0,1-1.77-3.1c-1.08-2.92-2-5.88-3-8.84a3.1,3.1,0,0,1-.11-1.42,15.11,15.11,0,0,1,.57-2,12.89,12.89,0,0,1,1.2,1.71C295.4,534.48,297.47,537.57,296.91,541.54Zm-4,20.11c.24.65.24,2-.1,2.15-2.41,1.23-6.72-1.56-6.9-4.35a10.17,10.17,0,0,1,.2-3.68,1.72,1.72,0,0,1,1.43-.13,51.71,51.71,0,0,1,3.76,3.79A7.64,7.64,0,0,1,292.94,561.65Zm-4.55,12.89c-1.52.23-3,.41-4.57.61m-.09-23.33c2.12,2-.07,3.18-.27,4.72-.41-.24-1.07-.4-1.2-.75q-2.75-7.74-5.37-15.52c-.44-1.3-.81-2.62-1.22-3.93a18,18,0,0,1,0-2.07c.11-.8.29-1.58.45-2.38.61.66,1.57,1.22,1.76,2a60.22,60.22,0,0,1,1.93,9.24A13.12,13.12,0,0,0,283.73,551.82Zm-5.9.75c.83,2.12,2.45,3.93,3.51,6a19.85,19.85,0,0,1,1.53,4.41c.1.43-.43,1-.67,1.52-.56-.4-1.4-.7-1.65-1.24-.92-2.09-1.59-4.29-2.54-6.37-.13-.29-1.53-.43-1.9-.13-1.65,1.4-2.17.28-2.2-1-.12-4.07-.06-8.16,0-12.24,0-.22.38-.43.58-.64C275.76,545.91,276.56,549.33,277.83,552.57Zm24.83,16.87c-.88,4.28-1.75,4.66-1.57,7,.1,1.46.5,2.31,0,3.35a4.43,4.43,0,0,1-2.65,1.84c-3.8,1.35-7.5,2.21-11.69,1.33-2.25-.48-4.84.72-7.29,1s-3.88-.3-3.85-3.33,1.46-3.28,3.74-3.17c1.19.06,1.79-.08,2.71,0a23.67,23.67,0,0,0,12.15-2.24,17.25,17.25,0,0,0,5.67-4.84c2.4-3.2,2.95-6.43,3.33-6.33S303.13,567.18,302.66,569.44ZM285.5,587.61c0-.28,3.13.26,8.16,0,3.58-.18,4.52-.58,7.84-.83a53.65,53.65,0,0,1,9.83.16,7.66,7.66,0,0,1-3.33,2.5,14.23,14.23,0,0,1-4.16.46c-3.78.14-3.24-.17-4.84,0a11.16,11.16,0,0,1-3.87,0l-.34-.07C288.57,588.51,285.47,587.84,285.5,587.61Zm28.81-10.39-1.81,11.56a16.75,16.75,0,0,1,3.66-1.67c1.7-.29,2.44.36,5.34.83a25.55,25.55,0,0,0,3.83.34c1.87.73,2.75,1,3.18,1.14a1.78,1.78,0,0,1,.38.12c.37.17.72.47,1.08.68-.45.31-.87.85-1.34.89a34.18,34.18,0,0,1-4.59,0c-1.65-.4-4-.48-8.71-.66a50.2,50.2,0,0,0-6.17.17C309.93,590.17,311.08,589.52,312.5,588.78Zm29.16-37.5c1.66,6.91,2.5,10.36,3.17,11.66s1.3,2.29.83,3c-.56.88-2.28.24-7.09.39a4.18,4.18,0,0,1-1.59-.06,12.14,12.14,0,0,1-5.81-3.25,12.69,12.69,0,0,1-3.51-5.41c-.68-2.22-.06-2.71-.16-8-.08-3.75-.39-3.68-.34-6.83.08-4.21.63-3.94.34-6.17-.38-2.82-.5-6.17-.5-6.17h0s-1.9-8-.5-8.66c.81-.37,1.93,2.1,7.33,8.33a17.32,17.32,0,0,1,3.17,5,37,37,0,0,1,2.66,7.17C340.77,546.19,340.43,546.15,341.66,551.28Zm3.1-17.6c.7.22,1,2.3.25,2.72a1.48,1.48,0,0,1-1.85-1A1.62,1.62,0,0,1,344.76,533.68Zm-9.6,42.65c-.08-1.11-.22-2.22-.22-3.33,0-.42.4-.82.48-1.25.16-.83.22-1.68.31-2.52.62.41,1.52.69,1.8,1.25a7.84,7.84,0,0,1,.32,2.6c-.14.73-.28.86-.42,1Zm2,5-1.58-.13C336.12,581.26,336.77,581.11,337.16,581.37Zm-4.15,2a.94.94,0,0,1-.36.5c-1.3-.63-2.57-1.29-3.85-2m.17-10.5a3.72,3.72,0,0,1,.32-1.2,9.39,9.39,0,0,1,1.93-2.45c1.23-.91,2-.5,1.81,1.12-1.15.92-2,1.58-2.84,2.16A4.69,4.69,0,0,1,329,571.46Zm.35-6.05a23.75,23.75,0,0,1-1.43,3.81c-.72.72-1.08,1.27-1.59,1.51a4.42,4.42,0,0,1-1.6.1,12.38,12.38,0,0,1,.39-1.22c.62-1.41,1.23-2.83,1.9-4.22a12.65,12.65,0,0,1,1.05-1.5C328.49,564.4,329.4,565,329.32,565.41ZM326.38,579a2,2,0,0,1-1.81,0c.16-.28.33-.56.49-.85Zm-2-42.39c.08-.23.55-.57.69-1.2a2.64,2.64,0,0,0-.21-1.63c.33,1.61.67,3.22,1,4.83a19,19,0,0,1-.31,2.32,17.93,17.93,0,0,1-1,3.51c-.56,1.61-.5,3.85-3.09,4,.33-1.57.61-3.15,1-4.7C323,541.38,323.6,539,324.35,536.61Zm-3,1.91c-.14.85-.27,1.71-.41,2.56a2,2,0,0,1-1.81.31c.4-.9.77-1.82,1.25-2.67C320.49,538.54,321,538.58,321.36,538.52Zm-2.49,23.11c2.76-.53,1.78-2.56,2.13-4.16.63-2.86,1.53-5.67,2.4-8.47.14-.44.78-.74,1.18-1.11a4.87,4.87,0,0,1,.56,1.66,9.86,9.86,0,0,1-.62,3.57c-1,2.09.76,3.57,1,5.38.18,1.62-1.11,4-2.48,3.5-2.15-.79-2.07.92-2.6,1.75a41.92,41.92,0,0,0-1.86,4c-.2.39-.69.63-1,.93l-.77-1.48a22.14,22.14,0,0,1,1.19-3.06C318.28,563.25,318.41,561.72,318.87,561.63ZM322.45,574c0,.61,0,1.21,0,1.81-.08,1.27-.18,2.55-.27,3.82a24,24,0,0,0,2,2c1.47,1.31,2,1.48,1.94,1.78-.2.89-5.23,0-7.35-.8a1.36,1.36,0,0,1-.83-.66c-.3-.77.7-1.83,1.13-2.3A20,20,0,0,0,322.45,574Zm-.89-7.4a9,9,0,0,1,1.51-.89c.08.91.19,1.81.19,2.72a2.19,2.19,0,0,1-1,.22A20.78,20.78,0,0,1,321.56,566.56Zm7.6-73.83c-.41-.17-1.19-.37-1.18-.5a17,17,0,0,1,.52-2.41A13.06,13.06,0,0,1,329.16,492.73Zm-4.24-9.42c-3.16-4-6.28-8.09-9.4-12.15-.19-2.58-.42-4.56-.53-6.55,0-.26.53-.56.81-.84a7.6,7.6,0,0,1,.42,1c.24,1,.34,2,.66,3a16.15,16.15,0,0,0,4.09,6.64c2.28,2.24,3.67,5.34,5.38,8.11.18.31-.13.9-.21,1.36C325.73,483.67,325.16,483.62,324.92,483.31Zm.17,6.3c-.7-.34-1.61-.52-2.06-1.06-3.36-4-6.63-8.13-9.93-12.21l-1.81-2.22c.62-.78,1.62-1.29,1.79-1.1,4,4.63,8,9.3,11.92,14.06C325.43,487.61,325.08,488.76,325.09,489.61ZM308.27,471l-1.16.51c-.12-.6-.23-1.19-.35-1.78A3.16,3.16,0,0,1,308.27,471ZM291.9,419.18c-.25-4.14-1-8.26-1.52-12.39,0-.36-.19-.72-.21-1.09-.21-5.08-.51-10.17-.54-15.25,0-1.44.77-2.88,1.19-4.32.18,1.36.86,2.88.46,4.05-1.5,4.5,1.74,8.3,1.6,12.54,1.61,5.3,2.66,10.34,2.1,15.55-.34,3.2-.74,6.39-1.25,9.57-.09.57-.86,1-1.32,1.55-.35-.63-1-1.26-1-1.87C291.5,424.73,292.08,421.94,291.9,419.18ZM294.4,378c.75-1.77,1.6-3.49,2.4-5.23,2.83-2.73,1.37-6.1,2.38-8.9.25-.7,0-1.58.08-2.35a1.25,1.25,0,0,1,.82-.79,1.07,1.07,0,0,1,.8.68c.36,3.43,1.4,6.8-1.33,10.08-1.3,1.54-1.41,4.14-1.79,6.3a122.12,122.12,0,0,0-2.05,13.91c-.19,3.15.72,6.36,1.06,9.55.05.46-.3,1-.47,1.44-.44-.34-1.25-.67-1.25-1,0-4.34-2.07-8.36-1.46-12.93C294.06,385.27,292.9,381.54,294.4,378Zm-7.68-46.57c-.35-2.74-.53-5.5-.78-8.26.44,0,1.19-.2,1.28,0a23.49,23.49,0,0,1,2.29,4.67c.89,3.17,1.63,6.15,5.31,7.56,2.51,1,2.05,3.51,1.94,5.63,0,.24-.62.47-1,.65-.65.33-1.32.62-2,.92.49.49.9,1.21,1.5,1.42,2.27.79,2.49,2,1.07,3.75-.57.71-.82,1.68-1.42,2.35a6.63,6.63,0,0,1-1.87,1.05,12.26,12.26,0,0,1-.5-1.74c-.24-1.78-.12-3.67-.7-5.34s-1.41-3.87-4.28-3.09c-.35.1-2.58-.21-1.14-2.11.72-.95.67-2.46,1-3.72A31.67,31.67,0,0,0,286.72,331.46Zm17.48,64.68c-2.26,3.17-4.26,7-2.26,11.32,1.22,2,2.15,3.69,3.07,5.39.3.57.8,1.15.8,1.73a27.07,27.07,0,0,1-.43,3.55c-.64-.94-1.36-1.84-1.92-2.82-1.15-2-2.32-4-3.28-6.07a14,14,0,0,1-1.5-4.7,142.11,142.11,0,0,1-.57-15.43A65.67,65.67,0,0,1,300,378.05a36.14,36.14,0,0,1,1.78-4.95c.45,1.55.85,3.13,1.35,4.67.89,2.79,2.42,5.52,2.62,8.35C305.94,389.42,306.57,392.8,304.2,396.14Zm.45,9.25a2,2,0,0,1-1.21-1l.81-.51C304.39,404.4,304.52,404.9,304.65,405.39Zm-3-47.45a9,9,0,0,1-.56-2.41,5.4,5.4,0,0,1,.64-1.78,5.72,5.72,0,0,1,1.45,1.06,9.63,9.63,0,0,1,.88,2,19.66,19.66,0,0,1,1.12,4.94c0,.4-1,.85-1.53,1.28a10.76,10.76,0,0,1-.79-1.45C302.41,360.37,302,359.16,301.64,357.94Zm4.17,15.14c-.06.63-.7,1.2-1.07,1.79-.4-.45-1.05-.87-1.14-1.37a23.09,23.09,0,0,1-.63-6.2c.13-1.11,1.62-2.07,2.49-3.09.23,1.18.47,2.37.7,3.55C305.86,369.74,306,371.42,305.81,373.08Zm-1.36-20.72a16.49,16.49,0,0,1-1.52-3.43c-.11-.53.75-1.26,1.18-1.91a15.47,15.47,0,0,1,1.9,1.69,4.29,4.29,0,0,1,.45,1.57A6.8,6.8,0,0,1,304.45,352.36Zm1.11-10.08c-1.72-.19-2.83-.41-3.94-.58-.79-.12-1.58-.19-2.37-.28.11-.92,0-2,.44-2.7a2.42,2.42,0,0,1,2.3-.42,39.62,39.62,0,0,1,4.36,3Zm-6,3a13.16,13.16,0,0,1,3-.6c-.27.68-.59,1.34-.81,2-.45,1.4-.79,2.83-1.29,4.2a6.66,6.66,0,0,1-1.11,1.48c-.23-.53-.69-1.08-.63-1.58C298.85,348.93,299.22,347.09,299.52,345.25ZM295,428.37a9.83,9.83,0,0,1,.94-1.31,9,9,0,0,1,.85,1.42c1.93,5,3.86,10.07,5.7,15.13a2.22,2.22,0,0,1-.25,1.95,2.94,2.94,0,0,1-2.2.86c-3.28-.65-4.69-2.46-5.07-6a4.1,4.1,0,0,0-.58-1.24C293.48,435.11,293.31,431.68,295,428.37Zm16.69-5.45c-.2-.31-.1-.8-.13-1.2.51.13,1.35.11,1.49.4a17.67,17.67,0,0,1,1.78,4.87c.2,1.64-.32,3.37-.52,5.06a3.29,3.29,0,0,1-1.67,1.33c0-.67-.37-1.49-.09-2C314.27,428.33,313.38,425.62,311.69,422.92Zm.7-7.64c-.75-2.58-3.28-4.75-2-7.82a5.71,5.71,0,0,1,.78-.59c.84,2.83,1.69,5.65,2.54,8.48C313.25,415.33,312.43,415.42,312.39,415.28ZM309.78,398a1.73,1.73,0,0,1-.29-1.18c.12-.6.3-1.19.46-1.78.25.31.66.59.71.93a25.39,25.39,0,0,1,.08,2.62Zm-.26,25.25c.62,1.81,1.25,3.61,1.72,5.46.08.31-.59.81-.92,1.23l-.84-1.42c-.4-2-.83-3.39-1.17-4.81-.06-.22.26-.61.51-.79A.85.85,0,0,1,309.52,423.23Zm6,10.28a6.14,6.14,0,0,1,.83-1.71c.52.33,1.36.57,1.5,1,.91,2.88,1.66,5.8,2.47,8.71a3.65,3.65,0,0,1-.42,1.37C318,440,315,437.53,315.55,433.51ZM323.26,414c.32.18.79.29.94.56,1,1.76,1.87,3.55,2.79,5.33l-1.21.33a57.4,57.4,0,0,1-3-5.09C322.68,414.87,323.09,414.37,323.26,414Zm-8.35-53.62a3.27,3.27,0,0,1-1.62,1.36c.14-.65.28-1.31.43-2ZM321,316.81c-.43-.45-1.21-.89-1.21-1.34a10.49,10.49,0,0,1,.67-2.66l1.67,1.33A12.71,12.71,0,0,1,321,316.81Zm2.09,4.2c.08.67.17,1.34.25,2a5.35,5.35,0,0,1-2.06-1.54Zm4.79-31.54c1,.36,2.41-.38,3.64-.48a4.42,4.42,0,0,1,1.48.46,3.81,3.81,0,0,1-1,.72c-1.85.62-3.72,1.18-5.58,1.75l-4,1.18a19,19,0,0,1-3.85,1.16c-.37.07-.81-.21-1.22-.33.21-.41.32-1,.66-1.19C321.11,291.07,323.63,287.93,327.91,289.47Zm-8.14-3.53a24.45,24.45,0,0,1-3-2c.63-.82,1.24-1.65,1.9-2.43.45-.53,1-1,1.48-1.48,1-1.08,1.71-1.81,2.75.15a3.64,3.64,0,0,0,3,1.59c3-.79,2.23,1.75,2.87,2.95.07.13-1,.84-1.46,1.28-1.53-3.43-3,.26-4.5,0a1.51,1.51,0,0,0-.3,0C321.15,286,320.33,286.22,319.77,285.94ZM342,278.67c.3-.34.4-.87.72-1.17.61-.58,1.32-1.06,2-1.58.06,1,.56,2.37.1,2.83a22.6,22.6,0,0,1-6,4.75c-2.15,1-4.81.91-7.24,1.31a3.76,3.76,0,0,1,3.71-5.33,1.18,1.18,0,0,1,.57.07C338.91,281.51,339.55,281.43,342,278.67Zm-2.78-.54.77-1.62a2,2,0,0,1,.21,1.52C340.16,278.12,339.54,278.1,339.2,278.13Zm5.82,5.16c.05.44.15,1.14-.09,1.32a28.8,28.8,0,0,1-2.85,1.68,11.23,11.23,0,0,1,2.22-3.24C344.37,283,345,283.17,345,283.29ZM338.23,312c-.83-.37-2-.54-2.38-1.16s0-1.67.1-2.54l1.9,1.1A26.24,26.24,0,0,0,338.23,312Zm-4.8.76v2.17l-1-.79A2.7,2.7,0,0,1,333.43,312.76Zm-2.82,2c.2,1.87.42,3.14.58,4.41,0,.16-.23.36-.36.54-.48-.77-1.39-1.59-1.31-2.31S328.17,314.71,330.61,314.73Zm.52,11.56c.63-1.35,1.18-2.74,1.92-4,.64-1.14,1.52-2.14,2.23-3.25a5.24,5.24,0,0,0,.74-1.76,24,24,0,0,0,.2-2.69c1.51.4,4.22.63,4.31,1.25.5,3.27,3.89,4,5.22,6.46,2.24,4.15,4.67,8.21,7.24,12.16,1.35,2.08,3.29,3.77,4.76,5.79,1.74,2.4,3.32,4.91,4.82,7.46a20,20,0,0,1,1.79,4.3c.13.42-.4,1-.62,1.56a5.7,5.7,0,0,1-1.29-1.07c-2.95-4.43-5.84-8.89-8.78-13.31-.62-.94-1.2-2.17-2.12-2.6-5.76-2.65-6.63-8.35-8.93-13.2a17.55,17.55,0,0,0-3.35-4.2c-.36-.38-1.19-.34-1.8-.49-.08.56-.37,1.21-.19,1.68,2.26,5.85,4.54,11.67,8.63,16.66,1.27,1.55,1.55,3.89,2.19,5.89.57,1.75,1,3.54,1.53,5.31a4.73,4.73,0,0,0,1.5-2.25c.15-.42.24-.87.36-1.31.54.16,1.28.14,1.59.48,4.95,5.57,9.61,11.35,11.72,18.62a32.67,32.67,0,0,1,.79,6.19c0,.44-.35.92-.55,1.38-.41-.37-1.08-.67-1.18-1.1-.69-2.9-1.24-5.82-1.87-8.73a10.64,10.64,0,0,0-.52-1.43c-.43.45-1.24.92-1.21,1.34.1,1.88.42,3.75.7,5.62,0,.25.46.51.41.7-.65,2.57.74,4.37,2.28,6.16.33.38.3,1.07.43,1.62-.62-.05-1.54.15-1.83-.18-1.45-1.66-2.35-3.69-4.38-5-.7-.46-.5-2.28-.7-3.48-1.13-6.93-3.75-13.08-9.84-17.23a3.88,3.88,0,0,0-3.22,0c-1.44.65-2.1.48-2.65-.94-1.15-3-2.39-5.94-3.61-8.9-1.75-4.28-3.41-8.53-7.93-11-2.26-1.23-3.15-3.58-2.91-6.17,0-.36.39-.7.59-1.05.4.25.94.42,1.17.78C329.61,323.62,330.35,325,331.13,326.29Zm16.55-49.78c-.46-.69-.92-1.38-1.37-2.07a20.68,20.68,0,0,1,1-3.15,11.81,11.81,0,0,1,.75,2.58A11.55,11.55,0,0,1,347.68,276.51Zm.71,3.56c0,.79,0,1.58,0,2.37a3.34,3.34,0,0,1-.57-2.37Zm1.54-15.1,1.33-.9-.12,2.07C348.86,267.38,350.37,265.53,349.93,265Zm2.43,24.91c-.3.66-.52,1.36-.77,2a4,4,0,0,1-.43-1.17c0-1.16-.37-2.69,1.79-2.09A3.56,3.56,0,0,1,352.36,289.88Zm.55,15.21a18.81,18.81,0,0,1-.26,2.23c-.71-.34-.94-.71-.88-1a13.27,13.27,0,0,1,.56-1.93C352.53,304.6,352.92,304.85,352.91,305.09Zm29.6,86.55c1.14,3.41-1.54,6.07-1.95,9.18-.2,1.51-.26,3-.46,4.54a9.44,9.44,0,0,1-.64,2.69c-.22.5-.91.8-1.4,1.19a5.75,5.75,0,0,1-.34-1.58c.26-3.23.58-6.45.88-9.68.91-2.31,1.48-4.34,2.14-6.34a6.07,6.07,0,0,1,.88-1.36A6.49,6.49,0,0,1,382.51,391.64Zm-.36-22.27a18.52,18.52,0,0,1,.33-3.38l.95.59a2.23,2.23,0,0,1,.31,1.18c0,.79.06,1.58.1,2.37C383.24,369.88,382.16,369.66,382.15,369.37Zm-5.65,52.34c.43-.62.91-1.2,1.36-1.8.15.69.3,1.38.44,2.07a30.8,30.8,0,0,1-.86,4.33c0,.12-.88,0-1.35,0,.14-1.35.27-2.7.4-4C376.51,422.09,376.41,421.85,376.5,421.71Zm0,24c.63-1.71,1.38-3.37,2.08-5.05a13.53,13.53,0,0,0,.93-2.69c.4.14,1.12.24,1.14.4a10.76,10.76,0,0,1-2.76,8.27c-.25.28-.8.3-1.22.44C376.63,446.6,376.38,446.07,376.52,445.69Zm3.89-29.93c-2.05-2.75.76-4.48.8-6.66,0-.16.62-.3,1-.45.12.32.42.7.34,1C381.85,411.68,381.12,413.71,380.41,415.76Zm-2.23-36.32c-.56-.44-1.52-.8-1.63-1.33-1.1-5.56-2.09-11.14-3-16.73-.07-.4.38-.88.59-1.32a4.84,4.84,0,0,1,.9,1.23c.55,1.85,1,3.72,1.49,5.58.63,3.38,1.25,6.17,1.89,9a7.58,7.58,0,0,1,.48,1.84A6,6,0,0,1,378.18,379.44Zm-3.73,16.11c.76,3.34-.84,7.19-1.37,10.82l-.21,1.39a8.59,8.59,0,0,0,1.81,1.59,6.63,6.63,0,0,1-.8.46,14.58,14.58,0,0,1-1-1.46c-3-2.45-3-6-4.18-9.05-.1-.26.45-.77.7-1.16a7.88,7.88,0,0,1,1.05,1c.61.9,1.14,1.85,1.71,2.78.06-1.21.45-2.52.11-3.61-2.21-7.11-3.65-14.33-3-21.8.13-1.36,1-2.66,1.51-4,.49,1.38,1.41,2.76,1.38,4.13A78.6,78.6,0,0,0,374.45,395.55Zm1.37,40.81c-.68,3.13-1.54,6.22-2.35,9.32a13,13,0,0,1-1.52,3.78c-.3.42-1.17.46-1.78.67.07-.48.11-.95.22-1.41,1-4.19,2-8.39,3.12-12.56.14-.54.74-1,1.13-1.44C375.06,435.27,375.91,435.91,375.82,436.36ZM371,344.64c-.79-2.48-1.53-5-2.19-7.47-.05-.19.52-.75.79-.74s.72.44.83.77c.67,2.18,1.26,4.38,1.89,6.57A2.13,2.13,0,0,1,371,344.64Zm-1.15,5.57c.71,3.07,1.34,6.17,1.81,9.29a7.66,7.66,0,0,1-.6,2.68,18.64,18.64,0,0,1-1.89-2A13.61,13.61,0,0,1,368,358c-.2-3-.45-5.42-.56-7.83,0-.44.55-.91.85-1.36C368.84,349.27,369.67,349.66,369.8,350.21Zm-2.08,62.53a7.3,7.3,0,0,0,1.65.23l-.73-2.84c0-1.4,0-2.21.06-3a8.27,8.27,0,0,1,1.72,1.48c.79,1.12,1.14,2.67,2.14,3.5,2.85,2.37,1.38,4.46-.36,6.27-1,1.07-1.72,3.68-3.78,2.61a4.62,4.62,0,0,1-2.22-4.9,8.4,8.4,0,0,0-.16-2l-.21-2.39A13.43,13.43,0,0,0,367.72,412.74Zm-13.54,34.44c-.41.28-.61.82-1,1.19s-.82.74-1.23,1.11c-.08-.69-.47-1.58-.17-2,2.11-3.09,4.4-6,6.54-9.11.77-1.11,1.31-2.2,2.44-.37C359.78,442.32,357.3,445,354.18,447.18Zm3.56,2.95-1.17-.51c.4-.52.8-1.05,1.21-1.57A4.89,4.89,0,0,1,357.74,450.13Zm-4.39,40.29c.27.27.72.52.77.83a17.26,17.26,0,0,1,.07,2.39l-1.24-.56A26.78,26.78,0,0,1,353.35,490.42Zm-.4-6.22a.78.78,0,0,1,1.14.33c.09.27-.44.76-.7,1.15C353.25,485.18,353.1,484.69,353,484.2Zm-3-46c.1,1.26.71,2.48.94,3.74a2.72,2.72,0,0,1-.26,1.78,9.2,9.2,0,0,1-1.67,1.69c-.61.56-1.25,1.09-1.87,1.64-.18-.94-.41-1.87-.53-2.82a38.2,38.2,0,0,0-.65-5.38c-.68-2.45-2.37-4.76-2.52-7.2a125.68,125.68,0,0,1,0-18.1c.2-2.49,2.57-4.77,1.06-7.6l1.49-.27c1.11,3.31,1.7,6.41,2.78,9.33a67.35,67.35,0,0,0,4.14,8.66c1,1.8,1.67,3.52.61,5.45-.21.37-.73.57-1.11.85-.23-.33-.63-.65-.65-1-.07-1.38,0-2.76-.06-4.14a4.72,4.72,0,0,0-.53-1.4c-.39.27-.95.45-1.13.82a5.57,5.57,0,0,0-.69,2.36C349.48,430.5,349.66,434.36,350,438.21Zm0,12.1c-.39,1.41-.77,2.81-1.19,4.2a2.88,2.88,0,0,1-.77-.12c0-1.33.09-2.65.15-4a5.18,5.18,0,0,1,1.81-.4A1.4,1.4,0,0,1,349.93,450.31Zm-4.28,6.13a44.13,44.13,0,0,1-.61,6.49c-.13.72-1,1.33-1.47,2a9.89,9.89,0,0,1-.86-2c-.41-2.23-1.51-4.55.58-6.58a6.29,6.29,0,0,1,1.41-2.08C345,455,345.66,455.73,345.65,456.44Zm6.09-19.05a5.65,5.65,0,0,1,1-1.95,24.31,24.31,0,0,1,.72,3.45c0,.36-.68.77-1.05,1.16a12.7,12.7,0,0,1-.68-1.51A4,4,0,0,1,351.74,437.39Zm3.24-2.76c0-1.74,0-3.47,0-5.21,1.11,1.57,2.25,3.13,3.33,4.72.14.21,0,.58,0,.88l-2.2,2.07c-.33-.75-.66-1.5-1-2.25C355.14,434.76,355,434.7,355,434.63Zm5.42-5.89c-.19.11-1-.29-1.15-.62-1.54-3.59-3.1-7.17-4.41-10.85-.25-.7.62-1.79,1-2.7.46.71.93,1.41,1.37,2.12.52.87,1,1.75,1.51,2.62,3,2.36,1.71,5.58,2.66,8.16C361.45,427.77,360.84,428.47,360.4,428.74Zm-3.79-31.48c0-.36.51-.78.89-1,.11-.06.79.42.85.71.65,3.66,1.32,7.32,1.78,11,.09.77-.62,1.63-.95,2.46-.47-.7-1.22-1.35-1.35-2.1-.36-2.14-.46-4.33-.66-6.5A19.6,19.6,0,0,1,356.61,397.26Zm4.91,13.83c.51-.62.28-1.81.5-2.71a8.33,8.33,0,0,1,.72-1.51c.36.51,1,1,1,1.53.13,1.75.05,3.52.05,5.28s-.29,2.77-.44,3.86a20.14,20.14,0,0,0-1.84-2.5C360.14,413.66,360.31,412.53,361.52,411.09Zm-1.44-21.72c.64-2.82,0-5.9.16-8.85a8.9,8.9,0,0,1,1.07-2.68,10.93,10.93,0,0,1,1.26,2.51c1.17,5.26,2.23,10.54,3.32,15.82.24,1.19.43,2.39.64,3.59a30.64,30.64,0,0,1,.28,5.62,6,6,0,0,1-.45,1.49c-.47-.32-1.15-.53-1.38-1C362.29,400.71,358.62,395.89,360.08,389.37Zm6.15-8.55c.11-.8.25-1.59.38-2.39a6.13,6.13,0,0,1,.75.24c-.25,1.11-.54,2.21-.83,3.31A1.89,1.89,0,0,1,366.23,380.82Zm.1-45.05a10.77,10.77,0,0,1-1.29-1.6c-1.33-2.59-2.71-5.17-3.83-7.85a11.22,11.22,0,0,1-.29-3.41l2.29,1.89c2.37,2.89,4.23,5.46,4.17,8.88C367.37,334.38,366.7,335.07,366.33,335.77Zm-15.5,5.92c-.37-.56-.5-.83-.49-1.09,0-.82.05-1.64.09-2.46.64.54,1.6,1,1.83,1.65C352.57,340.69,352.7,342.08,350.83,341.69Zm2.45,25.43c-2.19-4.6-4.28-9.26-6.34-13.92-.16-.36.13-.91.2-1.37.49.23,1.16.34,1.42.72.93,1.37,1.73,2.83,2.58,4.25,1.61,3.3,2.95,6.29,4.18,9.33.18.44-.16,1.08-.26,1.63C354.45,367.55,353.47,367.52,353.28,367.12Zm.73,6.42c-.36-.13-.93-.16-1-.39-.42-1-1.69-2.25.57-2.72A12.92,12.92,0,0,1,354,373.54Zm-5.29-3.11a20.64,20.64,0,0,1-1.1,3.26,7.26,7.26,0,0,1-1.33-2.15c-.51-2.55-.84-5.15-1.15-7.74-.05-.36.43-.78.66-1.17.36.21.83.35,1,.65a7.75,7.75,0,0,1,1.25,2.42C348.42,367.25,348.52,368.85,348.72,370.43Zm-6.1-3.16c.13.68-.55,1.51-.85,2.27-.5-.47-1-.92-1.49-1.42-1.78-1.94-3.82-3.71-5.21-5.89a23,23,0,0,1-3.16-7.26,90.66,90.66,0,0,1-1.27-10.83,6.58,6.58,0,0,1,.36-1.86c.68.3,1.64.42,2,.94,2.51,3.74,4.46,7.69,3.67,12.4C341.76,358.26,341.82,363,342.62,367.27ZM339,371.61c.9-1.8,1.71-1.51,2.77-.29.9,2.31,1.92,4.33,1.94,6.35,0,1-1.77,2.08-2.74,3.13-.67-.72-1.37-1.4-2-2.16C337.09,376.3,337.82,374,339,371.61Zm-12.08-56c0,.35-.77.61-1.18.91a21,21,0,0,1-.51-3.58c0-.62.66-1.23,1-1.84l.43.41A13.4,13.4,0,0,1,326.93,315.57Zm28.73,166a23,23,0,0,1,.95-5.36c.08-.26.68-.49,1.06-.52.22,0,.71.51.68.58C357.37,478,358.46,480.71,355.66,481.53Zm5.2-24.67a43,43,0,0,1-3,3.5,7.73,7.73,0,0,1-1.61,1c-.1-.64-.47-1.4-.25-1.91a14.56,14.56,0,0,1,1.76-2.53c1.61-2.59,3.35-4.51,4.75-6.64.47-.72.06-2,.08-3a38.69,38.69,0,0,1,.27-5.91c.1-.56,1.52-.9,2.34-1.34a9.44,9.44,0,0,1,1,2.19C367.18,448.07,364.12,452.51,360.86,456.86Zm7.76-.51c-.65,1.29-1.35,2.55-2.08,3.8-.05.08-.51-.07-.78-.12l1.37-4a2.34,2.34,0,0,1,1.32-.45A.91.91,0,0,1,368.62,456.35Zm.51-16.35c-.33.05-1.06-.36-1-.51.44-4.54-1.4-9.37,1.24-13.6,1.11-1.78,3.14-3,4.75-4.5-.81,2.72-1.86,4.79-2.36,7-.81,3.54-1.25,7.16-1.89,10.73C369.76,439.45,369.41,440,369.13,440Zm2.14,24.3c-.24.2-.89-.11-1.35-.18l1.74-2.44a3.3,3.3,0,0,1,1.81.43A21.65,21.65,0,0,1,371.27,464.3ZM381.9,448c-.75,1.13-1.43,3-2.39,3.15-1.88.33-2.06,1.2-2.52,2.68a18.39,18.39,0,0,1-2.82,4.73c-.25.34-1,.31-1.58.45-.07-.52-.35-1.13-.18-1.57.68-1.78,1.53-3.5,2.26-5.27s1.21-3.84,4-2.74c.14.06.55-.51.83-.79a24.91,24.91,0,0,1,2.18-1.41C381.77,447.49,382,447.85,381.9,448Zm2.41-6.31a7.29,7.29,0,0,1-1.18,2.17c-.15.21-.66.22-1,.2-.08,0-.21-.5-.18-.76.38-3.88.69-7.78,1.25-11.63.12-.83,1.05-1.66,1.8-2.24a8.49,8.49,0,0,1,2.36-.93C386.55,433.1,385.47,437.4,384.31,441.69Zm.63-17.34a4.76,4.76,0,0,1,.76,2.22c-.25-.07-.71-.13-.72-.23A18.88,18.88,0,0,1,384.94,424.35Zm2.48-15.65a14.1,14.1,0,0,1,1.29-2.42l.46.89a15.72,15.72,0,0,1-.74,2.66C388.07,409.45,387.34,409,387.42,408.7Zm3,13.87a12.32,12.32,0,0,1-1.12,2.67c-.44-.73-1.23-1.46-1.23-2.2a32.62,32.62,0,0,1,.59-5.64c.07-.4.79-.7,1.21-1,.38.49,1.1,1,1.09,1.46C390.88,419.4,390.58,421,390.38,422.57Zm1.84-22.84c0-.59.55-1.15.84-1.72.32.55.89,1.09.9,1.64.07,4.86.12,9.74-.06,14.6,0,.72-1.31,1.4-2,2.1C391.78,410.61,392,405.17,392.22,399.73Zm-1.72-23.17a13.33,13.33,0,0,1,.44,3.63c0,.39-.46.8-.7,1.2-.16-.49-.31-1-.47-1.48a13.91,13.91,0,0,1-.6-3.11c-.08-.64-.16-1.28-.25-1.93C389.47,375.43,390.29,375.9,390.5,376.56Zm-.87,13.18a1.18,1.18,0,0,1,.71.87,28.6,28.6,0,0,1,0,2.93c0,2.84,0,5.09,0,7.34a5,5,0,0,1-.38,1.25c-.48-.3-1.35-.59-1.35-.9-.1-3.65-.08-7.3,0-11C388.61,390.07,389.31,389.7,389.63,389.74Zm-9-45.09c.44.43,1.11.78,1.3,1.29,1.47,4,3,8.05,4.21,12.17,1,3.64,1.68,7.4,2.44,11.11a4.3,4.3,0,0,1-.17,1.4c-.33-.38-.84-.71-1-1.15q-2.17-6.36-4.24-12.75c-1.06-3.32-2-6.66-3-10A11,11,0,0,1,380.59,344.65Zm-24.32-39.1a20.22,20.22,0,0,1,4,3.32,111,111,0,0,1,8.18,8.79c1.1,1.42.92,3.73,1.64,5.51,1.2,3,2.72,5.8,4,8.74a42.51,42.51,0,0,1,3.82,16.57c.07,4.68,1.72,9.32,2.53,14a8.4,8.4,0,0,1-.48,2.82,8.55,8.55,0,0,1-1.63-2c-2.36-6.2-2.92-12.72-3.75-19.24a37.29,37.29,0,0,0-3.86-11.7c-2-3.88-5.05-7.2-7.29-11-2.63-4.42-4.92-9-7.25-13.62C355.85,307.16,356.21,306.28,356.27,305.55Zm-1.64,6.51c.54.39,1.35.67,1.57,1.19,1.25,2.92,2.76,5.82,2.15,9.15a5,5,0,0,1-.8,1.44,5,5,0,0,1-1-1.23c-.85-2.61-1.63-5.25-2.44-7.88A23.33,23.33,0,0,1,354.63,312.06Zm-.46,11.59c1.29,1.43,2.64,2.81,3.77,4.34a7.36,7.36,0,0,1,1,2.83c.08.41-.33.92-.51,1.39L356.87,331c-1.44-2.4-2.61-4.49-3.67-6.62-.22-.43,0-1.05-.05-1.59A8.38,8.38,0,0,1,354.17,323.65Zm2.43-59.22c-.9,4-1.6,8-2.49,12-.15.68-.85,1.25-1.3,1.87-.15-.49-.31-1-.47-1.48.41-3.58.69-6.58,1.25-9.54.34-1.77,1.15-3.46,1.67-5.21a4.29,4.29,0,0,0,0-1.38,4.33,4.33,0,0,1-1.07.69,9.51,9.51,0,0,1-1.7.15c.44-3.64-1.65-7.44.69-10.93A4.5,4.5,0,0,1,355,249.3c.18-.08,1,.54.93.6-1.31,2.88,2.24,6-.53,8.85a1.16,1.16,0,0,0,.19,1C358.57,260.81,357,262.67,356.6,264.43Zm.22-31.73c.18.07.32.44.34.69a22.07,22.07,0,0,0,.36,4c1.09,3.78,2.37,7.51,3.58,11.26.3.4.32.5.3.6l-.78,3c-.54-1.14-1.45-2.24-1.56-3.41-.22-2.42-1.36-4.35-2.28-6.5-1.17-2.75-.59-6.24-.72-9.41A1.05,1.05,0,0,1,356.82,232.7Zm5.13-54c.13,1.6.05,3.21.05,4.81v3.83a24.19,24.19,0,0,1-1.23,4.21A6.45,6.45,0,0,1,359.6,193c-.21-.55-.62-1.11-.58-1.63.34-4.26.76-8.51,1.19-12.76,0-.36.41-.68.62-1C361.22,177.94,361.92,178.3,362,178.7Zm5.18-107.2a11.63,11.63,0,0,1,.26,3.76c0,.34-.58.63-.9.94a11.9,11.9,0,0,1-.78-3.12C365.72,72.55,366.63,72,367.13,71.5Zm-21.81,86.62c1.23-3.05,2.68-6,3.74-9.13.41-1.2-.15-2.69,0-4,.26-2.34.33-4.81,1.16-7,1.56-4.08,3.61-8,5.45-12a100.68,100.68,0,0,0,3.88-9.79c.81-2.56,2.45-5.18,0-7.89a3.31,3.31,0,0,1-.28-2.91c1.09-2.51,2.68-4.83,3.7-7.37.79-2,.92-4.15,1.53-6.19a8,8,0,0,1,1.48-2,7.2,7.2,0,0,1,.86,2,12.26,12.26,0,0,1-2.82,9.51c-.52.62-.44,1.71-.64,2.58a14.18,14.18,0,0,1,1.89-.9,5.18,5.18,0,0,1,1.42,0c-.14.39-.29.77-.42,1.16q-4.94,14.73-9.85,29.45c-.23.7-.17,1.5-.45,2.18a4.11,4.11,0,0,1-1.09,1.4c-2.94-1.71-1.85,1.38-2.4,2.14-.77,1.06-.9,2.56-1.3,3.88-.12.38-.23.75-.34,1.13.31-.23.62-.47.94-.69.51-.35,1-.68,1.55-1a10.87,10.87,0,0,1-.13,1.81c-.44,1.79-1.28,3.54-1.35,5.34-.16,4-3.47,6.1-5.07,9.21-.19.37-.93.48-1.41.71A4.48,4.48,0,0,1,345.32,158.12Zm-.91-54.3a18.84,18.84,0,0,1-.38,3.23c-.45-.31-1.17-.53-1.29-.93a8.6,8.6,0,0,1-.06-2.33C343.29,103.4,344.4,103.59,344.41,103.82Zm-1.75,126.71c-.16.1-1.12-.54-1.13-.87-.28-5.24-.5-10.48-.63-15.72,0-2-.12-3.39-2.73-4-1.71-.37-3.63-1.47-2.87-4.46.82-3.21.5-6.7.78-10.07a3.84,3.84,0,0,1,1-1.94,4.65,4.65,0,0,1,1.45-.77c0,.55,0,1.1,0,1.64,0,1.08-.42,2.34,0,3.18.62,1.2,1.74,2.7,2.88,2.92.83.16,2.59-1.35,3-2.43,2.4-6.83,4.49-13.76,6.76-20.63a33.3,33.3,0,0,1,1.92-4c-.24,1.32-.54,2.63-.73,4-.43,3-.71,6-1.24,9-.73,4.12-1.7,8.19-2.42,12.31-.88,5-1.64,10-2.36,15-.33,2.26-.43,4.56-.63,6.85C347.3,225,346.22,228.48,342.66,230.53Zm-6-88.49c0-.41.46-.81.7-1.22.36.41,1,.8,1,1.23.12,1.66,0,3.33,0,5a6.67,6.67,0,0,1-1.75.66C336.69,145.81,336.62,143.93,336.68,142Zm0-4.48a20.15,20.15,0,0,1-1.17-4.35c-.05-.39.41-.85.63-1.28.44.35,1.19.66,1.25,1.06.22,1.57.23,3.17.31,4.75Zm7.15,30.89a91,91,0,0,1-1.88,9.52c-.12.51-.75.91-1.14,1.37-.17-.48-.53-1-.48-1.44.34-2.78.77-5.56,1.18-8.34a7.9,7.9,0,0,1,0-1.18c.36-1.29.73-2.57,1.1-3.86C344.87,165.24,344,167.18,343.8,168.45Zm-2.88-75.59c.06-.44.64-.81,1-1.22.26.39.72.77.74,1.18a48.86,48.86,0,0,1,0,5,5.15,5.15,0,0,1-.67,1.54,10.42,10.42,0,0,1-1.08-1.51,3,3,0,0,1,0-1.16A30.39,30.39,0,0,1,340.92,92.86Zm-.2,36.26.15,1.33a1.49,1.49,0,0,1-1.15-.64Zm-.51-82.46c-.29,2.58-.71,5.15-1.19,7.7-.07.37-.69.64-1,1-.24-.39-.68-.78-.68-1.17,0-1.13.16-2.26.26-3.39a36.47,36.47,0,0,0,.93-4.14,4.38,4.38,0,0,1,.74-1.2C339.57,45.84,340.26,46.29,340.21,46.66Zm-2.54-6a7.71,7.71,0,0,1-.37-2.38,25.48,25.48,0,0,1,1-3.54l.72,3.26A10.85,10.85,0,0,1,337.67,40.68Zm-1-17.48c.81-.69,1.32-1.08,1.83-1.48.19.55.71,1.25.53,1.63-.72,1.49-1.65,2.87-2.5,4.3Zm.56,47.7a11,11,0,0,1,1.21,2.55,79,79,0,0,1,1.19,8.36,16.22,16.22,0,0,1-.58,4.46,7,7,0,0,1-1,1.82c-.26-.69-.51-1.39-.77-2.08-.4-4.56-.88-8.52-1.14-12.49C336.05,72.67,336.82,71.78,337.21,70.9Zm-.7,24.3c.45.62,1.19,1.19,1.29,1.86.52,3.35.93,6.73,1.21,10.11.06.72-.57,1.48-.88,2.22-.49-.78-1.33-1.52-1.42-2.35-.36-3-.47-6.11-.67-9.18A23.1,23.1,0,0,1,336.51,95.2Zm-2.6-37.94c-.21-.21-.44-.4-.63-.63s-.83-.76-.82-1.12c.13-3.07.36-6.13.57-9.2a9,9,0,0,1,.43-2.18c.52-1.36,1.08-2.69,1.63-4a34.39,34.39,0,0,1,.31,4.84c-.28,3.78-.76,7.54-1.18,11.31A4.78,4.78,0,0,1,333.91,57.26Zm.18,55.12a13.24,13.24,0,0,1,1.89,3.09,25,25,0,0,1,.63,5c0,.43-.37.89-.57,1.34-.4-.37-1-.67-1.17-1.12-.5-1.47-.84-3-1.24-4.51C333.78,114.55,333.94,113.47,334.09,112.38Zm-1.64,31.24a5.31,5.31,0,0,1,.61-1.61,7.58,7.58,0,0,1,.55,1.69c.84,10,1.75,19.87,4.08,29.67.79,3.3-.35,7-.62,10.58-.13,1.72-.23,3.44-.46,5.15-.06.5-.53,1-.81,1.44-.21-.37-.57-.72-.61-1.11-.18-1.66-.35-3.34-.39-5-.05-2.26.17-4.53,0-6.78-.29-4.08-.77-8.15-1.17-12.23-.4-3.58-1-6.56-1.16-9.57C332.27,151.78,332.4,147.7,332.45,143.62Zm-8.6-77a71,71,0,0,1-.51,8.09c0,.13-.46.23-.7.34a5.38,5.38,0,0,1-.47-1.18c-.23-1.87-.41-3.75-.61-5.63,0-1.48-.07-2.37-.1-3.26C322.3,65.52,323.84,66.05,323.85,66.62Zm-2.13,15.54A6.87,6.87,0,0,1,323,83.88c1.2,3.84,2.32,7.71,3.39,11.59.12.44-.26,1-.4,1.51-.46-.42-1.16-.75-1.34-1.26-1.28-3.61-2.45-7.26-3.66-10.89A15.14,15.14,0,0,1,321.72,82.16ZM320.38,158a5.47,5.47,0,0,1,.42-1.8c.45.52,1.27,1,1.3,1.56.21,3.82.26,7.65.36,11.47A65.94,65.94,0,0,1,320.38,158ZM318,199.87c.13-.61,1-1.05,1.58-1.57.26.68.9,1.48.71,2-1,2.92-2.15,5.77-3.25,8.64A38.39,38.39,0,0,1,318,199.87Zm.09,15c.15.49.3,1,.46,1.48a35.94,35.94,0,0,1-1.27,5.64c-.24.7-1.1,1.19-1.68,1.77-.33-.79-1-1.64-.91-2.35a20.42,20.42,0,0,1,1.5-4.94C316.48,215.82,317.43,215.42,318.08,214.89Zm-3.17,16.89c-2,1.48-3.71,1.24-4.55-.44-1.12-2.25.79-3.74,2.32-5,1.32-1.1,2.64-.39,3.49.8C317.6,229.09,316.21,230.45,314.91,231.78Zm-7.79-29.89c.12,0,.52.3.53.48,0,1.7,0,3.41,0,5.11-.14.73-.27,1-.43,1a3.35,3.35,0,0,1-1-.08c-.06-2-.09-4,0-5.94C306.21,202.24,306.78,202,307.12,201.89Zm-.05-8.63c-.08,1.46-.15,2.32-.22,3.18-.33-.39-1-1-.93-1.12C306.32,194.64,304.52,192.7,307.07,193.26Zm-9.21-101c.25.21.67.37.73.62a23.35,23.35,0,0,1,.61,3.3,54.27,54.27,0,0,1,.56,8.32c-.46,6.75,2,13,3.08,19.47.2,4,.48,7.52.55,11,0,.78-.71,1.57-1.1,2.35-.42-.75-1.14-1.47-1.21-2.24-.69-6.85-1.19-13.7-1.9-20.54-.22-2.1-1.24-4.12-1.36-6.21-.3-5.13-.3-10.28-.39-15.43C297.42,92.65,297.71,92.44,297.86,92.23ZM301,141.12a12.85,12.85,0,0,1-.66,2.95c-.05.12-1.1,0-1.1,0,0-1.63,0-3.26.19-4.88,0-.27.74-.47,1.14-.71a3.56,3.56,0,0,1,.41.92A14.6,14.6,0,0,1,301,141.12Zm-9.36-75a7.39,7.39,0,0,1,.49,2.26c.08.79.15,1.58.23,2.38-.69-.41-1.73-.67-2-1.26a12.9,12.9,0,0,1-.58-3.33ZM280.41,175c-.64-.68-1.25-1.4-1.92-2-5.11-5-6.44-11.58-7.64-18.18-.81-3.62-1.69-6.62-2.4-9.67-1-4.15-1.8-8.34-2.7-12.51-.05-.26-.37-.54-.31-.74.43-1.54-1.19-4.3,1.22-4.44s1,2.52,1.09,3.85c.26,3.68.28,7.21,2.82,10.46,1.11,1.41,0,4.41,1,6,2.55,4,.9,8.6,2.31,12.69a13.8,13.8,0,0,0,.86,1.72,8.27,8.27,0,0,0,.9-1.94c.3-1.67.4-3.38.66-5.06a4.24,4.24,0,0,1,.68-1.27c.37.5,1.08,1,1,1.49a55.41,55.41,0,0,1-.85,7.93c-.52,2.56-.28,4.56,2.21,6a3.47,3.47,0,0,1,1.63,2.12A12.78,12.78,0,0,1,280.41,175ZM289,200.83c-1.08-3.42-2.2-6.84-3-10.33-.27-1.18.28-2.58.64-3.84.56-2,1.6-3.95-1.4-5-.37-.13-.5-1.29-.51-2,0-4.64,0-9.28,0-13.92a7.85,7.85,0,0,0-.43-1.8A9.72,9.72,0,0,0,283,165.5a10,10,0,0,0-.59,2,10.05,10.05,0,0,1-.62-2.5c.16-6.06-1.44-11.91-2.72-17.72-.31-1.4-2.62-2.74-2.14-5,.31-1.46.65-2.91.85-4.39a8.74,8.74,0,0,0-.16-2,16.48,16.48,0,0,0-1.7.95,7.26,7.26,0,0,0-1,1.05,9.12,9.12,0,0,0,.1-1.37c-.19-3.44-.34-6.89-.68-10.31-.07-.65-.94-1.22-1.43-1.83a9.1,9.1,0,0,0-.76,2.05c-.27,2.28-.35,4.59-.68,6.86-.09.59-.81,1.09-1.23,1.64a5.47,5.47,0,0,1-.5-1.73c.14-3.87.63-7.74.51-11.6-.19-6.75-.74-13.5-1.14-20.24a6.54,6.54,0,0,0,0-.89c-.16-.77-.37-1.52-.56-2.28-.6.68-1.67,1.32-1.72,2-.22,2.78,0,5.59-.15,8.38a46,46,0,0,1-.58,4.79c-.38,2.7-.78,5.4-1.22,8.09-.06.36-.43.66-.66,1-.18-.28-.5-.55-.51-.84,0-2.4,0-4.8,0-7.2,0-2.21-.15-4.43,0-6.62a74.71,74.71,0,0,1,1.2-8.69c1.09-5.26,2.23-10.52,3.66-15.69A22.55,22.55,0,0,1,271.68,77a4.08,4.08,0,0,1,3.23-1.63c.81.14,1.74,1.81,1.87,2.89a17.81,17.81,0,0,1-.53,4.77c-.1.63-.63,1.28-.52,1.83a21.5,21.5,0,0,0,1.15,3.2,14.52,14.52,0,0,0,1.18-2.89c.94-5.72,3.14-10.7,8.09-14.2.37-.26.8-.46,1.21-.69.13.43.14,1,.41,1.26,2.71,3,.48,7.75,3.82,10.56a2,2,0,0,1,.37,1.31c.22,4.16.07,8.38.7,12.48.88,5.78,2.34,11.47,3.53,17.2a44.7,44.7,0,0,1,1.17,6.32c.34,5.34.45,10.7.65,16a8.93,8.93,0,0,1,0,2.07,5.66,5.66,0,0,1-.82,1.44l-1-1.28-1.28-1.63a10.59,10.59,0,0,0-.51,2c-.24,4-.42,7.93-.62,11.9.6.55,1.73.82,1.73,1.05-.08,3-.3,6-.57,8.93,0,.35-.62.65-.95,1-.27-.38-.79-.78-.78-1.15.13-3.07.36-6.15.57-9.22-.6.78-1.7,1.86-1.71,3,0,4.06.21,8.13.57,12.18.08.83,1.14,1.57,1.74,2.35a25.48,25.48,0,0,0,1.17-2.9c.18-.65-.15-1.44.08-2.05a31.67,31.67,0,0,1,1.67-3.35,12.93,12.93,0,0,1,.66,3.05c-.07,2.7.43,5,2.58,7,.81.75.92,2.4,1.05,3.66.23,2.44.82,2.82,2.89,1.6.11-.07.73.31.73.48q.06,6.66,0,13.33c0,.36-.35.73-.54,1.09-.22-.34-.45-.67-.64-1-.54-1-1.06-2-1.6-3-.27,1.37-.95,2.81-.73,4.09.42,2.43,1.43,4.74,2,7.14a5.83,5.83,0,0,1,.19,3.41c-.49,1.17-1.7,2-2.6,3-.71-.87-1.75-1.64-2.08-2.64-2.5-7.48-4.81-15-7.32-22.5-.48-1.42-1.9-2.55-2.32-4-.67-2.33-.86-4.79-1.3-7.19a3.67,3.67,0,0,0-.62-1,5.33,5.33,0,0,0-.7,1,5.1,5.1,0,0,0-.44,1.88c.14,3.38.23,6.77.65,10.12.17,1.38,1.47,2.63,1.67,4,.59,3.95.86,7.95,1.28,11.94.17,1.69.44,3.38.57,5.08a4.37,4.37,0,0,1-.47,1.46C289.83,201.52,289.13,201.26,289,200.83Zm11.79,5.74a17.33,17.33,0,0,1,2.46-1c.07.86.53,2.09.12,2.51a17,17,0,0,1-4.29,3.2c-.4.21-1.5-.88-2.28-1.38A16.66,16.66,0,0,1,300.79,206.57Zm-3.38-2a2.33,2.33,0,0,1,1.13,1.26l-.76.22Zm-1.9,1.36c0,.93-1.12,1.86-1.72,2.79-.61-5.86-.92-11.43-1.19-17,0-.35.36-.72.55-1.08.24.32.61.62.71,1a27.91,27.91,0,0,1,1.1,4.55A90.89,90.89,0,0,1,295.51,205.88ZM285,219.15a23.28,23.28,0,0,1,10.41-6.55c.27-.1.95.91,1.43,1.4-3.88,2.23-7.46,4.17-11.05,6.09a2.08,2.08,0,0,1-.8,0C284.94,219.8,284.79,219.34,285,219.15Zm-21.27,24.77,1.12,2.08a39.91,39.91,0,0,1-.06,5c-.1.65-.79,1.63-1.34,1.72a13.82,13.82,0,0,1-3.43-.23,10.9,10.9,0,0,0,1.47-2.05c.62-1.52,1-3.11,1.55-4.67C263.21,245.15,263.46,244.54,263.69,243.92Zm-5.34,4.73a10.81,10.81,0,0,1-1.8,0c-5,0-5,0-5-5,2.3-3.95,4.57-7.33,9.09-8.32a12.35,12.35,0,0,1,1.62-.13,7.3,7.3,0,0,1,.08,1.39c-.36,3-1,6-1.05,9C261.22,247.73,260.09,248.34,258.35,248.65Zm4-16.44-2.11.46a3.55,3.55,0,0,1,1.57-1.42ZM253,235.63c2.34-2.5,4.35-5,6.45-7.46.33-.38,1.08-.41,1.63-.6-.17.6-.14,1.4-.54,1.77-2,1.88-4.05,3.64-6.09,5.46-.29.26-.57.55-.85.83a45.91,45.91,0,0,0-3.24,4.13,3.77,3.77,0,0,1-.68-.33C250.82,238.16,251.93,236.9,253,235.63ZM234.32,273c-.1-.36-.35-.75-.27-1,.48-1.87.93-3.75,1.59-5.55,2-5.48,4.14-10.92,6.23-16.37.59-1.54,1.21-3.06,1.81-4.59,1-1.38,1.66-2.51,2.44-3.55a5,5,0,0,1,1.37-.89c0,.58.38,1.34.12,1.7-5,7.13-5.26,16-8.78,23.62-1,2.07-2.14,4.05-3.3,6C235.34,272.65,234.74,272.75,234.32,273Zm8,8.7a7.8,7.8,0,0,1-2.26,8.19,12.61,12.61,0,0,0-1.23,1.56c-.49.57-1,1.12-1.52,1.69-.3-.77-.91-1.57-.84-2.3.27-3.11.92-6.19,1.08-9.29.09-1.64-.61-3.31-.77-5a12.08,12.08,0,0,1,.28-3.16c0-.18.66-.45.92-.37a1.65,1.65,0,0,1,.83.8,8.44,8.44,0,0,1,.44,1.53,11.23,11.23,0,0,0,1.62-1.15,12.29,12.29,0,0,0,.88-1.4c.42-.56.92-1.07,1.38-1.6l1.13,2.07C242.21,276,241.43,278.45,242.34,281.66Zm1-16.54c-.26.09-1.47-1.16-1.36-1.59q1.92-7.75,4.21-15.42c.22-.74,1.31-1.22,2-1.82,0,.79,0,1.58.05,2.37-1.22,3.57-2.2,6.83-3,10.13a9.55,9.55,0,0,0,.27,2.6c.06.71.29,1.6,0,2.12A4.31,4.31,0,0,1,243.31,265.12Zm6.34,41.09c-2.76-.9-4.29-2.31-4.15-5.2.12-2.55,2.64-5.8,5.09-6.06,1.7-.17,2-.78,2.21-2.3.37-2.74,1.14-5.43,1.75-8.14,2.93-1.11,2.47,1.39,3,2.82,1.52,4.31,2.85,8.69,4.3,13a1,1,0,0,0,.88.42,3.23,3.23,0,0,0,1.47-1.11c1.52-3,3-3.68,5.74-2.34a2.12,2.12,0,0,1,.3,1.92c-1.47,1.13-1.94,2.63-2.7,4.2-.63,1.3-3.32,2.24-5.12,2.28C258.15,305.81,254,307.63,249.65,306.21Zm17.57-24.07c.41.75.66,1.23.58,1.64-.24,1.15-.62,2.27-.95,3.4-.28-.18-.82-.45-.8-.52C266.63,285.2,264.7,283.1,267.22,282.14Zm11.67,10.48c-1.74,1.19-3.38,2.5-5.7,1.1-1.77-1.06-2.42-2.25-1.81-4.33a10.16,10.16,0,0,0,0-4.22c-.37-2.49,2.18-5.49,4.67-5a3,3,0,0,1,1.91,2.09,48,48,0,0,1-.37,5.71,7.09,7.09,0,0,0,.4,1.82,6.45,6.45,0,0,0,1.48-.76c1.83-1.6,5.25-.6,5.85,1.72.16.61.65,1.13.82,1.73s.5,2,.24,2.11c-2.44,1.42-3.16,3.72-3.82,6.17-.1.35-1.32.78-1.75.59-3.57-1.53-5.75,1.33-8.49,2.42-.74.3-1.54.47-2.31.7.3-.75.38-1.82.94-2.21,2.31-1.58,4.94-2.75,7.13-4.47a54.82,54.82,0,0,0,5.41-5.57C281.49,290.45,280.22,291.71,278.89,292.62ZM271.75,273c-.3-.49-.38-.73-.29-.88.66-1.1,1.35-2.18,2-3.27.33.32,1,.68.94,1C274.25,271.36,274.08,273.07,271.75,273Zm.91,3.4c-.31.44-.61.89-.91,1.34a1.87,1.87,0,0,1,0-1.78Zm4.61-3.44c1.51-.81,3.07-1.42,3.84.93-.62.49-.95.88-1.24.85-1.2-.1-2.4-.33-3.59-.51C276.6,273.76,276.83,273.16,277.27,272.92Zm-1-5a6.76,6.76,0,0,1,1.7-.7l-.15,1.54Zm9.45-16.84c3.4,0,2.66,1.25,0,1.75-1.2.23-4.49,4.24-5.83,2.8-1.43-2.78-2.33-7.5.52-9.77.47-.37.81-1.51,4.48-2,5.75-2.77,1.33.4.33,2.31C283.43,249.62,283.65,251.09,285.73,251.08Zm4.49,50.37c.28-.16,1.15.25,1.44.63s-.06,1.24-.31,1.32c-1.88.6-3.8,1.05-5.71,1.55A20.52,20.52,0,0,1,290.22,301.45Zm-2.37-10.91a25.64,25.64,0,0,1,1.18-3,9.24,9.24,0,0,1,1.74.51c-.22,1-.33,1.59-.66,1.77A12.9,12.9,0,0,1,287.85,290.54Zm-17.31,16.19a2.15,2.15,0,0,1-1.47-.33l.83-.82ZM256.43,313l1.74-1.84a23.51,23.51,0,0,1,5-.41c.36,0,.7.43,1.05.67-.27.38-.47,1-.84,1.1a18.65,18.65,0,0,1-4.28,1.23C258.24,313.88,257.31,313.29,256.43,313Zm6.57,5.86c-.95-1.05-1.59-1.8-2.24-2.55.49-.2,1.26-.69,1.4-.55,1,.91,2.28,1.87,2.5,3S263.68,319.82,263,318.88Zm18.48-.89c-4.59,1.66-7,1-10-2.57a2.52,2.52,0,0,0-2-.45c-.8.13-1.52.89-2.29.92s-1.4-.57-2.1-.9c.37-.58.59-1.4,1.13-1.7,1.9-1.07,3.23-3.38,6.3-2,1.11.5,3.17-1.19,4.85-1.7a6.49,6.49,0,0,1,2.26.12c-.35.58-.66,1.2-1.05,1.76s-.87.77-1,1.24a12.53,12.53,0,0,0-.36,2.3,7.59,7.59,0,0,0,2-.83c1.53-1.23,2.74-3.15,4.45-3.77,2.9-1.05,6.1-1.3,9.16-1.91.86-.17,1.7-.43,2.55-.65-.54-.49-1.1-1-1.62-1.47s-.72-.81-1.08-1.21c.59-.27,1.28-.88,1.76-.75,3.86,1.05,6.06-1.65,8.61-3.54,1-.7,1.61-1.81,2.59-2.46,4.31-2.84,3.18-7.16,3.21-11.14,0-.4-.61-.8-.95-1.2a13.21,13.21,0,0,0-.81,1.15c-.6,1.08-1.17,2.18-1.75,3.27a16,16,0,0,1,0-4.2,36,36,0,0,1,2.28-5.28c.14-.32.3-.91.45-.91,3.57.06,4.66-3.47,7.24-4.9,1.23-.68,1.83-2.54,2.58-3.93.14-.26-.38-.85-.6-1.29a14.05,14.05,0,0,0-1.15.83c-2.19,1.95-4.33,4-6.57,5.84-.44.38-1.26.32-1.91.44-.84.16-1.87,0-2.5.48-4.7,3.25-10.07,3.08-15.42,3.08-2.28,0-5.82-2.33-6.14-4.46a44.38,44.38,0,0,1-.07-6.32c0-1.87.22-3.7-2.14-4.77-1.48-.68-1.32-2,.28-2.82,4.25-2.19,8.65-3.86,13.59-3.56a2.26,2.26,0,0,0,.83-.18c2.15-.75,2.14-.76,1.94,1.7a1,1,0,0,0,.25.76.8.8,0,0,0,.78-.07c.69-.78,2-1.8,1.87-2.41-1.11-4.13.49-8.07.49-12s-1.69-7.9-3-11.75c-.16-.49-2.65-.9-3.49-.4-4.08,2.38-8.69,3.35-12.92,5.16-3.08,1.32-5.83,4.41-7.61,7.36A27.42,27.42,0,0,0,270.25,262a10.89,10.89,0,0,0,.23,1.39c.36-.31.93-.56,1-.94.65-2.22,1.24-4.45,1.72-6.71.18-.85-.15-1.82.09-2.64.17-.58.89-1,1.37-1.5.33.52.94,1.05.93,1.57,0,1.21-.57,2.42-.5,3.61a38.93,38.93,0,0,0,.93,5.53c.31,1.42.34,2.15-1.41,3a190.38,190.38,0,0,0-17.4,9.53c-4.12,2.59-7.64,2.21-9.72-2.06-1-2-2.8-3.81-.89-6.43,1.26-1.74,2.1-1.83,3.86-.76,3.28,2,7,2.09,10.66,1.33a6.13,6.13,0,0,0,2.44-1.69c1.05-.94,2-2,3-3,.43-.44.82-.93,1.23-1.39-.67-.53-1.41-1.56-2-1.48-2.42.32-4.79,1-7.19,1.49a4.39,4.39,0,0,1-2.31.13,11.21,11.21,0,0,1-2.4-1.73c.89-.39,1.76-.82,2.67-1.15a8.21,8.21,0,0,1,1.51-.26c-.38-.41-.7-1-1.16-1.18a11.93,11.93,0,0,0-2.87-.34,4.42,4.42,0,0,1-4.36-5,4,4,0,0,1,.4-1c.33.17.82.25,1,.51,2.24,3.9,6.53,3.18,10,4.12,1.91.51,4.15-.11,6.23-.33.39-.05.75-.64,1.07-1,.8-.93.38-9.13-.5-10-2.08-2.15-3.69-8.67-2.06-10.93,1.17-1.63,3.36-2.68,5.29-3.6,3-1.43,6.26-2.35,9.24-3.82,5.68-2.8,11.51-5.43,16.75-8.89,4.06-2.69,8.45-3.88,12.95-5.14a5.5,5.5,0,0,0,2-1,21,21,0,0,0,1.87-1.9c.22.78.44,1.56.67,2.33.92,3.08-1.08,7.87-3.8,9.56a5,5,0,0,0-1.85,2.28c-1,2.47-1.48,5.14-2.62,7.52s-.69,4.53,2,5.56c2.06.78,5.21.21,4.84,3.89a4.4,4.4,0,0,0,1.44-.33c3.92-2.41,7.78-4.93,11.73-7.28a20.72,20.72,0,0,1,4.15-1.59c1.68-.56,1.76-1.29.46-2.39-1.72-1.44-3.38-2.94-5.1-4.38a6.54,6.54,0,0,0-1.27-.63,5.31,5.31,0,0,0-.54,1.55c0,.4.64.93.52,1.21-.57,1.35-1.3,2.64-2,3.94-.33-1.09-1.12-2.27-.91-3.25.82-4,.43-8.38,4.59-11.15,1.33-.89,2.15-2.61,3-4.07.31-.54,0-1.44-.1-2.17-.71.37-1.68.56-2.07,1.13a37.84,37.84,0,0,0-1.93,3.94,3.75,3.75,0,0,1-.84.85c-.3-.37-.81-.71-.86-1.12a4.27,4.27,0,0,1,.15-2.28c1.45-2.92.62-5.73,0-8.64a9.69,9.69,0,0,1-.1-4.66c1.84-6.19,1.64-12.37.6-18.65a12.89,12.89,0,0,1,.55-4.77c2-8.77-.76-17.06-2.51-25.46-.88-4.2-2.09-8.44-2.22-12.68-.22-7.35.92-14.77.32-22.06-.69-8.39.89-17.09-2.83-25.16a3.09,3.09,0,0,1,0-1.18,23.26,23.26,0,0,0-1.61-9.42c-1.67-3.85-1.89-8.33-2.59-12.56q-.79-4.77-1.17-9.59c-.06-.75.7-1.56,1.08-2.35a8.49,8.49,0,0,1,1.24,2.25c1.46,7.31,2.93,14.63,4.21,22,.48,2.74-.05,5.71.75,8.31,2.12,6.9,5,13.59,7.05,20.51a123.12,123.12,0,0,1,3.63,16.88,105.43,105.43,0,0,1,.67,13.08c.1,4.37-.11,8.76.05,13.13.3,8.14.72,16.27,1.2,24.39.3,5.18,1,10.34,1.12,15.51.09,5.58-.39,11.16-.49,16.74a4.2,4.2,0,0,0,1,3.08c4.08,3.15,2.63,7.89,3.73,11.86,1,3.66,1.59,7.44,2.49,11.14.35,1.47,1.44,1.81,2.59.73,1.72-1.61,3.3-3.35,6-1.89.06,0,1-1,1-1.45-.31-4-1-8-1.08-11.95a60.5,60.5,0,0,1,.7-9.48c.41-3.24,1.07-6.46,1.65-9.68.17-.91.44-1.8.66-2.7.56.4,1.1,1.07,1.67,1.08s1.21-.83,1.23-1.31c.1-3.78-.16-7.58.11-11.35.4-5.69,1.24-11.36,1.7-17,.12-1.53-.49-3.13-.76-4.7-.91,1-2.24,1.93-2.67,3.14-2.19,6.13-4.13,12.34-6.18,18.52q-2,6.13-4.16,12.24a6.63,6.63,0,0,1-1,1.5c-.28-.68-.86-1.4-.78-2,.77-6,1.33-12,3.47-17.83,1.36-3.71,1.32-7.93,2.63-11.68,1.23-3.51,3.74-6.58,5.11-10.06,2.32-5.87,4.24-11.91,6.23-17.9q4.35-13,8.55-26.15c.7-2.2,1.12-4.48,1.76-6.7.12-.41.68-.7,1-1,.25.49.79,1,.71,1.47-1.47,7.41-2,15-6.32,21.74-1.57,2.43-1.47,5.9-2.08,8.9s-1.13,5.86-1.69,8.79a8.13,8.13,0,0,0-.13.84c-.21,4-.39,8-.61,12-.39,7.34-.66,14.7-1.24,22q-.94,11.82-2.42,23.61c-.78,6.13-2.36,12.19-2.85,18.34-.41,5,.46,10.1.34,15.15,0,1.44,2,4-1.45,4.7-.28.06-.59,2.26-.12,3,1.84,2.85-.67,4.36-1.72,6.31a.94.94,0,0,1-.8.19c-.45-.59-1.24-1.33-1.14-1.86.68-3.35,1.6-6.65,2.36-10a24.4,24.4,0,0,0,.31-3.21,15.59,15.59,0,0,0-2.25,1.63c-1.35,1.39-3,2.7-3.79,4.38-2.25,4.81-3.84,9.78-.51,14.87a4.61,4.61,0,0,1,.28,1.83c-.63-.37-1.56-.6-1.85-1.15-1.32-2.51-3-5-3.48-7.72-.31-1.7,1.26-3.72,2-5.61.32-.86.58-1.74.87-2.62a9.51,9.51,0,0,0-2.22,1.6c-.36.33-.67.71-1,1.07-.13-.52-.56-1.24-.35-1.53,2.52-3.56-.65-6.7-.7-10a28.61,28.61,0,0,0-.61-5.38c-.16-.74-1-1.34-1.47-2-.29.66-.89,1.33-.84,2,.53,7.07.69,14.21,1.94,21.16.74,4.11,3.37,7.87,4.94,11.87a58,58,0,0,1,2.67,8.68c.45,2.13-1,3.23-3.08,3.79a12.74,12.74,0,0,0-3.4,1.94c-1.65,1.09-3.18,3-5.23.5a3.7,3.7,0,0,0-1.74,1.05c-1.09,1.57-3.94,2.6-5.12,1.51-1.66-1.54-.31-2.9.58-4.23a8.41,8.41,0,0,0,1-1.65,1.52,1.52,0,0,0-.06-1.33,1.65,1.65,0,0,0-1.32-.15c-1.9,4.61-7,6-9.91,9.47-2.17,2.57-1,5.31,2.24,6.47.85.3,1.69.66,2.53,1l-2.21,2c-1.28,1.15-2.85,2.11-3.74,3.49-.79,1.21.32,2.25,1.92,1.93s3.26-.85,4.91-1.22a4.91,4.91,0,0,1,1.41.13c-.27.35-.48.82-.84,1-2.68,1.5-5.52,2.76-8,4.5-1.22.84-2.67,2.59-2.56,3.81.25,2.82,3.24,2.26,4.82,2,3.44-.65,6.72-2.15,10.11-3.14a10.18,10.18,0,0,1,3.06.06,8.92,8.92,0,0,1-1.72,2c-2.66,1.74-5.36,3.45-8.16,5-3.29,1.76-4.08,3.67-2.9,7.74.75,2.57,1.43,5.15,2.09,7.74.09.32-.14.72-.22,1.08a13.69,13.69,0,0,1-1.55-1.28c-2.4-2.55-4.6-5.3-7.18-7.65-1.39-1.27-3.45-1.8-5.12-2.81-2.27-1.37-1.48-2.81,0-4.33a8.59,8.59,0,0,0,1.14-2.24c-.9.09-1.81.17-2.7.29-.37.05-.8.38-1.07.27-3.08-1.27-4.57,1-6.2,2.74a16.56,16.56,0,0,1-12.25,5.61A6.23,6.23,0,0,0,281.48,318ZM306,295c-2.91,2.48-5.93,4.83-9,7.1-.58.42-1.59.27-2.41.39a9.59,9.59,0,0,1,1.19-2,16.18,16.18,0,0,1,2.27-1.7c2.33-1.89,4.35-3.51,6.4-5.07a14.7,14.7,0,0,1,1.87-1C306.19,293.42,306.42,294.58,306,295Zm-7.74-6.62a42.74,42.74,0,0,1-4.14,3c-1.35-2.89,1-3.92,2.75-5.29a2.14,2.14,0,0,1,1.61.17C298.54,286.92,298.64,288,298.23,288.34Zm-4.33-46.51c-.39.67.33,8.67-.25,8.92a7.63,7.63,0,0,1-2.76.11c.46-.54,2-1.41,2.44-2C294.39,248.57,293.14,241.88,293.9,241.83Zm-45.39,18.39a6.37,6.37,0,0,1,1.48-2.61c.1-.1,1.44.61,1.44.95a2.43,2.43,0,0,1-.88,1.9C250.09,260.74,249.2,260.33,248.51,260.22Zm72.13,39.4c-.07.27-.06.62-.23.8-.71.73-1.48,1.41-2.23,2.11-.09-.68-.17-1.35-.25-2A15,15,0,0,1,320.64,299.62ZM284.1,352.89c-.26.63-.58,1.23-.88,1.84a5.06,5.06,0,0,1,.47-2.24C283.84,352.62,284.13,352.82,284.1,352.89Zm-86,94.33c0-.08.75.06.75.11a12.11,12.11,0,0,1-.13,2.17,5,5,0,0,1-.61,1.22c-.5-.71-.92-1.15-.86-1.51A7.24,7.24,0,0,1,198.09,447.22Zm-3.71,6.56a8.49,8.49,0,0,1,1.59.9,6.28,6.28,0,0,1,.93,1.36,17.68,17.68,0,0,0,1.49-1.77c1.78-2.79,2-6.39,4.79-8.7.57-.47.51-1.74.64-2.66.16-1.14.07-2.32.34-3.42a10.84,10.84,0,0,1,1.24-2.35,11.79,11.79,0,0,0,.89,2.3,5.68,5.68,0,0,0,1.4,1.2c.33-.64,1-1.31.92-1.93-.3-3.27,1.47-5.45,3.81-7.35a6.92,6.92,0,0,1,1.44-.72,5.94,5.94,0,0,1-.4,1.71,22,22,0,0,1-1.46,1.79,6.31,6.31,0,0,0-.55,1.24c.56,0,1.39.23,1.63,0a21.68,21.68,0,0,0,2.79-3.83c1-1.77,1.58-3.71,2.51-5.49a1.76,1.76,0,0,1,1.64-.51c1.64.88,2.37.79,2.47-.86s.25-2.61,1.81-3.46c.59-.33.69-1.91.63-2.9-.31-5.32,3.49-8.88,5.71-13.1.18-.34.79-.46,1.2-.69.12.43.42.89.34,1.28-.33,1.73-.93,3.42-1.11,5.15-.07.78.62,1.64,1,2.46a7.94,7.94,0,0,0,1.34-2.14c.89-3.9,1.56-7.85,2.52-11.73.2-.82,1.3-1.43,2-2.13a6.54,6.54,0,0,1,.3,2.47c-.27,1-1.28,1.92-1.43,2.94a11.45,11.45,0,0,0,.52,3.41c.7-.64,1.66-1.16,2-1.95a12.2,12.2,0,0,0,.74-3.54c.22-1.79.49-3.18,2.93-3.41s4.13-4.19,2.9-7.47c-1.12-3,.25-5.07,1.77-7.25.22-.32.8-.38,1.21-.56a3.43,3.43,0,0,1,.23,1.37c-.33,1.23-.86,2.42-1.17,3.66a6.08,6.08,0,0,0,.1,1.84c.62-.29,1.63-.43,1.82-.89,1.27-3,2.35-6.15,3.51-9.24.61-1.62.94-3.46,1.95-4.81,2.13-2.85,4.62-5.46,7-8.13a8.47,8.47,0,0,1,1.32-1,11.64,11.64,0,0,1,.59,1.36c.17.53.1,1.17.38,1.61a13.25,13.25,0,0,0,1.59,1.77,19.11,19.11,0,0,0,.44-2.1,10.23,10.23,0,0,0,0-2.07,5.32,5.32,0,0,0-.32-1.13c.35.12.79.14,1,.37,1.76,1.8,1.63.49,1.77-.92.18-1.66.08-4.1,1.08-4.77,3.12-2.08,4.32-5.48,6.7-8a8.77,8.77,0,0,1,1.06-.82,5.25,5.25,0,0,1,.75,1.47c.19,1.23-.18,2.72.41,3.67.77,1.24,2.55,3.07,3.36,2.84,1.94-.56,3.6-2.13,5.29-3.39.39-.29.35-1.07.7-1.46s1-.88,1.41-.79.83.82.9,1.32c.13,1.07.42,2.36,0,3.21-1.54,2.92.81,4.69,1.84,6.82.21.43,1.2.5,1.83.74a16.09,16.09,0,0,0,.38-2c.12-1.94.13-3.88.28-5.82,0-.27.56-.51.86-.77.31.36.89.72.87,1.06-.18,3.16-.44,6.31-.72,9.47a15.9,15.9,0,0,1-3.36,9c-.95,1.17-.7,3.23-1.16,4.83-.16.57-.81,1-1.24,1.5a5.61,5.61,0,0,1-.69-1.78c-.06-3.94,0-7.9-.06-11.84a47.37,47.37,0,0,0-.6-5.68c-.06-.41-.51-.77-.78-1.16-.35.29-.93.51-1,.86a11.27,11.27,0,0,0-.55,3.33c.1,3.08.28,6.16.59,9.23.28,2.71,1,5.4,1.08,8.11,0,1.46-.81,3-1.41,4.41-.51,1.23-1.23,2.37-1.85,3.55-.79-1.17-1.5-2.38-2.37-3.48a27.06,27.06,0,0,0-3.68-4.09c-.48-.4-1.73.09-2.63.17a8.69,8.69,0,0,0,1.2,1.8c4,3.74,7.62,7.66,8.47,13.41.72,4.78,2.24,9.47,2.68,14.27.51,5.56.23,11.19.25,16.79,0,.31-.38.62-.55.95-.38.7-.73,1.41-1.09,2.12.63-.3,1.32-.93,1.87-.83a2.3,2.3,0,0,1,1.57,1.39c.9,5.88,1.3,11.86,2.63,17.63.63,2.73,3.14,5,4.48,7.63,2.21,4.32,4.14,8.78,6.25,13.16.46.95,1.44,2.63,1.73,2.54,4.2-1.27,4.94,2.44,6.46,4.46q8.17,10.81,15.8,22a43.35,43.35,0,0,1,3.64,7.69,1.6,1.6,0,0,1-.49,1.76c-1.39,1.5-5.52,0-8-1.59a16.93,16.93,0,0,1-4.61-4.54c-2.8-3.72-3.21-6.18-5.51-9.29-3.51-4.76-7.26-9.37-11.19-13.8-1.45-1.63-3.63-2.7-5.61-3.8s-2.23-2.63-1.61-4.45c.8-2.34.14-4.33-.92-6.44-2.1-4.18-5.39-7.89-5.41-12.93,0-.49-.72-1-1.11-1.46a14.57,14.57,0,0,0-.64,1.61c-1.09,4.6,1.95,7.83,3.9,11.44,1,1.77,1.76,3.63,2.55,5.48.13.31-.19.8-.31,1.21-.42-.15-1-.17-1.26-.46-5.12-5.47-10.26-10.91-11.58-18.69-.25-1.5-1.54-2.9-1.53-4.35,0-1.27-2-3.62,1.31-4,.12,0,.29-.7.25-.72-3.42-1.8-2.4-5.33-3.3-8.11-1-3-2.41-5.84-2.88-8.87-.56-3.67-.29-7.47-.47-11.2a10.84,10.84,0,0,0-.68-2.44c-.57.6-1.45,1.11-1.66,1.82-1.73,6,.56,11.75,1.32,17.6.21,1.61.34,3.23.42,4.85a3.25,3.25,0,0,1-.44,1.2c-.45-.32-1.17-.56-1.3-1-.89-2.81-1.58-5.68-2.5-8.47a10.28,10.28,0,0,0-1.69-2.4c-.23.92-.84,1.94-.62,2.74a64.69,64.69,0,0,0,3,9.13,11.08,11.08,0,0,1,.68,5.22c-.2,7.09-.05,14.29,3.26,20.82,1.8,3.55,4.33,6.74,6.54,10.08,3.77,5.68,7.4,11.45,11.39,17a21.09,21.09,0,0,0,5.68,5c4.1,2.65,6.77,6.08,7.35,10.91a6.54,6.54,0,0,1-.45,2.06,8.79,8.79,0,0,1-1.9-1.32c-1.66-2-3.11-4.1-4.85-6a7.61,7.61,0,0,0-2.95-1.53c-.26-.09-.78.45-1.14.75a2.82,2.82,0,0,0,.38.6l1.69,2.06c-1.31.23-2.67.77-3.91.57-.74-.12-1.29-1.39-1.92-2.14a10.94,10.94,0,0,0,1.91-.15c.23-.06.53-.82.47-.86-1.19-.92-2.64-2.66-3.61-2.44-1.25.29-1.14,2-.77,3.72.56,2.53,1.51,4.12,3.93,5,.43.15,1,.56,1.08.91.43,3.18.77,6.36,1.09,9.55.2,2-3.26-1.78-2.52,1.51a9.65,9.65,0,0,1-.16,4c-.21.94-1.35,1.77-1.36,2.66a56.45,56.45,0,0,0,.57,7.56c.28,2.22.83,4.41,1.13,6.63.06.43-.51.95-.79,1.43-.32-.42-.85-.79-.94-1.25a83.92,83.92,0,0,1-1.76-9.63,28.56,28.56,0,0,1,.23-6.7c.4-2.76-1.33-5.82-2.15-8.74l-3.6-12.76a29.81,29.81,0,0,0-1.27-4.22c-.23-.52-1.19-.72-1.82-1.07-.17.57-.59,1.19-.49,1.71.77,4.12,1.53,8.24,2.51,12.31.83,3.38,2,6.69,2.94,10.05a6.42,6.42,0,0,1,0,1.64c-.42-.28-.87-.54-1.27-.84s-1-.78-1.45-1.17c-.32.74-.93,1.49-.91,2.23,0,2,.37,4,.52,6a4.13,4.13,0,0,1-.36,1.27c-.41-.23-1-.36-1.19-.71a40.22,40.22,0,0,1-2-4.79c-1.86-5.77-3.91-11.49-5.38-17.36-1.6-6.42-6.56-10.54-10.49-15.23-3.54-4.22-8.17-7.72-12.81-10.84-2.65-1.79-6.21-2.61-9.49-3.11-5-.77-10.49,0-15.2-1.52-5.91-1.95-10-4-9.48-11.71.13-1.87-.46-3.78-.48-5.68,0-.44.93-.89,1.43-1.34-.41-2.57-1.26-5.12-1.78-7.73a13.39,13.39,0,0,1-.21-5.48c.36-1.56,1.2-3.4-.65-3.75-1-.19-3,1.69-3.59,3-1.53,3.32-2.5,6.88-3.74,10.33a8.07,8.07,0,0,1-1.06,1.93c-.18.26-.65.32-1,.48a5.77,5.77,0,0,1-.35-1,8.13,8.13,0,0,1,0-1.48c.07-.95.17-1.9.25-2.85-.69.8-1.74,1.5-2,2.42-1,3.47-1.66,7-2.5,10.54a5,5,0,0,1-.69,1.26c-.43-.36-1-.64-1.25-1.1a5.09,5.09,0,0,1-.43-2.18c.05-2.42.13-4.76-1.77-6.73C193.87,455.72,194.31,454.57,194.38,453.78Zm104.68,40.65c-.54,0-1.27.12-1.59-.17a53,53,0,0,1-4.21-4.13c-.31-.33-.2-1.05-.28-1.59a10,10,0,0,1,1.46.48,4,4,0,0,1,.85.8c1.29,1.27,2.31,2.2,3.23,3.21A4.13,4.13,0,0,1,299.06,494.43Zm-8.41-17.82c-.54,0-1.24.17-1.6-.09-1.4-1-2.69-2.18-4-3.29a2.31,2.31,0,0,1-.5-1.09c-.08-1-.12-2-.17-3a24.26,24.26,0,0,1,2.17,1.87c1.28,1.41,2.51,2.89,3.7,4.38A3.49,3.49,0,0,1,290.65,476.61Zm-10.58-12.26c-.6-.44-1.42-.75-1.76-1.34-1.17-2-2.17-4-3.24-6.07-3.19-3.47-2.62-7.65-3.58-11.38-.08-.32.44-.78.68-1.18.36.32.94.59,1.05,1a56.35,56.35,0,0,0,1.55,5.88c1.56,3.71,3.44,7.29,5.1,10.95A6.62,6.62,0,0,1,280.07,464.35ZM260,501.76l-.81.51c-.13-.5-.27-1-.4-1.48A1.92,1.92,0,0,1,260,501.76Zm-2.72-5.41c-.32.95-.58,1.92-.95,2.85a4.92,4.92,0,0,1-1.16-.19,40,40,0,0,1-.59-5.86c0-.11.35-.36.38-.35,1,.77,2,1.53,2.87,2.38C257.91,495.28,257.41,495.93,257.26,496.35Zm-16.32,4.73-2.28-2.26c-.14-.14-.35-.25-.41-.42-.38-1-.72-2-1.08-3.08l3.49,1.91A17.27,17.27,0,0,1,240.94,501.08ZM214.1,482.29c-.32.14-.69.46-.94.39-.52-.17-1.27-.45-1.39-.85a26.34,26.34,0,0,1-.69-3.56,4.44,4.44,0,0,1,.47-1.48Zm-3.62-32.2-1.21.92a3.29,3.29,0,0,1,.73-1.48Zm-4.83,21.07c-.15,1.48-.29,2.37-.43,3.26-.45-.09-1.23-.07-1.31-.3a16.83,16.83,0,0,1-.66-2.93c0-.12.3-.26.37-.42.33-.75.64-1.52.95-2.28ZM199,474.63c0,.1-.56.41-.63.36-.42-.35-1-.74-1.09-1.18a32.72,32.72,0,0,1-.05-3.84C199.86,470.78,198.72,472.92,199,474.63Zm-8.87-8.43c.35-.23.61-1.31.41-1.51-3-3,1.12-4.72,1.25-7.12l1.21.55c1.23,6.13,1.79,11.58-2.23,16.38a7.06,7.06,0,0,1-1.63,1.1c-.32-.64-1-1.29-.92-1.91C188.34,471.1,187.11,468.14,190.1,466.2Zm-1.94,12.25a5.63,5.63,0,0,1,1.24-1.07c.19.47.58,1,.52,1.4-.48,3.53-1.28,7-1.5,10.56-.12,2,.65,4.12,1,6.19.21,1.29.41,2.6.51,3.91,0,.34-.37.7-.58,1.05-.38-.28-1-.48-1.11-.85a99.89,99.89,0,0,1-3.48-11.83c-.3-1.65,1-3.58,1.58-5.39A18.86,18.86,0,0,1,188.16,478.45Zm-9.12,6.4c1.61-5.16,3.23-10.32,4.91-15.46.13-.38.73-.6,1.11-.9.22.43.63.86.63,1.3,0,2.36.53,4.82-1.7,6.72-.52.45-.47,1.55-.68,2.35-1.22,2.39-2.1,4.5-3.11,6.55-.2.41-.93.58-1.41.86A9.36,9.36,0,0,1,179,484.85Zm-3.53,22q.78-7.74,1.81-15.46c.08-.56.86-1,1.32-1.54a9.77,9.77,0,0,1,.42,1.8c.07,1.08,0,2.16,0,3.24-.4,4.36-.73,8.13-1.26,11.87-.1.73-.94,1.37-1.44,2C176.07,508.12,175.45,507.44,175.51,506.82Zm3.57,6.41a2.65,2.65,0,0,1-1,1.37,6,6,0,0,1-.17-1.38,16.43,16.43,0,0,1,.44-2.06C178.59,511.85,178.84,512.54,179.08,513.23Zm4.88,30c-2.41-6.92-4.7-13.88-7-20.84a8.3,8.3,0,0,1-.29-2.54,6.81,6.81,0,0,1,.36-1.58l1.43,1.48c2.42,7.7,4.83,14.81,7.24,21.92a2.9,2.9,0,0,1,0,.59c.11,1.27.23,2.54.35,3.8A11.7,11.7,0,0,1,184,543.23Zm5.29,15.29c-.26.12-1-.07-1-.22-.48-2.36-.88-4.74-1.3-7.11l1.21,0a52.58,52.58,0,0,1,1.77,6.44C190,557.86,189.57,558.37,189.25,558.52Zm1.27-10c-.59-.38-1.54-.65-1.69-1.15a6.09,6.09,0,0,1,.31-2.41l1.41,1.48A4.6,4.6,0,0,1,190.52,548.49Zm-1.18-11c-.09-.32-.34-.87-.46-.86-3.92.4-3.63-3-4.28-5a64.22,64.22,0,0,1-2.55-21.81c.1-2.87-.38-5.76-.52-8.64,0-.43.39-.88.61-1.32.38.29.92.49,1.12.87,3.09,6,6.13,11.93,9.21,17.88,1.31,2.54,2.66,5.05,4.07,7.53.25.43.88.65,1.33,1,.18-.47.62-1,.49-1.41-1-2.66-2.07-5.28-3.12-7.91-.37-.94-.71-1.88-1.06-2.82-.8-.78-1.93-1.08-2.34-1.79-3.12-5.39-6.3-10.78-9-16.38-.79-1.63-.14-3.94-.1-5.94,0-.17.37-.32.57-.48a4.16,4.16,0,0,1,.71,1,47.9,47.9,0,0,0,2,6.57c2.6,5.54,5.45,11,8.21,16.42,1.63.61,1.87.43,1.38-1-1-3-2.19-6-3.16-9.08a18,18,0,0,1-.61-3.89c0-.36.32-.76.49-1.14.43.34,1.15.62,1.25,1,1.31,5.68,5.08,10.74,4.35,16.95-.07.65,1,1.44,1.56,2.16a9.28,9.28,0,0,0,.75-2.08c.49-4.65-1.45-8.82-3.07-13-1.33-3.4-3.63-6.44-4.91-9.85-.88-2.33-.91-5-1-7.58-.07-2,.6-4,.49-6a5.35,5.35,0,0,1,2.47-5.26c1.8-1.31,1.45-.3,2.05.82.5.92-.44,3.51,2.3,2.59a4.85,4.85,0,0,1,.44,1.47c0,.3-.49.87-.72.85a2.54,2.54,0,0,1-1.61-.61c-.93-1.09-1.7-2.32-2.52-3.49a30.85,30.85,0,0,0,.09,3.85q.81,5.72,1.83,11.4c.09.5.78.9,1.19,1.34.4-.46,1-.87,1.13-1.4a14.07,14.07,0,0,0,.07-2.35c.06-.73.24-1.45.36-2.17A9.39,9.39,0,0,1,200.6,490c.59,1.13.79,2.45,1.38,3.58a2.44,2.44,0,0,0,1.61.94c.18,0,.84-.88.8-1.31a11.93,11.93,0,0,0-.78-3.82c-1.9-4.17-2-8.6-2.15-13,0-.42.59-.87.91-1.31a4.28,4.28,0,0,1,.84,1.11c.9,2.79,2,5.31,4.8,6.94s3,4.63,3,7.3c0,2.89-.76,5.78-1.11,8.68a7.73,7.73,0,0,0,.32,2c.62-.41,1.51-.68,1.8-1.25,1.94-3.85,1.54-8,1.48-12.11,0-.82.09-1.63.13-2.45a12.07,12.07,0,0,1,3.24.54c.67.31.93,1.41,1.55,1.95a12,12,0,0,0,2.29,1.24,7.31,7.31,0,0,0,0-2.72c-.57-1.35-1.65-2.49-2.25-3.83a9.13,9.13,0,0,1-.3-2.8,6,6,0,0,1,2,.72c2,1.77,4.36,1.72,6.92,1.88a16.94,16.94,0,0,1,11.33,5.8c1,1.07.78,3.19,1,4.85,0,.11-.55.46-.84.46-2.42,0-4.65.1-6.86-1.72-1.9-1.57-4.71-2.09-7.16-2.95-.33-.11-1,.43-1.37.83a11.92,11.92,0,0,0-1.18,1.83c.68-.11,1.37-.21,2.06-.34,3.21-.64,5.62,1.53,7.27,3.28,3.42,3.59,6.81,7.64,8.62,12.11,1.23,3.05-.22,7.15-.53,10.78,0,.19-.6.51-.84.45a1.36,1.36,0,0,1-.91-.71c-1.45-4.85-2.84-9.71-4.26-14.57a5.63,5.63,0,0,0-.63-1.81c-.81-1.06-1.78-2-2.68-3a18.79,18.79,0,0,0-.26,3.72c.32,2.65,1.64,5.09.16,8-.54,1.06,1.37,3.22,1.95,4.94a37.91,37.91,0,0,1,1.4,5.65c.06.38-.75.91-1.16,1.38-.39-.38-1-.68-1.16-1.14-1-2.64-2.12-5.28-2.91-8-.3-1,.11-2.24.22-3.37.06-.66.46-1.49.19-1.94a32,32,0,0,0-2.64-3.34c-.19,1.41-.41,2.8-.55,4.21a18,18,0,0,0,0,2.2c-.55-.28-1.1-.57-1.67-.82s-1.43-.76-1.61-.58a3.49,3.49,0,0,0-1.29,2.07,45.43,45.43,0,0,0,.58,6.37,2.21,2.21,0,0,0,1.09,1.53c3.66,1.49,5,4.83,6.72,7.87a5.07,5.07,0,0,1,.32,1.42,4.54,4.54,0,0,1-1.62-.39c-1.94-1.41-3.75-3-5.72-4.36a35.58,35.58,0,0,1-13-16.85c-.33-.83-1.35-1.39-2-2.07-.1,1.05-.67,2.38-.22,3.09,2.82,4.47,3.85,10,8.16,13.59,1.42,1.18,2.83,2.36,4.23,3.56a8.71,8.71,0,0,1,.77.84c-.47.08-1,.36-1.39.22-2.5-.93-2.57,1-2.74,2.37-.22,1.76,0,3.55-.07,5.33a4.09,4.09,0,0,1-.43,1.21,13.22,13.22,0,0,1-1.2-.73c-1.2-.93-2.39-1.89-3.62-2.78,0,0-.78.73-.73.8a45.89,45.89,0,0,0,3.06,3.89c3.46,3.78,7.13,7.39,10.34,11.36.62.77-.44,2.85-.73,4.33a6,6,0,0,1-1.82-.66c-2.28-1.8-4.47-3.71-6.74-5.51-.29-.23-.88-.1-1.33-.13a6.46,6.46,0,0,0,.22,1.66c2.13,5.06,5.39,9.48,8.3,14.12a69.46,69.46,0,0,1,4.32,9.19c.2.45-.09,1.12-.15,1.68a7.82,7.82,0,0,1-1.47-1.25c-1.2-1.68-2.14-3.54-3.48-5.09a64.4,64.4,0,0,0-5.47-5.36c-.32-.29-1.41-.34-1.57-.12a2,2,0,0,0-.24,1.74c1.43,2.13,1.87,5,5.31,5.64,1.18.22,2.17,2.45,2.84,3.94,1.49,3.34,2.76,6.78,4,10.21.17.46-.16,1.1-.26,1.66a5.3,5.3,0,0,1-1.34-1c-4-5.36-8-10.76-12.07-16.11a7.59,7.59,0,0,0-1.91-1.31c0,.71-.17,1.57.16,2.1,2.14,3.4,4.37,6.74,6.62,10.06,2.1,3.1,4.29,6.15,6.37,9.27a5.28,5.28,0,0,1,.41,1.83,7.1,7.1,0,0,1-2.44.19c-.54-.15-1-.92-1.33-1.47-3.34-5-6.72-9.89-10-14.91-1.76-2.71-3.27-5.58-4.95-8.34-.28-.46-.9-1.07-1.33-1.05-5.93.29-7.36-4.93-10.18-8.25-.86-1-.34-3.36,0-5,.08-.36,2.18-.44,3.34-.39,2.13.07,3.76-1.34,3-3.71-.94-3-2.76-5.78-4.29-8.6-.2-.37-.93-.45-1.42-.66a4.4,4.4,0,0,0,.06,1.59c.93,2.19,2.08,4.3,2.9,6.53.29.8-.11,1.86-.2,2.8a22.27,22.27,0,0,1-2.09-1C191.45,543.63,190.18,540.72,189.34,537.53Zm52.43-3.47-.81.2c-1.42-2.37-2.54-4.45-3.63-6.55a1.74,1.74,0,0,1-.11-1,1.25,1.25,0,0,1,.74-.1C239.26,529.09,240.51,531.58,241.77,534.06Zm-5.45-10.64-1.11.18c-.09-.79-.19-1.58-.28-2.37A4.56,4.56,0,0,1,236.32,523.42Zm-3.61,67.73c-.37-.41-1-.79-1.06-1.22-.2-2.15-.25-4.32-.35-6.48a19.5,19.5,0,0,1-2.13-5.16,26.34,26.34,0,0,1,.19-5.38,32.59,32.59,0,0,1,2.22,3.53c2.06,4.38,2,9.07,1.81,13.75C233.38,590.52,232.94,590.83,232.71,591.15Zm0,8.62a2.23,2.23,0,0,1-1.26.24,8.55,8.55,0,0,1-1-2.74,9.52,9.52,0,0,1,.48-2.57l1.58,1.78A9.08,9.08,0,0,1,232.71,599.77Zm-12.12-46.1c.49.19,1.15.24,1.46.59,1.82,2.09,3.56,4.24,5.33,6.37a19.24,19.24,0,0,0,.82,2,8.22,8.22,0,0,1,.11,1.8c-.54-.32-1.25-.51-1.6-1q-3-4.05-5.93-8.2C220.5,554.89,220.64,554.22,220.59,553.67Zm3.83-15.29c.06-.25.66-.46,1.06-.55,3.2-.69,4.43,1.44,5.52,3.76.39.83.81,1.64,1.21,2.45-.26,1.09-.52,2-.76,2a3.13,3.13,0,0,1-2-.68c-1.64-1.82-3.14-3.76-4.63-5.69A1.68,1.68,0,0,1,224.42,538.38Zm-1.25-4.65c-1.17-.94-2.23-2-3.34-3-.68-.91-1.06-1.53-1.44-2.14.75,0,1.76-.34,2.19,0,2.35,1.9,4.57,3.94,6.77,6,.31.29.27.93.4,1.41-.48,0-1,.1-1.41-.11A26.27,26.27,0,0,1,223.17,533.73Zm4.33,20.44c-.22-.61.15-1.42.25-2.13.6.42,1.44.71,1.77,1.28a39.09,39.09,0,0,1,2.93,5.86c.34.92-.1,2.11-.18,3.17l-1.87-.53C229.41,558.88,228.36,556.55,227.5,554.17Zm2.81-2.53a9.47,9.47,0,0,1-.73-1.46c.68-.06,1.67-.43,2-.13a54.15,54.15,0,0,1,3.65,4.06,19.27,19.27,0,0,1,1.75,3.56c.13.41-.25,1-.4,1.48a5.1,5.1,0,0,1-1.35-.92C233.55,556.06,231.92,553.85,230.31,551.64Zm-3.05-35.33a4.64,4.64,0,0,1-1.06.16c-.36-1-.64-2-.93-2.94.67.06.77.12.8.2Zm-2.89,76.62-1.82-1.07,1.51-1.3A3.31,3.31,0,0,1,224.37,592.93Zm-32.58-30.46a9.75,9.75,0,0,1,0-3.05c0-.22,1-.6,1.17-.47,9.28,8.37,19.06,16.34,24.1,28.19a5.61,5.61,0,0,1,.08,1.89c-.76-.12-1.87,0-2.22-.4-2.38-2.94-4.72-5.92-6.84-9-1-1.44-1.08-3.53-3.37-3.84-2.18-.59-3.73-2.43-5.36-.07-1,1.45.18,5.13,2.25,6.46s4.19,2.44,6.26,3.7a10,10,0,0,1,1.38,1.24c-.58.17-1.29.64-1.73.47a57.49,57.49,0,0,1-5.3-2.42q-3.24-1.67-6.37-3.47c-.45-.26-1.07-.81-1-1.17C195.43,574.2,192.94,568.45,191.79,562.47Zm24.82,32.44-3.12-1.1a4,4,0,0,1,2.86-.66C216.51,593.17,216.52,594.29,216.61,594.91Zm-11.13-13.37c-.54,0-1.41.09-1.56-.17-.73-1.33-1.28-2.75-1.9-4.15a13.85,13.85,0,0,1,3.16,3.14C205.41,580.65,205.38,581.14,205.48,581.54Zm-.6,11.75c.24,1.94-1.74,1.74-3.16.82-1.42-2.78-2.58-5.25-3.63-7.76a1.44,1.44,0,0,1,.35-1.35c.24-.19,1,0,1.35.25C202.33,587.41,204.48,590.07,204.88,593.29ZM196,589.15a26.37,26.37,0,0,1,.23,3.78c-.48-.29-1.17-.46-1.4-.88a11,11,0,0,1-.68-2.38C194.82,588.69,195.59,586.93,196,589.15ZM194,583.4c-.06-.25.75-.71,1.17-1.07.08.86.16,1.73.23,2.6A2.4,2.4,0,0,1,194,583.4Zm-7.35,1.82c1,.2,1.54.3,1.83.62a18.54,18.54,0,0,1,1.49,2,12,12,0,0,1-2.39,0,4.83,4.83,0,0,1-1.72-.87c-.87-.59-1.69-1.24-2.53-1.86Zm11.59,17.13c-6.44-2.57-12.41-5.82-16.34-11.76a4.16,4.16,0,0,1-.31-1.58c.75.19,1.73.16,2.23.62a12,12,0,0,0,7.66,3.3,22,22,0,0,1,2.16,1.56c1.88,2,3.69,4,5.51,6a11.19,11.19,0,0,1,.88,1.25C199.41,602,198.66,602.53,198.22,602.35Zm8,.8a24.42,24.42,0,0,1-5.18-3.37c-.91-.89,0-1.71,1.31-1.52,3.72-.53,4.2,2,5.06,3.9C207.46,602.31,206.36,603.24,206.2,603.15Zm4.53.41c-.4,0-1.17-.41-1.17-.63,0-2.6-2.92-4.53-1.64-7.56.32-.76-1.1-2.2-1.68-3.35-.4-.8-.74-1.62-1.11-2.44.7.35,1.6.53,2.06,1.08a24.46,24.46,0,0,1,2.66,3.88,5.61,5.61,0,0,0,4.75,3.17,31.91,31.91,0,0,1,4.63,1.14,13.19,13.19,0,0,1,2.82,1.19l2.31,1.21c-.7.58-1.37,1.6-2.12,1.67C218.42,603.28,214.57,603.41,210.73,603.56Zm12.33,13.66L222,614a6.24,6.24,0,0,1,1.07-2.07c.65,1,1.65,2,1.81,3.1C224.93,615.63,223.7,616.47,223.06,617.22Zm1.32-9.49a5.4,5.4,0,0,1-.92.6c-1.16.06-1.7.11-2.25.17,0-.44-.07-1,.16-1.29a5,5,0,0,1,2-1.76,7.51,7.51,0,0,1,2.8.32C225.58,606.42,225,607.1,224.38,607.73Zm2.2-13.61c.2-.52,1.14-.77,1.76-1.14l-.36,1.43a5.44,5.44,0,0,1-1.06,1.91C226.78,595.58,226.35,594.73,226.58,594.12Zm.32,6.92.18-3.37a5.61,5.61,0,0,1,1,3.13A7.15,7.15,0,0,1,226.9,601Zm4.71,15.18c.35-.2.85-.67,1-.57a20.52,20.52,0,0,1,2.28,1.57C233.3,619,232.66,617.08,231.61,616.22Zm7.1-9.49c-.14.88-.38,1.74-.58,2.61-.64-.51-1.55-.91-1.83-1.56-.22-.49.36-1.32.61-2,.18-.49.7-1.1.55-1.4a1.67,1.67,0,0,0-1.39-.75c-1.7.46-3.31,1.19-5,1.69a4.73,4.73,0,0,1-2.18,0c-.31-.07-.5-.65-.74-1l2.16-1.31c1.92-1.16,4.11-2,5.66-3.57,1.18-1.16,2.28-3-.17-4.66-.71-.48-.46-2.37-.56-3.63-.43-5.35-.81-10.7-1.23-16-.06-.77-.2-1.53-.3-2.3.62.61,1.29,1.18,1.86,1.83a9.62,9.62,0,0,1,.87,1.42c.8,2.73,1.95,4.8,2.33,7A65,65,0,0,1,240,594.66c0,3.55-.87,7.09-1.33,10.64C238.57,605.77,238.78,606.27,238.71,606.73Zm1.95-34.25c.14-1.44.28-2.29.42-3.14a11.32,11.32,0,0,1,1.34,3c.36,2.59.47,5.22.65,7.83,0,.61,0,1.24,0,1.85-.63-.45-1.74-.84-1.8-1.36C240.89,578,240.82,575.21,240.66,572.48ZM243.08,586l-.69.38-1.13-2.08A5,5,0,0,1,243.08,586Zm-1.82,38.53.84-.82,1.28,1.78A4.82,4.82,0,0,1,241.26,624.56Zm3.93-2a4.74,4.74,0,0,1-.39-1.78l1.9,1Zm10.12,16a8,8,0,0,1-2-.48,5.94,5.94,0,0,1,1.26-.63,6.38,6.38,0,0,1,1.45,0C256,638,255.66,638.5,255.31,638.5Zm3.7,1.77a2.7,2.7,0,0,1-.2-1.08,1,1,0,0,1,.7-.61c1.16,0,2.32.17,3.49.27C262.4,641.46,260.44,639.9,259,640.27Zm11.44-1.78a56.7,56.7,0,0,1-5.65-.88c-.25-.05-.4-.6-.6-.91.39-.17.79-.52,1.16-.49.93.1,1.85.37,2.77.56a16.46,16.46,0,0,1,2.11,0,6.79,6.79,0,0,1,1.21.45C271.11,637.68,270.74,638.51,270.45,638.49Zm7.67-.57a2.68,2.68,0,0,1-.33-1.15,2.76,2.76,0,0,1,1.38,1C278.81,637.84,278.25,638.07,278.12,637.92Zm12.69,2.7c-.5-.2-.84-.76-1.25-1.16l1.21,0c1.41.95,2.51,1.61,3.62,2.27C293.19,641.35,292,641.07,290.81,640.62Zm13.06-5.15-1.63-.77a2,2,0,0,1,1.81-.31Zm-33.95-27.16c-6.2-.58-11.14.55-14-.53-.41-.15-1,.35-1.58.49-2.94.76-4.78-.57-5.23-3.38-.65-4.14-1.67-8.22-2.31-12.36-.19-1.24.53-2.6.5-3.89-.07-2.69-.3-5.37-.58-8-.33-3.2-1-6.38-1.07-9.58,0-1.18,1.4-2.34,2-3.59a3.4,3.4,0,0,0,.28-2.32c-1.54-3.91-3.2-7.78-4.88-11.64a4.89,4.89,0,0,0-1.51-2c-.49-.35-1.33-.21-2-.29a4.56,4.56,0,0,0,0,1.57c1.62,4.08,3.36,8.11,4.91,12.22a9.36,9.36,0,0,1,.05,3.09c-.81-.65-1.92-1.14-2.4-2-3.42-6-4.73-12.74-6.22-19.39-.85-3.78-1.86-7.53-2.76-11.31a7.09,7.09,0,0,1-.05-1.6c.49.21,1.2.29,1.42.66,1.82,3,5.42,2.51,8,3.92,1.05.56,2.23.06,1.8-1.55-.78-2.94-1.5-5.9-2.47-8.77-.67-2-3.24-3.67-.54-5.91-2-3.63,1.72-6.19,1.83-9.43.14-4.17.42-8.33.57-12.49a23.31,23.31,0,0,0-.34-3.21c1.19.73,2.43,1.39,3.55,2.21a7,7,0,0,1,2.91,5.94c0,.62.83,1.25,1.28,1.87a7.27,7.27,0,0,0,1-1.85c.66-2.94-4.11-8.83-7-10.06a7.38,7.38,0,0,1-3.12-2.54c-.56-.81-.38-2.11-.52-3.19L244,491c1.81,1.18,4.1,2,5.33,3.63,2.29,3,3.95,6.46,5.87,9.73,1.94,5.46,3.58,10.62,5.19,15.78a3.74,3.74,0,0,1,.2,1.68c-.06.43-.46.81-.72,1.21a4.64,4.64,0,0,1-1-.93c-1.25-2.15-2.33-4.41-3.74-6.46A2.24,2.24,0,0,0,251,517c.08,3,.44,5.91.74,8.86.59,5.8,2.77,11.51,1.06,17.48-.22.75.45,1.75.71,2.63.55-.88,1.44-1.7,1.59-2.64,1.19-7.51-.42-14.83-1.75-22.17a4,4,0,0,1,0-1.47,9.45,9.45,0,0,1,.5-1.44,5.59,5.59,0,0,1,1.34,1c4.87,6.53,6.81,14.1,7.06,22,.16,4.82-1,9.68-1.49,14.53a20.56,20.56,0,0,0-.13,4.07c.06.61.73,1.16,1.13,1.73.41-.56,1.09-1.08,1.18-1.69.5-3.18.84-6.38,1.27-9.57a14,14,0,0,1,.47-1.77c.44.72,1.27,1.46,1.26,2.18-.06,3.77-.31,7.53-.55,11.3-.13,2-.44,4-.58,6-.24,3.37-.55,6.74-.57,10.12,0,2.78-.34,5.88.8,8.23a6.52,6.52,0,0,0,5.88,3.14A98,98,0,0,1,281,590c1.43.1,2.85.45,4.28.56s2.76-.29,3.27,1.62c.1.4,1.3.7,2,.73,2.11.1,4.27-.23,6.32.13,1.18.2,2.18.8,4.18,2.07,2.87,1.82,6,3.8,7.9,7.35,0,0,1.73,3.26,1,5.61l0,.12c-.13.34-.52,1-1.94,1.84-3.2,1.81-6.69,1.4-9.86.93-7.33-1.07-9-1.85-13.16-2.33a45.67,45.67,0,0,0-10.34,0C272.63,608.54,271,608.41,269.92,608.31Zm40.17,42.24c.39-.24.89-.77,1.17-.67s.63.72.94,1.11A11.06,11.06,0,0,1,310.09,650.55Zm3.72-39.85,5.19-.42a14.81,14.81,0,0,1-5.19.42,13.87,13.87,0,0,1-2.31-.42c.3-1.26.8-2.71,1.66-2.84.54-.07,1,.4,1.5.84A10,10,0,0,0,319,610.28Zm1.51-4.36a4.42,4.42,0,0,1-.46-2.92,22.19,22.19,0,0,0-7.39-6.89c-3.58-2-6.92-2.42-6.83-3s4.57-.53,6.67-.33a30.9,30.9,0,0,1,9.67,2.55c2.5,1.12,2.58,1.54,12.16,8.78,3.48,2.63,5.3,4,5,4.67s-2.37,0-8,.16a17.57,17.57,0,0,1-3.33,0,14.85,14.85,0,0,1-4.67-1A5.3,5.3,0,0,1,320.51,605.92Zm9.08,55c-3.12-2-4.08-5.33-5.53-8.38-.1-.22.19-.63.29-.94l1.43,2.07c1.92,2.08,3.6,3.83,5.13,5.69a6.55,6.55,0,0,1,.72,2.2A8.24,8.24,0,0,1,329.59,660.91Zm1.42-6.34c-.44-.37-.49-1.18-.71-1.79.6.4,1.21.79,1.82,1.18,1.2,1,2.13,1.64,3,2.38.2.18.16.64.23,1a6.18,6.18,0,0,1-.86-.41A31.91,31.91,0,0,1,331,654.57Zm11,11.48a1.6,1.6,0,0,1-1.28.89,48.1,48.1,0,0,1-5.92-1.54c-.51-.17-.79-1-1.17-1.52l2.72-.44a27.62,27.62,0,0,1,4.84,1.27A1.58,1.58,0,0,1,342,666.05Zm-3.35-7.25a4,4,0,0,1,1.61.25c.43.3.62.94.92,1.42-.95-.13-1.37-.2-1.62-.43A8.08,8.08,0,0,1,338.65,658.8Zm-9.13-64.11-.11-.06-.24-.15c-.31-.23-.59-.51-.89-.75a12.47,12.47,0,0,1,1.11-.69,1.39,1.39,0,0,1,.35-.06,10.55,10.55,0,0,1,3.76.63,3.32,3.32,0,0,0,1,.31,27,27,0,0,1,3,.86,18.43,18.43,0,0,1,5,3,19.31,19.31,0,0,1,5.66,8.66,9.87,9.87,0,0,0-3.5-3.66,15.07,15.07,0,0,0-3.67-1.45c-2.52-.75-2.41-.51-3.55-1C333.91,598.94,329.8,594.83,329.52,594.69Zm23.05,80.55c-1.64-.88-3.18-1.93-4.75-2.91a6.39,6.39,0,0,1-1.94-2.25,14.73,14.73,0,0,1,2.84.81,43.24,43.24,0,0,1,4.54,2.68c.42.28.6.9.89,1.37C353.62,675.06,352.93,675.44,352.57,675.24Zm36.55,5.31a6.77,6.77,0,0,1-2.37-.36l1.51-1.35c1.28.13,2,.25,2.64.38C390.31,679.69,389.78,680.41,389.12,680.55Zm4.59-4.88c-4.18,1.26-8.84,1-13.3,1.4-5.66-.4-10.71-.78-15.77-1.21a2,2,0,0,1-1.24-.59c-2.63-3.13-6.84-3.32-10.08-5.29a10.69,10.69,0,0,1-1.83-1.85c1-.16,2.36-.8,3-.39,6.74,4.32,14.67,4.94,22.14,6.79,3.18.79,6.83-.21,10.26-.43,3.17-.22,6.44,0,9.29-1.79.95-.6,2.26-1.25,2.54-2.14.6-1.86,1.92-1.32,3.1-1.35.16,0,.55.87.5.9C399.49,671.8,396.91,674.7,393.71,675.67Zm22.75-6.35c-2.32.89-4.71,1.62-7.07,2.41s-4.29,1.67-6.15,2.46c-.29.12-.7,0-1.05-.05.12-.35.14-.86.39-1,3-1.82,5.48-4.65,9.54-4.43,1.21.06,2.45-.79,3.7-1.08a5,5,0,0,1,1.68.22C417.16,668.35,416.93,669.13,416.46,669.32Zm-1.9-3.77a3.16,3.16,0,0,1,0-.55c1-.24,2-.46,3-.67A21.67,21.67,0,0,1,414.56,665.55Zm1.86-19.92c-.52-.22-.87-.86-1.29-1.3.63,0,1.46-.14,1.85.18,2.45,2,4.87,4.16,7.13,6.41.28.27-.42,1.5-.67,2.29l-1.07-1.33C420.94,648.84,419.15,646.78,416.42,645.63Zm6.56,27a4.69,4.69,0,0,1,0-.53c.8,0,1.6,0,2.41,0A3.5,3.5,0,0,1,423,672.59Zm-.09-3.84c-.42-.13-.75-.58-1.11-.88a5.05,5.05,0,0,1,1.43-.85,10.46,10.46,0,0,0,8.17-6.13c.92-2-.25-3.19-.95-4.69a11.34,11.34,0,0,1-.55-2.21,8.2,8.2,0,0,1,2.62.81,12,12,0,0,1,1.95,2.42c1.66,3.07-1.36,4-1.82,5.85-.22.84-1.16,1.47-1.62,2.28A6.86,6.86,0,0,1,422.89,668.75Zm15.59-2.65a11.58,11.58,0,0,1-1.55,1.5c-1.26,1-2.69,1.94-4,2.95a16.24,16.24,0,0,1-2.57,1c.44-.53.85-1.08,1.31-1.58l0,0c1.7-1.84,3.5-3.61,5.09-5.53.5-.6.41-1.65.67-2.46a11.59,11.59,0,0,1,.74-1.5c.42.37,1.24.78,1.21,1.1C439.27,663.12,439.37,665,438.48,666.1ZM345.66,543.94" transform="translate(-174.96 -3.09)"/><path d="M366.7,605.48c.05,0-.19.57-.3.57" transform="translate(-174.96 -3.09)"/><line x1="181.98" y1="569.07" x2="181.65" y2="571.07"/><path d="M357,591.1" transform="translate(-174.96 -3.09)"/><path d="M342.3,585.53" transform="translate(-174.96 -3.09)"/><path d="M353.29,589.32" transform="translate(-174.96 -3.09)"/><path d="M355.7,618.35" transform="translate(-174.96 -3.09)"/><path d="M342.37,521.89l-.14-.43h.17a2.86,2.86,0,0,1,.07.28A1.4,1.4,0,0,1,342.37,521.89Z" transform="translate(-174.96 -3.09)"/><path d="M355.84,544.08c-.63.06-1.49,1.32-2.06,2.19a.8.8,0,0,1-.13.13l2.36-.53a4.94,4.94,0,0,0,1.06-1.08.94.94,0,0,0,0-.16C357,544.37,356.06,544.06,355.84,544.08Z" transform="translate(-174.96 -3.09)"/><path d="M321.05,517.24l.06,0a1.77,1.77,0,0,1,.65.15,1.87,1.87,0,0,1,1.91.51,37.48,37.48,0,0,0-2.19-3.8,40.28,40.28,0,0,1-2.54-5.84c-.12.13-.23.26-.36.39-.35.36,0,1.43.12,2.14.32,1.5.72,3,1.05,4.47A4.85,4.85,0,0,0,321.05,517.24Z" transform="translate(-174.96 -3.09)"/><path d="M403.7,684.09l0,.06.08,0,0-.07Z" transform="translate(-174.96 -3.09)"/><path d="M324.18,43.6c.2-.9.44-1.49.58-2.11s.17-1.31.25-2a7.54,7.54,0,0,1,1.42,1.94c2,6.25,4,12.5,5.76,18.82.3,1.08-.67,2.51-1.05,3.79-.55-.33-1.33-.52-1.61-1-1.08-1.89-2-3.89-3-5.82a4.71,4.71,0,0,1-.79-3.73c.34-1.7-1.23-3.71-1.64-5.66A19.4,19.4,0,0,1,324.18,43.6Z" transform="translate(-174.96 -3.09)"/><path d="M322,26.64a66.8,66.8,0,0,1,3.88,8.51c.22.61-.89,1.69-1.38,2.55a17.54,17.54,0,0,1-.87-1.93c-.74-2.32-1.49-4.64-2.1-7A4.39,4.39,0,0,1,322,26.64Z" transform="translate(-174.96 -3.09)"/><path d="M320.2,24c.25.4.5.75.42.89-.54.87-1.15,1.69-1.73,2.52l-.61-3.83A11.22,11.22,0,0,1,320.2,24Z" transform="translate(-174.96 -3.09)"/><path d="M330.08,98.47c.14.63.41,1,.39,1.3a21.16,21.16,0,0,1-.31,2.24,9.53,9.53,0,0,1-.92-1.76,11.66,11.66,0,0,1-.33-2.22c-.1-.83-.16-1.67-.23-2.51A26.58,26.58,0,0,1,330.08,98.47Z" transform="translate(-174.96 -3.09)"/><path d="M318.13,80.92a9.81,9.81,0,0,1,.57,1.5l-.76.07A5,5,0,0,1,318.13,80.92Z" transform="translate(-174.96 -3.09)"/><path d="M379.5,626.39a2.55,2.55,0,0,1-1-.78l1-.69A5.14,5.14,0,0,1,379.5,626.39Z" transform="translate(-174.96 -3.09)"/><path d="M254.4,411.19c-.64,5.35-1.31,10.54-1.57,15.75-.24,5-.17,10.09,0,15.13.06,1.58,1,3.11,1.42,4.69.74,2.85,1.21,5.78,2.14,8.56,1.2,3.61,3.14,7,4,10.69s.87,7.73,1.19,11.61c0,.31-.41.65-.64,1-.36-.28-.91-.49-1.07-.86-5.37-12.41-10.74-24.83-16-37.3a19.08,19.08,0,0,1-1.11-5.13c-.48-3.95-.82-7.92-1.2-11.89a2.55,2.55,0,0,1,.2-.79,5.64,5.64,0,0,1,.63.46c.41.4.81.82,1.21,1.22a11,11,0,0,0,.87-2.27c.29-1.87.28-3.8.69-5.63.17-.79,1.07-1.42,1.64-2.13a6.35,6.35,0,0,1,.61,2.17,97.55,97.55,0,0,1-1.82,12.22c-1.1,4.27-.38,8.24,1,12.13,2.5,7,5.23,13.95,8,20.88,1,2.61,2.29,5.14,3.55,7.66.23.44,1,.61,1.53.9a4.37,4.37,0,0,0,0-1.58c-1.45-3.33-3.25-6.54-4.42-10-2.49-7.23-5.06-14.53-5.25-22.26-.11-4.34.73-8.7,1-13.06a36.3,36.3,0,0,0,0-6c-.65-6.85,1.23-13.16,3.63-19.44,1.92-5,3.42-10.18,5.29-15.21,1.2-3.23,2.67-6.37,4.18-9.47.31-.65,1.31-1,2-1.45a11.93,11.93,0,0,1,.66,2.81c0,3.13-3.26,4.4-4.05,7.36-2.39,9-5.39,17.8-8.1,26.7A24.37,24.37,0,0,0,254.4,411.19Z" transform="translate(-174.96 -3.09)"/><path d="M218.22,448.59a22.24,22.24,0,0,1,.83-2.3,7.4,7.4,0,0,1,.92,1.57c.46,1.59.78,3.22,1.22,4.81a5.58,5.58,0,0,0,.69,1.23,4.41,4.41,0,0,0,.44-1.47c-.13-2.47-.49-4.94-.5-7.42a9,9,0,0,1,1.09-2.91,28.12,28.12,0,0,1,1.2,2.55c1.8,5.06,3.54,10.13,5.36,15.18.1.28.9.62,1,.52.34-.29.75-.84.68-1.21-.51-2.72-1.33-5.39-1.66-8.12a15.59,15.59,0,0,1,.61-5,2.3,2.3,0,0,1,1.88-.31c.74.77,1.09,1.91,1.76,2.76a8,8,0,0,0,1.78,1.34,7.38,7.38,0,0,0,.36-2.13,37.42,37.42,0,0,0-1.21-6.87c-1.33-4,.28-7.8.7-11.66.33-3,1.12-6,1.74-9a3.78,3.78,0,0,1,.61-1c.18.37.56.75.52,1.09-.34,3.67-.33,7.45-1.25,11-1.18,4.49-.26,8.66,1.09,12.7,2,5.88,1.85,11.8,1.33,17.79-.06.59-.75,1.13-1.15,1.69-.39-.46-1-.87-1.14-1.41-1.23-3.72-2.35-7.48-3.6-11.19-.2-.6-.86-1-1.3-1.56a5.7,5.7,0,0,0-.41,1.8c.33,3,1,6,1.05,8.95,0,1.52-.94,3.06-1.47,4.59-1.15-1-2.72-1.75-3.34-3-1.05-2.09-1.4-4.52-2.21-6.74a8.45,8.45,0,0,0-1.67-2.07,7.3,7.3,0,0,0-.61,2.18c.1,2.58.42,5.14.51,7.72a4.54,4.54,0,0,1-.61,2.66,13.16,13.16,0,0,1-2.53,2.2c-.12-.93-.22-1.85-.36-2.77-.64-4.15-1.3-8.3-1.94-12.46C218.47,451.14,218.36,450,218.22,448.59Z" transform="translate(-174.96 -3.09)"/><path d="M190.84,462.07c.5.06,1.34.16,1.44.48q1.17,3.92,2.05,7.9c.1.43-.42,1-.65,1.51-.48-.43-1.3-.78-1.4-1.28C191.7,467.88,191.3,465,190.84,462.07Z" transform="translate(-174.96 -3.09)"/><path d="M316.65,253.55c-1.72-1.84-2.25-3.5-1.13-5.78.51-1,.1-2.48.18-3.73a15.61,15.61,0,0,1,.38-2c.61.24,1.56.31,1.78.74.9,1.78,2.07,3.62,2.22,5.52.34,4,0,8.11.14,12.16.06,2.27-.73,2.78-2.93,2.42a7.57,7.57,0,0,0-4,.89c-1.66.75-3.08,2.1-4.77,2.69a5.68,5.68,0,0,1-3.73-.32c-3-1.26-5.34.48-7.41,1.84-2.65,1.76-5.3.41-7.9.84a4.14,4.14,0,0,1-.42-2.07c1.08-3.58,3.07-5.12,6.89-4.87,5.65.36,9.81-2.46,13.79-5.85a23.3,23.3,0,0,1,1.91-1.82c.28-.2.89.09,1.35.16-.08.34-.14.68-.25,1-.47,1.37-1,2.73-1.41,4.12a7.16,7.16,0,0,0-.08,1.74,6.72,6.72,0,0,0,2.11-1.24c1-1.21,1.64-1.34,2.72-.2a4.9,4.9,0,0,0,1,.66c.23-.4.7-.84.65-1.18-.31-1.82-.75-3.61-1.14-5.71m-11.21,10.92c1.26-.29,2.53-.57,3.79-.89,0,0-.11-.52-.16-.79A9.87,9.87,0,0,0,305.44,264.47Z" transform="translate(-174.96 -3.09)"/><path d="M280.67,253.8c.34.44.87,1.2.67,1.58a7.91,7.91,0,0,1-1.77,1.74,2.74,2.74,0,0,1,0-1A17.72,17.72,0,0,1,280.67,253.8Z" transform="translate(-174.96 -3.09)"/><path d="M244.53,253.65a3.43,3.43,0,0,1,.26,1.77,4.68,4.68,0,0,1-.53,0A3.54,3.54,0,0,1,244.53,253.65Z" transform="translate(-174.96 -3.09)"/><path d="M302.94,372.83a11.63,11.63,0,0,0,1.44,1.76,2.12,2.12,0,0,1,.32.7c-1.48.78-3,1.52-4.48,2.26a17.65,17.65,0,0,1-.8-2.28c-.45-2.17-.9-4.35-1.14-6.54a6.11,6.11,0,0,1,.74-2.3,14.08,14.08,0,0,1,1.54,1.83A43,43,0,0,1,302.94,372.83Z" transform="translate(-174.96 -3.09)"/><path d="M195.12,516.06A8.09,8.09,0,0,1,194,518l-.79-1.44A7.2,7.2,0,0,1,195.12,516.06Z" transform="translate(-174.96 -3.09)"/><path d="M295,596.8c-.46.34-.79.73-1.08.7-4.73-.53-9.6.18-14.19-2-1.56-.72-3.68-.23-5.54-.37a26.5,26.5,0,0,1-2.64-.46c.63-.62,1.23-1.74,1.88-1.77a40.2,40.2,0,0,1,7,.29c2.37.3,4.71.93,7.07,1.36,2.2.4,4.42.67,6.62,1.1C294.55,595.77,294.85,596.32,295,596.8Z" transform="translate(-174.96 -3.09)"/><path d="M236.71,588.93a52.26,52.26,0,0,1,1.86,5.89c.11.45-.52,1.08-.81,1.63a11.42,11.42,0,0,1-.89-1.33c-1.85-3.84-3.67-7.69-5.5-11.53-.19-.41-.57-.8-.59-1.21,0-1.4,0-2.81.08-4.22.62,1,1.3,2.05,1.86,3.11C234,583.76,235.29,586.28,236.71,588.93Z" transform="translate(-174.96 -3.09)"/><path d="M219,523.14c-.46.54-.77.94-1.08,1.33-.18-.56-.6-1.19-.47-1.67s.8-.86,1.24-1.28A5.49,5.49,0,0,1,219,523.14Z" transform="translate(-174.96 -3.09)"/><path d="M223.67,303.8l.8.8" transform="translate(-174.96 -3.09)"/><path d="M233.87,249.26" transform="translate(-174.96 -3.09)"/><path class="cls-1" d="M316.38,529.75" transform="translate(-174.96 -3.09)"/><path d="M331.12,544.12" transform="translate(-174.96 -3.09)"/><path d="M340.65,539.29" transform="translate(-174.96 -3.09)"/><path d="M360.33,572.83" transform="translate(-174.96 -3.09)"/><path d="M373.33,543.5" transform="translate(-174.96 -3.09)"/><path d="M347.18,535.29" transform="translate(-174.96 -3.09)"/><path d="M337.83,604.5" transform="translate(-174.96 -3.09)"/><path d="M303.67,606.17" transform="translate(-174.96 -3.09)"/><path d="M350.67,609.83" transform="translate(-174.96 -3.09)"/><path d="M318.33,586" transform="translate(-174.96 -3.09)"/><path d="M393.25,543.75" transform="translate(-174.96 -3.09)"/><path d="M386.25,546.25" transform="translate(-174.96 -3.09)"/><path d="M397,546.25" transform="translate(-174.96 -3.09)"/></svg>