<svg xmlns="http://www.w3.org/2000/svg" viewBox="0 0 691.08 691.08"><defs><style>.cls-1{fill:#fff;}.cls-2,.cls-3{fill:#e53535;}.cls-2{opacity:0.89;}.cls-4,.cls-5{fill:#9e0505;}.cls-4{opacity:0.94;}</style></defs><g id="Layer_5" data-name="Layer 5"><rect class="cls-1" width="691.08" height="691.08"/></g><g id="Layer_4" data-name="Layer 4"><path class="cls-2" d="M331.5,659.5c3.47,1.66,4.83,1,11,2A65.11,65.11,0,0,1,358,666c6.07,2.71,5.22,3.8,9.5,5.5,6,2.39,11.58,1.62,22.5,0,9.12-1.36,7.64-2,18.14-3.72,11.76-2,15.08-1.47,19.36-4.78,3.2-2.47,7.25-7.33,6.39-12-.8-4.25-5.15-5.33-11.39-9.53-16.27-11-15.29-23-28.57-26.77-2.38-.68-2.92-.44-10.52-2.19-7-1.63-9.27-2.46-13.41-2.54-3.71-.07-4.78.53-9,1a64.75,64.75,0,0,1-16.51-.54C333.24,609.19,327.92,612,312,613c-20.62,1.28-18.09-3.07-40.5-2-17.62.84-21.38,3.63-31,.5-4-1.31-10.05-4-12.5-1.5-1.83,1.85-.74,5.66-.5,6.5,3.36,11.72,23.42,16.51,28,17.5,18.22,3.93,21.11-2.72,37.5,2.5a89.71,89.71,0,0,1,21,10c6.9,4.7,9.95,7.22,9.95,7.22C327.91,657,328.78,658.2,331.5,659.5Z"/><path class="cls-3" d="M545.5,653"/></g><g id="Layer_3" data-name="Layer 3"><path class="cls-4" d="M346.29,606.93c-1.37,2.13-7.87-2.28-13.33.11a17.83,17.83,0,0,1-6.12,1.74c-.35,0-.61,0-1.6.07-3,.08-4.49.12-6.89.11-6.17,0-7.88.29-14.61.17-3.8-.06-6.6-.12-10.44-.52-5.07-.53-5-.94-8.69-1.22-5.8-.43-6.26.57-12.52.35-5.87-.21-5.89-1.1-11-1-4.56,0-5,.78-10.47,1.15a52.76,52.76,0,0,1-12.12-.26c-8.14-1.23-11.07-4.19-14.26-2.18a6.89,6.89,0,0,0-3,4.42A7.32,7.32,0,0,0,222,614a19.27,19.27,0,0,0,4.73,7.06C249.17,639.34,262,641.65,262,641.65c12.29,2.21,17.11-1,30,1.83a78.36,78.36,0,0,1,16.18,5.71,53.08,53.08,0,0,1,5.32,3,71.25,71.25,0,0,1,8,5.89c.91.77,1.64,1.43,2.14,1.89l.73.68c9,8.52,35.74,16.39,35.74,16.39,8,2.36,12.06,3.54,16.39,4.1,5.36.69,12.2,1.51,20.37-.79a41.89,41.89,0,0,0,11.83-5.45c6.08-2.14,1.3-1.46,4.82-2.7a13.89,13.89,0,0,1,3.76-.8c4.18-.27,10.87,2.92,16.89,1.82.44-.08,6.29-1.24,9.44-6.31a13.26,13.26,0,0,0,1.91-6.09,14.4,14.4,0,0,0-2.78-9.56c-1.76-2.25-2.46-1.53-5.1-4.31-3-3.15-2.75-4.76-5.18-6.95-2.08-1.87-3.48-1.78-6.77-3.18-7.48-3.17-12.19-8.71-15.13-12.17-2.37-2.8-3.59-4.23-4.72-6.68-3.25-7-2.17-14.71-2.58-14.71a16.9,16.9,0,0,1-1,3.27c-1,2-2.69,3.27-3.25,3-.09-.05-.11-.13-.27-.38a4.56,4.56,0,0,0-.3-.47c-.32-.44-2.31.39-3.31.44-1.92.12-3.13-2.43-4.75-4.27-.86-1-1.08-.89-10.92-5.2-6.74-3-8.69-3.9-9.6-5.93-.22-.48-.61-1.55-1.34-1.64-1.16-.14-2.35,2.38-2.49,2.69-2.38,5.17,2.32,10.2.73,12.1-2.72,3.25-19.81-7.46-21.6-5C344.35,602.91,347.25,605.46,346.29,606.93Z"/><path class="cls-5" d="M353.11,558.52a2.48,2.48,0,0,1,0,2,1.13,1.13,0,0,1-.87.5,1.16,1.16,0,0,1-.85-.59,1.9,1.9,0,0,1-.21-.75,8.86,8.86,0,0,1,0-3.46c0-.19.09-.37.09-.37s0-.15.09-.3a8.22,8.22,0,0,1,.73-1.51,2.35,2.35,0,0,1,.41-.57,6.94,6.94,0,0,0-.36.89,3.92,3.92,0,0,0-.12.67,4.14,4.14,0,0,0,0,.68,5.23,5.23,0,0,0,.39,1.27c.08.19.19.46.34.78A5,5,0,0,1,353.11,558.52Z"/><path class="cls-5" d="M379,557.75"/><path class="cls-5" d="M383.5,548.75"/><path class="cls-5" d="M350.36,547.2c-1.68.75-5.68-4.3-8.21-9.39-1.42-2.86-8.35-10.14-6.25-14.59.54-1.14,2.2-1.5,4.23-2.09,2.73-.79,10,2.91,11.21,3.88,1.62,1.34.38.94,2.56,2.89,1.35,1.21,2.48,2,3.14,3.59a6.7,6.7,0,0,1,.41,1.64c0,.29,1.19,4.49-.54,6.91-1.23,1.73-2.32.48-3.58,2.05C351.27,544.64,351.49,546.69,350.36,547.2Z"/><path class="cls-5" d="M407,536.5"/><path d="M441.5,606.5"/><path class="cls-5" d="M486.5,666"/><path class="cls-5" d="M428.5,601"/><path class="cls-5" d="M353.51,560.13a1.57,1.57,0,0,1-1,.82,1.63,1.63,0,0,1-1.48-.86,3.22,3.22,0,0,1-.21-.73,6,6,0,0,1-.19-1.29,5.82,5.82,0,0,1,.18-1.51,5.93,5.93,0,0,1,.87-1.85,8.1,8.1,0,0,1,1.55-1.7,3.45,3.45,0,0,0-.25.26l-.24.29c-.21.23-.36.38-.46.5a5.23,5.23,0,0,0-.59.83,4.61,4.61,0,0,0-.88,3.23,5.27,5.27,0,0,0,.07.77,2.75,2.75,0,0,0,.77,1.71,1.29,1.29,0,0,0,.45.22,1.21,1.21,0,0,0,.58,0A1.38,1.38,0,0,0,353.51,560.13Z"/><path class="cls-5" d="M353,554.65"/><path class="cls-5" d="M353.79,553.63"/><path class="cls-5" d="M350.89,558.2"/><path class="cls-5" d="M353.65,554"/><path class="cls-5" d="M422.17,614.7"/><path class="cls-5" d="M455.91,594.7"/></g></svg>