<svg width="28" height="28" viewBox="0 0 28 28" fill="none" xmlns="http://www.w3.org/2000/svg">
<path d="M14.0123 6.86645C13.7661 6.86645 13.5225 6.87901 13.2826 6.90359C13.0426 6.92817 12.806 6.96459 12.5734 7.0124C12.3408 7.06021 12.1123 7.11941 11.8884 7.18929L11.2313 7.43058L10.6056 7.7327L10.0152 8.09195L9.46354 8.50457L8.95449 8.96698L8.49163 9.47559L8.07856 10.0266L7.71886 10.6165L7.41656 11.2414C7.3257 11.4552 7.24488 11.6743 7.17491 11.8981C7.10494 12.1218 7.04574 12.3501 6.99784 12.5825C6.94994 12.8148 6.91352 13.0512 6.88885 13.2909C6.86419 13.5307 6.85181 13.774 6.85181 14.0199C6.85181 14.2659 6.86436 14.5092 6.88885 14.7489C6.9132 14.9868 6.94958 15.2233 6.99784 15.4575C7.04574 15.6907 7.10494 15.9182 7.17491 16.1419C7.24488 16.3656 7.32561 16.5847 7.41656 16.7985L7.71886 17.4235L8.07856 18.0132L8.49163 18.5644L8.95449 19.073L9.46354 19.5354L10.0152 19.948L10.6056 20.3073L11.2313 20.6094L11.8884 20.8507L12.5734 21.0276C12.8078 21.0758 13.0445 21.1121 13.2826 21.1365C13.525 21.1612 13.7686 21.1736 14.0123 21.1735C14.2585 21.1735 14.502 21.1609 14.7419 21.1365C14.98 21.1121 15.2167 21.0758 15.4511 21.0276L16.1361 20.8507L16.7933 20.6094L17.4189 20.3073L18.0094 19.948L18.561 19.5354L19.0702 19.073L19.533 18.5644L19.9461 18.0132L20.3058 17.4235L20.6081 16.7985L20.8497 16.1419C20.9197 15.9182 20.9789 15.6898 21.0268 15.4575L21.1358 14.7488C21.1604 14.5091 21.1729 14.2658 21.1729 14.0198C21.1729 13.7739 21.1604 13.5306 21.1358 13.2908C21.1114 13.053 21.0751 12.8165 21.0268 12.5824C20.9789 12.3492 20.9197 12.1218 20.8497 11.898L20.6081 11.2414L20.3058 10.6164L19.9461 10.0265L19.533 9.4755L19.0702 8.96689L18.561 8.50449L18.0094 8.09186L17.4189 7.73261L16.7933 7.43049L16.1361 7.1892L15.4511 7.01231L14.7419 6.9035C14.4995 6.87874 14.256 6.86635 14.0123 6.86636V6.86645ZM14.0123 9.33557C14.1751 9.33557 14.3357 9.34364 14.494 9.3596L14.9604 9.4302L15.411 9.54502L15.8425 9.70173L16.2527 9.89817L16.6384 10.1318L16.999 10.4007L17.3314 10.7023L17.6332 11.0343L17.9023 11.3946L18.1363 11.7808L18.3327 12.1908C18.3918 12.331 18.4441 12.4748 18.4897 12.6219C18.5353 12.7689 18.5736 12.9191 18.6045 13.0722C18.6355 13.2252 18.6583 13.3809 18.6751 13.539L18.6992 14.0204C18.6992 14.183 18.6911 14.3436 18.6751 14.5018C18.6592 14.66 18.6357 14.8158 18.6045 14.9687C18.5734 15.1216 18.535 15.2719 18.4897 15.419L18.3327 15.8501L18.1363 16.26L17.9023 16.6462L17.6332 17.0065L17.3314 17.3386L16.999 17.6402L16.6384 17.909L16.2527 18.1427L15.8425 18.3391L15.411 18.4958L14.9604 18.6107L14.494 18.6812C14.3339 18.6972 14.1731 18.7052 14.0122 18.7052C13.8513 18.7052 13.6904 18.6972 13.5303 18.6812L13.0639 18.6107C12.9108 18.5796 12.7604 18.5412 12.6132 18.4958L12.1818 18.3391L11.7715 18.1427L11.3858 17.909L11.0252 17.6402L10.6928 17.3386L10.391 17.0065L10.1219 16.6462L9.88792 16.26L9.69147 15.8501L9.5345 15.419L9.41968 14.9687L9.34908 14.5018C9.33303 14.3418 9.32501 14.1812 9.32504 14.0204C9.32501 13.8596 9.33303 13.699 9.34908 13.539C9.36496 13.3809 9.38855 13.2251 9.41968 13.0722C9.45049 12.9203 9.48884 12.77 9.53459 12.6219L9.69156 12.1908L9.88801 11.7809L10.1219 11.3947L10.3911 11.0344L10.6929 10.7023L11.0253 10.4008L11.3859 10.1319L11.7716 9.89826L12.1818 9.70181C12.323 9.64252 12.4671 9.59022 12.6134 9.54511L13.0641 9.43029C13.2172 9.39925 13.3731 9.37557 13.5305 9.35969C13.6906 9.34365 13.8514 9.33563 14.0124 9.33565L14.0123 9.33557Z" fill="black"/>
<path d="M21.4633 4.83148C21.4064 4.83149 21.3496 4.83437 21.293 4.84009C21.2364 4.84581 21.1802 4.85437 21.1245 4.86575C21.0688 4.87711 21.0136 4.89127 20.9593 4.90818C20.905 4.92509 20.8516 4.94473 20.7992 4.96702C20.7468 4.98934 20.6956 5.01427 20.6457 5.04174C20.5958 5.06915 20.5473 5.09906 20.5004 5.13135C20.4535 5.16368 20.4082 5.19835 20.3647 5.23523C20.3212 5.27207 20.2796 5.31108 20.24 5.35211C20.2004 5.39316 20.1629 5.43618 20.1275 5.48101C20.0922 5.52584 20.0591 5.57242 20.0284 5.62058C19.9977 5.6687 19.9694 5.71834 19.9436 5.76931C19.9178 5.82031 19.8946 5.87258 19.8739 5.92592C19.8534 5.97926 19.8354 6.0336 19.8202 6.08873C19.805 6.14387 19.7926 6.19973 19.7829 6.25611C19.7732 6.31249 19.7664 6.36931 19.7624 6.42637C19.7595 6.46679 19.7581 6.5073 19.7581 6.54782C19.7581 6.60507 19.7609 6.66228 19.7666 6.71924C19.7723 6.77617 19.7808 6.83279 19.7921 6.88887C19.8033 6.94494 19.8174 7.00042 19.8342 7.05508C19.851 7.10976 19.8705 7.16356 19.8927 7.21627C19.9148 7.26901 19.9396 7.32059 19.9669 7.37083C19.9941 7.42106 20.0239 7.46989 20.056 7.51713C20.0881 7.56434 20.1225 7.60991 20.1591 7.65366C20.1957 7.69744 20.2345 7.73935 20.2753 7.77924C20.3161 7.8191 20.3588 7.85688 20.4034 7.89244C20.4479 7.92803 20.4942 7.96135 20.542 7.99228C20.5899 8.02321 20.6393 8.05171 20.69 8.07767C20.7406 8.10365 20.7925 8.12706 20.8455 8.14782C20.8985 8.16855 20.9525 8.18661 21.0072 8.20191C21.062 8.21719 21.1175 8.2297 21.1735 8.23941C21.2296 8.24915 21.286 8.25606 21.3427 8.26013C21.3829 8.26299 21.4231 8.26443 21.4634 8.26443C21.5202 8.26445 21.577 8.26161 21.6336 8.25591C21.6902 8.25019 21.7464 8.24163 21.8022 8.23026C21.8579 8.21889 21.913 8.20473 21.9673 8.18783C22.0216 8.17091 22.0751 8.15127 22.1274 8.12898C22.1798 8.1067 22.231 8.08179 22.2809 8.05435C22.3308 8.02691 22.3793 7.99697 22.4262 7.96465C22.4731 7.93235 22.5184 7.89772 22.5619 7.86087C22.6054 7.82399 22.647 7.78495 22.6866 7.7439C22.7262 7.70284 22.7638 7.65982 22.7991 7.615C22.8344 7.57016 22.8675 7.52358 22.8982 7.47542C22.9289 7.42727 22.9572 7.3776 22.983 7.32661C23.0088 7.2756 23.0321 7.22333 23.0527 7.16999C23.0733 7.11666 23.0912 7.06232 23.1064 7.00718C23.1216 6.95205 23.1341 6.89618 23.1437 6.8398C23.1534 6.78343 23.1602 6.72661 23.1643 6.66955C23.1671 6.62912 23.1686 6.58861 23.1686 6.54809C23.1686 6.49087 23.1657 6.43369 23.1601 6.37676C23.1544 6.31983 23.1459 6.26322 23.1346 6.20714C23.1233 6.15106 23.1092 6.09558 23.0924 6.04092C23.0756 5.98624 23.0561 5.93244 23.0339 5.87973C23.0118 5.827 22.987 5.77541 22.9598 5.72517C22.9325 5.67494 22.9028 5.62611 22.8707 5.57887C22.8385 5.53163 22.8041 5.48603 22.7674 5.44226C22.7308 5.39848 22.6921 5.35656 22.6514 5.31667C22.6106 5.27681 22.5678 5.23903 22.5233 5.20347C22.4787 5.16792 22.4324 5.13463 22.3846 5.10372C22.3367 5.07279 22.2874 5.04429 22.2367 5.01833C22.186 4.99235 22.1341 4.96894 22.0811 4.94818C22.0281 4.92745 21.9742 4.9094 21.9194 4.89409C21.8646 4.87878 21.8091 4.86624 21.7531 4.85651C21.6971 4.8468 21.6406 4.83991 21.5839 4.83588C21.5438 4.83301 21.5035 4.83157 21.4633 4.83157V4.83148Z" fill="black"/>
<path d="M12.6545 0.0253158C11.8757 0.02406 11.1807 0.0272888 10.5564 0.0360795L8.88254 0.08093C8.38667 0.102458 7.94857 0.130533 7.55532 0.166862C7.35869 0.184981 7.17319 0.205254 6.99738 0.227589C6.83007 0.248676 6.66322 0.273231 6.49693 0.301235C6.33861 0.328146 6.18836 0.357207 6.0443 0.388782C5.90024 0.420357 5.76264 0.454444 5.62988 0.491042C5.5001 0.52683 5.37133 0.566195 5.24372 0.60909C5.11868 0.651249 4.99668 0.69592 4.87622 0.743641C4.63528 0.839083 4.40026 0.946184 4.15825 1.0662C3.97203 1.1586 3.79998 1.25215 3.63655 1.35118C3.47311 1.45021 3.31829 1.55481 3.16669 1.66873C3.01057 1.78662 2.8601 1.9118 2.71576 2.04386C2.56489 2.18128 2.41078 2.33242 2.25066 2.50133C2.04947 2.7124 1.87464 2.9092 1.71945 3.10233C1.64186 3.19885 1.56921 3.29429 1.50076 3.39027C1.43308 3.48486 1.36837 3.58154 1.30674 3.68018C1.24574 3.77796 1.18798 3.87753 1.13272 3.97996C1.0766 4.08417 1.02357 4.19 0.97368 4.29733C0.8716 4.51656 0.776338 4.75265 0.681255 5.01619C0.610715 5.21102 0.547551 5.40844 0.491896 5.60804C0.435115 5.81202 0.384613 6.02542 0.339583 6.25622C0.294553 6.48702 0.255264 6.73522 0.220729 7.00971C0.183514 7.31059 0.153784 7.61234 0.131566 7.9147C0.10645 8.24713 0.0856395 8.61293 0.0685963 9.02009L0.0282309 10.3739L0.00652319 12.0241L0.000244141 14.0188L0.0186329 16.9194L0.0760415 19.1171L0.120264 19.9755L0.17552 20.6869C0.193233 20.8786 0.215395 21.0699 0.241989 21.2606C0.266208 21.43 0.292221 21.5781 0.320208 21.7064C0.376995 21.9672 0.444145 22.2256 0.521497 22.4811C0.595561 22.7256 0.68026 22.9669 0.775351 23.2041C0.86882 23.4364 0.971079 23.6605 1.08231 23.8761C1.19354 24.0917 1.31374 24.299 1.44291 24.498C1.57208 24.697 1.71022 24.8879 1.85768 25.0707C2.00499 25.2534 2.16166 25.4284 2.32709 25.5949C2.49277 25.7617 2.66751 25.9205 2.85166 26.0714C3.038 26.224 3.23168 26.3674 3.43203 26.501C3.61798 26.6254 3.80196 26.7392 3.98728 26.8437C4.1726 26.9482 4.35954 27.043 4.55168 27.1292C4.74382 27.2154 4.9408 27.293 5.14657 27.3628C5.35235 27.4326 5.56673 27.4946 5.79332 27.5497C6.0199 27.6048 6.25976 27.6531 6.51362 27.6953C6.76747 27.7375 7.03882 27.7736 7.32873 27.8047C7.61865 27.8359 7.92794 27.8616 8.26028 27.8831C8.59262 27.9047 8.94784 27.9219 9.32952 27.9357C9.91912 27.9571 10.8116 27.9695 11.8409 27.9743L15.1728 27.9675L18.328 27.9233L19.5276 27.8896L20.3092 27.8494C20.4769 27.8358 20.6411 27.8196 20.7995 27.8007C20.9579 27.7818 21.1142 27.7602 21.2663 27.7356C21.4184 27.711 21.5672 27.6836 21.7133 27.6531C21.8577 27.623 22.0014 27.5894 22.1442 27.5523C22.2856 27.5164 22.425 27.4756 22.5629 27.4323C22.7009 27.389 22.8374 27.3422 22.9731 27.2919C23.1096 27.2414 23.2449 27.1875 23.3788 27.1304C23.5136 27.073 23.6482 27.0116 23.7833 26.9465C23.9908 26.8466 24.1578 26.7632 24.3045 26.6819C24.4424 26.6062 24.5753 26.5216 24.7022 26.4285C24.8274 26.3363 24.9519 26.2314 25.0955 26.0992C25.239 25.9669 25.4016 25.8076 25.603 25.6062C25.78 25.4293 25.9292 25.2755 26.058 25.1357C26.1867 24.9958 26.2951 24.87 26.3902 24.7487C26.4809 24.6336 26.5653 24.5138 26.6432 24.3897C26.7191 24.2686 26.7891 24.1429 26.8604 24.0034C26.9677 23.7935 27.0631 23.5991 27.1486 23.4115C27.2316 23.2308 27.3075 23.0468 27.3759 22.8601C27.4434 22.6748 27.5018 22.4863 27.5509 22.2954C27.6015 22.0989 27.6451 21.8916 27.6828 21.6641C27.7205 21.4366 27.7523 21.189 27.7799 20.9126C27.8076 20.6361 27.8311 20.3306 27.8517 19.9873L27.9064 18.8349L27.9534 17.4018L27.987 15.8051L27.9999 14.1356L27.9699 10.8565L27.9298 9.38786L27.8751 8.12684L27.8069 7.14372C27.7822 6.87013 27.7555 6.65467 27.7271 6.509C27.6958 6.34804 27.6607 6.18782 27.622 6.02847C27.5843 5.87341 27.5429 5.71929 27.4978 5.56624C27.4537 5.41713 27.406 5.26916 27.3544 5.12249C27.3035 4.97762 27.2495 4.8358 27.1929 4.69704C27.1364 4.55827 27.0753 4.42273 27.0116 4.29006C26.9479 4.15739 26.8811 4.02795 26.8111 3.90148C26.741 3.775 26.668 3.65166 26.5917 3.53137C26.5153 3.41108 26.4359 3.29384 26.3531 3.17974C26.2708 3.06601 26.1849 2.95487 26.0956 2.8465C26.0068 2.73873 25.9146 2.63378 25.8192 2.53183C25.7239 2.43001 25.6254 2.33123 25.5238 2.23564C25.4222 2.14002 25.3175 2.04744 25.2095 1.95792C25.1011 1.86811 24.9899 1.78168 24.8761 1.69878C24.7612 1.61502 24.6437 1.5348 24.5238 1.4582C24.4023 1.38051 24.2785 1.30645 24.1526 1.2361C24.0245 1.16457 23.8944 1.09673 23.7624 1.03266C23.5434 0.926182 23.3408 0.831728 23.142 0.747947C22.9465 0.6648 22.7472 0.590952 22.5447 0.526654C22.3411 0.462518 22.1291 0.407531 21.8959 0.36008C21.6627 0.312628 21.4084 0.273069 21.1205 0.239432C20.8327 0.205794 20.5113 0.178615 20.1437 0.15601C19.7761 0.133406 19.3627 0.115643 18.8906 0.101291L17.2862 0.0654114L15.2556 0.0414613L12.6554 0.0254937L12.6545 0.0253158ZM14.0049 2.49227L17.7547 2.51362L19.1693 2.54089C19.5588 2.55183 19.8561 2.56466 20.0304 2.57946C20.2573 2.59857 20.4735 2.62252 20.6803 2.65122C20.8787 2.67862 21.0762 2.7127 21.2723 2.75339C21.4607 2.79286 21.6404 2.83771 21.8123 2.8883C21.9843 2.93889 22.1485 2.99558 22.3061 3.05829C22.4637 3.12099 22.6144 3.18997 22.7595 3.2655C22.9033 3.34045 23.0432 3.42294 23.1784 3.51262C23.3129 3.60187 23.4426 3.69803 23.5686 3.80164C23.6945 3.90524 23.8166 4.01629 23.9358 4.13506C24.0617 4.26037 24.1777 4.38801 24.2847 4.5197C24.3914 4.65056 24.49 4.78772 24.5801 4.93044C24.6713 5.07518 24.7534 5.22542 24.8261 5.38029C24.9004 5.53816 24.9671 5.705 25.027 5.88234C25.0869 6.05968 25.1403 6.24814 25.1876 6.44952C25.2371 6.66302 25.2786 6.87831 25.3119 7.09492C25.3478 7.32456 25.3785 7.56944 25.4045 7.83164C25.4305 8.09383 25.452 8.37343 25.4698 8.67258C25.484 8.91253 25.4963 9.22918 25.5068 9.60314L25.5331 10.8782L25.5532 14.0016L25.5303 17.1221L25.5029 18.3935L25.4651 19.3182C25.4389 19.7512 25.4113 20.1152 25.3783 20.432C25.3617 20.5904 25.3438 20.737 25.3238 20.8745C25.3052 21.0044 25.2831 21.1338 25.2576 21.2626C25.2342 21.38 25.2072 21.4967 25.1764 21.6124C25.1469 21.7228 25.1137 21.8322 25.0769 21.9404C25.0398 22.0492 24.9995 22.1567 24.9559 22.263C24.9098 22.3752 24.8612 22.4864 24.8101 22.5964C24.7646 22.6947 24.7168 22.7902 24.6662 22.8832C24.6162 22.9753 24.5631 23.0656 24.5069 23.1541C24.4513 23.2417 24.393 23.3269 24.332 23.4093C24.2714 23.4915 24.2078 23.5714 24.1413 23.649C24.0751 23.7262 24.0061 23.801 23.9344 23.8732C23.8626 23.9454 23.7882 24.0151 23.711 24.0824C23.6339 24.1497 23.5539 24.2143 23.4711 24.2765C23.3883 24.3388 23.3026 24.3985 23.2141 24.4558C23.1255 24.513 23.0342 24.5679 22.9399 24.6203C22.8457 24.6726 22.7484 24.7227 22.6484 24.7703C22.5467 24.8187 22.4435 24.864 22.339 24.9061C22.2311 24.9497 22.1219 24.9902 22.0116 25.0277C21.7874 25.1041 21.5508 25.1712 21.3018 25.2291C21.0423 25.289 20.7804 25.338 20.5168 25.376C20.4154 25.3908 20.1824 25.4047 19.8488 25.4176L18.5772 25.453L14.9721 25.4998L11.1987 25.5057L9.71684 25.4899L8.75462 25.46L8.04509 25.4101C7.82478 25.3915 7.6199 25.3709 7.42794 25.3475C7.23598 25.3241 7.05721 25.298 6.88902 25.2685C6.72964 25.241 6.57122 25.2081 6.41405 25.1699C6.27074 25.135 6.1289 25.0944 5.98887 25.048C5.85387 25.0032 5.72479 24.9539 5.59921 24.8996C5.47362 24.8453 5.35163 24.7859 5.2308 24.7209C5.10998 24.656 4.99041 24.5855 4.86949 24.5086C4.77826 24.4506 4.69009 24.392 4.60523 24.3298C4.52037 24.2676 4.43838 24.2057 4.35945 24.1407C4.28051 24.0758 4.20471 24.0089 4.13161 23.94C4.05899 23.8714 3.98886 23.8003 3.92135 23.7267C3.85407 23.6533 3.78976 23.5778 3.72804 23.4995C3.66609 23.421 3.60705 23.3402 3.55106 23.2573C3.49424 23.1732 3.44047 23.087 3.38987 22.999C3.33874 22.9102 3.29012 22.8183 3.24393 22.7236C3.19696 22.6271 3.15313 22.5291 3.11251 22.4297C3.07125 22.3285 3.03214 22.2241 2.99536 22.1163C2.92181 21.9005 2.85722 21.6709 2.80107 21.426C2.74492 21.1811 2.69702 20.921 2.65647 20.6438C2.61593 20.3666 2.58328 20.0728 2.55726 19.7604C2.53807 19.5304 2.52282 19.172 2.51116 18.7199L2.48676 17.112L2.49573 13.0131L2.56632 9.09642L2.62014 7.71646L2.65064 7.26033C2.66123 7.13852 2.67217 7.04828 2.68338 6.9941C2.72034 6.81586 2.75757 6.65001 2.79605 6.49473C2.832 6.34825 2.87199 6.20279 2.91598 6.05852C2.95778 5.92235 3.00182 5.7948 3.04891 5.67397C3.09433 5.55692 3.14494 5.44196 3.2006 5.32943C3.25496 5.21999 3.31335 5.11522 3.37677 5.01323C3.44019 4.91124 3.50863 4.8123 3.58326 4.7139C3.6579 4.6155 3.73827 4.51835 3.82573 4.41986C3.91318 4.32137 4.00764 4.22189 4.11008 4.11936C4.22947 3.99929 4.35378 3.88423 4.4827 3.77446C4.60443 3.6709 4.73137 3.57362 4.86303 3.48302C4.99247 3.39332 5.12523 3.31349 5.26346 3.24011C5.40168 3.16673 5.54539 3.10045 5.69653 3.04079C5.84768 2.98114 6.00645 2.92777 6.17464 2.87933C6.35133 2.82977 6.52999 2.78748 6.71015 2.75259C6.8996 2.71545 7.1008 2.68307 7.31564 2.65481C7.53047 2.62655 7.75903 2.60216 8.00337 2.58099C8.17381 2.56628 8.46749 2.55318 8.85419 2.54215L10.2616 2.51434L14.0055 2.49146L14.0049 2.49227Z" fill="black"/>
</svg>
