<svg width="35" height="28" viewBox="0 0 35 28" fill="none" xmlns="http://www.w3.org/2000/svg">
<path d="M30.4637 7.03982C30.4843 7.33766 30.4843 7.6355 30.4843 7.93609C30.4843 17.0951 23.5118 27.6582 10.7622 27.6582V27.6528C6.9959 27.6582 3.30786 26.5794 0.137268 24.5453C0.684915 24.6112 1.23531 24.6441 1.78707 24.6455C4.90825 24.6482 7.94021 23.601 10.3957 21.6726C7.42962 21.6163 4.82864 19.6824 3.92001 16.859C4.95903 17.0594 6.02962 17.0182 7.04943 16.7396C3.8157 16.0863 1.48923 13.2451 1.48923 9.9455C1.48923 9.91531 1.48923 9.88648 1.48923 9.85766C2.45276 10.3943 3.53158 10.6922 4.63511 10.7251C1.58943 8.68962 0.650602 4.63786 2.48982 1.47001C6.00903 5.80041 11.2014 8.43295 16.7753 8.71158C16.2167 6.30413 16.9798 3.78139 18.7806 2.08903C21.5724 -0.53528 25.9632 -0.40077 28.5875 2.38962C30.1398 2.08354 31.6277 1.51394 32.9892 0.706876C32.4718 2.31139 31.3888 3.67433 29.9422 4.54041C31.3161 4.37844 32.6585 4.0106 33.9226 3.44923C32.992 4.84374 31.8198 6.05844 30.4637 7.03982Z" fill="black"/>
</svg>
