<svg xmlns="http://www.w3.org/2000/svg" viewBox="0 0 682.52 445.81">
  <g id="Layer_2" data-name="Layer 2">
    <path
      d="M539,8.38c4.76,1.2,5.2,2.74,5.27,3.24s-.31.82-2.09,4.56c-.31.63-.64,1.32-1.06,2.14-2.49,4.92.79,9.22,5.06,10,.55.09,1.09.23,1.65.31A2.49,2.49,0,0,1,550,30.27,13,13,0,0,0,552.51,34c.93,1.07,2,2.18,3.66,1.76a1.28,1.28,0,0,1,1.56.8,7.92,7.92,0,0,1,1.29,4A31.12,31.12,0,0,1,559,44c-.49,3,.43,5.86,1,8.73a8.8,8.8,0,0,0,3.55,5c2,1.54,4.28,2.84,7,2.46a3.85,3.85,0,0,1,.48,0c4,0,6.64,2.62,6.54,6.71a19.23,19.23,0,0,0-.08,2.14,6.81,6.81,0,0,0,6.39,6.32,8.91,8.91,0,0,0,8.4-3.39c2.08-2.45,3.38-5.4,5.6-7.69a2.35,2.35,0,0,0,.5-1.57,3.58,3.58,0,0,1,2.1-3c2.08-1.13,2.81-3.07,3-5.3a14.94,14.94,0,0,1,.27-2.13,10.1,10.1,0,0,0,.1-4.51,13.16,13.16,0,0,1-.12-4.06c.14-1.45.81-2,2.25-1.77a5.46,5.46,0,0,1,4.4,3.31,14.94,14.94,0,0,1,1.3,4.34c.18,1.33.33,2.52-.92,3.46a2,2,0,0,0-.73,1.2c-.31,2.08-1.36,3.86-2.14,5.77a36.43,36.43,0,0,1-4.28,7.42,4.44,4.44,0,0,0-.82,1.17c-.75,2.77-2.77,4.81-4.15,7.21-1,1.72-2,3.45-2.89,5.2-1,2.16-.51,4.7-.23,7.08a1.54,1.54,0,0,0,1.14,1.14,4.08,4.08,0,0,1,2.06,1.91c1.83,3,4.7,4.19,8,4.73,1.22.2,2.77-.31,3.55.95,1.16,1.86,2.8,3.52,2.74,6-.06,2.8.07,5.6,0,8.39-.09,3,.93,5.66,1.76,8.39a5.46,5.46,0,0,0,2.75,2.91c2.12,1.18,2.95,3.55,4.82,4.93.06,2.21,1.5,3.92,2.12,5.89a6.86,6.86,0,0,1-.41,4.23,5.24,5.24,0,0,0-.15,3.29,43,43,0,0,0,3.17,8.49,2.78,2.78,0,0,0,2.9,1.56c4.49-.06,6.89-2.86,8.65-6.4a66.71,66.71,0,0,0,4.75-12.7,9.49,9.49,0,0,1,3.38-5.1c2.86-2.31,4.91-5.39,7.35-8.11,1.34-1.48,2.84-2.79,4.16-4.29a2,2,0,0,1,.81-.49c.81-.29,1.49-.23,1.44.86a13.17,13.17,0,0,0,.81,4.22c.56,1.95,1.36,2.71,3.38,2.74,1.31,0,2.33.24,3,1.43.6,1,1.7,1.09,2.72,1.28v16.29c-.63.09-1.26.19-1.9.25-1.76.19-2.27-.19-2.55-2-.2-1.34-.37-2.69-.52-4a4.78,4.78,0,0,0-4.36-4.6,16.5,16.5,0,0,1-4.08-1.32,3.91,3.91,0,0,0-5.31,1.68c-2.38,3.68-4.5,7.52-6.59,11.37a2.73,2.73,0,0,0-.3.65c-.6,3.12-1.89,6.05-2.42,9.22-.47,2.84-.51,5.71-1,8.52a25.35,25.35,0,0,1-1.39,4.57c-.76,1.9-1.06,4-2,5.83-.18.35-.15.87-.4,1.11-1.93,1.86-2.6,4.32-3.42,6.73a4.94,4.94,0,0,1-1.12,1.53c-1.18,1.3-2.38,2.56-3.59,3.83-1.51,1.59-2.53,1.5-4.69.83-4.45-1.37-7.18-1.81-9.73,2.08a2.88,2.88,0,0,1-1,1c-2.25,1.1-3.74,3.21-5.89,4.44-1.09.62-1.6,1.77-2.46,2.59-3.64,3.48-6.69,7.5-10.11,11.17-1.94,2.09-3.88,4.21-5.76,6.33-2.52,2.85-5.3,5.48-7.56,8.56a8.65,8.65,0,0,1-1.23,1.46,67.64,67.64,0,0,0-9,10.21c-1.38,1.83-2.89,3.61-4.44,5.3a65.24,65.24,0,0,0-8.88,12.41c-1.92,3.44-4.25,7-3.72,11.38a11.37,11.37,0,0,1-.52,2.8,44.45,44.45,0,0,0-.36,14.05c.32,1.95.09,3.94.34,5.92a21.17,21.17,0,0,0,1.08,4.14,2.57,2.57,0,0,0,1,1.32,42.35,42.35,0,0,1,5.54,4.54c.84.72,1.86,1.07,2.78.12a3.21,3.21,0,0,1,2.39-.83c3-.17,5.76-1.21,8.63-1.89a6.41,6.41,0,0,0,3.06-2.14c2.94-3.12,5.83-6.36,10-8.06.81-.34,1.56-.81,2.33-1.22.35-.19.71-.59,1-.56,3,.2,5.39-1.72,8.2-2.21,3-.53,4.64,1,4,4a11.24,11.24,0,0,1-1.14,2.61,36.12,36.12,0,0,1-6.63,9.28,52.41,52.41,0,0,0-4.71,6c-3.32,4.67-6.43,9.5-9.66,14.24a20.24,20.24,0,0,1-2.1,2.6,71.13,71.13,0,0,0-5.73,7.33,1.72,1.72,0,0,0-.26.4c-1.37,4.31-5,7-7.39,10.68a18.91,18.91,0,0,0-2.77,5.78c-.17.71-.26,1.57-.86,1.93-2.48,1.49-2.9,4.55-5,6.31a2.56,2.56,0,0,0-.68,1.24c-.85,2.89-2.66,5.22-4.3,7.68a17.35,17.35,0,0,0-2.9,6.76,7,7,0,0,1-2.06,4.21,4.42,4.42,0,0,0-1.29,2.51,29.11,29.11,0,0,1-2.5,7.71,6,6,0,0,0-.51,2.08,5.14,5.14,0,0,1-.37,1.86c-1.94,3.52-2.53,7.51-4,11.21a37,37,0,0,1-1.69,4.47c-1.06,1.91-1.34,4.07-2,6.11a8.29,8.29,0,0,1-1.85,3.3,8.84,8.84,0,0,0-2.6,6.26,4.09,4.09,0,0,1-.5,2.07,39,39,0,0,0-4.6,14,16.58,16.58,0,0,1-2.05,5.6c-1.34,2.48-3.77,2.49-5.27.13a5.66,5.66,0,0,1-.84-5.22c.78-2.15.35-4.43.58-6.65.18-1.71-2.71-5-4.42-5.48-.38-.1-.79-.14-1.17-.25-2.2-.63-2.2-.63-2.58,1.44a7.12,7.12,0,0,1-5.17-6.74c-.22-3.41,1.13-6.55,1.06-9.91-.05-2.47-.05-4.94-.14-7.41-.14-4-1.6-7.77-1.87-11.75-.11-1.71-.27-3.34.95-4.76a3.29,3.29,0,0,0,.63-2.27,3.52,3.52,0,0,1,1.86-3.37,3.58,3.58,0,0,0,1.75-3.1A15.13,15.13,0,0,1,512,364a80.9,80.9,0,0,0,5.72-11c1-2.09,2-4.21,3.88-5.66a6.87,6.87,0,0,0,1.61-1.75A5.07,5.07,0,0,1,525,343.7c3.59-1.83,3.47-5.18,3.53-8.45a20.57,20.57,0,0,1,.22-2.6,2.13,2.13,0,0,0-2.16-2.75,3.53,3.53,0,0,0-2.52.57c-1.79,1.33-3.6,2.67-4.4,4.9-.14.37-.28.87-.57,1-2.32,1.28-3.58,3.84-6.07,4.9a10.59,10.59,0,0,0-3.6,2.3,2.89,2.89,0,0,1-3.93.43,10.36,10.36,0,0,1-4.34-4c-.37-.74-.87-1.5-1.66-1.63-1.67-.27-2.85-1.37-4.22-2.16a5.67,5.67,0,0,0-3.54-1.15c-1.18.11-1.86-.81-2-2a5.12,5.12,0,0,1,1.08-3.81,14.91,14.91,0,0,0,3.45-8.5.63.63,0,0,1,0-.24c1.5-2.68.73-5.6.89-8.43a2.52,2.52,0,0,0-.07-1.17c-1.22-2.47-.84-5.16-1.12-7.75a7.46,7.46,0,0,0-.35-2.35c-1.89-3.92-1.23-8.16-1.47-12.24a69.73,69.73,0,0,0-1.51-12.32,6.26,6.26,0,0,0-.89-2.46,6.27,6.27,0,0,1-1.11-4.29,23.86,23.86,0,0,0,0-4.78,1.47,1.47,0,0,1,.13-.93c1.1-1.81,1-3.84,1.05-5.82.2-4.13,1-8.22.83-12.38-.09-2-.22-4-.42-6a6.25,6.25,0,0,0-2.49-4.44c-.31-.25-.62-.51-.94-.75-2.82-2.15-5.44-1.71-7.84.95-1.65,1.84-3.06,3.88-4.74,5.69a4.94,4.94,0,0,0-1.26,2.53,5,5,0,0,1-.94,2.43c-2.33,2.66-3,6.09-4.55,9.13-1.1,2.21-1.71,4.63-3.12,6.69a8.36,8.36,0,0,1-1.32,1.69,4.85,4.85,0,0,0-1.67,3.08,8.45,8.45,0,0,1-2,4.28,11.23,11.23,0,0,0-2.32,4.13c-.76,2.52-2.75,4.27-3.87,6.57-1.49,3.08-3.92,5.63-5,9a2.42,2.42,0,0,1-.64,1,5.77,5.77,0,0,0-1.9,5.4,1.61,1.61,0,0,1-.22,1.15c-1.25,1.5-1.33,3.38-1.75,5.15a7.76,7.76,0,0,1-.91,2.21,5.53,5.53,0,0,0-.85,1.7c-.83,5-4.39,8.35-7,12.27-1.54,2.28-3.25,4.43-4,7.29-.54,2.16-.87,4.56-2.43,6.41a1.74,1.74,0,0,0-.32.89c-.38,4.74-3.57,8-6.07,11.66a4.53,4.53,0,0,0-.88,1.68,13.44,13.44,0,0,1-1.29,3.34,6.14,6.14,0,0,0-.64,1.53c-.56,3.53-2.33,6.76-2.5,10.38a4.77,4.77,0,0,1-1.51,2.66c-1.23,1.49-2.41,3-1.93,5.15a2.37,2.37,0,0,1-1,2.34,10.55,10.55,0,0,0-3.13,4.44A4.74,4.74,0,0,1,407,379.6c-2.38,1.25-4.68.29-5.33-2.34a9.52,9.52,0,0,1-.33-3.08c.32-3.19.05-6.38.24-9.56.26-4.17-.7-8.23-1.68-12.27a6.86,6.86,0,0,1-.3-1.4c0-3.62-1.33-7-1.95-10.54-.41-2.29-.51-4.77-1.88-6.85a3.83,3.83,0,0,1-.36-2.1,7.53,7.53,0,0,0-.43-3.07,10.36,10.36,0,0,1-.5-5.64,17.26,17.26,0,0,0-.26-4.7c-.53-3.67-1.13-7.36-.66-11.15a20.25,20.25,0,0,0-.88-7.82,3,3,0,0,1,.6-3.3,3.09,3.09,0,0,0,.79-2.9c-.6-2.82,0-5.56.42-8.32.09-.63.12-1.27.23-1.9a8.05,8.05,0,0,0-.93-5.46,8.65,8.65,0,0,1-.94-6.93,4.87,4.87,0,0,0-.31-3.74,3.85,3.85,0,0,1-.09-4.08,2.16,2.16,0,0,0,.31-1.37c-.43-2.5.35-4.92.38-7.4a80.3,80.3,0,0,0-.58-13.6c-.55-3.47-2.19-6.71-1.72-10.44.19-1.6-.74-3.39-.75-5.16a5.27,5.27,0,0,1,0-1.43,15.17,15.17,0,0,0-.23-9,4.58,4.58,0,0,1-.06-2.38c1.22-4.86.75-9.82.76-14.74,0-2.06-1.05-2.82-3.1-2.69-2.49.16-3.75,1.12-4.49,3.58a8.53,8.53,0,0,1-2.07,4,2.8,2.8,0,0,0-.77,1.47,69.59,69.59,0,0,1-4.84,12.93,24.27,24.27,0,0,0-2.35,6.42,5.23,5.23,0,0,1-.79,2.24c-3.27,4.42-3.29,10-5.51,14.84-1,2.16-1.83,4.4-3,6.48A3.3,3.3,0,0,0,363,248a14.19,14.19,0,0,1-1.53,6.2,7.74,7.74,0,0,0-.61,2.54c-.16,2.23-.36,4.45-.53,6.68a13.19,13.19,0,0,1-.57,2.07c-.82,3.47-1.81,6.88-2.95,10.26a1.62,1.62,0,0,0-.11.71c.86,5-2,9.09-2.94,13.66-.79,3.87-2.22,7.6-2.38,11.62a19,19,0,0,1-1,4.9,28,28,0,0,0-1.28,8.71,3.33,3.33,0,0,1-.08.95c-1.25,4.35-1.06,8.81-1,13.25,0,.24.1.54,0,.71-1.21,1.95-.55,3.83.11,5.73a5.4,5.4,0,0,1,.12,2.62c-.65,4.29,0,8.6-.09,12.88a23.75,23.75,0,0,1-3.1,11.41A15,15,0,0,1,341.8,366a2,2,0,0,1-2.25.38c-1.68-.77-3.47-.23-5.19-.5a3.34,3.34,0,0,0-3.16,1.39c-2.43,3-5.58,5.42-7.84,8.62a3.09,3.09,0,0,1-.69.66,2.72,2.72,0,0,1-4.56-2.88,13.51,13.51,0,0,0,.95-7.5c-.51-3.61,1.07-6.87,1-10.35a3.91,3.91,0,0,1,.69-2,4.67,4.67,0,0,0-1.26-6.3,5.19,5.19,0,0,1-2.6-5.88,7,7,0,0,0-.18-2.83,8.51,8.51,0,0,1,.76-6.47c1.19-2,1.32-4.43,1.39-6.73.23-7.72,0-15.45.83-23.16.48-4.66.48-9.38.57-14.07a10.1,10.1,0,0,0-1.34-4.81,12.41,12.41,0,0,1-1.74-6.62,5.41,5.41,0,0,0-.43-2.34,13.72,13.72,0,0,1-.69-4.94c0-4.12.64-8.24.12-12.37a11.39,11.39,0,0,0-.16-1.67c-1-3.38-.73-6.9-1.15-10.34a77,77,0,0,1-.51-10.52,18.38,18.38,0,0,0-.84-6.38,3,3,0,0,1-.24-1.87c.61-1.86.11-3.65-.23-5.44a38.4,38.4,0,0,1-.66-5.46,44.36,44.36,0,0,0-1.56-8.7,5.82,5.82,0,0,0-5.94-3.93,2.31,2.31,0,0,0-1.52.64c-1.34,1.46-3.18,2.43-4.14,4.27a4.66,4.66,0,0,1-1.47,1.56,18.29,18.29,0,0,0-5.19,6.15,25.6,25.6,0,0,1-5.09,6.59,18.35,18.35,0,0,0-4.24,5.71,16.82,16.82,0,0,1-3.11,4.22,11.61,11.61,0,0,0-2.29,3.34,18.06,18.06,0,0,1-3.09,4.51,6.22,6.22,0,0,0-1.53,2.41c-.7,3.15-2.57,5.6-4.58,8a2.29,2.29,0,0,0-.58,1c-.42,3-2.37,5.18-3.78,7.65-.78,1.39-1.29,2.89-2.13,4.27a27.4,27.4,0,0,1-3,4,8.13,8.13,0,0,0-2.38,4.33,4.36,4.36,0,0,1-.83,1.72c-2.9,4.44-5.29,9.18-8.46,13.49a29.25,29.25,0,0,0-4.66,10.63,13.47,13.47,0,0,1-2.36,4.93c-1.57,2.06-2.34,4.53-3.83,6.61a2.5,2.5,0,0,0-.58,1.29c0,2.13-1.07,4-1.39,6a2.74,2.74,0,0,1-.66,1.49,8.35,8.35,0,0,0-2,5.24,12,12,0,0,1-1.41,4.55c-1.6,3.33-2.28,7-3.49,10.42a3.87,3.87,0,0,0-.23,1.65,4.24,4.24,0,0,1-1,3.12,5.57,5.57,0,0,0-1.12,3.82c.21,2.55-1,5-.45,7.58.09.4-.3.89-.43,1.34a3.13,3.13,0,0,0-.32,1.37c.71,3.34.65,6.79,1.6,10.1a14.94,14.94,0,0,1,.38,8.28,6.13,6.13,0,0,0-.19,1.66,10.53,10.53,0,0,1-6.83,9.6,7.86,7.86,0,0,0-2.23,1.36,40.66,40.66,0,0,0-5.76,5.75,6.11,6.11,0,0,1-5.9,2.35c-.85-.09-1.08-.53-1.07-1.26a25,25,0,0,0,0-2.87,4.3,4.3,0,0,0-3.95-4.23c-.86-.14-1.17-.68-1.53-1.32a36.56,36.56,0,0,1-4.29-19.56,12,12,0,0,0-1.25-6,5.73,5.73,0,0,1-.9-2.94,8.67,8.67,0,0,0-1.41-4.73c-1.15-2.08-2.47-4.16-2.69-6.59a46.24,46.24,0,0,1-.07-6.66c.21-3.65,0-7.3,0-10.95s-1.31-7-1-10.44c.36-3.65-.45-7.16-.93-10.64-.44-3.17-.53-6.32-.74-9.48-.16-2.54-.55-5.07-.86-7.6a86.45,86.45,0,0,1-.73-10.42,11.38,11.38,0,0,0-.55-4,19.2,19.2,0,0,1-.68-5.12c-.3-3.53-.69-7.17-2.86-10.24a8.47,8.47,0,0,0-.58-.76,4.54,4.54,0,0,0-6.77-.27,2,2,0,0,0-.64,1.5c.09,3.69-1.39,7.19-1.27,10.88a2,2,0,0,1-.4,1.35c-1.2,1.39-1.2,3.05-1.3,4.73a28.74,28.74,0,0,1-.76,5.2,39.52,39.52,0,0,0-.73,10.47,20,20,0,0,1-.23,4.77,20.1,20.1,0,0,0-.45,6.65c.39,3.28-.26,6.51-.47,9.77a9.9,9.9,0,0,0,.37,4.71,6.28,6.28,0,0,1,.32,2.36,15.31,15.31,0,0,0,.11,2.63,25.27,25.27,0,0,1-.62,11.5,12.45,12.45,0,0,0-.39,2.84,64.67,64.67,0,0,1-.8,10.49,4.64,4.64,0,0,0,0,1.66c.61,2.82,0,5.7.48,8.56a13,13,0,0,1-.17,4c-.42,2.72-.07,5.41,0,8.11,0,1.84-.1,3.66-.18,5.49-.12,2.49-1.66,4.26-3.2,6a1.84,1.84,0,0,1-2.19.45,6.47,6.47,0,0,1-3.75-3.18c-.69-1.42-1.63-2.75-1.81-4.4a2.5,2.5,0,0,0-.53-1.31c-2.93-3.32-3.95-7.49-4.72-11.6a167.32,167.32,0,0,0-4.22-16.85c-1.35-4.57-2.57-9.16-2.39-14.08a37.65,37.65,0,0,0-1.18-12.07,6.15,6.15,0,0,1,0-2.14,12.85,12.85,0,0,0-.76-6.34,9.39,9.39,0,0,1-.65-4.23c.17-3.66-.85-7.12-1.53-10.62s-1.59-7.17-1.34-10.87a10.67,10.67,0,0,0-1.88-6.32,21.43,21.43,0,0,1-1.17-2.35,3.21,3.21,0,0,1,.05-3.39c.39-.57.52-1.21-.15-1.69-2.65-1.93-3.74-4.91-5.17-7.66a15.34,15.34,0,0,0-1.77-2.82,23.07,23.07,0,0,1-3.95-5.64,16.27,16.27,0,0,0-2.92-4.07c-1.47-1.66-2.5-1.42-4.25-.1-3.22,2.42-4.46,5.89-5.63,9.47-.49,1.5-.81,3.08-2,4.27-.75.72-.61,1.77-.73,2.71s-.56,1.59-1.73,1.48a69.47,69.47,0,0,1-10.33-1.57,9.8,9.8,0,0,1-2.8-1.3A2.66,2.66,0,0,1,90.69,265c0-1-.09-2.07-.2-3.1a8,8,0,0,1,.49-4.21c.61-1.41.34-3,.53-4.49a15.06,15.06,0,0,0-2.14-10.06c-1.43-2.37-2.11-5.17-3.9-7.38-.1-.12-.13-.32-.26-.4-2.33-1.47-2.42-3.95-2.81-6.29a5.66,5.66,0,0,0-1.27-2.78,18.06,18.06,0,0,1-2.4-4.91,30.3,30.3,0,0,0-2.68-5.6A5.33,5.33,0,0,0,69,214c-1.7.95-2.73,2.66-4.17,3.92-.36.32-.29.88-.33,1.36-.22,2.94-.36,5.9-1.83,8.59A2.44,2.44,0,0,0,62.4,229c0,3.29-1.65,6.13-2.56,9.17a5.5,5.5,0,0,1-.76,1.2c-.31.46-.81.88-.91,1.39-.42,2.13-1.83,3.88-2.43,5.81-.78,2.46-2.13,4.61-2.9,7-.84,2.66-2.18,5.25-2.51,8-.38,3-1.42,5.87-2.1,8.79-.57,2.45-.42,4.9-.88,7.26-.62,3.15-.13,6.54-1.88,9.47a3.72,3.72,0,0,0-.53,2.31,4.19,4.19,0,0,1-.78,3.39.71.71,0,0,0-.2.43c.13,2.3-.67,4.44-1.08,6.66-.63,3.5-.22,7.09-.87,10.65a26.92,26.92,0,0,0,.2,8.1,19.59,19.59,0,0,1,.14,4.05,16.62,16.62,0,0,0,.24,4.77,7.1,7.1,0,0,1,.15,2.15c-.58,4.56.52,9,.75,13.54.08,1.54-.23,3-.25,4.53-.05,3.58.17,7.16.07,10.75-.07,2.53.73,5,.78,7.59a9,9,0,0,1-.76,4c-.63,1.41-1.25,1.54-2.65.93A4,4,0,0,1,38,367.16c-.22-2.13-.52-4.26-.62-6.41A18.71,18.71,0,0,0,32,348.6c-1.38-1.47-1.78-3.41-2.22-5.23a11.49,11.49,0,0,1,.38-7.75,7.87,7.87,0,0,0,.4-3.54,22.11,22.11,0,0,1,.94-6.61,4.8,4.8,0,0,0,.24-1.64c-.16-3.35-.37-6.69-.41-10a13,13,0,0,0-.73-3.49c-1.39-4.69-1.53-9.59-2.62-14.33a1,1,0,0,1-.08-.46c.87-3.52-.71-6.87-.68-10.35a61.42,61.42,0,0,0-.67-10.49,5.44,5.44,0,0,1,0-1.66c.58-3.61-.05-7.11-.85-10.6a3.4,3.4,0,0,1-.22-1.41c.5-2-.41-3.79-1-5.57-1.71-5.12-3.64-10.17-4.59-15.51-.05-.31-.24-.66-.16-.93.77-2.63-.81-5.18-.26-7.78s-.67-5.21-.4-7.85a1.88,1.88,0,0,0,0-.71c-1.55-5.06-.49-10.25-.88-15.36-.32-4.14.22-8.29-.48-12.4a7,7,0,0,1,.05-2.38,12.7,12.7,0,0,0,.17-4.52,5.28,5.28,0,0,1,.25-2.35,13.76,13.76,0,0,0,.35-6.86,8.39,8.39,0,0,1,0-3.08c.46-2.67.17-5.39.33-8.08a27.06,27.06,0,0,0-.48-8.43c-.68-2.69-.84-5.52-1.26-8.28a16.92,16.92,0,0,0-1.6-5,22.47,22.47,0,0,1-1.9-7.12A23.73,23.73,0,0,0,12.43,133c-.54-1.41-.21-2.86-.17-4.27.07-3.28,1.62-6.07,3.41-8.69,1.26-1.83,3.75-1.73,5.65.09a21,21,0,0,1,3.82,5.75A18.07,18.07,0,0,1,26.83,132c.33,2.68,1,5.33,1.06,8a79.57,79.57,0,0,0,1.34,10.67,58.49,58.49,0,0,0,1.52,8,21.86,21.86,0,0,1,.49,2.82c.67,3.43,1.38,6.85,2,10.29a33,33,0,0,1,.16,6.21,42.41,42.41,0,0,0,.56,7.63,8.59,8.59,0,0,0,2.67,5,4.65,4.65,0,0,0,6.11.48,14.56,14.56,0,0,0,3.11-3.25c1.71-2.23,2.74-4.83,4.29-7.14a16.54,16.54,0,0,0,2.12-4.8c1.19-4.18,3.4-7.9,5.34-11.7a41.54,41.54,0,0,1,5-8.4c1.44-1.67,1.88-4,2.71-6.09a10.75,10.75,0,0,1,1.87-3.31,9.72,9.72,0,0,0,2.28-4.16c.89-3.63,2.87-6.66,4.93-9.73s4.32-6.15,5.54-9.73a40.78,40.78,0,0,1,3.56-7c1.25-2.15,5.51-3.89,8-3.4,1.67.33,2.31,1.5,2.63,3,1.1,5.26,1.66,10.52.61,15.87a21,21,0,0,0,.15,8.57c.74,3.44.8,7,1.38,10.44a22.72,22.72,0,0,0,.61,3,4.59,4.59,0,0,1,.33,2.1c-.4,2.12.51,3.86,1.17,5.75.95,2.75,2.26,5.39,2.37,8.43a8.66,8.66,0,0,0,5,7.62c2,1,2.8.75,4-1.07,1.32-2.06,1.78-4.43,2.52-6.7a28.55,28.55,0,0,1,4.23-8.5c.67-.89,1.23-1.86,1.84-2.79,1.35-2.06,2.43-4.27,4.19-6.07a8.14,8.14,0,0,0,1.73-3.65c.25-.92.44-2,1.33-2.46,1.39-.76,1.77-2.16,2.56-3.33a75.41,75.41,0,0,1,5.19-7.13,53.53,53.53,0,0,0,7.21-10,10.05,10.05,0,0,1,2.15-2.86,2.5,2.5,0,0,1,2.88-.52,2.14,2.14,0,0,1,1.15,2.42c-.17,1.66-.36,3.33-.67,5a10.25,10.25,0,0,0,.14,4.74,19.13,19.13,0,0,1,.19,9.18,31.56,31.56,0,0,0-.63,6.89c.05,2-.56,4-.54,6,0,5.35-.46,10.67-.86,16-.35,4.6-.51,9.21-.62,13.82-.07,2.64-.78,5.19-.7,7.85,0,1.68.15,3.35.22,5a20.14,20.14,0,0,1-1.4,8.42,4.76,4.76,0,0,0-.11,3.5,9.06,9.06,0,0,1,.52,3.78,36.06,36.06,0,0,0,1.51,13.18,1.94,1.94,0,0,1,.14.7c-.39,3.82.83,7.57.48,11.39a3,3,0,0,0,.06,1.19c1.4,4.52.51,9.2,1,13.78.19,2,.92,3.87.81,5.9-.21,3.66,1.37,6.92,2.3,10.34.54,2,1.09,3.95,2.61,5.49,1,1,1.48,1.14,2.71.45a4.26,4.26,0,0,0,2.11-3.06c.87-4.53,1.63-9.08,2.05-13.69.34-3.83,0-7.63.22-11.44a7.48,7.48,0,0,1,.2-1.9c2.19-7.26,3.36-14.73,4.58-22.19a10.73,10.73,0,0,1,.63-2.3,5,5,0,0,0,.57-2.06c-.32-3.69,1.12-7.18.92-10.9-.17-3,.78-6,1.17-9,.78-6,2.23-11.9,2.21-18a15,15,0,0,0-.1-1.9,20.52,20.52,0,0,1,3.31-14.52c2-3,4-5.91,5.86-9a8.8,8.8,0,0,0,1-3.17,8.56,8.56,0,0,1,3-5.54,2.47,2.47,0,0,0,.88-1.11c.71-2.48,2.55-4.35,3.54-6.72a12.07,12.07,0,0,1,6.39-6.82c3-1.27,5.42-.38,6.91,2.52a9.77,9.77,0,0,1,.55,8.53c-2,4.85-2.17,9.91-2.14,15a12.88,12.88,0,0,1-.32,3.56,5.36,5.36,0,0,0-.1,2.61,5.32,5.32,0,0,1-.13,3.06,2.78,2.78,0,0,0-.17,1.17,136.6,136.6,0,0,0,2.12,15.6,8.1,8.1,0,0,0,.74,2,2.81,2.81,0,0,1,.25,2.53,2.41,2.41,0,0,0,.36,2.46,15.68,15.68,0,0,0,5.06,5c2.46,1.47,4.73,1.46,6.77-.56a18.44,18.44,0,0,0,4.69-8.72,20.21,20.21,0,0,1,1.84-4.34,16.92,16.92,0,0,1,4.61-5.56c2-1.6,3.42-4,5.8-5.27a4.24,4.24,0,0,0,1.26-1.42c1.83-2.61,3.71-5.2,4.43-8.41a3.63,3.63,0,0,1,2.08-2.21,2.76,2.76,0,0,0,1.54-2.51,6.12,6.12,0,0,1,1.39-3.5,57.37,57.37,0,0,1,4.13-5.25c2-2.14,3.64-4.64,5.55-6.88a96.46,96.46,0,0,1,7.32-8.17c3.42-3.21,6.72-6.56,10.19-9.72,3.7-3.38,7.53-6.62,11.17-10.08s6.92-7,10.89-10a66.22,66.22,0,0,1,8.95-5.46c3.72-1.92,7.63-3.63,10.58-6.78a1.91,1.91,0,0,1,.75-.59c2.78-.78,4.44-3,6.36-4.9a20.14,20.14,0,0,1,4.41-3.64c1.64-.88,2.31-2.6,3-4.21a6.8,6.8,0,0,1,1.5-2.41,2.56,2.56,0,0,1,2.63-.79c2.18.9,4.64,1.51,5.67,4s2.77,4.29,4.22,6.35A13.14,13.14,0,0,0,342.42,91a7.59,7.59,0,0,0,5.86,0c2-.71,3.32.2,4.4,1.51a6.39,6.39,0,0,1,1.47,4.7c-.4,3.71-.3,7.49-1.62,11.08a16,16,0,0,1-.74,2,19.57,19.57,0,0,0-2.14,7.77,3.22,3.22,0,0,1-1,2.57,2.12,2.12,0,0,0-.6,2.19,9.05,9.05,0,0,1-.61,5.39c-.57,1.24-.15,2.53-.32,3.79-.33,2.37-.51,4.76-.72,7.14a3.41,3.41,0,0,1-.88,2.41,3.8,3.8,0,0,0-1,3.1c.05,3-.1,5.89-1.48,8.64a4.42,4.42,0,0,0-.15,3.06,19.36,19.36,0,0,1,.09,5.48c-.11,2.76-.53,5.54.42,8.26a.94.94,0,0,1,0,.47c-.56,2.77.22,5.56-.12,8.33a3.69,3.69,0,0,0-.09,1.18c1,3.63.27,7.29.26,10.93,0,2.48.91,3.35,3.34,3.21.88-.06,1.75-.18,2.63-.25a5.92,5.92,0,0,0,4.4-2.46,56.65,56.65,0,0,0,6.06-9.4A11.84,11.84,0,0,1,363.6,178a15.13,15.13,0,0,0,3.22-3.17,7.41,7.41,0,0,1,2.52-2.49,3,3,0,0,0,1.2-1.46,10.33,10.33,0,0,0,.71-1.51c.73-2.36,3.25-3.3,4.24-5.42a14.11,14.11,0,0,1,4.2-5.37,33.42,33.42,0,0,0,5.41-5,45.44,45.44,0,0,0,4.11-6.39,7.18,7.18,0,0,0,.72-4.65c-.48-3.1-.18-6.22-.21-9.33,0-1.36.69-2.56.68-4,0-3.57.26-7.14.45-10.71a3.47,3.47,0,0,1,.47-1.34,2.87,2.87,0,0,0,.23-2.53c-.49-1.26-.13-2.45.1-3.73.44-2.44,1.83-4.76.91-7.45a5.79,5.79,0,0,1,.42-3.28,33.68,33.68,0,0,0,1.38-10.85A25.5,25.5,0,0,1,396.28,80a5.39,5.39,0,0,1,4.32-3.39,12.11,12.11,0,0,1,4.76-.08,4.84,4.84,0,0,1,3.68,3c1.6,3.75,2.5,7.54,1.78,11.62a7.29,7.29,0,0,0,.3,3.08c.67,2.58.09,5-.55,7.51a7.13,7.13,0,0,0-.14,4.45,4.63,4.63,0,0,1,0,2.61,81.71,81.71,0,0,0-1.05,11.58,3.69,3.69,0,0,0,.92,2.38c1.91,2.84,3.89,5.64,5,9a5.34,5.34,0,0,1,.48,2.32c-.47,3.92-.52,7.92-2.47,11.52A31.16,31.16,0,0,0,410,155.74a26,26,0,0,0-.24,5.22c.24,4.46.72,8.9,1.14,13.35a10.15,10.15,0,0,1,0,2.86,17.81,17.81,0,0,0,0,6.67,4.43,4.43,0,0,1,.06,1.66c-.58,3.1-.27,6.22-.35,9.32A81.56,81.56,0,0,1,409,210.94a25.53,25.53,0,0,0-.39,6.92,37.89,37.89,0,0,1-1.13,9.21c-.39,2-.33,4-.77,5.91-.22,1,1.29,2.28,2.56,2.42a3.11,3.11,0,0,0,1.86-.33c2.72-1.51,5.08-3.52,6.07-6.48,1.24-3.71,2.86-7.25,4.28-10.88a9,9,0,0,0,.91-3.68,3.66,3.66,0,0,1,.37-1.85c1.48-2.65,2.19-5.66,3.9-8.19a7.53,7.53,0,0,0,.83-1.45c1.22-3.23,3.76-5.72,5-9,.57-1.52,2.07-2.4,3.06-3.65,1.71-2.18,2.17-5,3.74-7.18.28-.39.44-.87.74-1.24,3.75-4.53,5.68-10.1,8.34-15.22,2.38-4.58,5-9.05,7.1-13.8.68-1.56,1.44-3.12,2.17-4.69,1.61-3.45,3-7,4.93-10.32a11.35,11.35,0,0,0,.75-1.76c1.93-4.9,4-9.72,7.57-13.72a4.36,4.36,0,0,0,.9-1.4c1-2.8,3.11-4.78,4.81-7.08a112.1,112.1,0,0,1,9.86-11,29.71,29.71,0,0,1,6.1-5.26A2.1,2.1,0,0,1,493,97c2.69-.94,5.37-1.89,8.07-2.79a1.74,1.74,0,0,1,1.17,0c1.47.69,2.57.07,3.71-.82,2.44-1.92,5.05-3.66,6.79-6.33a1.77,1.77,0,0,1,.5-.52c.76-.52,1.42-1.42,2.52-1,.7.27,1.24,2.41.64,3.28-1.43,2.06-1.88,4.59-3.39,6.58a2.89,2.89,0,0,0-.7,1.5c-.56,5.75-2.74,11.11-4.18,16.64a12.69,12.69,0,0,0-.05,7c.9,3.19,1.46,6.51,2.17,9.77a79,79,0,0,1,1.43,16.18,44.05,44.05,0,0,0,.78,6.88c.13.76,1.09,2-.73,2.12-.07,0-.21.28-.17.37.53,1.14.25,2.58,1.34,3.51,1.73,1.47,3.43,2.84,6,2.26a11,11,0,0,1,3.58-.08,5.49,5.49,0,0,0,4.87-2,18.23,18.23,0,0,1,8.89-5.77,13.77,13.77,0,0,0,6.06-3.67,32.92,32.92,0,0,0,6.88-9.63,87.61,87.61,0,0,1,4.5-7.6c2-3.26,4.53-6.09,6.72-9.19a6.61,6.61,0,0,0,.82-3.21,17.66,17.66,0,0,0-.48-8c-1-3.14-2.29-6.09-3.46-9.13a3.37,3.37,0,0,0-1.52-2.08c-2.5-1.14-3.86-3.54-5.91-5.17a1.31,1.31,0,0,1-.45-.55c-1-3.67-4.21-6-5.64-9.54a17.45,17.45,0,0,0-8.38-8.55c-.49-.26-1.05-.41-1.51-.71a10.12,10.12,0,0,0-8.06-1.14,9.54,9.54,0,0,1-4.67-.11,5.79,5.79,0,0,0-4.37.57c-.73.38-1.46.75-2.21.09s-.47-1.29-.4-2a6,6,0,0,1,1.32-3,67.91,67.91,0,0,0,4.87-7.95c.85-1.48.91-3.25,1.62-4.7a11.32,11.32,0,0,0,.69-6.55,17.05,17.05,0,0,0-.83-3.73,30,30,0,0,1-1.46-12.73A4.53,4.53,0,0,1,521.89,32a11.05,11.05,0,0,0,4-6.89c.28-1.4.62-2.79,1-4.18a6.74,6.74,0,0,0,.28-1.57,8.19,8.19,0,0,0-1.08-4.19,11.45,11.45,0,0,0-.62-1A11.58,11.58,0,0,1,539,8.38ZM273.2,177.83c1.76-.62,4-.59,6-1.43,3.64-1.52,7.46-2.83,10.59-5.21,2.37-1.8,5-3.47,6.89-5.76,2.26-2.75,4.19-5.77,6.77-8.27a4.66,4.66,0,0,0,1.31-2.25q.72-2.91,1.5-5.8a3,3,0,0,0-.28-2.07,11.59,11.59,0,0,1-.74-8.17c.36-1.19-.4-2-1.67-1.93a5.2,5.2,0,0,0-1.61.43,3.48,3.48,0,0,1-3.21-.32c-.61-.37-1.21-.77-1.81-1.16-1.69-1.08-3.4-1.1-4.76.37-3.07,3.34-6.56,6.3-9,10.21-1.26,2-2.72,3.91-4.11,5.84A127.22,127.22,0,0,1,269,164.72a25.9,25.9,0,0,0-1.81,2.23c-2,2.71-1,5.48.31,7.91C268.47,176.79,270.61,177.7,273.2,177.83Zm239.91,55.35c.25,1.13-.31,2.94,0,4.79.72,5,.72,10,1.43,15,.31,2.14,2,4.89,4,5.34a20.5,20.5,0,0,0,5.69.7,2.78,2.78,0,0,0,2.18-.79c2.34-2.88,4.27-6,4.37-9.84.08-3-.07-6.05-.06-9.06a14.5,14.5,0,0,0-1.56-6.4,4.89,4.89,0,0,1-.59-1.8,5.75,5.75,0,0,0-1.73-3.84,4.51,4.51,0,0,1-1.45-3.45,52.34,52.34,0,0,0,.29-7.08c-.12-2.94.91-5.66,1.73-8.4,1-3.42.33-6.81.05-10.2a6.07,6.07,0,0,0-1.37-3c-.9-1.22-1.8-2.45-2.78-3.6-2-2.38-6.08-1.72-6.94,1.3-.72,2.52-1.77,4.93-2.31,7.53-.41,2-.15,4-.45,5.94a39,39,0,0,0-.19,6.92c.06,2.23.29,4.45.22,6.69C513.51,224.08,512.75,228.26,513.11,233.18ZM206.67,268.66a3.82,3.82,0,0,0,.12,1.19c1,2.29.78,4.69.81,7.08a5.41,5.41,0,0,0,.25,1.65,2.46,2.46,0,0,0,3.27,1.58,3.73,3.73,0,0,0,2.42-2.16,16.64,16.64,0,0,0,1-3.19,21.56,21.56,0,0,1,3.14-7.39,51.57,51.57,0,0,1,6.73-8.36c2.33-2.49,3.37-5.73,5.39-8.37a2.6,2.6,0,0,0,.36-1.13,21.7,21.7,0,0,1,2-6.86,2.06,2.06,0,0,0-.13-2.28c-.61-.77-1.43-.47-2.21-.26-1.77.47-3.54.91-5.31,1.37a2.29,2.29,0,0,1-1.87-.1c-1.17-.81-2.67-1.48-3.34-2.62-1.12-1.9-3-3.1-4.08-4.94a2,2,0,0,0-2.44-1c-4.87,1.16-8.62,6.43-8.24,11.51.28,3.72,1.14,7.38,1.25,11.12a3.11,3.11,0,0,0,.31,1.39c1.15,2.07,1,4.3,1,6.54A24.1,24.1,0,0,1,206.67,268.66Zm363.88-82c3.07.31,5.12-1.54,6.89-4,1.4-1.94,2.32-4.19,4-5.95a8.32,8.32,0,0,0,1.77-3.33c.5-1.59-7.49-6.87-6.31-8.06,2.43-2.46,12.12-1.95,13.2-5.14.74-2.19,1.82-4.26,2.11-6.59.32-2.66,0-5.13-2.27-6.94a28.9,28.9,0,0,0-3.51-2.49,4.61,4.61,0,0,0-5.4.07,14.77,14.77,0,0,0-3.85,4.2c-2.52,4.33-4.79,8.81-7.6,13-1.7,2.52-2.44,5.52-3.94,8.15a3.15,3.15,0,0,0-.3,1.15c-.44,3.31-.84,6.62-1.29,9.93a4.73,4.73,0,0,0,2,5C567.42,186.62,568.82,186.68,570.55,186.68Zm-94.66-.47c0,1.12-.1,2.29.75,3.17a22.06,22.06,0,0,0,3,2.75c2.19,1.57,6.42.7,7.88-1.56a8.91,8.91,0,0,1,2-2.37,3.25,3.25,0,0,0,1.23-2,25.55,25.55,0,0,0-.5-12,2,2,0,0,0-1.39-1.53c-2-.49-3.82-1.58-5.77-2.28-.54-.19-1.14-.44-1.6,0-1.17,1.06-2.66,2-3,3.63s-1.07,3.36-.84,5.16a3.31,3.31,0,0,1-.59,2.27A8.6,8.6,0,0,0,475.89,186.21Z"
    />
    <path
      d="M210.44,71.83a5.89,5.89,0,0,1-.85,2.77,6.15,6.15,0,0,0-.83,4.13,11.29,11.29,0,0,1,.11,2.38c-.87,5.3.09,10.48.94,15.67.34,2.09,1.58,3.82,2.46,5.69a7.24,7.24,0,0,1,.72,3.46c-.13,3.42-2.58,5.15-5.7,3.81a19.66,19.66,0,0,0-7.92-1.58c-2.14,0-4.27-.07-6.41-.1-2.3,0-3.85-1.39-5.15-3a3.08,3.08,0,0,1-.52-2.75c.62-2.14.64-4.46,1.69-6.45,1.24-2.36,1.36-4.9,1.49-7.44a13.83,13.83,0,0,1,.57-3.27c.76-2.51,1.43-5,2.21-7.55.7-2.22,2.14-4.08,3.11-6.17a2.18,2.18,0,0,1,1.21-1.12c1.71-.66,2.8-2.07,3.94-3.38,1.94-2.24,4.16-2.39,6.35-.35C209.28,67.86,210.61,69.24,210.44,71.83Z"
    />
  </g>
</svg>
