<svg xmlns="http://www.w3.org/2000/svg" viewBox="0 0 21.52 48.38"><g id="Layer_2" data-name="Layer 2"><g id="Contours"><path d="M0,29.5a22.51,22.51,0,0,1,.83-2.31,7.47,7.47,0,0,1,.92,1.58C2.21,30.36,2.53,32,3,33.58a5.58,5.58,0,0,0,.69,1.23,4.41,4.41,0,0,0,.44-1.47c-.14-2.47-.49-5-.5-7.42C3.6,25,4.3,24,4.68,23a28.22,28.22,0,0,1,1.21,2.55c1.79,5.05,3.54,10.13,5.35,15.17.11.28.91.63,1,.53.34-.3.75-.85.68-1.21-.52-2.72-1.33-5.39-1.66-8.13a15.53,15.53,0,0,1,.61-5,2.23,2.23,0,0,1,1.88-.31c.74.77,1.09,1.9,1.76,2.76a8.3,8.3,0,0,0,1.78,1.34,7.39,7.39,0,0,0,.36-2.14,38.17,38.17,0,0,0-1.21-6.86c-1.33-4,.28-7.8.7-11.66.33-3,1.12-6,1.74-9a3.78,3.78,0,0,1,.61-1c.18.36.55.75.52,1.09-.35,3.67-.33,7.45-1.26,11-1.17,4.48-.25,8.65,1.09,12.7,2,5.88,1.86,11.8,1.33,17.79-.05.59-.74,1.13-1.14,1.69-.39-.47-1-.88-1.14-1.42-1.24-3.71-2.36-7.47-3.6-11.18-.2-.6-.86-1-1.3-1.56a5.7,5.7,0,0,0-.41,1.8c.33,3,1,6,1.05,8.94,0,1.53-1,3.07-1.47,4.6-1.15-1-2.73-1.75-3.35-3-1-2.1-1.39-4.53-2.2-6.75A8.4,8.4,0,0,0,6,33.63a7.22,7.22,0,0,0-.61,2.18c.1,2.57.42,5.14.51,7.72a4.54,4.54,0,0,1-.61,2.66,13.47,13.47,0,0,1-2.53,2.19c-.12-.92-.22-1.84-.36-2.76-.64-4.15-1.3-8.3-1.94-12.46C.25,32,.14,30.92,0,29.5Z"/></g></g></svg>