<svg xmlns="http://www.w3.org/2000/svg" viewBox="0 0 269.34 677.5"><g id="Layer_2" data-name="Layer 2"><g id="Contours"><path d="M229.24,588.48l.33.93c.11.32.22.63.32.94a1.2,1.2,0,0,0,.27-1.06,1.13,1.13,0,0,0-.92-.81,3.74,3.74,0,0,0,1.54-1.21,3.92,3.92,0,0,0,.66-1.43,53.77,53.77,0,0,1,.27-13.53,1.05,1.05,0,0,0-.09-.53,1.47,1.47,0,0,0-1.35-.77c-.13-.17-.37-.46-.69-.82-4.88-5.4-11.65-6.67-14.31-7.12a30,30,0,0,0-9.78,0c-4.36.27-5.33.5-5.33.66s.2.09.91.38a10.26,10.26,0,0,0,1.69.71,4,4,0,0,0,1,.1c1.22,0,3.32,1,3.47,1.83.24,1.28-.81,2.81-1.43,4.18a3.72,3.72,0,0,1-1.79-.51c-4.71-3.35-6.92-7.89-7.35-13.61q-.15-2-.39-4a25.17,25.17,0,0,1-.94-6.65v0c-.34-2.15-.69-4.3-1-6.45-.37-2.37-1.12-4.68-1.56-7.05a5.26,5.26,0,0,1,.46-2l.19.16a49.16,49.16,0,0,1-.45-5.94,32.83,32.83,0,0,1-1-4.45c-.86-7.37-1.73-14.74-2.34-22.13a2.25,2.25,0,0,1,0-.26,5.67,5.67,0,0,1-.41-1.81c0-1.13-.07-2.25,0-3.38-.11-.07-.18-.14-.18-.2a47.86,47.86,0,0,1,0-8.38c.76-5.25,1.77-10.49,3-15.66a13,13,0,0,1,6.21-8.14,14.16,14.16,0,0,0,4.52-3.94c2.75-4.27,5.14-8.75,7.6-13.19,2.37-4.26,5.1-8.41,6.84-12.92,1.62-4.2,2-8.83,3.18-13.23.86-3.38,2.65-6.65,2.86-10a90.55,90.55,0,0,0-2.23-26.58c-.7-2.94-.56-6.06-1.12-9-.92-4.93-1.89-9.86-3.22-14.69-1.55-5.66-2.72-11.62-5.47-16.71-3.91-7.26-6.53-15-9.48-22.53-3.13-8-8.48-14.19-15-19.56-5.24-4.31-6.17-9.46-4.19-15.73,1.63-5.18,3.57-10.2,3.52-15.79,0-4.47.7-9,1.13-13.43a3.9,3.9,0,0,1,.51-1.15c.32.19.65.37,1,.58l1.46,1a9.61,9.61,0,0,0,.26-2.23c-.18-1.58-.65-3.13-.76-4.71-.21-2.95.49-6.17-.51-8.8-1.83-4.82-2.06-9.64-1.94-14.61,0-1.68.08-3.37,0-5a5.39,5.39,0,0,0-.86-1.71c-.1.55-.24,1.09-.31,1.63-.21,1.7-.37,3.4-.63,5.09-.05.35-.44.65-.67,1a3.47,3.47,0,0,1-.49-1.15c-.05-2-.06-3.95,0-5.92,0-.42.45-.82.72-1.22.54-.82,1.57-1.62,1.58-2.44,0-2.88-.41-5.76-.48-8.64,0-1.4.69-2.84.5-4.19a19.78,19.78,0,0,1,2-12.33A22.47,22.47,0,0,0,190,169.71a30.53,30.53,0,0,1-1.64-9.08A46.13,46.13,0,0,1,191,144.57a70.36,70.36,0,0,0,2.64-9.58c.72-3.3,1.09-6.67,1.68-10,1-5.8,2.53-11.55,3-17.38.39-4.36.63-8.64,2.23-12.77.24-.63-.06-2.12-.41-2.22-1.94-.58-1.73-1.95-1.7-3.38.05-1.88.42-3.86-.06-5.61A44.46,44.46,0,0,1,197.15,68c.48-6.4.8-12.89-2.12-19.21s-4.88-13.41-7.4-20.1c-1.67-4.44-3.53-8.83-5.42-13.19a26.62,26.62,0,0,0-8.73-11.2c-.39-.28-1.09-.16-1.65-.22.11.42.09,1,.36,1.23a17.54,17.54,0,0,1,4.14,6c1.63,4,4.26,7.54,6.24,11.39.85,1.64,2.91,3.49.35,5.49-.09.07.34.76.49,1.18a115.88,115.88,0,0,1,4,11.11c1,4,3.71,8,.92,12.33-.17.28.44,1,.54,1.51.44,2.2.88,4.4,1.17,6.62,0,.38-.58.85-.9,1.28a4.79,4.79,0,0,1-.84-1.14c-.82-2.23-1.58-4.49-2.37-6.74-.11-.31-.28-.6-.42-.9-.08.36-.32.77-.22,1.08,1,3.06,2.11,6.07,3,9.16.89,3.28,3.71,6.25,1.84,10-.79,1.58-.36,2.81.5,4.36.67,1.19.28,3,.17,4.53,0,.37-.83.68-1.27,1a10.16,10.16,0,0,1-.59-1.36c-.43-1.51-.88-3-1.2-4.55-.29-1.38-.44-2.79-.62-4.19-.13-1,.06-2.1-.36-2.91-1.37-2.62-4-5-4.26-7.69-.56-5.88-5.1-11-3.27-17.24.14-.5-.29-1.17-.45-1.76a8.46,8.46,0,0,0-1.28,1.9,12.42,12.42,0,0,0-.62,3.3c-.15,2.63-.24,5.27-.25,7.9,0,1.88.25,3.76.19,5.63,0,1.7-.46,3.39-.55,5.09-.1,2,.11,4-.07,6-.1,1-1,2-1.1,3.08-.16,2.79-.08,5.59,0,8.39a4.2,4.2,0,0,0,.58,1.36c.58-.28,1.6-.47,1.68-.86a26.86,26.86,0,0,0,.7-5.35c.08-5.3,0-10.6.06-15.9a1.17,1.17,0,0,1,.65-.94,1.28,1.28,0,0,1,1.1.48A41,41,0,0,1,182.2,69c2.05,5.49,2.68,11.43,5.76,16.64.7,1.17.1,3.36-.46,4.88-.62,1.71-2.36,3.08-2.77,4.78a113.92,113.92,0,0,0-2.45,13.82c-.86,8.13-5.18,15.12-7.31,22.82-.09.34-.5.61-.76.9a4.39,4.39,0,0,1-.41-1.22,30.09,30.09,0,0,0-.07-5A104.39,104.39,0,0,1,172,102.71a2.46,2.46,0,0,1,3.41-2.39c2.71.9,2.24,3.09,1.91,5-.38,2.27-1.31,4.45-1.6,6.72-.12.93.83,2,1.29,3,.55-.73,1.42-1.39,1.58-2.19.92-4.49,1.1-9.21,2.63-13.47,1.47-4,.7-7.4-1-10.88a8.67,8.67,0,0,0-1.84-1.9,24.28,24.28,0,0,0,.18,2.57c.48,2.59,2.29,5.13.59,7.78a3.21,3.21,0,0,1-2.56,1.39,5.32,5.32,0,0,1-4-4.09c-.88-4.25.24-9-3.43-12.56-.42-.41-.12-1.49-.23-2.25-.78-5-1.64-10-2.36-15-.79-5.46-1.46-10.81,1.11-16.21,1.1-2.31.53-5.4.64-8.13.18-4.68.24-9.36.47-14,.14-3,.91-6,.59-8.86-.18-1.63-2-3.1-3.06-4.64-1.41,1.15-3.33,2-4.1,3.52-1,2-1.28,4.42-1.72,6.69-1.22,6.33-2.78,12.63-3.38,19-.42,4.5-1,9.1.76,13.74,1.37,3.63,2.54,8,1.67,11.56-.83,3.36-1.55,6.37-.92,9.77.44,2.34.34,4.78.72,7.13.44,2.65,1.23,5.24,1.71,7.88a49.39,49.39,0,0,1,.57,5.69,1.77,1.77,0,0,1-.59,1.18c-.1.1-.87-.18-1-.45-.35-.74-.94-1.71-.71-2.32,1.39-3.52-1-6.48-1.5-9.66-.66-4.19-2.85-8.12-3.91-12.28a21.24,21.24,0,0,1-.58-8.31c.83-5.23.8-6-3.7-9-2-1.34-4-2.74-4.24-5.34-.29-3-.53-6-.57-8.94a14.38,14.38,0,0,1,.82-3.8c.25-1,.68-1.9.93-2.87.92-3.58,1.13-7.53,2.85-10.67,2-3.71,5.55-6.61,8.11-10.07s5.63-6.29,9.92-7.14c2-.4,2.53-1.41,1.92-2.66-.32-.66-2.14-.77-3.3-.83a20.28,20.28,0,0,0-3.52.39c1-.78,2-1.57,3-2.34.29-.23.64-.57,1-.57,1.48,0,2.92.1,3.44-1.69-1.43,0-3-.44-4.25,0a13.28,13.28,0,0,0-4,2.62c-1.45,1.21-2.59,2.8-4.1,3.92a30.58,30.58,0,0,0-10.2,12.41,4.81,4.81,0,0,1-1,1.1c-.14-.41-.24-.84-.42-1.24-.27-.59-.59-1.14-.89-1.71a7.15,7.15,0,0,0-1.26,1.26,7.28,7.28,0,0,0-.85,2c-1,4-2.09,8.05-3,12.11-2,8.71-4.27,17.18-2.72,26.52,1.29,7.77,3.19,15.3,5,22.93,1.18,5.15,1.39,10.52,1.94,15.8.06.54-.56,1.66-.78,1.64-2.47-.23-1.64,1.59-1.54,2.55.5,5,1.29,10,1.71,15,.27,3.17-.36,6.44.13,9.56a168.13,168.13,0,0,1,2.38,31,20.82,20.82,0,0,0,.79,4.7c.79,3.83,2.45,7.38,1.7,11.62-1.37,7.76-2.45,15.45-9.25,20.81-.54.42-1.13.77-1.7,1.15-.14-.87-.7-2-.34-2.56a25.44,25.44,0,0,1,3.07-3.17c.65-.71,1.18-1.52,1.77-2.29-1,0-2.23-.29-3.06.12-1.7.86-2.57.79-2.93-1.24-.44-2.46-1.34-4.89-1.5-7.36-.25-4.07.5-8.26-.2-12.22a88.34,88.34,0,0,1-1.71-16.77c.13-7.8.11-15.6,0-23.4a46,46,0,0,0-.79-10,138.61,138.61,0,0,1-3.46-22.89,92.32,92.32,0,0,0-1.78-11.41c-1.11-5.75-2.13-11.54-3.7-17.17-.87-3.13-2.66-6-4.27-8.91-.48-.86-1.76-1.3-2.67-1.93-.07.89-.13,1.79-.2,2.69,0,.18,0,.44-.1.54-3.59,3.16-7.16,6.33-10.84,9.39-.35.29-1.33-.15-2-.26a6.34,6.34,0,0,1,.87-1.45c3.3-3.1,6.66-6.14,10-9.25a5.07,5.07,0,0,0,.77-1.62c-.6.15-1.21.27-1.79.47a2.1,2.1,0,0,0-.69.51c-5,4.45-9.93,8.87-14.81,13.4a9.7,9.7,0,0,0-2.42,3.44c-1.46,3.85-2.76,7.77-4,11.71-2.23,7.08-4.18,14.22-3.3,21.76.2,1.7.35,3.4.61,5.09.89,5.85,1.57,11.75,2.77,17.55,1.91,9.15,4.27,18.22,6.23,27.37.91,4.23,2,8.31,5.69,11,5,3.62,5.37,9.28,7,14.36,1.88,6,3.06,12.11,6.58,17.5.87,1.33,1.58,3.85.9,4.85a22.22,22.22,0,0,1-6,5.51c-3,2-6.91,2.23-8.94,6.21-1.54,3-5.3,4.38-8.89,5a5.8,5.8,0,0,1-1.54-.13c.24-.55.33-1.35.76-1.58,2.26-1.28,4.64-2.36,6.91-3.63,0,0,14.18-7.72,15-8.4-1-.11-14.46,6.05-15.4,6.09a6.15,6.15,0,0,0-2.75.59c-6.09,3.54-12.59,6.44-17.35,12-2,2.33-4.94,3.88-7.47,5.77-1.52,1.13-3.63,1.9-4.49,3.39A71.31,71.31,0,0,0,61,247.19c-2.56,7.58-4.58,15.34-6.72,23.05C52.68,276,54,281.51,55.49,287c.12.43.85.67,1.24,1.05a8.7,8.7,0,0,1,1.71,1.84c2.7,5,5.26,10.11,8,15.11,1,1.82,2.08,4.13,4.78,1.68a1.1,1.1,0,0,1,1-.06c3,1.71,6,3.44,9,5.22,3.38,2,5.77,5.17,10.42,5.76,4.89.62,9.41,1.81,14.21-.37,2.39-1.09,4.56.64,4.53,3.28a16.88,16.88,0,0,1-.64,5.66c-1.84,4.87-3.11,10.31-6.25,14.27-6.18,7.79-13.59,14.64-20.26,22.07-4.22,4.7-8.13,9.68-12,14.65L60.93,390.77c-4.6,5.72-9.23,11.35-12.18,18.17a37.1,37.1,0,0,1-10.44,13.51c-4.8,4-9.68,7.92-13,13.28S18.31,446.51,15,452c-3,5-6.25,9.93-8.27,15.29a148.94,148.94,0,0,0-5.56,20.54A59,59,0,0,0,0,500.08c0,3.49,1.08,7,1,10.47-.07,4.54,1.12,8.72,2.38,13,2.61,8.89,7.57,17,9,26.33.12.78.27,1.55.43,2.32a84,84,0,0,1,3.87,11.54,14.61,14.61,0,0,1,1.94,4.37,2.81,2.81,0,0,1,0,1.08q.3.75.54,1.53A4.35,4.35,0,0,1,14.94,576a14.12,14.12,0,0,1-4.58-1.26c-2.76-1.07-6.64.36-6.17,2.46a47.09,47.09,0,0,0,2.53,8.14A17.63,17.63,0,0,0,10.57,591a18.13,18.13,0,0,0,4.55,3.28,1.57,1.57,0,0,1,.38.31l0,0A43,43,0,0,0,20,598l.44.15c3.85.17,7.61,1.46,11.39,2.09,3.57.6,6.92,2.41,10.61.45.55-.29,1.5.13,2.27.22-.27.66-.56,1.32-.79,2a2.54,2.54,0,0,1,.19.84c0,13,14.46,18.64,24.12,23.72,4.69,2.47,9,5.16,14,7,1,.36,2,.69,3,1a61.72,61.72,0,0,0,11.35,1.44l.85-.42c1.07.12,1.73.24,2.32.36.9-.06,1.8-.16,2.71-.28,1.11-.28,2.2-.62,3.29-1a.29.29,0,0,1,.29-.09,38.75,38.75,0,0,1,6.34-1.69.28.28,0,0,1,.35-.17A7.84,7.84,0,0,1,116,636a16.88,16.88,0,0,1,3.76,2.86c3.69,3.35,7.42,2.45,11.87,3.42,3.32.73,3.84,2.4,5.53,4.89a11.22,11.22,0,0,0,2.41,2.51c2.08.83,4.12,1.69,6.09,2.57a5.56,5.56,0,0,1,2.07,1.78c1,.44,1.92.87,2.79,1.31a1.09,1.09,0,0,1,.4.53,3.41,3.41,0,0,1,.17.44c.68,2,3.12,3.18,4.86,4.16.92.51,1.83,1,2.69,1.62l2.4,1.17c3.77,1.79,7.58,3.49,11.16,5.54,4.75,1.93,10.15,1.33,15,3.21,5.36,2.09,11.18,2.71,16.86,3.55a.21.21,0,0,1,.14-.07,11.49,11.49,0,0,1,5.83.69.65.65,0,0,1,.22.16,32.73,32.73,0,0,0,11.74-.66l.57-.14c4-1.85,8.14-3.47,12.19-5.26,3-1.33,5.94-3,9.36-1.18.15.08.4,0,.59,0l1.09.16,3.49.51c0-.61.15-1.08.41-.93a12,12,0,0,0,4.83,1.33,6.47,6.47,0,0,1,3.41-.6c.94.06,1.95-1.42,3-2.13a6.84,6.84,0,0,1,1.45-.57c0,.08,0,.17-.07.26a.68.68,0,0,1,.12-.12l.12-.06a1,1,0,0,1,.21-.73,7.89,7.89,0,0,1,4.19-2,.64.64,0,0,1,.14-.31,16.77,16.77,0,0,0,1.92-2.49,13.79,13.79,0,0,0,.29-4.59,32.14,32.14,0,0,0-1.53-6.26c-.95-3.32-3.24-4-5.5-6.44a.22.22,0,0,1-.05-.08,2.34,2.34,0,0,1-.58-.44c-.18-.2-.35-.42-.53-.63-.14.17-.36.09-.63-.51-.13-.28-.28-.55-.43-.81l-.53-.69s0-.1,0-.16a15.37,15.37,0,0,0-5.34-4.38l-.07,0a.59.59,0,0,1-.46-.3c-6-3.1-13.51-4.75-16-10.47a4.44,4.44,0,0,1-.88-.79.35.35,0,0,1-.24,0c-1.84-1.78-4.19-3-4.35-6.21-.11-2.15-1.57-4.25-2.51-6.34-.23-.5-.79-.86-1.19-1.28a5.36,5.36,0,0,1-1.26,3l-3.35-2.08a9.86,9.86,0,0,0,1.38-.89c.78-.71,2.12-1.47,2.14-2.22.06-3.48-.23-7-.46-10.45-.06-.81-1.07-6.62-1.59-7-3.12-2.12-3-.75-4-3.92-1.45-1.1-3-2.06-4.51-3.13.56,1.76.78,3.63.24,4.36a2.07,2.07,0,0,1-1.58-.25c-1.31-4.93-5.77-6.89-9.33-9.68a25,25,0,0,1-4.83-4.22,5.89,5.89,0,0,1-.71-2.19,8.25,8.25,0,0,1,2,.65c3.68,2.29,7.3,4.66,11,7,0-.59.19-1,.52-.66,2.15,2.26,4.86,3.75,7.29,5.6a.6.6,0,0,1,.33.16c.21.22.43.42.65.63a14.52,14.52,0,0,1,2.88,3.16c.33.49.4,2.39,0,2.53l2.47,3.06m-3.65-22.34a9.23,9.23,0,0,1,.69,2.28,18.71,18.71,0,0,1-2.42-1.07c-.35-.21-.48-.78-.71-1.19Zm-.58,8.34a10,10,0,0,1,2.09,2c0,2.15,0,3.72,0,5.28a4.8,4.8,0,0,1-.68,1.53c-.43-.36-1.07-.64-1.25-1.09A51.16,51.16,0,0,1,221.5,582C221.06,580.36,221.91,579.5,223.59,580.4Zm-10.13-11.87a6.09,6.09,0,0,1,2.71.61,8.91,8.91,0,0,1,2.77,2.55c.25.37-.55,1.41-.87,2.14l-3.26-1.48c-.92-.71-1.59-1.07-2.16-1.55-.73-.62-1.37-1.34-2.05-2A19.72,19.72,0,0,1,213.46,568.53Zm-3.79,8.9c2.33-.55,3.62.75,4.54,2.63a28.21,28.21,0,0,1-5.31-1.65C209.16,578.07,209.36,577.5,209.67,577.43Zm-59.35-558c.14-.32.52-.55.8-.82a1.51,1.51,0,0,1,1.13-.07,3.51,3.51,0,0,1-.51,1.2,24.8,24.8,0,0,1-2,1.66A14.85,14.85,0,0,1,150.32,19.45Zm98.76,621.8c.75,0,1.5.08,2.25.13a7,7,0,0,1,2.12,2c-.44.12-1,.46-1.29.31a37.16,37.16,0,0,1-3.37-1.89S249,641.25,249.08,641.25Zm-11.71-8.2a26.21,26.21,0,0,1,3.1,1.22c2,1.14,3.66,1.91,5.25,2.85.5.3.73,1.06,1.08,1.6a8.81,8.81,0,0,1-1.73-.31c-2.94-1.16-5.88-2.3-8.75-3.6-.56-.25-.82-1.17-1.22-1.79A9.54,9.54,0,0,1,237.37,633.05Zm1.29,24.33a2,2,0,0,1-1,1.19l-.52-.8Zm-4-14.4-.82.16c-.09-.88-.18-1.76-.28-2.65A6.31,6.31,0,0,1,234.62,643Zm-.49,9.37c-.14.73-.26.91-.43,1-.89.44-1.79.86-2.7,1.25a4,4,0,0,1-.37-.59Zm-6.38-11a7.86,7.86,0,0,1,1.46-.4,4.69,4.69,0,0,1-.47,1.2c-2,2.69-5.07,3.53-8,4.43-1.59.5-1.39-.54-.49-1.4C222.94,643.75,225.34,642.56,227.75,641.4Zm-20.18,22.8a8.56,8.56,0,0,0-1.8-.32,15.15,15.15,0,0,1-2.34-.83c-.09,0,0-.5,0-.77a12.57,12.57,0,0,0,2.08.42c1.59.06,3.19,0,4.79,0a5.37,5.37,0,0,1,1.44.5c-.45.42-.86,1.13-1.36,1.19A13.25,13.25,0,0,1,207.57,664.2Zm1.32,2.66-.12.89a13.36,13.36,0,0,1-3.62-.09,2.32,2.32,0,0,1,0-.52C206.42,667,207.66,667,208.89,666.86Zm-8.69-27.48a6.09,6.09,0,0,1-1.86.36c4.08,2.28-18-1.7-17.64-2.22.21-.33,19,0,19.32-.28-.48,11.86,10.34,2.11,5.43-2.36-.24-.22.61.3.91.45a3.45,3.45,0,0,1-.66.71C203.89,637.18,202.07,638.33,200.2,639.38Zm3.14,28.37c-.7.3-1.15.42-1.48.27a8.9,8.9,0,0,1-1.41-1,6.54,6.54,0,0,1,2.05-.69C202.77,666.35,203.06,667.26,203.34,667.75Zm-8.85-49.29c.24-.21,1.53.22,1.53.39.1,2.65.08,5.31,0,8,0,0-.76,0-1.16,0C193.52,624.92,193.18,619.57,194.49,618.46Zm5.83-11.74,1.81-.59a12.57,12.57,0,0,1,.86,2.66Zm4.24,22.48c.7-1.19,1.23-2.47,2-3.62.24-.38.93-.48,1.41-.71.08.46.37,1,.19,1.36-.6,1.15-1.37,2.21-2.07,3.3-.38.37-.44.45-.52.51l-2.73,1.64C203.4,630.86,204.05,630.07,204.56,629.2Zm-4.08-13.7c.38.06.94.41,1,.73.29,1.35.44,2.74.64,4.12a9,9,0,0,1,.3,2.66c-.7-.57-1.82-1-2-1.74a24.25,24.25,0,0,1-.64-5C199.74,616,200.28,615.46,200.48,615.5Zm0,8.13a31.88,31.88,0,0,1,1.58,2.86c0,.1-.42.44-.65.67l-1.13-1.48a6.47,6.47,0,0,0-.57-1.81C200,623.78,200.49,623.57,200.52,623.63Zm7.86-10.23c-.15,0-.15-.5-.18-.77a.57.57,0,0,1,.4-.14l6.51,1.64a9.26,9.26,0,0,1,3.08,1.21,9.12,9.12,0,0,1,1.45,1.74,4.89,4.89,0,0,1-1.71,0C214.73,615.89,211.55,614.66,208.38,613.4Zm7.45,6.06c.46.49,1.24.93,1.31,1.47s-.44,1.31-.71,2l-1.62-1.38A6.66,6.66,0,0,1,215.83,619.46Zm.49,45.62c1.81,0,3,0,4.24,0,.05,0,.1.26.16.4l-4.7.76Zm1.51-5.62a1.86,1.86,0,0,1,1.18-.29c.82.1,1.63.24,2.44.37a5.54,5.54,0,0,1-.25.73C220.07,660,219,659.74,217.83,659.46Zm5.79-39.28a7.43,7.43,0,0,1,.59,2.2c-.72-.33-1.73-.49-2.09-1a8.6,8.6,0,0,1-.67-2.76A4,4,0,0,1,223.62,620.18ZM221.45,626l-.46,1.17-.75-.89A1,1,0,0,1,221.45,626Zm-9.85-31.42c.67.52,1.56.92,2,1.59,1.32,2.21,2.44,4.52,3.68,6.78a7.73,7.73,0,0,0,.89,1.11,25.48,25.48,0,0,1,2.81,2.85c.33.46.1,1.31.12,2a5.34,5.34,0,0,1-1.48-.47c-1.57-1.07-3.12-2.16-4.61-3.34-.72-.58-2-1.23-.43-2.35a8.2,8.2,0,0,0-.86-1.63,34.27,34.27,0,0,1-2.42-4.11C211,596.33,211.46,595.38,211.6,594.57Zm-1.32,14.82a10.37,10.37,0,0,1-2.71-2l1.57-.93C209.26,607.55,212.32,607.5,210.28,609.39Zm-3.37-17.31c1.25,1.63.83,6.54-.55,8.12a12.35,12.35,0,0,1-.46,2.08c-.33-.37-.88-.71-.93-1.12a56.65,56.65,0,0,1-.58-6.5,6.38,6.38,0,0,1,.91-2.8A2,2,0,0,1,206.91,592.08Zm-4.46-4.49a21.51,21.51,0,0,1,2.63,2.6l-2,1.42a8.6,8.6,0,0,1-1.34-1.35,22.76,22.76,0,0,1-1-2.24C201.27,587.85,202.14,587.36,202.45,587.59Zm-11.06-17.73c.49.16,1.22.19,1.42.52,1.16,1.88,2.74,3.73,3.15,5.79a10.08,10.08,0,0,0,3.26,5.83,7.44,7.44,0,0,1,1.1,2.2,14.35,14.35,0,0,0-2.33-.27c-1.09.05-2.16.32-3.24.4a21.08,21.08,0,0,1-2.24-.09l.57-1.81c.4-2,.86-3.72.53-5.3-.42-2-1.51-3.92-2.24-5.89A4,4,0,0,1,191.39,569.86ZM196,591.08c0,.35-.93.75-1.43,1.12-1.29-1.45-2.28-2.6-3.24-3.78a9.12,9.12,0,0,1-.69-1.18c.53-.12,1.11-.45,1.58-.34C194.45,587.43,195.91,588.76,196,591.08Zm-6-13.39a3.62,3.62,0,0,1,1.81,1c-.66.69-1.32,1.38-2,2.08-.15-.24-.45-.51-.42-.72C189.62,579.28,189.86,578.49,190.06,577.69ZM181.12,590a15.76,15.76,0,0,0,2.25,2.5c1.36,1.22,2.87,2.14,3.3,1.78a2.9,2.9,0,0,0,.48-1.07c.11-1.36,1,2.54,1.4,3.85.11.4-.32.93-.5,1.4-.28-.25-.71-.62-1.25-1.06a43.48,43.48,0,0,0-5.68-3.9,94.45,94.45,0,0,0-8.75-4.75c-9.1-4.28-17.06-6.29-17-6.5s4.61,1,11,2c5.78.9,8.09.89,9.25-.5.81-1,.73-2.31.75-4a14,14,0,0,0-1.5-6.25,157.37,157.37,0,0,1-6.25-16c-.08,0,8.58,19.12,8.76,19a.45.45,0,0,0,0-.35h0a21.06,21.06,0,0,1,.76,2.83,13.89,13.89,0,0,1-.26,4.56h0A25.5,25.5,0,0,0,181.12,590Zm6.52,69.76c3,1,6,2.06,8.93,3.11l-.78,1c-3.13-.91-5.67-1.79-8.19-2.75-.27-.1-.43-.59-.53-.94C187.05,660.12,187.5,659.73,187.64,659.78ZM178,557.68a1.22,1.22,0,0,1-.34.14,1.3,1.3,0,0,1-.69-.11,1.67,1.67,0,0,1-.86-1c0-.08-.06-.22-.13-.49s-.1-.41-.14-.67a6.75,6.75,0,0,1-.08-1.06,5,5,0,0,1,.14-1.09,2.85,2.85,0,0,1,.27-.81c.1-.18.38-.65.48-.84l0,0c0-.06.08-.15.15-.26s.14-.23.24-.37l.17-.22s.34-.39.39-.36-.06.18-.08.23a3.31,3.31,0,0,0-.14,2.3,6.4,6.4,0,0,0,.32.71c.14.29.27.52.35.67a7,7,0,0,1,.31.75,3.22,3.22,0,0,1,.25,1.11,1.86,1.86,0,0,1-.32,1.07A1,1,0,0,1,178,557.68Zm6.25-75.16-.84-2.6a4.8,4.8,0,0,1,.63-2.1,7.87,7.87,0,0,1,1.44-1.16c0,.59.07,1.19,0,1.78a7.53,7.53,0,0,1-.3,1.64C184.94,480.91,184.58,481.71,184.26,482.52Zm2.07-22.17a53.07,53.07,0,0,1-3.78,5.54c-.33.42-1.17.47-1.78.7-.1-.72-.55-1.66-.24-2.11,1.35-1.94,2.91-3.74,4.4-5.6C187.57,458,186.48,460.1,186.33,460.35Zm-4,82.17c-.41.68-1,.43-2.77,1.37s-2.1,1.63-2.9,1.46a2.12,2.12,0,0,1-1.3-1.25,4.23,4.23,0,0,1-.32-.42h0a3.58,3.58,0,0,1-.32-.62c-.06-.36,1.09-.52,1.44-1.21s-.07-1.3-.33-1.83a8,8,0,0,0-1.84-2.17,5.86,5.86,0,0,1-2-3.5c-.06-1.23.6-2.25,1.12-4,0,0,0-.14.06-.14s-.42,1.65-.18,1.76,1.72-1.69,1.91-1.63l.08,0,.2.1a13.66,13.66,0,0,0,2.15.33c.21,0,.82.15,2.16,2.67a34.76,34.76,0,0,1,2.17,5.5C182.53,541.4,182.69,542,182.37,542.52Zm-2.54-16.69s.75.93.54,1.19-1-.13-1.34-.33c-1.41-.8-2-2.56-2.18-3.87,0,.25,0,.42-.06.61-.19-.32-.43-.75-.66-1.15h0s.37.67.66,1.17a1.1,1.1,0,0,1,0,.18l0,.26c-.06.3,1.67,3.29,1.49,3.47s-.95-.44-2.33-1.66c-.86-.76-1.61-1.5-3-2.86s-1.91-1.92-2-1.81c-.29.21,2,2.71,1.16,4.67-.18.44-.59,1-1,1s-.5-.44-.83-1.17c-1.13-2.5-1.48-3.27-2.14-3.95a4.82,4.82,0,0,0-.94-.77c.53-.19,1-.35,1.53-.51l0,0a4.37,4.37,0,0,1-.31-.61c-.17.3-.43.34-.67-.1a.53.53,0,0,1-.24.32.61.61,0,0,1-.74-.34h-.55a.48.48,0,0,1-.07.15.53.53,0,0,1-.38.19.88.88,0,0,1-.35,0c-.06-.13-.07-.17-.06-.17a11.33,11.33,0,0,1,2.95,5.18c.19.73.79,3,0,3.5-1.08.68-4-2.51-4.33-2.16-.16.14.19.93,2,3.33q-2.18-4.17-4.34-8.33l-3.16-3.84c-.47-.74-1.14-1.73-2-2.83-2-2.5-4.76-5.37-5-5.17s.32,1.14,1,1.33a.66.66,0,0,0,.21,0,1.56,1.56,0,0,1,.79-.19,1.6,1.6,0,0,1,.73.17,1.14,1.14,0,0,1,1.28-.6,2.49,2.49,0,0,1,.77.6,6.86,6.86,0,0,1,.5.83c.25.3.89.47,2.6-.08a14,14,0,0,0-.43-1.42,4.72,4.72,0,0,0,.43,1.42l.14.28a1.18,1.18,0,0,1,1.59-.45,14.81,14.81,0,0,1,2.68,1.3,10,10,0,0,1-.41-3.07,1.26,1.26,0,0,1,.54-1l-.24-.69a1.53,1.53,0,0,1,1-2.17,8.72,8.72,0,0,1,.36-5.17c.69-1.73-2-4.78-3.26-7.19-.12-.24-.88-.15-1.35-.22a3.93,3.93,0,0,0-.13,1.42c.41,1.4,1,2.75,1.39,4.17.12.5-.3,1.14-.48,1.72-.59-.26-1.65-.45-1.71-.79-.47-3-3.2-5.47-2.18-8.86a4.29,4.29,0,0,0-.43-2.35c-1.64-4.46-3.27-8.93-5-13.35a8.87,8.87,0,0,0-2.23-3.51c-4.56-3.84-5.28-9.78-8.43-14.37a11.24,11.24,0,0,0-1.68-1.62,13.5,13.5,0,0,0-.7,2.09c-.44,2.69-.77,5.4-1.3,8.08-.06.29-1.65.63-1.69.54-.65-1.29-2.74-2.55-.18-4.11.35-.21,0-1.88-.35-2.74-.27-.66-1.05-1.12-1.61-1.67a8,8,0,0,0-1.46,2.34,24.52,24.52,0,0,0-.09,3.84,2.91,2.91,0,0,1-.41.93c-.33-.17-.79-.26-1-.53a11.57,11.57,0,0,1-1.9-3.07c-1.32-4.44-4.8-7.39-7.47-10.91-.82-1.07-1.84-2.83-1.47-3.77.7-1.78,2.47-1.14,4.24-.86a7.19,7.19,0,0,0,5.48-1.54c.87-.85.57-3.42,0-5-2.59-7.53-5.59-14.92-8.05-22.49-.52-1.59.6-3.7,1-5.57.58.3,1.42.45,1.68.92,2.89,5.14,5.8,10.27,8.43,15.53.76,1.54.66,3.5,1,5.26-.91-1.29-1.92-2.53-2.7-3.9-1.1-1.91-2-3.91-3-5.88-.52-.5-.72-.72-.95-.92-.4-.36-.82-.72-1.24-1.08a6.29,6.29,0,0,0,.21,1.81c1,2.35,2,4.71,3.21,7,1.54,2.94,3.35,5.75,4.79,8.73.34.69-.31,1.87-.56,2.82-.17.61-.42,1.21-.63,1.81.49-.08,1.08-.38,1.44-.2a16.89,16.89,0,0,1,2.18,1.54,5.35,5.35,0,0,0,1.26.69c.08,0,.52-.48.53-.75,0-2.51.07-5,0-7.51,0-.32-1-.53-1.16-.94a15.19,15.19,0,0,1-1.13-3.37c-.05-.25.79-.67,1.23-1,.17.38.3.78.51,1.15,1.76,3,3.53,6.07,5.32,9.09.2.33.65.85.83.8,2.94-.86,3,2.13,4.46,3.12a59.43,59.43,0,0,0,8.59,4.67c.43.2,1.85-1.2,2.46-2.09.37-.55.14-1.55,0-2.32a5.44,5.44,0,0,0-.55-1.39c-.41.37-1.17.73-1.17,1.09,0,2.73-1.75,1.62-3,1.26-4.71-1.41-6.84-5.59-7.39-9.38-.11-.82-.45-1.61-.57-2.42-.17-1.14-1-2.57,1.45-2.45,2,.1,1.32-1.29.75-2.16a19.08,19.08,0,0,0-2.1-2.12c-2.64-2.84-2.44-6.09-1.32-9.44.39-1.15.85-2.27,1.27-3.41.78,1,1.55,2.05,2.35,3.06,1.65,2.09,3.26,4.23,5,6.25,1.3,1.53,2.94,1.74,4.27.11.3-.36,2.84-2.33-.61-2.4-.69,0-1.62-1-2-1.78-2-4.31-3.75-8.76-5.92-13a15.54,15.54,0,0,1-2-8.39,5.22,5.22,0,0,1,.31-1.05c.41.22,1,.33,1.22.66a54.22,54.22,0,0,0,4,5.16,4.93,4.93,0,0,0,3.43,1.18c.85-.06,1.69-1.14,2.4-1.89a1.3,1.3,0,0,0,0-1.32c-.25-.26-.9-.13-1.37-.21-1-.17-2.21,0-2.87-.59a38.68,38.68,0,0,1-5.32-5.23c-.71-.87-2.52-2.32,0-3.48a2.47,2.47,0,0,0-.32-1.92c-5.44-3.16-4.45-8.53-3.55-12.85,1.17-5.57,3-10.89,1.51-16.64-.08-.34.28-.9.58-1.21,2-2.07,1-3.63-.92-4.87-1.71-1.11-3.48-2.44-5.41-2.84-2.59-.54-5.14,2-5.11,4.84a49.51,49.51,0,0,0,.72,10.49c.47,2.1,2.37,3.92,3.8,5.76.22.29,1.28-.05,2-.1-.21-.67-.19-1.58-.65-2a5.24,5.24,0,0,1-1.73-6.3c.82-2.46.85-5.18,1.33-7.77.09-.52.64-1,1-1.43a5.4,5.4,0,0,1,.77,1.46c.65,3.3,1.6,6.6,1.73,9.92.11,3,.14,6.5-1.32,8.87-2.92,4.73-.74,9.27-.79,13.88,0,.33.48.82.37,1-1.64,2.33-.44,4.86-.66,7.27-.4,4.54-.33,8.87,1.84,13,.33.64-.1,1.68-.24,2.52-.28,1.66-.54,3.32-.93,5a12.1,12.1,0,0,1-1,2.16c-.46-.61-1.2-1.18-1.32-1.85-.35-2.07-.26-4.22-.69-6.26-1.05-4.88-2.31-9.72-3.45-14.58a10.45,10.45,0,0,1-.13-2q-.31-10-.62-20a3.81,3.81,0,0,0-.19-.81c-.34.29-.65.6-1,.86-.56.41-1.15.8-1.73,1.19a15.45,15.45,0,0,1-.28-2.23c0-2-.22-4.05.29-5.92a17.78,17.78,0,0,0,.69-7.6c-.51-3.51.29-7.19.39-10.8,0-1.09-.56-2.21-.53-3.3a31.73,31.73,0,0,1,.65-7.25c1.07-3.93-.88-6.82-3-9.59-2.41-3.17-2-6.71-1.81-10.18,0-.88,1.45-1.78,2.4-2.44.21-.14,1.3.55,1.64,1.08a1.74,1.74,0,0,1-.34,1.6c-1.3,1.37-1.28,2.29.66,2.94a3.76,3.76,0,0,1,2.84,3.52,22.06,22.06,0,0,0,1.67,5.52c.25.63,1.06,1.05,1.62,1.57.29-.78.93-1.61.79-2.31-.43-2.25-1.15-4.45-1.73-6.68a14.89,14.89,0,0,1-.24-1.63c.61.22,1.54.28,1.77.7,1.58,2.9,3.44,5.76,4.38,8.87,1.09,3.56,1.3,7.38,2,11.07.08.44.64.79,1,1.18.27-.38.78-.77.77-1.15-.08-2.41-.25-4.81-.44-7.21s-.52-4.94-.7-7.41c0-.42.4-.88.62-1.31.38.29,1.13.64,1.09.85-.84,4.51,3.83,7,4.11,11.1,0,.67.39,1.76.12,1.93-3.89,2.46-.49,4.78.07,7.14a8.81,8.81,0,0,1,.56,1.82,14.13,14.13,0,0,1-.48,2.63,22.11,22.11,0,0,0-1.31-1.9,8.72,8.72,0,0,0-1.26-1.06,5.12,5.12,0,0,0-.51,1.43c-.06,2.66,2.07,5.16,4.8,6a6.08,6.08,0,0,1,2.3,1.66,40.65,40.65,0,0,1,4,4.59c.45.63.23,1.73.32,2.61a7.27,7.27,0,0,1-2.28-1.14c-1.39-1.55-2.59-3.28-3.89-4.92a5.15,5.15,0,0,0-.84-.69c-.08.46-.37,1-.19,1.37a29,29,0,0,0,2.31,3.5A13,13,0,0,1,159.55,379c-.46,1.21-.5,2.56-.94,3.77-.14.41-.9.62-1.38.91a3.78,3.78,0,0,1-.35-1.28c.33-2.42.8-4.82,1.08-7.25a12.17,12.17,0,0,0-.28-2.73,11,11,0,0,0-2,1.51c-1.61,1.91-3.66,3.82-.83,6.37.32.28.23,1.11.19,1.67-.14,2.08.49,4.28,2.59,4.3,1.14,0,2.46-2.26,3.41-3.69a16,16,0,0,0,1.36-3.64,15.89,15.89,0,0,1,.44,4.12c-.48,3.11.95,5.71,1.91,8.44.16.45.81.72,1.23,1.07.18-.47.57-1,.51-1.41-.34-2.22-.69-4.44-1.22-6.61-.81-3.23,1.39-6.9,4.56-7.34.28,0,.89.3.87.39a4.75,4.75,0,0,1-.5,1.56,12.58,12.58,0,0,1-1,1.47,10.47,10.47,0,0,0,2.13.66c3,.3,5.83-2.78,6.14-5.67a20.39,20.39,0,0,1,1.16-3.79c1.21,1.21,3.17,2.25,3.49,3.66,1.11,4.81,2,9.68-1.8,14.14-1.2,1.4-1.42,3.8-1.63,5.79-.39,3.75-.46,7.53-.65,11.3a6.5,6.5,0,0,1,0,1.77,31.11,31.11,0,0,1-1.41,3,17.94,17.94,0,0,1-.95-2.45c-1.05-4.72-2-9.47-3.09-14.16a16,16,0,0,0-2-3.92c-.12-.2-.77-.23-1.11-.13-1.09.33-2.49,4.62-1.75,5.53,1.66,2,1.57,4.07.69,6.37-.75,2-1.13,4.08-1.82,6.08-.21.6-.9,1-1.37,1.56a5.69,5.69,0,0,1-.43-1.79,38.17,38.17,0,0,0,.51-4.2c-.06-1.67,2.26-3.85-1-5.06-.41-.15,0-2.23-.15-3.39a8.61,8.61,0,0,0-1-2.16c-.46.62-1.25,1.21-1.3,1.86-.17,2,0,4-.08,6-.16,4.6-.4,9.19-.56,13.78a4.34,4.34,0,0,0,.48,1.45c.43-.34,1.1-.6,1.25-1,.21-.62-.05-1.39.09-2,.09-.4.57-.71.88-1.06.29.35.83.7.85,1.07a46.89,46.89,0,0,1,0,5A52.18,52.18,0,0,0,167.32,437a80,80,0,0,1,2.16,11.26c.11.71-.51,1.54-.79,2.31-.63-.58-1.49-1-1.85-1.75-1.45-2.92-2.59-5.68-2.39-9.32.25-4.55-1.34-9.21-2.19-13.81-.08-.41-.57-.75-.87-1.12-.3.46-.88.93-.87,1.38.11,2.78.28,5.57.59,8.34s.71,5.22,1.2,7.81a46,46,0,0,0,1.87,8.12c1.17,3,0,5.27-1.61,7.51-1,1.31-2.34,2.38-3.12,3.77-1,1.73-1.75,3.38-.93,5.76,1,3,.49,6.48,1.47,9.49,1.21,3.71,1.72,7.7,4.52,10.94,1.33,1.53.93,4.42,2.1,6.18a7.54,7.54,0,0,1,1.38,3.44,2.79,2.79,0,0,1,.49,1,2.16,2.16,0,0,1,.62.9c.09.24.19.47.28.71.08-.16.16-.33.23-.49a9.72,9.72,0,0,1,1.88,2c2.81,5.83,5.59,11.69,8.21,17.61a.58.58,0,0,1,0,.23,1.76,1.76,0,0,1,.14.27,7.69,7.69,0,0,1,.49,1.68l0,.2a2.67,2.67,0,0,1,.55,1.63c-.13-1.2-.06-.46.05-.1a4,4,0,0,1,.13.56,1.58,1.58,0,0,1,.25.09c1.53.79,1.09,5.27.33,5.41S179.76,525.87,179.83,525.83Zm-90,4.75-.93-2.37a2.29,2.29,0,0,1-.3-1.18c0-.79-.07-1.58-.11-2.38.44.82.9,1.63,1.3,2.47a2.51,2.51,0,0,1,0,.87C89.85,528.85,89.86,529.72,89.87,530.58Zm-.61-13.19c-.65-4.09-1.23-8.19-1.82-12.29a7.32,7.32,0,0,1,0-1.48,4.68,4.68,0,0,1,.2-.8c.29.22.77.4.83.67.89,4.18,1.73,8.38,2.58,12.57.12,2.06.24,3.52.36,5-.4,0-1.11.13-1.14,0A23.71,23.71,0,0,1,89.26,517.39Zm.89-15.28a9.71,9.71,0,0,1,.07-2.34,11.28,11.28,0,0,1,1.62,1.7c.72,1.16,1.29,2.41,1.93,3.63,1.18,4.43,1.58,8.55,3.4,12.62,1.45,3.24.46,7.55.47,11.39,0,.29-.71.58-1.09.88-.22-.33-.63-.66-.64-1C95.5,519.72,92.07,511.07,90.15,502.11Zm5,79.22c.42.15,1.2.34,1.19.45a16.77,16.77,0,0,1-.5,2.42c-.44.16-.69,0-.7-.11C95.16,583.17,95.18,582.25,95.19,581.33Zm.69-44.53c.1-2.07.17-3.54.31-5,0-.21.54-.59.6-.56.33.21.82.52.83.81.09,1.67.06,3.35.07,5Zm4.93,35c-.92.33-1.56,1.43-2.31,2.19-.56.55-1.1,1.11-1.64,1.67a9.93,9.93,0,0,1-.32-2.45,5.21,5.21,0,0,1,.85-1.7m1-8.47c.08-.57.63-1.07,1-1.6.46.5,1.12.93,1.35,1.51m12.13-18.48c1.07,1.74,2.32,3.38,3.28,5.17.32.6,0,1.54,0,2.32a6.82,6.82,0,0,1-2.2-1.13,9.37,9.37,0,0,1-1.06-2.5c-.21-.5-.49-1.44-.68-1.42-2.69.24-2.67-2.49-4.14-3.54-.81-2.82-1.66-5-2.39-7.29a7.83,7.83,0,0,1,0-2.17,8.65,8.65,0,0,1,1.8,1.58C109.2,538.4,111,541.44,112.79,544.42Zm-4.68-20.21a4.46,4.46,0,0,1,.78-.08c.32,1.25.6,2.52.88,3.78-.58.23-1.06.2-1.09.09C108.45,526.74,108.29,525.47,108.11,524.21Zm29.45,24a8.29,8.29,0,0,1,1.21-1.68c.19.65.65,1.35.53,1.95-.5,2.62-1.16,5.22-1.76,7.82-.81,1.18-1.22,2.13-1.85,2.9-.34.43-1.06.56-1.6.83-.1-.61-.43-1.31-.24-1.83C135,554.9,136.27,551.57,137.56,548.26Zm1.28-36.58c.14,0,.45.69.49,1.09M133,537.19c0,.6-.09,3.89-.34,10.47a12.8,12.8,0,0,1-1,4.53c-.73,1.71-2,3.53-2.38,3.36s.6-2.67,1-5.82c.86-7.47,1.05-15,3.49-22.27.49-1.48.86-3,1.38-4.48.16-.45.64-.8,1-1.2C133.28,528.63,132.86,533.73,133,537.19Zm1-27.94-1.36-.89c-.61-2.59-1.24-4.58-1.79-6.6a3.52,3.52,0,0,1,.23-1.35c.48.24,1.22.37,1.4.74a58.37,58.37,0,0,1,2.5,6.29C135.2,507.9,134.42,508.64,134.07,509.25ZM133.8,494c-1.6-1.78-3.16-3.59-4.7-5.42a3.74,3.74,0,0,1-.43-1.13l1.62.18c1.61,2,3,3.71,4.21,5.47a3.53,3.53,0,0,1,.29,1.35C134.46,494.29,134,494.24,133.8,494Zm-6.24,20c-.27-.07-.63-.06-.79-.23a15.4,15.4,0,0,1-1.89-2.16c-1.46-2.24-2.84-4.53-4.25-6.8.49-.71,1.31-1.05,1.4-.92q2.94,4.51,5.71,9.13C127.87,513.22,127.63,513.66,127.56,514Zm-7.5,30.34c-.12-.37.19-.87.3-1.31.34.15.81.2,1,.45,1.7,2.36,4.59,4.27,3.2,7.85a4,4,0,0,1-1.86.46C121.74,549.32,120.87,546.83,120.06,544.33Zm.57,13.8a4.07,4.07,0,0,1-1.07-1.91c.34,0,1,0,1,.09A12.26,12.26,0,0,1,120.63,558.13Zm3.21-1.33a29.74,29.74,0,0,1,1-2.82,3.49,3.49,0,0,1,1.42-1.48c.13.52.46,1.09.35,1.55a14.51,14.51,0,0,1-1.21,3.32c-.25.47-1,.68-1.51,1A5.37,5.37,0,0,1,123.84,556.8Zm-2-46.19c1.51,2.63,3.4,5.17,4.24,8,.65,2.17,0,4.74-.21,7.12,0,.21-.72.59-.79.53a4.57,4.57,0,0,1-1.36-1.49c-.7-1.68-1.24-3.43-1.85-5.15-.6-3.2-1.24-5.81-1.77-8.43-.08-.4.36-.9.56-1.35C121,510.09,121.61,510.25,121.81,510.61Zm.13,27.84c-.1.74,1.11,1.66,1.71,2.5-.6.68-1.56,1-1.75.8a11.54,11.54,0,0,1-1.76-3.11c-1.08-2.91-2-5.88-3-8.83a3.13,3.13,0,0,1-.12-1.42,16.92,16.92,0,0,1,.58-2,13.18,13.18,0,0,1,1.2,1.71C120.44,531.39,122.51,534.48,121.94,538.45Zm-4,20.11c.25.65.25,2-.09,2.15-2.42,1.23-6.72-1.56-6.9-4.36a10.13,10.13,0,0,1,.2-3.67,1.75,1.75,0,0,1,1.43-.14c1.32,1.19,2.55,2.48,3.75,3.79A7.5,7.5,0,0,1,118,558.56Zm-4.54,12.89c-1.52.23-3.05.41-4.57.61m-.09-23.33c2.12,2-.07,3.17-.27,4.72-.41-.25-1.08-.41-1.2-.75-1.84-5.16-3.61-10.34-5.37-15.52-.45-1.3-.82-2.62-1.22-3.93,0-1.09,0-1.59,0-2.07.11-.8.3-1.59.45-2.38.61.65,1.57,1.21,1.77,2a61.31,61.31,0,0,1,1.93,9.23A13.12,13.12,0,0,0,108.77,548.73Zm-5.91.75c.83,2.12,2.46,3.93,3.52,6a19.92,19.92,0,0,1,1.52,4.4c.11.43-.42,1-.66,1.53-.57-.41-1.41-.7-1.65-1.24-.92-2.09-1.59-4.29-2.54-6.37-.13-.29-1.54-.44-1.9-.13-1.65,1.4-2.17.28-2.21-1-.11-4.08,0-8.16,0-12.24,0-.22.37-.43.57-.65C100.8,542.81,101.6,546.24,102.86,549.48Zm24.84,16.87c-.89,4.28-1.75,4.66-1.58,7,.11,1.46.51,2.31,0,3.34a4.5,4.5,0,0,1-2.66,1.85c-3.79,1.35-7.49,2.2-11.68,1.32-2.25-.47-4.84.72-7.29,1s-3.88-.3-3.85-3.33,1.46-3.28,3.74-3.17c1.19.06,1.78-.08,2.71,0a23.71,23.71,0,0,0,12.15-2.24,17.48,17.48,0,0,0,5.67-4.84c2.4-3.2,2.95-6.43,3.33-6.33S128.17,564.09,127.7,566.35Zm-17.17,18.17c0-.28,3.14.25,8.17,0,3.58-.18,4.52-.58,7.83-.83a53.76,53.76,0,0,1,9.84.16,7.78,7.78,0,0,1-3.34,2.5,14.9,14.9,0,0,1-4.15.46c-3.78.14-3.24-.17-4.85,0a11.49,11.49,0,0,1-3.87,0l-.33-.07C113.61,585.42,110.5,584.74,110.53,584.52Zm27,1.17A16.45,16.45,0,0,1,141.2,584c1.7-.29,2.43.35,5.33.83a25.76,25.76,0,0,0,3.84.34c1.87.73,2.75,1,3.18,1.14a1.32,1.32,0,0,1,.38.12c.37.17.71.47,1.07.68-.44.31-.87.85-1.33.88a33.21,33.21,0,0,1-4.59,0c-1.66-.4-4-.49-8.71-.66a50.2,50.2,0,0,0-6.17.17C135,587.07,136.12,586.43,137.53,585.69Zm29.17-37.5c1.66,6.9,2.49,10.36,3.17,11.66s1.3,2.28.83,3c-.57.88-2.29.24-7.09.39a4.45,4.45,0,0,1-1.6-.06,12.23,12.23,0,0,1-5.81-3.25,12.79,12.79,0,0,1-3.5-5.41c-.69-2.23-.06-2.71-.17-8-.07-3.75-.39-3.68-.33-6.83.07-4.21.63-3.94.33-6.17-.37-2.82-.5-6.17-.5-6.17h0s-1.89-8-.5-8.66c.81-.37,1.93,2.1,7.34,8.33a16.79,16.79,0,0,1,3.16,5,36.6,36.6,0,0,1,2.67,7.17C165.81,543.09,165.47,543.05,166.7,548.19Zm3.1-17.6c.7.22,1,2.3.25,2.72a1.48,1.48,0,0,1-1.85-1A1.6,1.6,0,0,1,169.8,530.59Zm-9.6,42.65c-.08-1.11-.22-2.22-.22-3.33,0-.42.4-.82.48-1.26.16-.83.21-1.67.31-2.51.62.41,1.52.68,1.8,1.25a7.78,7.78,0,0,1,.32,2.59c-.14.73-.28.87-.42,1Zm2,5-1.57-.13C161.15,578.17,161.81,578,162.19,578.27ZM158,580.32a.84.84,0,0,1-.36.51c-1.29-.63-2.57-1.3-3.84-2m.16-10.5a3.86,3.86,0,0,1,.33-1.21,9.69,9.69,0,0,1,1.92-2.44c1.24-.91,2-.5,1.81,1.12a34.43,34.43,0,0,1-2.83,2.15A4.31,4.31,0,0,1,154,568.37Zm.36-6a24.74,24.74,0,0,1-1.43,3.81c-.72.71-1.08,1.26-1.59,1.51a4.47,4.47,0,0,1-1.61.09c.13-.4.23-.82.4-1.21.61-1.41,1.22-2.83,1.9-4.22a10.68,10.68,0,0,1,1.05-1.5C153.53,561.31,154.44,561.92,154.36,562.32Zm-2.94,13.59a2,2,0,0,1-1.81,0c.16-.28.32-.57.49-.85Zm-2-42.39c.07-.23.55-.58.69-1.21a2.68,2.68,0,0,0-.21-1.62c.33,1.61.66,3.22,1,4.83a21.52,21.52,0,0,1-.31,2.32,18.72,18.72,0,0,1-1,3.5c-.56,1.62-.51,3.86-3.09,4,.32-1.56.6-3.14,1-4.69C148.06,538.29,148.64,535.88,149.39,533.52Zm-3,1.91c-.14.85-.27,1.7-.41,2.56a2,2,0,0,1-1.81.3c.4-.89.76-1.81,1.24-2.66C145.53,535.44,146.06,535.49,146.4,535.43Zm-2.49,23.11c2.75-.53,1.77-2.56,2.13-4.17.63-2.85,1.52-5.66,2.4-8.46.14-.45.77-.74,1.18-1.11a4.82,4.82,0,0,1,.56,1.65,10,10,0,0,1-.62,3.57c-1,2.1.76,3.57,1,5.39.18,1.62-1.11,4-2.49,3.5-2.14-.79-2.07.92-2.6,1.75a43.21,43.21,0,0,0-1.85,4c-.2.39-.69.62-1,.93l-.78-1.48A22.75,22.75,0,0,1,143,561C143.31,560.16,143.45,558.62,143.91,558.54Zm3.58,12.33c0,.6,0,1.21,0,1.81-.08,1.27-.18,2.55-.27,3.82a25.62,25.62,0,0,0,2,2c1.46,1.31,2,1.48,1.94,1.78-.21.89-5.23,0-7.35-.81a1.34,1.34,0,0,1-.83-.65c-.3-.78.7-1.83,1.13-2.31A19.94,19.94,0,0,0,147.49,570.87Zm-.9-7.4a9.05,9.05,0,0,1,1.51-.89c.08.9.19,1.81.2,2.72a2.33,2.33,0,0,1-1,.22A20.84,20.84,0,0,1,146.59,563.47Zm7.61-73.83c-.41-.17-1.19-.37-1.18-.51a15.84,15.84,0,0,1,.52-2.4A13.06,13.06,0,0,1,154.2,489.64ZM150,480.22c-3.16-4-6.28-8.1-9.4-12.15-.19-2.58-.42-4.56-.53-6.55,0-.27.52-.56.81-.84a6.26,6.26,0,0,1,.41,1c.24,1,.34,2,.67,3a16.11,16.11,0,0,0,4.09,6.64c2.27,2.23,3.67,5.34,5.38,8.11.18.3-.13.9-.21,1.36C150.76,480.58,150.2,480.52,150,480.22Zm.17,6.3c-.7-.35-1.61-.52-2.06-1.07-3.36-4-6.63-8.12-9.93-12.2L136.33,471c.61-.78,1.62-1.3,1.79-1.11,4,4.63,8,9.3,11.92,14.07C150.47,484.52,150.12,485.66,150.13,486.52Zm-16.82-18.66-1.17.5c-.11-.59-.22-1.18-.34-1.77A3.1,3.1,0,0,1,133.31,467.86Zm-16.37-51.77c-.26-4.15-1-8.26-1.52-12.39a11,11,0,0,1-.21-1.09c-.21-5.09-.51-10.17-.55-15.26,0-1.43.78-2.87,1.2-4.31.18,1.36.85,2.87.46,4-1.5,4.49,1.74,8.29,1.6,12.54,1.61,5.3,2.66,10.34,2.1,15.55-.34,3.2-.74,6.39-1.25,9.57-.09.57-.86,1-1.32,1.54-.35-.62-1-1.25-1-1.86C116.54,421.64,117.11,418.85,116.94,416.09Zm2.5-41.16c.75-1.76,1.6-3.48,2.4-5.22,2.83-2.73,1.37-6.11,2.38-8.91.25-.7,0-1.57.07-2.34a1.24,1.24,0,0,1,.83-.79c.22,0,.77.41.8.67.35,3.44,1.4,6.81-1.34,10.08-1.29,1.55-1.4,4.14-1.78,6.31a120.07,120.07,0,0,0-2,13.9c-.19,3.16.72,6.36,1.06,9.55,0,.46-.31,1-.48,1.45-.43-.34-1.24-.67-1.24-1,0-4.35-2.07-8.37-1.46-12.93C119.1,382.18,117.93,378.45,119.44,374.93Zm-7.68-46.56c-.36-2.74-.53-5.51-.78-8.26.44,0,1.18-.2,1.28,0a22.91,22.91,0,0,1,2.28,4.67c.9,3.17,1.64,6.15,5.32,7.56,2.5,1,2,3.5,1.94,5.63,0,.24-.62.47-1,.65-.64.33-1.32.61-2,.92.5.48.91,1.21,1.51,1.42,2.27.79,2.48,2,1.07,3.74-.57.72-.82,1.68-1.43,2.36a6.57,6.57,0,0,1-1.86,1.05,12.26,12.26,0,0,1-.5-1.74c-.24-1.78-.12-3.68-.7-5.34s-1.41-3.87-4.29-3.09c-.35.09-2.57-.21-1.13-2.11.72-.95.67-2.46,1-3.72A31.77,31.77,0,0,0,111.76,328.37ZM129.24,393c-2.26,3.18-4.26,7-2.27,11.33,1.23,2,2.16,3.69,3.07,5.39.31.56.81,1.15.81,1.72a27,27,0,0,1-.43,3.56c-.65-.94-1.36-1.84-1.92-2.83-1.15-2-2.32-4-3.29-6.06a14.18,14.18,0,0,1-1.5-4.7,144.87,144.87,0,0,1-.56-15.44A64.84,64.84,0,0,1,125,375a37.12,37.12,0,0,1,1.78-4.95c.44,1.56.85,3.13,1.34,4.68.9,2.79,2.43,5.52,2.63,8.35C131,386.33,131.61,389.7,129.24,393Zm.45,9.26a2,2,0,0,1-1.21-1l.81-.52C129.42,401.31,129.56,401.8,129.69,402.3Zm-3-47.46a9.41,9.41,0,0,1-.57-2.4,5.35,5.35,0,0,1,.65-1.78,5.9,5.9,0,0,1,1.45,1.06,9.93,9.93,0,0,1,.88,2,20.11,20.11,0,0,1,1.12,4.94c0,.39-1,.85-1.54,1.28a12.05,12.05,0,0,1-.78-1.46C127.45,357.28,127.05,356.06,126.68,354.84ZM130.85,370c-.06.62-.7,1.2-1.08,1.79-.39-.46-1-.87-1.13-1.38a22.59,22.59,0,0,1-.63-6.19c.13-1.11,1.61-2.07,2.49-3.09.23,1.18.47,2.37.7,3.55C130.9,366.64,131,368.33,130.85,370Zm-1.37-20.73a16.14,16.14,0,0,1-1.51-3.42c-.11-.54.75-1.27,1.17-1.91a14.78,14.78,0,0,1,1.91,1.69,4.24,4.24,0,0,1,.45,1.57A6.55,6.55,0,0,1,129.48,349.26Zm1.11-10.07c-1.71-.2-2.82-.41-3.93-.59-.79-.12-1.58-.18-2.38-.27.12-.92,0-2,.44-2.7a2.43,2.43,0,0,1,2.3-.43,40.18,40.18,0,0,1,4.37,3Zm-6,3a13.54,13.54,0,0,1,3-.59c-.27.68-.59,1.34-.81,2-.45,1.39-.79,2.82-1.3,4.2a6.12,6.12,0,0,1-1.11,1.47c-.22-.52-.68-1.07-.63-1.57C123.89,345.84,124.26,344,124.56,342.15ZM120,425.28A9.92,9.92,0,0,1,121,424a10,10,0,0,1,.85,1.43c1.93,5,3.86,10.07,5.7,15.13a2.22,2.22,0,0,1-.25,2,2.93,2.93,0,0,1-2.2.85c-3.28-.64-4.69-2.46-5.07-6a4.35,4.35,0,0,0-.58-1.24C118.52,432,118.35,428.59,120,425.28Zm16.68-5.45c-.19-.31-.09-.8-.12-1.2.51.12,1.35.11,1.49.4a17.21,17.21,0,0,1,1.77,4.87c.21,1.64-.31,3.37-.51,5.06a3.33,3.33,0,0,1-1.67,1.33c-.05-.67-.37-1.5-.1-2C139.31,425.24,138.42,422.53,136.72,419.83Zm.7-7.64c-.74-2.59-3.27-4.75-2-7.82a5.46,5.46,0,0,1,.78-.59q1.28,4.23,2.54,8.48C138.29,412.24,137.46,412.32,137.42,412.19Zm-2.6-17.3a1.74,1.74,0,0,1-.29-1.18c.12-.6.3-1.19.46-1.78.24.31.66.59.7.93a20.79,20.79,0,0,1,.08,2.62Zm-.26,25.25c.62,1.8,1.25,3.61,1.71,5.46.08.31-.59.81-.91,1.22l-.84-1.42c-.4-2-.84-3.38-1.18-4.8-.05-.22.27-.61.52-.79C134,419.73,134.49,420,134.56,420.14Zm6,10.28a6.36,6.36,0,0,1,.84-1.72c.52.34,1.36.58,1.5,1,.91,2.88,1.66,5.81,2.47,8.72a3.63,3.63,0,0,1-.43,1.36C143,436.89,140,434.44,140.58,430.42Zm7.72-19.53c.32.18.79.29.94.56,1,1.75,1.87,3.55,2.79,5.33l-1.21.33a58.86,58.86,0,0,1-3-5.09C147.72,411.78,148.13,411.27,148.3,410.89ZM140,357.26a3.36,3.36,0,0,1-1.62,1.37l.42-2Zm6.11-43.55c-.42-.44-1.2-.89-1.2-1.33a10,10,0,0,1,.67-2.66l1.67,1.33A11.82,11.82,0,0,1,146.06,313.71Zm2.1,4.21.24,2a5.27,5.27,0,0,1-2.05-1.53ZM153,286.37c1,.37,2.41-.38,3.64-.47a4.1,4.1,0,0,1,1.47.46,4,4,0,0,1-1,.72c-1.85.62-3.72,1.18-5.59,1.74-1.33.41-2.67.8-4,1.19a19.66,19.66,0,0,1-3.85,1.16,3.28,3.28,0,0,1-1.22-.33c.21-.41.32-1,.65-1.19C146.15,288,148.67,284.84,153,286.37Zm-8.14-3.52a24.27,24.27,0,0,1-3.05-2.05c.64-.81,1.24-1.64,1.91-2.42.45-.53,1-1,1.48-1.48,1-1.08,1.71-1.81,2.75.15a3.62,3.62,0,0,0,3,1.59c3.05-.79,2.23,1.75,2.87,2.94.07.14-.95.84-1.47,1.29-1.52-3.44-3,.25-4.49,0h-.3C146.19,282.9,145.37,283.13,144.81,282.85ZM167,275.57c.3-.34.4-.86.72-1.17.61-.57,1.31-1,2-1.57.06,1,.56,2.37.09,2.83-1.81,1.78-3.73,3.71-6,4.74s-4.81.92-7.25,1.32a3.77,3.77,0,0,1,3.72-5.34,1.49,1.49,0,0,1,.57.07C163.94,278.42,164.59,278.34,167,275.57Zm-2.78-.53.77-1.62a2,2,0,0,1,.21,1.52C165.2,275,164.58,275,164.24,275Zm5.81,5.15c.06.45.16,1.14-.08,1.32a27,27,0,0,1-2.85,1.69,11,11,0,0,1,2.22-3.24C169.41,279.88,170,280.08,170.05,280.19Zm-6.79,28.71c-.82-.36-2-.53-2.37-1.15s0-1.68.1-2.54l1.9,1.1C163,307.57,163.14,308.24,163.26,308.9Zm-4.79.77v2.16l-1-.78A2.7,2.7,0,0,1,158.47,309.67Zm-2.82,2c.2,1.86.42,3.13.58,4.41,0,.16-.24.36-.37.54-.47-.77-1.39-1.59-1.31-2.31S153.21,311.61,155.65,311.64Zm.51,11.55c.64-1.34,1.19-2.73,1.93-4s1.52-2.14,2.23-3.25a5.07,5.07,0,0,0,.73-1.77,21.84,21.84,0,0,0,.21-2.69c1.5.41,4.22.64,4.31,1.26.5,3.27,3.89,4,5.22,6.46,2.24,4.15,4.67,8.2,7.24,12.16,1.35,2.07,3.29,3.77,4.75,5.79,1.74,2.4,3.33,4.91,4.83,7.46a20,20,0,0,1,1.79,4.3c.13.42-.4,1-.63,1.56a6.21,6.21,0,0,1-1.29-1.08c-2.94-4.42-5.83-8.88-8.78-13.31-.62-.93-1.19-2.17-2.11-2.59-5.77-2.65-6.63-8.35-8.93-13.2a17.55,17.55,0,0,0-3.35-4.2c-.36-.39-1.19-.34-1.81-.49-.07.56-.36,1.2-.18,1.67,2.26,5.86,4.54,11.67,8.63,16.67,1.26,1.54,1.54,3.89,2.19,5.89.57,1.75,1,3.54,1.52,5.31a4.73,4.73,0,0,0,1.51-2.25c.15-.43.24-.87.36-1.31.54.15,1.28.13,1.59.48,4.95,5.57,9.61,11.35,11.71,18.62a32.67,32.67,0,0,1,.8,6.19c0,.44-.36.92-.55,1.38-.41-.37-1.08-.67-1.19-1.11-.68-2.89-1.24-5.82-1.86-8.73a10.56,10.56,0,0,0-.53-1.42c-.42.45-1.23.91-1.21,1.34.1,1.88.43,3.75.71,5.62,0,.25.46.51.41.7-.65,2.57.73,4.37,2.28,6.16.33.38.3,1.07.43,1.61-.63,0-1.54.16-1.83-.17-1.45-1.66-2.35-3.7-4.38-5-.7-.45-.5-2.28-.7-3.48-1.13-6.93-3.75-13.07-9.85-17.22a3.92,3.92,0,0,0-3.22,0c-1.43.66-2.09.48-2.64-.94-1.16-3-2.39-5.94-3.61-8.9-1.75-4.27-3.41-8.53-7.94-11-2.25-1.22-3.14-3.57-2.9-6.16,0-.37.38-.71.59-1.06.4.26.94.43,1.17.79C154.65,320.52,155.39,321.87,156.16,323.19Zm16.56-49.77-1.38-2.07a19.48,19.48,0,0,1,1-3.15,11.81,11.81,0,0,1,.75,2.58A12.12,12.12,0,0,1,172.72,273.42Zm.71,3.56q0,1.18,0,2.37a3.35,3.35,0,0,1-.58-2.37Zm1.54-15.1,1.33-.9c0,.69-.08,1.38-.13,2.07C173.9,264.29,175.41,262.44,175,261.88Zm2.43,24.91c-.3.66-.52,1.35-.77,2a3.67,3.67,0,0,1-.43-1.18c0-1.16-.37-2.68,1.78-2.08A3.62,3.62,0,0,1,177.4,286.79ZM178,302a18.84,18.84,0,0,1-.27,2.23c-.7-.34-.93-.71-.88-1a16.35,16.35,0,0,1,.56-1.93C177.57,301.51,178,301.76,178,302Zm29.6,86.55c1.14,3.41-1.54,6.06-2,9.17-.2,1.51-.25,3-.45,4.55a9.79,9.79,0,0,1-.64,2.69c-.23.5-.92.8-1.4,1.19a5.74,5.74,0,0,1-.34-1.59c.26-3.22.58-6.45.88-9.67.91-2.32,1.48-4.34,2.14-6.35a6.25,6.25,0,0,1,.88-1.35A6.49,6.49,0,0,1,207.55,388.55Zm-.37-22.27a18.64,18.64,0,0,1,.34-3.39l.95.6a2.28,2.28,0,0,1,.3,1.17c0,.8.07,1.59.1,2.38C208.28,366.79,207.2,366.57,207.18,366.28Zm-5.64,52.34c.43-.62.9-1.21,1.36-1.81.15.69.29,1.39.44,2.08a31.1,31.1,0,0,1-.86,4.33c0,.12-.88,0-1.35,0,.13-1.35.27-2.7.4-4.05C201.54,419,201.45,418.75,201.54,418.62Zm0,24c.63-1.7,1.38-3.36,2.08-5a14.2,14.2,0,0,0,.93-2.69c.4.13,1.12.23,1.14.4a10.76,10.76,0,0,1-2.76,8.27c-.25.28-.81.3-1.22.44C201.66,443.51,201.42,443,201.56,442.59Zm3.89-29.92c-2.06-2.76.76-4.48.79-6.66,0-.16.63-.3,1-.45.12.32.42.7.34,1C206.88,408.58,206.16,410.62,205.45,412.67Zm-2.23-36.32c-.57-.44-1.53-.81-1.63-1.33-1.11-5.56-2.09-11.15-3-16.73-.07-.4.38-.88.58-1.32a4.72,4.72,0,0,1,.91,1.23c.55,1.85,1,3.72,1.49,5.58.63,3.38,1.24,6.17,1.88,9a7.08,7.08,0,0,1,.49,1.84A6,6,0,0,1,203.22,376.35Zm-3.73,16.11c.75,3.34-.84,7.19-1.37,10.81l-.21,1.4a8.56,8.56,0,0,0,1.81,1.58,4.58,4.58,0,0,1-.81.46,16.2,16.2,0,0,1-1-1.45c-3-2.45-3-6-4.18-9.06-.1-.26.45-.76.7-1.15a7.31,7.31,0,0,1,1,1c.61.9,1.14,1.85,1.71,2.77.05-1.2.45-2.51.11-3.6-2.21-7.12-3.66-14.33-3-21.8.13-1.36,1-2.66,1.51-4,.48,1.38,1.4,2.77,1.38,4.14A78.1,78.1,0,0,0,199.49,392.46Zm1.36,40.8c-.67,3.13-1.54,6.22-2.34,9.33a13,13,0,0,1-1.53,3.78c-.29.42-1.16.45-1.78.66.08-.47.11-.95.23-1.41,1-4.19,2-8.38,3.11-12.55.15-.54.75-1,1.14-1.44C200.1,432.18,201,432.82,200.85,433.26ZM196,341.54c-.79-2.47-1.53-5-2.2-7.46,0-.19.53-.76.8-.75a1.26,1.26,0,0,1,.82.78c.67,2.18,1.27,4.37,1.89,6.56A2,2,0,0,1,196,341.54Zm-1.16,5.57c.72,3.08,1.34,6.18,1.82,9.3a7.94,7.94,0,0,1-.6,2.68,19.64,19.64,0,0,1-1.89-2,13.72,13.72,0,0,1-1.08-2.21c-.2-3-.46-5.41-.56-7.82,0-.44.55-.91.85-1.36C193.88,346.17,194.71,346.56,194.83,347.11Zm-2.08,62.54a7.47,7.47,0,0,0,1.66.23l-.73-2.84c0-1.41,0-2.21.06-3a9.13,9.13,0,0,1,1.72,1.47c.79,1.13,1.14,2.68,2.14,3.5,2.85,2.37,1.38,4.47-.36,6.27-1.05,1.08-1.72,3.68-3.78,2.62a4.59,4.59,0,0,1-2.22-4.9,8.36,8.36,0,0,0-.16-2l-.21-2.39A16.51,16.51,0,0,0,192.75,409.65Zm-13.54,34.44c-.4.28-.61.81-1,1.18a14.49,14.49,0,0,1-1.23,1.11c-.07-.68-.46-1.57-.16-2,2.11-3.09,4.4-6.05,6.53-9.12.78-1.11,1.32-2.19,2.44-.36C184.81,439.23,182.34,441.89,179.21,444.09Zm3.56,2.94-1.16-.5,1.2-1.57A4.53,4.53,0,0,1,182.77,447Zm-4.38,40.29c.27.28.72.53.77.84a17.26,17.26,0,0,1,.07,2.39L178,490C178.12,488.71,178.26,488,178.39,487.32ZM178,481.1a.78.78,0,0,1,1.14.33c.1.28-.43.76-.69,1.15Zm-3-46c.1,1.26.72,2.47.95,3.73a2.71,2.71,0,0,1-.26,1.78,8.9,8.9,0,0,1-1.67,1.69c-.61.57-1.25,1.1-1.88,1.65-.18-.94-.4-1.88-.53-2.82a38,38,0,0,0-.64-5.38c-.69-2.45-2.37-4.76-2.52-7.2a124.39,124.39,0,0,1,0-18.11c.2-2.48,2.57-4.77,1.06-7.59l1.49-.28c1.11,3.32,1.69,6.42,2.78,9.34a67.23,67.23,0,0,0,4.14,8.65c1,1.81,1.67,3.52.6,5.45-.2.38-.72.58-1.1.86-.23-.33-.63-.65-.65-1-.08-1.37,0-2.76-.06-4.13a4.53,4.53,0,0,0-.53-1.4c-.39.27-.95.45-1.13.82a5.35,5.35,0,0,0-.69,2.36C174.52,427.41,174.7,431.27,175,435.12Zm0,12.1c-.38,1.4-.76,2.81-1.18,4.2a3,3,0,0,1-.78-.13c0-1.32.09-2.64.16-4a4.92,4.92,0,0,1,1.81-.4A.93.93,0,0,1,175,447.22Zm-4.28,6.13a42.8,42.8,0,0,1-.6,6.49c-.13.72-1,1.33-1.47,2a9.36,9.36,0,0,1-.86-2c-.42-2.23-1.51-4.56.58-6.59a6.23,6.23,0,0,1,1.41-2.07C170.07,451.9,170.7,452.63,170.68,453.35Zm6.1-19.06a5.86,5.86,0,0,1,1-2,26.12,26.12,0,0,1,.72,3.45c0,.36-.68.78-1.05,1.17a10.85,10.85,0,0,1-.68-1.52A4,4,0,0,1,176.78,434.29Zm3.24-2.75c0-1.74,0-3.48,0-5.21,1.12,1.57,2.26,3.13,3.34,4.72.14.2,0,.58,0,.87l-2.2,2.08c-.34-.75-.66-1.5-1-2.25C180.18,431.67,180,431.61,180,431.54Zm5.42-5.9c-.19.12-1-.28-1.15-.61-1.54-3.59-3.11-7.18-4.41-10.85-.25-.71.61-1.79,1-2.7.46.71.93,1.4,1.37,2.12s1,1.75,1.51,2.62c3,2.35,1.71,5.58,2.66,8.16C186.49,424.67,185.87,425.38,185.44,425.64Zm-3.79-31.48c0-.35.51-.77.89-1,.11-.06.79.41.84.71.66,3.66,1.32,7.32,1.79,11,.09.77-.62,1.63-1,2.45-.46-.69-1.22-1.34-1.34-2.09-.36-2.14-.46-4.33-.66-6.5A19.1,19.1,0,0,1,181.65,394.16Zm4.9,13.83c.52-.62.29-1.8.51-2.71a7.92,7.92,0,0,1,.72-1.5c.36.51,1,1,1,1.53.13,1.75,0,3.52,0,5.28-.15,1.68-.3,2.77-.45,3.85a18.94,18.94,0,0,0-1.84-2.5C185.18,410.57,185.35,409.43,186.55,408Zm-1.43-21.71c.64-2.82,0-5.9.16-8.85a8.79,8.79,0,0,1,1.07-2.69,11.8,11.8,0,0,1,1.26,2.51c1.16,5.27,2.23,10.55,3.32,15.83.24,1.19.42,2.39.64,3.59a31.55,31.55,0,0,1,.28,5.62,6.51,6.51,0,0,1-.45,1.49c-.47-.32-1.15-.53-1.38-1C187.33,397.62,183.66,392.8,185.12,386.28Zm6.15-8.55c.11-.8.25-1.6.38-2.39a5.26,5.26,0,0,1,.74.24c-.24,1.11-.54,2.21-.82,3.31A1.83,1.83,0,0,1,191.27,377.73Zm.1-45.06a9.56,9.56,0,0,1-1.29-1.59c-1.34-2.59-2.71-5.18-3.83-7.86a10.86,10.86,0,0,1-.3-3.41l2.3,1.9c2.37,2.88,4.23,5.45,4.17,8.88C192.41,331.29,191.74,332,191.37,332.67Zm-15.5,5.93a2.15,2.15,0,0,1-.5-1.09c0-.83.06-1.65.09-2.47.64.55,1.61,1,1.84,1.66C177.6,337.6,177.74,339,175.87,338.6ZM178.32,364c-2.19-4.61-4.28-9.26-6.34-13.93-.16-.36.12-.9.2-1.36.49.23,1.16.34,1.42.72.93,1.37,1.73,2.82,2.57,4.25,1.61,3.3,3,6.29,4.19,9.32.18.44-.16,1.09-.26,1.64C179.49,364.46,178.51,364.43,178.32,364Zm.72,6.41c-.35-.12-.92-.15-1-.38-.42-1-1.69-2.25.57-2.72A12.85,12.85,0,0,1,179,370.44Zm-5.28-3.1a20.64,20.64,0,0,1-1.1,3.26,7.39,7.39,0,0,1-1.33-2.15c-.51-2.56-.85-5.15-1.16-7.74,0-.36.44-.78.67-1.18.35.22.83.35,1,.66a7.73,7.73,0,0,1,1.24,2.42C173.46,364.15,173.56,365.76,173.76,367.34Zm-6.1-3.16c.13.68-.55,1.51-.86,2.27-.5-.47-1-.92-1.49-1.42-1.77-1.94-3.81-3.72-5.2-5.89a22.88,22.88,0,0,1-3.16-7.26,90.67,90.67,0,0,1-1.28-10.83,7,7,0,0,1,.37-1.86c.67.3,1.63.42,2,.93,2.51,3.75,4.46,7.7,3.66,12.4C166.8,355.17,166.86,359.9,167.66,364.18Zm-3.61,4.33c.89-1.79,1.7-1.5,2.77-.28.9,2.31,1.92,4.32,1.94,6.35,0,1-1.77,2.08-2.74,3.13-.67-.72-1.38-1.4-2-2.16C162.13,373.21,162.86,370.92,164.05,368.51Zm-12.08-56c0,.34-.77.61-1.18.91a21.15,21.15,0,0,1-.51-3.58c0-.62.66-1.23,1-1.85l.42.42A13.12,13.12,0,0,1,152,312.48Zm28.73,166a22.51,22.51,0,0,1,1-5.36c.07-.27.68-.49,1.06-.53.21,0,.71.52.67.59C182.41,474.87,183.5,477.61,180.7,478.44Zm5.2-24.67a41.24,41.24,0,0,1-3,3.5,8.09,8.09,0,0,1-1.6,1c-.1-.65-.47-1.4-.25-1.91a14.66,14.66,0,0,1,1.75-2.53c1.61-2.6,3.36-4.51,4.76-6.64.47-.72.06-2,.08-3a38.63,38.63,0,0,1,.27-5.91c.1-.56,1.52-.9,2.34-1.34a9.88,9.88,0,0,1,1,2.19C192.22,445,189.16,449.42,185.9,453.77Zm7.76-.51c-.65,1.28-1.35,2.55-2.09,3.8,0,.08-.51-.08-.77-.12l1.37-4a2.26,2.26,0,0,1,1.31-.45C193.58,452.52,193.75,453.07,193.66,453.26Zm.51-16.36c-.33.06-1.06-.35-1-.5.44-4.55-1.4-9.37,1.24-13.6,1.11-1.78,3.13-3,4.74-4.51-.8,2.72-1.85,4.8-2.36,7-.81,3.53-1.24,7.15-1.89,10.73C194.8,436.35,194.45,436.86,194.17,436.9Zm2.14,24.31c-.25.19-.89-.11-1.35-.19l1.74-2.43a3.24,3.24,0,0,1,1.81.43A22.73,22.73,0,0,1,196.31,461.21Zm10.63-16.3c-.75,1.12-1.43,3-2.4,3.14-1.87.34-2,1.21-2.51,2.69a17.94,17.94,0,0,1-2.83,4.72c-.24.35-1,.32-1.57.46-.08-.53-.36-1.13-.19-1.57.69-1.78,1.54-3.5,2.27-5.27s1.21-3.84,4-2.74c.15.06.55-.51.84-.79.92-.67,1.55-1,2.18-1.42C206.8,444.4,207,444.76,206.94,444.91Zm2.41-6.31a7.34,7.34,0,0,1-1.19,2.17c-.14.2-.66.22-1,.2-.08,0-.21-.5-.19-.76.39-3.88.7-7.78,1.26-11.64.12-.82,1-1.65,1.8-2.24a9.22,9.22,0,0,1,2.35-.93C211.59,430,210.51,434.31,209.35,438.6Zm.63-17.34a4.87,4.87,0,0,1,.75,2.22c-.25-.08-.71-.13-.72-.23C210,422.59,210,421.92,210,421.26Zm2.48-15.66a14.48,14.48,0,0,1,1.29-2.42l.46.89a15.61,15.61,0,0,1-.74,2.67C213.11,406.35,212.38,405.85,212.46,405.6Zm2.95,13.88a11.78,11.78,0,0,1-1.12,2.67c-.43-.74-1.22-1.47-1.22-2.2a33.51,33.51,0,0,1,.58-5.64c.07-.41.8-.7,1.22-1.05.38.48,1.1,1,1.09,1.45C215.92,416.31,215.61,417.89,215.41,419.48Zm1.85-22.85c0-.58.55-1.14.84-1.71.31.54.89,1.08.89,1.63.08,4.87.13,9.74-.05,14.6,0,.73-1.31,1.41-2,2.11C216.82,407.52,217,402.07,217.26,396.63Zm-1.72-23.17a13.37,13.37,0,0,1,.44,3.63c0,.4-.46.81-.71,1.21-.15-.5-.31-1-.46-1.48a14.82,14.82,0,0,1-.61-3.11c-.07-.65-.16-1.29-.24-1.93C214.51,372.34,215.33,372.81,215.54,373.46Zm-.87,13.19a1.19,1.19,0,0,1,.71.86c.09,1,0,2,0,2.94,0,2.84,0,5.09,0,7.34A4.63,4.63,0,0,1,215,399c-.47-.3-1.34-.59-1.35-.9-.09-3.65-.07-7.31,0-11C213.65,387,214.34,386.6,214.67,386.65Zm-9-45.09c.45.43,1.12.77,1.31,1.29,1.47,4,3,8,4.21,12.16,1.05,3.64,1.67,7.4,2.44,11.12a4.24,4.24,0,0,1-.17,1.39c-.34-.38-.84-.7-1-1.15-1.45-4.23-2.88-8.48-4.24-12.74-1.06-3.32-2-6.66-3-10A12.11,12.11,0,0,1,205.62,341.56ZM181.3,302.45a21,21,0,0,1,4,3.32,111,111,0,0,1,8.18,8.79c1.1,1.43.91,3.74,1.64,5.52,1.19,3,2.72,5.8,4,8.74a42.51,42.51,0,0,1,3.82,16.57c.07,4.67,1.71,9.31,2.53,14a9,9,0,0,1-.48,2.82,8.6,8.6,0,0,1-1.64-2c-2.35-6.2-2.91-12.72-3.75-19.24a36.93,36.93,0,0,0-3.85-11.7c-2-3.88-5.05-7.2-7.3-11-2.63-4.42-4.91-9-7.25-13.62C180.89,304.06,181.25,303.19,181.3,302.45ZM179.66,309c.54.39,1.35.66,1.58,1.18,1.25,2.92,2.76,5.82,2.15,9.16a5.29,5.29,0,0,1-.8,1.44c-.33-.41-.81-.77-1-1.24-.85-2.61-1.63-5.24-2.44-7.87A25.34,25.34,0,0,1,179.66,309Zm-.45,11.59A53.12,53.12,0,0,1,183,324.9a7.16,7.16,0,0,1,1,2.83c.08.41-.33.92-.51,1.39l-1.56-1.19c-1.44-2.39-2.61-4.48-3.68-6.61-.21-.43,0-1.06,0-1.59A9.22,9.22,0,0,1,179.21,320.56Zm2.43-59.22c-.9,4-1.6,8-2.49,12-.15.68-.85,1.25-1.3,1.87-.15-.5-.31-1-.47-1.48.4-3.58.69-6.59,1.25-9.54.34-1.78,1.15-3.46,1.67-5.21a4.29,4.29,0,0,0,0-1.38,4.28,4.28,0,0,1-1.07.68,8.67,8.67,0,0,1-1.7.16c.43-3.64-1.65-7.44.68-10.93a4.57,4.57,0,0,1,1.84-1.29c.19-.09,1,.54.94.6-1.31,2.88,2.24,6.05-.53,8.85a1.1,1.1,0,0,0,.19,1C183.61,257.72,182,259.58,181.64,261.34Zm.21-31.73c.19.07.32.44.35.69a21.88,21.88,0,0,0,.36,4c1.09,3.79,2.37,7.52,3.57,11.27.31.4.33.5.3.59-.25,1-.51,2-.77,3-.55-1.14-1.45-2.24-1.56-3.41-.23-2.43-1.36-4.35-2.28-6.5-1.18-2.76-.59-6.24-.72-9.41A1,1,0,0,1,181.85,229.61Zm5.14-54c.13,1.59,0,3.2,0,4.81v3.82a23.4,23.4,0,0,1-1.24,4.22,6.36,6.36,0,0,1-1.17,1.41c-.2-.54-.62-1.1-.57-1.63.34-4.26.75-8.51,1.19-12.76,0-.35.41-.67.62-1C186.26,174.85,187,175.2,187,175.61ZM192.17,68.4a12.3,12.3,0,0,1,.26,3.77c0,.34-.58.63-.9.94a11.9,11.9,0,0,1-.78-3.12C190.75,69.46,191.67,68.93,192.17,68.4ZM170.36,155c1.23-3.06,2.68-6,3.74-9.14.41-1.2-.15-2.68,0-4a27.84,27.84,0,0,1,1.15-7c1.57-4.09,3.61-8,5.46-12a101.7,101.7,0,0,0,3.88-9.79c.81-2.56,2.45-5.19,0-7.89a3.28,3.28,0,0,1-.28-2.91C185.35,99.81,187,97.5,188,95c.79-2,.92-4.16,1.53-6.19a7.25,7.25,0,0,1,1.48-2,7.08,7.08,0,0,1,.86,2A12.27,12.27,0,0,1,189,98.25c-.51.61-.43,1.71-.63,2.58a14.18,14.18,0,0,1,1.89-.9,4.44,4.44,0,0,1,1.41,0c-.14.39-.28.77-.41,1.16q-4.94,14.72-9.85,29.44c-.23.71-.18,1.51-.45,2.19a4.11,4.11,0,0,1-1.09,1.4c-2.94-1.71-1.86,1.38-2.41,2.13-.77,1.06-.89,2.57-1.3,3.89l-.33,1.12c.31-.23.62-.46.94-.68.51-.35,1-.68,1.54-1a9.79,9.79,0,0,1-.12,1.8c-.44,1.79-1.28,3.55-1.35,5.35-.16,4-3.47,6.1-5.07,9.21-.19.37-.93.48-1.42.71A4.46,4.46,0,0,1,170.36,155Zm-.91-54.31a18.85,18.85,0,0,1-.39,3.24c-.44-.31-1.16-.54-1.28-.93a8.61,8.61,0,0,1-.06-2.33C168.33,100.31,169.44,100.5,169.45,100.72ZM167.7,227.44c-.17.1-1.12-.54-1.14-.87-.27-5.24-.5-10.48-.62-15.73-.05-2-.12-3.39-2.74-4-1.7-.37-3.62-1.47-2.86-4.46.81-3.22.49-6.71.78-10.07a3.86,3.86,0,0,1,1-1.94,4.5,4.5,0,0,1,1.46-.77c0,.55,0,1.09,0,1.64,0,1.07-.42,2.33,0,3.18.62,1.2,1.74,2.69,2.87,2.91.83.17,2.6-1.34,3-2.43,2.4-6.82,4.49-13.75,6.76-20.63a33.92,33.92,0,0,1,1.92-4c-.25,1.32-.54,2.63-.73,4-.43,3-.72,6-1.24,9-.73,4.11-1.7,8.19-2.43,12.31-.87,5-1.64,10-2.36,15-.32,2.27-.42,4.57-.62,6.86C172.34,221.94,171.25,225.39,167.7,227.44Zm-6-88.49c0-.41.45-.81.7-1.22.36.41,1,.8,1,1.23.12,1.66.05,3.33.05,5a6.23,6.23,0,0,1-1.75.65C161.73,142.72,161.66,140.83,161.72,139Zm0-4.48a21,21,0,0,1-1.16-4.35c-.05-.39.41-.85.63-1.28.43.35,1.19.66,1.25,1.06.22,1.57.23,3.16.31,4.75Zm7.16,30.89a89.5,89.5,0,0,1-1.89,9.52c-.11.51-.74.91-1.13,1.36-.17-.47-.54-1-.48-1.43.34-2.79.77-5.56,1.17-8.34a7.16,7.16,0,0,1,0-1.18c.36-1.29.73-2.57,1.1-3.86C169.91,162.15,169,164.09,168.84,165.36ZM166,89.77c.06-.44.64-.82,1-1.22.25.39.72.77.74,1.18a48.66,48.66,0,0,1,0,5,4.94,4.94,0,0,1-.67,1.54,9.63,9.63,0,0,1-1.08-1.5,2.8,2.8,0,0,1,0-1.16A30.39,30.39,0,0,1,166,89.77Zm-.2,36.26.15,1.33a1.54,1.54,0,0,1-1.16-.64Zm-.51-82.46c-.3,2.58-.71,5.14-1.19,7.7-.07.37-.69.64-1.05.95-.24-.39-.68-.78-.68-1.17,0-1.13.16-2.26.26-3.39a38.24,38.24,0,0,0,.93-4.14,4.3,4.3,0,0,1,.73-1.19C164.6,42.75,165.3,43.2,165.25,43.57Zm-2.54-6a7.71,7.71,0,0,1-.37-2.38,24.18,24.18,0,0,1,1-3.54l.72,3.26A10.85,10.85,0,0,1,162.71,37.59Zm-1-17.48c.82-.69,1.33-1.08,1.84-1.48.19.55.7,1.25.52,1.63-.71,1.48-1.64,2.87-2.49,4.3Zm.57,47.7a11,11,0,0,1,1.21,2.55,79,79,0,0,1,1.19,8.36,15.9,15.9,0,0,1-.59,4.46,6.89,6.89,0,0,1-1,1.81c-.26-.69-.52-1.38-.77-2.07-.4-4.56-.89-8.52-1.14-12.5C161.09,69.58,161.86,68.68,162.25,67.81Zm-.7,24.29c.45.62,1.19,1.2,1.29,1.86.51,3.36.92,6.74,1.21,10.12.06.71-.57,1.48-.88,2.22-.5-.78-1.33-1.52-1.42-2.35-.36-3-.47-6.12-.67-9.18A23.78,23.78,0,0,1,161.55,92.1ZM159,54.17c-.21-.21-.44-.41-.63-.63s-.84-.76-.82-1.12c.13-3.07.36-6.13.56-9.2a9.73,9.73,0,0,1,.43-2.19c.52-1.35,1.09-2.69,1.63-4a32.88,32.88,0,0,1,.32,4.84c-.28,3.78-.76,7.54-1.18,11.31A5.67,5.67,0,0,1,159,54.17Zm.18,55.12a13.16,13.16,0,0,1,1.89,3.09,25.65,25.65,0,0,1,.63,5.05c0,.43-.37.89-.57,1.34-.4-.37-1-.67-1.17-1.12-.5-1.48-.84-3-1.24-4.51C158.82,111.46,159,110.37,159.13,109.29Zm-1.64,31.24a5.11,5.11,0,0,1,.61-1.62,7.83,7.83,0,0,1,.55,1.7c.84,9.95,1.75,19.87,4.08,29.66.78,3.31-.35,7-.62,10.59-.13,1.72-.23,3.44-.46,5.15a4.59,4.59,0,0,1-.81,1.43c-.21-.36-.57-.71-.61-1.1-.19-1.66-.35-3.34-.39-5-.05-2.26.16-4.53,0-6.78-.29-4.08-.77-8.15-1.17-12.23-.41-3.58-1-6.57-1.16-9.57C157.31,148.69,157.44,144.6,157.49,140.53Zm-8.6-77a73,73,0,0,1-.52,8.08c0,.14-.45.23-.69.35a4.93,4.93,0,0,1-.47-1.18c-.23-1.87-.42-3.76-.62-5.64,0-1.48-.06-2.37-.09-3.25C147.33,62.43,148.87,63,148.89,63.53Zm-2.13,15.54A6.87,6.87,0,0,1,148,80.79q1.78,5.76,3.39,11.59c.12.43-.26,1-.41,1.5-.45-.41-1.15-.74-1.33-1.25C148.37,89,147.2,85.37,146,81.74A14.32,14.32,0,0,1,146.76,79.07Zm-1.34,75.86a5.47,5.47,0,0,1,.42-1.79c.45.51,1.27,1,1.3,1.56.21,3.82.26,7.65.36,11.47A65.87,65.87,0,0,1,145.42,154.93ZM143,196.77c.13-.6,1-1.05,1.57-1.56.26.68.9,1.48.72,2-1,2.92-2.15,5.77-3.25,8.64A37.9,37.9,0,0,1,143,196.77Zm.09,15,.45,1.48a34.93,34.93,0,0,1-1.26,5.64c-.24.7-1.1,1.18-1.68,1.76-.33-.78-1-1.63-.91-2.35a20.48,20.48,0,0,1,1.5-4.93C141.52,212.72,142.46,212.32,143.12,211.8ZM140,228.68c-2,1.48-3.72,1.24-4.55-.43-1.12-2.25.79-3.74,2.32-5,1.32-1.1,2.63-.39,3.49.79C142.63,226,141.25,227.36,140,228.68Zm-7.79-29.89c.12,0,.52.31.52.48,0,1.71,0,3.41,0,5.12-.14.73-.28,1-.43,1a3.42,3.42,0,0,1-1-.08c0-2-.08-4,0-5.94C131.25,199.15,131.81,198.9,132.16,198.79Zm-.06-8.62c-.07,1.45-.14,2.31-.21,3.17-.33-.38-1-1-.93-1.12C131.36,191.55,129.56,189.61,132.1,190.17Zm-9.21-101c.26.21.67.37.73.62a21.8,21.8,0,0,1,.62,3.3,54.27,54.27,0,0,1,.56,8.32c-.46,6.74,2,13,3.08,19.46.2,4.06.48,7.52.54,11,0,.78-.71,1.56-1.09,2.34-.42-.74-1.14-1.46-1.22-2.24-.68-6.84-1.18-13.7-1.9-20.53-.21-2.1-1.23-4.13-1.35-6.21-.3-5.14-.3-10.29-.4-15.43C122.46,89.56,122.74,89.35,122.89,89.14ZM126.07,138a13.4,13.4,0,0,1-.66,2.95c0,.12-1.1,0-1.1,0,0-1.63,0-3.26.19-4.88,0-.27.74-.48,1.13-.71a3.16,3.16,0,0,1,.42.92A14.55,14.55,0,0,1,126.07,138Zm-9.36-75a7.64,7.64,0,0,1,.49,2.26c.07.79.15,1.58.22,2.37-.68-.4-1.72-.66-2-1.25a12.9,12.9,0,0,1-.59-3.34ZM105.45,171.89c-.64-.69-1.25-1.4-1.92-2.06-5.12-5-6.44-11.57-7.65-18.18C95.08,148,94.2,145,93.49,142c-1-4.16-1.8-8.34-2.7-12.51-.06-.26-.37-.54-.32-.74.44-1.54-1.19-4.3,1.22-4.44s1,2.52,1.1,3.85c.26,3.68.28,7.2,2.82,10.45,1.11,1.42,0,4.42,1,6,2.55,4,.9,8.59,2.3,12.69a15.28,15.28,0,0,0,.87,1.71,8.21,8.21,0,0,0,.9-1.93c.3-1.68.4-3.38.66-5.07a4.53,4.53,0,0,1,.67-1.26c.37.49,1.09,1,1.06,1.49a58.12,58.12,0,0,1-.85,7.92c-.53,2.57-.28,4.57,2.2,6a3.4,3.4,0,0,1,1.63,2.12A12.47,12.47,0,0,1,105.45,171.89ZM114,197.74c-1.08-3.42-2.19-6.84-3-10.33-.26-1.18.29-2.59.64-3.84.56-2,1.61-3.95-1.4-5-.37-.13-.49-1.29-.5-2,0-4.64,0-9.28,0-13.92a8.44,8.44,0,0,0-.44-1.8,9.24,9.24,0,0,0-1.32,1.57,10.07,10.07,0,0,0-.59,2,9.56,9.56,0,0,1-.62-2.49c.16-6.06-1.45-11.91-2.72-17.72-.31-1.4-2.62-2.75-2.14-5,.31-1.46.64-2.92.85-4.39a8.76,8.76,0,0,0-.17-2,16.26,16.26,0,0,0-1.69.94,7.33,7.33,0,0,0-1,1.06,10.65,10.65,0,0,0,.1-1.37c-.2-3.44-.34-6.89-.68-10.32-.07-.64-.94-1.22-1.44-1.82a9.06,9.06,0,0,0-.75,2c-.28,2.28-.36,4.58-.68,6.85-.09.6-.81,1.1-1.23,1.64a5.63,5.63,0,0,1-.51-1.72c.15-3.87.64-7.74.52-11.6-.2-6.76-.75-13.5-1.15-20.25a5.16,5.16,0,0,0,0-.88c-.16-.77-.37-1.52-.56-2.28-.6.68-1.67,1.32-1.72,2-.22,2.78,0,5.58-.15,8.37a45.69,45.69,0,0,1-.58,4.79c-.39,2.7-.78,5.41-1.23,8.1-.06.35-.43.66-.65,1-.18-.28-.5-.56-.51-.84,0-2.4,0-4.8,0-7.21,0-2.2-.15-4.42,0-6.61A74.71,74.71,0,0,1,89.88,96C91,90.75,92.1,85.49,93.54,80.32a22.42,22.42,0,0,1,3.18-6.38,4,4,0,0,1,3.22-1.63c.81.14,1.75,1.81,1.88,2.89a17.81,17.81,0,0,1-.53,4.77c-.1.62-.63,1.27-.52,1.82a20.07,20.07,0,0,0,1.15,3.2,13.69,13.69,0,0,0,1.17-2.89c1-5.71,3.15-10.7,8.09-14.19a13.22,13.22,0,0,1,1.22-.69c.13.42.13,1,.41,1.26,2.71,3,.48,7.75,3.82,10.56a2.08,2.08,0,0,1,.37,1.31c.22,4.16.07,8.38.7,12.48.88,5.77,2.34,11.46,3.53,17.2a44.7,44.7,0,0,1,1.17,6.32c.34,5.34.45,10.69.65,16a8.41,8.41,0,0,1,0,2.07,5.61,5.61,0,0,1-.81,1.44l-1-1.28L120,133a10.5,10.5,0,0,0-.51,2c-.24,4-.43,7.94-.63,11.9.61.55,1.74.82,1.73,1.06-.07,3-.29,6-.56,8.93,0,.35-.62.65-.95,1-.28-.39-.8-.78-.78-1.15.13-3.08.36-6.15.56-9.22-.6.78-1.7,1.86-1.7,2.94,0,4.07.21,8.14.57,12.18.08.83,1.14,1.57,1.74,2.36a24.9,24.9,0,0,0,1.17-2.91c.18-.64-.15-1.44.07-2.05a33.64,33.64,0,0,1,1.68-3.34,13.36,13.36,0,0,1,.66,3c-.07,2.7.43,5,2.58,7,.81.75.92,2.39,1,3.66.24,2.44.83,2.82,2.9,1.6.11-.07.73.31.73.48q.06,6.66,0,13.32c0,.37-.36.73-.55,1.1-.21-.34-.44-.68-.63-1-.54-1-1.07-2-1.6-3-.27,1.37-.95,2.8-.73,4.09.42,2.42,1.43,4.74,2,7.14a5.91,5.91,0,0,1,.19,3.41c-.49,1.16-1.7,2-2.6,3-.71-.88-1.75-1.64-2.08-2.64-2.5-7.48-4.81-15-7.32-22.5-.48-1.43-1.91-2.56-2.32-4-.67-2.33-.86-4.79-1.3-7.19a3.49,3.49,0,0,0-.63-1,4.64,4.64,0,0,0-.69,1,5.28,5.28,0,0,0-.45,1.88c.15,3.38.23,6.77.65,10.11.18,1.39,1.47,2.63,1.68,4,.58,4,.86,8,1.27,11.94.18,1.7.45,3.39.57,5.09a4.19,4.19,0,0,1-.46,1.46C114.87,198.42,114.17,198.17,114,197.74Zm11.79,5.74a17.45,17.45,0,0,1,2.47-1c.07.86.53,2.09.12,2.51a17.15,17.15,0,0,1-4.3,3.2c-.39.2-1.49-.89-2.27-1.38A16.39,16.39,0,0,1,125.82,203.48Zm-3.37-2a2.37,2.37,0,0,1,1.13,1.26l-.76.22Zm-1.91,1.35c0,.94-1.11,1.87-1.72,2.79-.6-5.86-.91-11.42-1.18-17,0-.36.36-.73.55-1.09a3.86,3.86,0,0,1,.71,1A27,27,0,0,1,120,193,86.12,86.12,0,0,1,120.54,202.78ZM110,216.06a23.36,23.36,0,0,1,10.4-6.56c.28-.09.95.91,1.44,1.41-3.88,2.23-7.46,4.17-11,6.09a2.16,2.16,0,0,1-.81,0C110,216.71,109.83,216.25,110,216.06ZM88.73,240.83c.37.69.74,1.38,1.12,2.07a37.8,37.8,0,0,1-.07,5,2.38,2.38,0,0,1-1.34,1.73,13.3,13.3,0,0,1-3.42-.24,10.12,10.12,0,0,0,1.46-2c.62-1.51,1-3.11,1.56-4.66C88.25,242.05,88.5,241.45,88.73,240.83Zm-5.34,4.72a9.82,9.82,0,0,1-1.8,0c-5,0-5,0-5-5,2.31-3.95,4.57-7.33,9.09-8.31a11.08,11.08,0,0,1,1.63-.13,8.22,8.22,0,0,1,.08,1.39c-.36,3-1,6-1.06,9C86.26,244.64,85.12,245.25,83.39,245.55Zm4-16.44-2.11.46a3.67,3.67,0,0,1,1.57-1.42Zm-9.36,3.43c2.35-2.5,4.36-5,6.46-7.47.32-.38,1.08-.41,1.63-.6-.17.61-.14,1.4-.54,1.78-2,1.88-4.05,3.64-6.09,5.45-.3.27-.57.56-.85.84a45.82,45.82,0,0,0-3.24,4.12,3.8,3.8,0,0,1-.69-.32ZM59.36,269.86c-.1-.35-.36-.74-.28-1.05.49-1.86.93-3.74,1.6-5.55,2-5.47,4.14-10.92,6.23-16.37.59-1.53,1.2-3,1.81-4.58,1-1.39,1.66-2.52,2.44-3.55a4.63,4.63,0,0,1,1.37-.89c0,.57.38,1.34.12,1.7-5.05,7.12-5.26,16-8.78,23.61-1,2.08-2.14,4.06-3.3,6C60.38,269.55,59.77,269.66,59.36,269.86Zm8,8.71a7.79,7.79,0,0,1-2.26,8.18,15.72,15.72,0,0,0-1.24,1.56c-.48.58-1,1.13-1.51,1.69-.3-.76-.91-1.56-.84-2.29.27-3.11.91-6.19,1.08-9.3.09-1.63-.61-3.3-.78-5a12.09,12.09,0,0,1,.29-3.16c0-.19.66-.45.92-.37a1.56,1.56,0,0,1,.82.8,8.6,8.6,0,0,1,.45,1.52,11.65,11.65,0,0,0,1.61-1.14,13.45,13.45,0,0,0,.89-1.41c.42-.56.91-1.06,1.38-1.59l1.13,2.07C67.24,272.92,66.46,275.36,67.38,278.57Zm1-16.54c-.26.09-1.47-1.16-1.37-1.59,1.29-5.17,2.68-10.32,4.22-15.43.22-.73,1.31-1.21,2-1.81,0,.79,0,1.58,0,2.37-1.22,3.57-2.2,6.83-3,10.12a9.1,9.1,0,0,0,.27,2.6c0,.72.29,1.61,0,2.13A4.3,4.3,0,0,1,68.35,262Zm6.34,41.08c-2.77-.9-4.29-2.3-4.16-5.2.12-2.55,2.65-5.79,5.09-6.05,1.71-.18,2-.78,2.22-2.31.36-2.74,1.14-5.42,1.74-8.13,2.93-1.11,2.48,1.38,3,2.81,1.52,4.32,2.85,8.69,4.3,13a1,1,0,0,0,.88.42,3.23,3.23,0,0,0,1.47-1.11c1.52-3,3-3.68,5.73-2.34.37.18.58,1.71.3,1.92-1.47,1.13-1.94,2.63-2.69,4.2-.63,1.3-3.32,2.24-5.12,2.28C83.19,302.72,79.06,304.54,74.69,303.11Zm17.57-24.06c.4.74.66,1.23.57,1.64-.23,1.15-.61,2.27-.94,3.4-.28-.18-.82-.46-.8-.52C91.66,282.11,89.74,280,92.26,279.05Zm11.66,10.48c-1.73,1.18-3.37,2.49-5.7,1.1-1.76-1.06-2.41-2.25-1.8-4.33a10.16,10.16,0,0,0,0-4.22c-.38-2.49,2.18-5.5,4.67-5a3,3,0,0,1,1.91,2.09,48,48,0,0,1-.37,5.72,6.55,6.55,0,0,0,.4,1.81,6.86,6.86,0,0,0,1.48-.75c1.83-1.6,5.25-.6,5.85,1.72.16.6.65,1.12.82,1.73s.5,2,.24,2.11c-2.44,1.42-3.16,3.72-3.83,6.17-.09.34-1.31.78-1.75.59-3.56-1.54-5.75,1.33-8.48,2.42-.75.29-1.54.47-2.31.7.3-.76.37-1.83.94-2.21,2.31-1.58,4.94-2.75,7.12-4.47a53.87,53.87,0,0,0,5.42-5.57C106.53,287.36,105.25,288.62,103.92,289.53Zm-7.13-19.67c-.3-.49-.38-.73-.29-.87.65-1.1,1.34-2.18,2-3.27.33.32,1,.67.93,1C99.28,268.27,99.12,270,96.79,269.86Zm.9,3.4-.9,1.35a1.85,1.85,0,0,1,0-1.78Zm4.62-3.43c1.51-.81,3.07-1.42,3.84.92-.62.5-1,.88-1.24.86-1.21-.1-2.4-.33-3.59-.51C101.64,270.67,101.87,270.06,102.31,269.83Zm-1-5a6.62,6.62,0,0,1,1.7-.7l-.15,1.54ZM110.77,248c3.4,0,2.65,1.25,0,1.75-1.21.23-4.5,4.24-5.83,2.79-1.43-2.77-2.33-7.5.52-9.76.46-.37.81-1.51,4.48-2,5.75-2.77,1.33.39.33,2.31C108.46,246.53,108.69,248,110.77,248Zm4.49,50.37c.28-.16,1.15.25,1.44.63a1.39,1.39,0,0,1-.31,1.31c-1.88.6-3.81,1.06-5.72,1.56A20.81,20.81,0,0,1,115.26,298.36Zm-2.37-10.91a25,25,0,0,1,1.18-3,8.73,8.73,0,0,1,1.73.5c-.21,1-.32,1.6-.66,1.78A12.54,12.54,0,0,1,112.89,287.45ZM95.58,303.64a2.15,2.15,0,0,1-1.47-.33l.83-.82Zm-14.12,6.29,1.75-1.85a24.14,24.14,0,0,1,5-.4c.35,0,.7.43,1,.66-.27.39-.47,1-.84,1.11a19.16,19.16,0,0,1-4.28,1.23A7.49,7.49,0,0,1,81.46,309.93ZM88,315.79c-.94-1.05-1.59-1.8-2.23-2.55.48-.2,1.25-.69,1.4-.55,1,.91,2.28,1.87,2.5,3S88.71,316.72,88,315.79Zm18.49-.89c-4.59,1.65-7,1-10-2.58a2.53,2.53,0,0,0-2-.44c-.79.13-1.51.89-2.28.92s-1.4-.58-2.1-.9c.37-.58.59-1.4,1.12-1.7,1.91-1.08,3.24-3.38,6.31-2,1.11.49,3.16-1.19,4.85-1.7a6.72,6.72,0,0,1,2.26.11c-.35.59-.66,1.2-1.05,1.76s-.87.78-1,1.25a12.4,12.4,0,0,0-.36,2.3,7.59,7.59,0,0,0,2-.83c1.53-1.23,2.73-3.15,4.45-3.77,2.9-1.05,6.1-1.3,9.16-1.91.86-.17,1.7-.43,2.55-.65-.54-.49-1.1-1-1.62-1.47s-.72-.81-1.08-1.22c.59-.26,1.28-.88,1.76-.75,3.85,1.06,6.06-1.65,8.6-3.53,1-.71,1.62-1.81,2.6-2.46,4.31-2.84,3.17-7.16,3.21-11.14,0-.4-.62-.8-1-1.2a13.21,13.21,0,0,0-.81,1.15c-.6,1.08-1.17,2.18-1.75,3.27,0-1.41-.35-2.89,0-4.2a36,36,0,0,1,2.28-5.28c.14-.32.3-.92.45-.91,3.57.05,4.66-3.47,7.24-4.9,1.23-.68,1.83-2.54,2.58-3.94.14-.25-.39-.84-.61-1.28a11.55,11.55,0,0,0-1.15.83c-2.18,1.95-4.32,3.95-6.56,5.84-.44.37-1.26.32-1.91.44a7.24,7.24,0,0,0-2.51.47c-4.7,3.25-10.06,3.09-15.41,3.09-2.29,0-5.82-2.34-6.14-4.47a44.22,44.22,0,0,1-.07-6.31c0-1.88.21-3.7-2.14-4.77-1.48-.68-1.32-2,.27-2.82,4.26-2.2,8.66-3.86,13.6-3.57a2.15,2.15,0,0,0,.82-.17c2.16-.75,2.15-.76,2,1.7a1,1,0,0,0,.25.76.78.78,0,0,0,.77-.07c.7-.78,2-1.8,1.87-2.41-1.1-4.13.5-8.07.5-12s-1.7-7.9-3-11.74c-.16-.49-2.65-.9-3.49-.41-4.08,2.39-8.7,3.35-12.92,5.17-3.08,1.32-5.83,4.41-7.61,7.36a27.39,27.39,0,0,0-4.16,15.16,9.46,9.46,0,0,0,.23,1.38c.36-.3.92-.56,1-.93.64-2.22,1.23-4.45,1.72-6.71.18-.85-.15-1.82.09-2.64.16-.58.89-1,1.37-1.51.33.53.94,1.06.93,1.58,0,1.21-.58,2.42-.5,3.6a36.21,36.21,0,0,0,.93,5.54c.31,1.42.34,2.15-1.41,3a191.48,191.48,0,0,0-17.4,9.53c-4.12,2.59-7.64,2.22-9.72-2.05-1-2-2.8-3.81-.9-6.44,1.27-1.74,2.11-1.83,3.87-.75,3.28,2,7,2.09,10.66,1.33a6.1,6.1,0,0,0,2.43-1.69c1.06-.94,2-2,3-3,.43-.45.82-.93,1.22-1.4-.66-.52-1.4-1.55-2-1.47-2.42.32-4.78,1-7.18,1.49a4.43,4.43,0,0,1-2.32.13A11.21,11.21,0,0,1,79,256.21c.89-.38,1.76-.81,2.67-1.14a8.25,8.25,0,0,1,1.5-.26c-.38-.41-.69-1-1.15-1.18a12,12,0,0,0-2.88-.34,4.45,4.45,0,0,1-4.36-5,4.62,4.62,0,0,1,.41-1c.33.16.82.24,1,.51,2.24,3.9,6.53,3.18,10,4.11,1.91.52,4.15-.1,6.23-.33.39,0,.74-.63,1.07-1,.8-.93.38-9.13-.5-10-2.09-2.15-3.69-8.67-2.06-10.93,1.16-1.63,3.36-2.68,5.28-3.6,3-1.44,6.27-2.36,9.25-3.82,5.67-2.8,11.5-5.43,16.74-8.89,4.07-2.69,8.46-3.88,13-5.14a5.92,5.92,0,0,0,2-1,21,21,0,0,0,1.87-1.9c.22.78.44,1.55.67,2.33.92,3.08-1.08,7.87-3.81,9.56a4.92,4.92,0,0,0-1.84,2.28c-1,2.47-1.48,5.13-2.62,7.52s-.69,4.53,2,5.55c2.06.79,5.21.22,4.84,3.9a4.74,4.74,0,0,0,1.45-.33c3.92-2.41,7.77-4.93,11.73-7.28a21.36,21.36,0,0,1,4.15-1.6c1.68-.55,1.76-1.29.46-2.38-1.72-1.45-3.39-2.94-5.11-4.38a5.79,5.79,0,0,0-1.27-.63,5.59,5.59,0,0,0-.53,1.55c0,.4.63.93.51,1.21-.57,1.35-1.3,2.63-2,3.94-.33-1.09-1.12-2.27-.92-3.25.82-4,.43-8.38,4.6-11.15,1.33-.89,2.15-2.61,3-4.08.3-.53-.05-1.43-.1-2.16-.71.36-1.69.55-2.07,1.13a37.84,37.84,0,0,0-1.93,3.94,3.93,3.93,0,0,1-.84.84c-.3-.37-.81-.71-.86-1.11a4.16,4.16,0,0,1,.15-2.28c1.44-2.92.62-5.74,0-8.64a9.69,9.69,0,0,1-.11-4.66c1.85-6.2,1.65-12.38.61-18.65a12.94,12.94,0,0,1,.55-4.78c2-8.76-.76-17-2.52-25.45-.87-4.21-2.08-8.44-2.21-12.69-.22-7.34.92-14.76.32-22-.69-8.39.88-17.09-2.83-25.16a3.1,3.1,0,0,1,0-1.18,23.4,23.4,0,0,0-1.61-9.42c-1.67-3.85-1.89-8.33-2.59-12.57-.53-3.17-.92-6.37-1.17-9.58-.06-.75.7-1.56,1.08-2.35a8.74,8.74,0,0,1,1.23,2.25c1.47,7.31,2.94,14.63,4.22,22,.48,2.73-.06,5.7.75,8.31,2.12,6.9,5,13.59,7.05,20.51A124.63,124.63,0,0,1,155,121.15a105.37,105.37,0,0,1,.67,13.07c.1,4.38-.12,8.77.05,13.14.3,8.13.72,16.26,1.19,24.39.31,5.18,1,10.34,1.13,15.51.09,5.58-.4,11.16-.49,16.74a4.2,4.2,0,0,0,1,3.08c4.08,3.15,2.62,7.88,3.72,11.86,1,3.66,1.6,7.44,2.49,11.14.36,1.47,1.45,1.81,2.6.73,1.71-1.61,3.3-3.35,6-1.9.05,0,1-1,1-1.44-.31-4-1-8-1.09-12a62.78,62.78,0,0,1,.7-9.47c.41-3.24,1.08-6.46,1.66-9.69.16-.9.43-1.79.66-2.69.55.39,1.1,1.06,1.67,1.08.41,0,1.21-.83,1.23-1.31.1-3.78-.17-7.58.1-11.35.41-5.7,1.25-11.36,1.7-17.05.13-1.54-.48-3.13-.75-4.7-.92,1-2.24,1.93-2.67,3.13-2.19,6.14-4.13,12.35-6.18,18.53q-2,6.13-4.16,12.23a6.51,6.51,0,0,1-1,1.5c-.28-.67-.87-1.39-.78-2,.77-6,1.33-12,3.46-17.83,1.37-3.72,1.33-7.93,2.64-11.68,1.23-3.51,3.73-6.58,5.11-10.06,2.32-5.88,4.24-11.91,6.23-17.9q4.35-13.06,8.54-26.16c.71-2.19,1.13-4.47,1.77-6.69.12-.41.67-.7,1-1,.25.49.79,1,.7,1.46-1.46,7.42-2,15-6.31,21.75-1.57,2.42-1.47,5.89-2.09,8.9s-1.13,5.86-1.68,8.79a4.88,4.88,0,0,0-.13.84c-.21,4-.4,8-.61,12-.39,7.34-.66,14.69-1.25,22-.63,7.88-1.42,15.76-2.42,23.6-.77,6.14-2.35,12.2-2.85,18.34-.4,5,.47,10.11.35,15.16,0,1.44,2,4-1.46,4.7a3.91,3.91,0,0,0-.11,3c1.83,2.85-.67,4.36-1.72,6.31-.09.17-.73.28-.8.18-.45-.58-1.25-1.32-1.14-1.85.68-3.35,1.6-6.65,2.36-10a25.88,25.88,0,0,0,.31-3.2A16.21,16.21,0,0,0,173,236c-1.35,1.39-3,2.71-3.78,4.38-2.25,4.82-3.84,9.79-.51,14.88.31.47.19,1.21.28,1.83-.63-.38-1.56-.6-1.85-1.15-1.32-2.52-3-5-3.48-7.72-.31-1.7,1.26-3.72,2-5.61.32-.86.58-1.74.86-2.62a9.19,9.19,0,0,0-2.21,1.6,12.77,12.77,0,0,0-1,1.07c-.13-.52-.56-1.24-.35-1.53,2.52-3.56-.65-6.7-.71-10.05a28.6,28.6,0,0,0-.6-5.38c-.16-.74-1-1.34-1.47-2-.3.65-.89,1.33-.84,2,.53,7.07.69,14.21,1.94,21.16.74,4.11,3.37,7.87,4.93,11.87a55.41,55.41,0,0,1,2.67,8.68c.46,2.13-1,3.23-3.07,3.79a12.55,12.55,0,0,0-3.4,1.93c-1.66,1.1-3.18,3-5.23.51a3.66,3.66,0,0,0-1.74,1.05c-1.09,1.56-3.94,2.6-5.12,1.5-1.66-1.53-.32-2.9.58-4.22a9.25,9.25,0,0,0,1-1.65,1.51,1.51,0,0,0-.07-1.34,1.71,1.71,0,0,0-1.31-.15c-1.9,4.61-7,6-9.92,9.47-2.16,2.58-1,5.32,2.25,6.47.85.31,1.68.67,2.53,1l-2.21,2c-1.28,1.14-2.85,2.11-3.74,3.49-.79,1.21.32,2.25,1.91,1.93s3.27-.86,4.91-1.22a4.65,4.65,0,0,1,1.42.13c-.28.35-.48.82-.84,1-2.68,1.51-5.52,2.77-8,4.5-1.22.84-2.67,2.6-2.56,3.82.24,2.82,3.23,2.26,4.82,2,3.44-.66,6.71-2.15,10.1-3.14a10.58,10.58,0,0,1,3.07.05,9.24,9.24,0,0,1-1.72,2c-2.67,1.73-5.36,3.45-8.16,5-3.29,1.77-4.08,3.67-2.9,7.75.75,2.56,1.43,5.15,2.09,7.74.08.32-.14.72-.22,1.08a17.71,17.71,0,0,1-1.56-1.28c-2.39-2.56-4.6-5.3-7.18-7.65-1.39-1.27-3.45-1.8-5.11-2.81-2.27-1.38-1.49-2.82,0-4.34a8.07,8.07,0,0,0,1.13-2.23c-.9.09-1.8.17-2.7.29-.36.05-.79.38-1.06.27-3.09-1.27-4.57,1-6.21,2.74a16.55,16.55,0,0,1-12.24,5.61A6.23,6.23,0,0,0,106.52,314.9Zm24.49-23c-2.91,2.47-5.93,4.83-9,7.09-.58.43-1.6.28-2.41.39a9.85,9.85,0,0,1,1.19-2,16.12,16.12,0,0,1,2.27-1.69c2.33-1.89,4.34-3.51,6.4-5.07a14.06,14.06,0,0,1,1.86-1C131.23,290.33,131.46,291.49,131,291.87Zm-7.75-6.62a39.92,39.92,0,0,1-4.14,3c-1.34-2.89,1-3.91,2.76-5.28a2.11,2.11,0,0,1,1.6.17C123.57,283.83,123.68,284.87,123.26,285.25Zm-4.32-46.51c-.39.67.32,8.67-.25,8.92a7.43,7.43,0,0,1-2.76.1c.46-.53,2-1.41,2.44-1.94C119.43,245.47,118.18,238.79,118.94,238.74ZM73.55,257.13A6.31,6.31,0,0,1,75,254.52c.1-.1,1.43.6,1.44.95a2.43,2.43,0,0,1-.89,1.9C75.13,257.64,74.24,257.23,73.55,257.13Zm72.13,39.4c-.07.27-.06.62-.23.8-.72.73-1.49,1.41-2.24,2.1l-.24-2A13.85,13.85,0,0,1,145.68,296.53ZM109.14,349.8c-.26.62-.58,1.23-.88,1.83a4.85,4.85,0,0,1,.47-2.24C108.88,349.53,109.17,349.73,109.14,349.8Zm-86,94.33c0-.08.74.06.74.1a10.56,10.56,0,0,1-.13,2.18,4.71,4.71,0,0,1-.6,1.21c-.5-.7-.93-1.14-.86-1.51A6.89,6.89,0,0,1,23.13,444.13Zm-3.71,6.55a8.45,8.45,0,0,1,1.58.91,6,6,0,0,1,.94,1.36,17.68,17.68,0,0,0,1.49-1.77c1.78-2.79,2-6.4,4.79-8.71.57-.46.51-1.74.64-2.65.16-1.14.07-2.32.34-3.43a10.77,10.77,0,0,1,1.24-2.34,12.44,12.44,0,0,0,.88,2.3,5.73,5.73,0,0,0,1.41,1.2c.32-.64,1-1.32.92-1.93-.3-3.28,1.47-5.45,3.8-7.36a7.54,7.54,0,0,1,1.45-.72,5.93,5.93,0,0,1-.4,1.72c-.38.65-1,1.16-1.46,1.78a6.4,6.4,0,0,0-.55,1.25c.56,0,1.39.23,1.62,0a22.5,22.5,0,0,0,2.8-3.83c1-1.77,1.58-3.71,2.51-5.49a1.76,1.76,0,0,1,1.64-.51c1.64.88,2.37.78,2.47-.86s.25-2.61,1.81-3.47c.58-.32.68-1.91.63-2.9-.32-5.31,3.48-8.87,5.71-13.09.18-.34.79-.47,1.19-.69.13.43.42.89.35,1.28-.34,1.73-.94,3.42-1.11,5.15-.08.78.62,1.63,1,2.46a7.7,7.7,0,0,0,1.33-2.15c.9-3.9,1.57-7.85,2.53-11.73.2-.81,1.3-1.42,2-2.12a6.75,6.75,0,0,1,.3,2.47c-.28,1-1.28,1.91-1.43,2.94a11.69,11.69,0,0,0,.51,3.4c.7-.64,1.67-1.15,2-1.94a12.2,12.2,0,0,0,.74-3.54c.22-1.79.49-3.18,2.93-3.42s4.13-4.18,2.9-7.46c-1.12-3,.25-5.07,1.77-7.26.21-.31.8-.38,1.21-.56a3.43,3.43,0,0,1,.23,1.37c-.33,1.24-.86,2.42-1.17,3.66A6.06,6.06,0,0,0,73,385.8c.63-.28,1.63-.42,1.83-.88,1.26-3,2.35-6.15,3.51-9.24.61-1.62.94-3.47,2-4.81,2.13-2.86,4.61-5.46,7-8.14a9.46,9.46,0,0,1,1.32-1,10.71,10.71,0,0,1,.6,1.35,6.63,6.63,0,0,0,.38,1.62,13.25,13.25,0,0,0,1.59,1.77c.15-.7.36-1.39.44-2.1a11,11,0,0,0,0-2.07,6,6,0,0,0-.32-1.13c.34.12.79.14,1,.36,1.77,1.81,1.63.5,1.78-.91.17-1.66.07-4.1,1.08-4.77,3.12-2.08,4.32-5.48,6.7-8a8.44,8.44,0,0,1,1-.82,5.11,5.11,0,0,1,.76,1.46c.19,1.24-.18,2.73.41,3.68.77,1.23,2.55,3.07,3.36,2.84,1.94-.56,3.6-2.13,5.29-3.39.39-.29.35-1.07.7-1.46s1-.89,1.4-.79.84.82.9,1.31c.14,1.07.43,2.36,0,3.22-1.54,2.92.82,4.69,1.85,6.82.21.43,1.2.5,1.82.73a14.12,14.12,0,0,0,.39-2c.12-1.94.13-3.88.28-5.82,0-.28.56-.51.86-.77.31.35.89.72.87,1.06-.18,3.15-.45,6.31-.73,9.46a15.92,15.92,0,0,1-3.35,9c-1,1.17-.7,3.22-1.16,4.83-.16.57-.81,1-1.24,1.5a5.61,5.61,0,0,1-.69-1.78c-.06-3.95,0-7.9-.06-11.85a47.23,47.23,0,0,0-.61-5.67c-.06-.41-.5-.77-.77-1.16-.36.28-.93.51-1,.86a11.89,11.89,0,0,0-.55,3.32c.1,3.08.29,6.17.6,9.23.27,2.72,1,5.4,1.08,8.11,0,1.47-.81,3-1.41,4.42-.51,1.22-1.23,2.36-1.86,3.54-.78-1.16-1.49-2.38-2.36-3.47a27.06,27.06,0,0,0-3.68-4.09c-.48-.4-1.73.09-2.63.17a8.69,8.69,0,0,0,1.2,1.8c4,3.74,7.62,7.66,8.47,13.41.71,4.78,2.24,9.47,2.67,14.27.51,5.56.24,11.19.26,16.79,0,.31-.38.62-.56.94-.37.71-.72,1.42-1.08,2.13.63-.31,1.32-.93,1.87-.83a2.24,2.24,0,0,1,1.56,1.39c.91,5.87,1.31,11.85,2.64,17.63.63,2.73,3.14,5,4.48,7.63,2.21,4.32,4.14,8.78,6.25,13.16.45.95,1.44,2.63,1.73,2.54,4.19-1.27,4.93,2.44,6.46,4.46,5.44,7.2,10.7,14.56,15.8,22a42.62,42.62,0,0,1,3.63,7.69,1.59,1.59,0,0,1-.48,1.76c-1.4,1.49-5.52,0-8.05-1.59a16.93,16.93,0,0,1-4.61-4.54c-2.81-3.72-3.21-6.18-5.51-9.3-3.51-4.76-7.26-9.36-11.2-13.79-1.44-1.63-3.62-2.7-5.6-3.8s-2.23-2.64-1.61-4.46c.8-2.33.14-4.33-.92-6.44-2.1-4.17-5.4-7.88-5.41-12.92,0-.49-.72-1-1.11-1.46a11,11,0,0,0-.64,1.61c-1.1,4.6,2,7.83,3.9,11.44,1,1.77,1.76,3.63,2.54,5.48.13.31-.19.8-.3,1.21-.43-.15-1-.17-1.26-.46-5.13-5.47-10.27-10.92-11.58-18.7-.25-1.49-1.54-2.9-1.54-4.34,0-1.27-2-3.63,1.31-4,.12,0,.3-.7.26-.72-3.42-1.8-2.4-5.33-3.31-8.11-1-3-2.4-5.84-2.87-8.87-.57-3.68-.29-7.47-.47-11.21a11.72,11.72,0,0,0-.68-2.44c-.57.61-1.45,1.12-1.66,1.83-1.73,6,.56,11.74,1.32,17.59.2,1.62.33,3.24.42,4.86a3.31,3.31,0,0,1-.44,1.2c-.45-.32-1.17-.56-1.3-1-.89-2.8-1.58-5.67-2.51-8.47a9.89,9.89,0,0,0-1.68-2.39c-.23.92-.84,1.94-.62,2.74a64.69,64.69,0,0,0,3,9.13,11.06,11.06,0,0,1,.68,5.22c-.2,7.09-.06,14.29,3.26,20.82,1.8,3.54,4.33,6.74,6.54,10.08,3.77,5.68,7.4,11.45,11.38,17a21.32,21.32,0,0,0,5.69,5c4.1,2.65,6.77,6.08,7.35,10.91a6.29,6.29,0,0,1-.46,2.06A9.08,9.08,0,0,1,126.7,505c-1.66-2-3.12-4.11-4.85-6a7.59,7.59,0,0,0-2.95-1.52c-.26-.1-.78.45-1.14.74a2.27,2.27,0,0,0,.38.6c.55.7,1.12,1.38,1.69,2.07-1.31.23-2.68.76-3.92.57-.73-.12-1.28-1.39-1.92-2.15a9.34,9.34,0,0,0,1.92-.15c.23-.05.52-.81.47-.85-1.19-.92-2.64-2.66-3.61-2.44-1.26.29-1.14,2-.77,3.72.56,2.52,1.51,4.12,3.93,5,.43.15,1,.56,1.08.91.43,3.18.77,6.36,1.09,9.55.2,2-3.27-1.78-2.52,1.51a9.6,9.6,0,0,1-.16,4c-.21,1-1.35,1.78-1.36,2.67a58.14,58.14,0,0,0,.56,7.56c.28,2.22.84,4.4,1.14,6.62,0,.44-.51,1-.79,1.43-.32-.41-.85-.78-.94-1.24a84,84,0,0,1-1.77-9.63,29.1,29.1,0,0,1,.24-6.7c.4-2.76-1.33-5.82-2.15-8.75l-3.6-12.75a31.18,31.18,0,0,0-1.27-4.22c-.23-.52-1.19-.73-1.82-1.07-.18.57-.59,1.19-.5,1.71.78,4.12,1.53,8.24,2.52,12.3.83,3.39,2,6.7,2.93,10.06a5.92,5.92,0,0,1,0,1.63c-.43-.27-.87-.53-1.27-.83s-1-.78-1.45-1.17c-.32.74-.93,1.49-.92,2.23,0,2,.38,4,.53,6a4,4,0,0,1-.37,1.27c-.4-.23-1-.37-1.18-.71a38.14,38.14,0,0,1-2-4.8c-1.86-5.76-3.92-11.49-5.38-17.35C95,498.34,90,494.22,86.07,489.53c-3.54-4.23-8.17-7.72-12.81-10.85-2.66-1.78-6.22-2.61-9.49-3.11-5-.77-10.5,0-15.2-1.51-5.91-2-10-4-9.48-11.71.13-1.87-.46-3.78-.48-5.68,0-.44.93-.89,1.43-1.34-.41-2.58-1.26-5.12-1.78-7.73a13.57,13.57,0,0,1-.22-5.48c.37-1.57,1.2-3.4-.64-3.75-1-.19-3,1.69-3.59,3-1.53,3.32-2.5,6.88-3.74,10.33A8.07,8.07,0,0,1,29,453.67c-.18.26-.65.32-1,.47a4.62,4.62,0,0,1-.34-1,8.12,8.12,0,0,1,0-1.48c.07-.95.17-1.89.25-2.84-.69.8-1.75,1.5-2,2.41-1,3.48-1.66,7-2.5,10.55a5,5,0,0,1-.69,1.26c-.43-.36-1.05-.64-1.26-1.1a5.12,5.12,0,0,1-.42-2.19c.05-2.41.13-4.75-1.77-6.73C18.9,452.63,19.35,451.48,19.42,450.68Zm104.67,40.66c-.54,0-1.26.11-1.58-.17A53,53,0,0,1,118.3,487c-.31-.34-.2-1.05-.28-1.59a8.05,8.05,0,0,1,1.46.48,4.26,4.26,0,0,1,.85.8c1.29,1.26,2.31,2.19,3.23,3.21A4.34,4.34,0,0,1,124.09,491.34Zm-8.4-17.83c-.54,0-1.24.18-1.6-.08-1.4-1-2.69-2.18-4-3.29a2.31,2.31,0,0,1-.5-1.09c-.08-1-.12-2-.18-3a23,23,0,0,1,2.17,1.88c1.29,1.41,2.51,2.89,3.71,4.37A4.16,4.16,0,0,1,115.69,473.51Zm-10.58-12.26c-.6-.43-1.42-.75-1.77-1.33-1.17-2-2.17-4-3.23-6.07-3.2-3.48-2.62-7.65-3.58-11.39-.08-.31.44-.78.68-1.17.36.32.94.59,1.05,1a54,54,0,0,0,1.55,5.88c1.56,3.71,3.44,7.28,5.1,11A6.84,6.84,0,0,1,105.11,461.25ZM85,498.66l-.81.52c-.14-.5-.27-1-.4-1.49A2,2,0,0,1,85,498.66Zm-2.72-5.4c-.33.95-.58,1.92-1,2.85a5.53,5.53,0,0,1-1.16-.19,38.75,38.75,0,0,1-.59-5.86c0-.12.35-.36.37-.35a36.75,36.75,0,0,1,2.88,2.38C83,492.19,82.45,492.84,82.3,493.26ZM66,498l-2.28-2.26c-.14-.14-.35-.25-.42-.42-.37-1-.72-2.05-1.07-3.08l3.49,1.91A17.89,17.89,0,0,1,66,498ZM39.14,479.2c-.32.14-.7.46-.94.38-.52-.16-1.27-.44-1.4-.84a26.32,26.32,0,0,1-.68-3.56,4.13,4.13,0,0,1,.47-1.48ZM35.51,447l-1.2.92a3.23,3.23,0,0,1,.73-1.48Zm-4.83,21.07c-.14,1.48-.28,2.37-.42,3.26-.46-.1-1.23-.08-1.31-.3a17,17,0,0,1-.66-2.93c0-.12.29-.26.37-.42.33-.76.63-1.52.95-2.28C30,466.29,30.33,467.18,30.68,468.07ZM24,471.54c0,.09-.56.41-.63.35-.42-.34-1.05-.74-1.1-1.17a35.11,35.11,0,0,1-.05-3.84C24.9,467.69,23.76,469.82,24,471.54Zm-8.87-8.43c.35-.23.61-1.31.41-1.51-3-3,1.12-4.72,1.25-7.12L18,455c1.23,6.13,1.79,11.58-2.24,16.38a7,7,0,0,1-1.62,1.1c-.32-.64-1-1.3-.92-1.92C13.38,468,12.15,465.05,15.14,463.11ZM13.2,475.35a5.87,5.87,0,0,1,1.24-1.06c.18.47.57,1,.52,1.4-.48,3.52-1.28,7-1.5,10.56-.13,2,.65,4.12,1,6.18.21,1.3.41,2.61.5,3.92,0,.33-.37.7-.57,1-.38-.28-1-.49-1.11-.85a98,98,0,0,1-3.48-11.83c-.31-1.65,1-3.59,1.58-5.39A18.71,18.71,0,0,1,13.2,475.35Zm-9.13,6.4c1.62-5.16,3.24-10.32,4.92-15.46.12-.37.72-.59,1.1-.89.23.43.64.86.64,1.29,0,2.36.53,4.83-1.7,6.73-.52.45-.47,1.55-.68,2.35-1.23,2.39-2.1,4.5-3.11,6.55-.21.41-.93.58-1.42.86A11.24,11.24,0,0,1,4.07,481.75Zm-3.52,22q.78-7.74,1.81-15.45c.08-.56.86-1,1.32-1.54a10.65,10.65,0,0,1,.42,1.8c.07,1.08,0,2.16,0,3.24-.4,4.35-.74,8.12-1.26,11.87-.11.73-.95,1.36-1.45,2C1.11,505,.49,504.34.55,503.72Zm3.57,6.42a2.71,2.71,0,0,1-1,1.37,5.49,5.49,0,0,1-.17-1.38,18.56,18.56,0,0,1,.43-2.07Zm4.88,30c-2.42-6.92-4.71-13.88-7-20.84a8.68,8.68,0,0,1-.28-2.55,7.61,7.61,0,0,1,.35-1.58l1.44,1.49c2.41,7.7,4.83,14.81,7.24,21.92a2.9,2.9,0,0,1,0,.59c.11,1.27.23,2.53.35,3.8C10.4,542,9.37,541.2,9,540.14Zm5.29,15.28c-.26.13-1-.07-1-.21-.48-2.37-.88-4.74-1.3-7.11l1.21,0A52.58,52.58,0,0,1,15,554.5C15,554.77,14.6,555.28,14.29,555.42Zm1.27-10c-.59-.37-1.55-.65-1.69-1.15a5.89,5.89,0,0,1,.31-2.4l1.41,1.48A4.7,4.7,0,0,1,15.56,545.39Zm-1.19-10.95c-.08-.32-.33-.87-.46-.86-3.91.39-3.62-3-4.27-5a64.22,64.22,0,0,1-2.55-21.81c.1-2.87-.38-5.76-.52-8.64,0-.43.39-.88.61-1.32.38.28.92.49,1.12.87,3.09,5.95,6.12,11.93,9.21,17.88,1.31,2.53,2.66,5,4.07,7.52.25.44.88.66,1.33,1,.17-.47.62-1,.49-1.41-1-2.66-2.07-5.28-3.12-7.91-.37-.94-.71-1.88-1.07-2.83-.79-.78-1.93-1.08-2.33-1.78-3.13-5.4-6.3-10.78-9-16.38-.79-1.64-.14-3.95-.1-5.94,0-.17.37-.33.56-.49a3.88,3.88,0,0,1,.71,1c.67,2.19,1,4.52,2,6.57,2.6,5.54,5.45,11,8.2,16.42,1.64.61,1.87.43,1.39-1-1-3-2.19-6-3.16-9.08a18.13,18.13,0,0,1-.61-3.89c0-.37.31-.77.49-1.15.43.35,1.15.62,1.25,1,1.31,5.67,5.08,10.74,4.35,17-.08.65,1,1.44,1.56,2.16a9.81,9.81,0,0,0,.75-2.08c.49-4.65-1.45-8.82-3.07-13-1.33-3.39-3.64-6.43-4.92-9.84a24.48,24.48,0,0,1-1-7.58c-.07-2,.6-4,.48-6a5.37,5.37,0,0,1,2.48-5.26c1.8-1.31,1.45-.3,2.05.82.5.92-.45,3.51,2.29,2.59a4.61,4.61,0,0,1,.45,1.47c0,.3-.49.86-.72.84a2.59,2.59,0,0,1-1.62-.6c-.92-1.09-1.69-2.32-2.52-3.49a32.72,32.72,0,0,0,.1,3.84c.53,3.82,1.15,7.62,1.83,11.41.09.5.78.9,1.19,1.34.39-.46,1-.87,1.13-1.4a13.09,13.09,0,0,0,.06-2.35c.06-.73.24-1.45.37-2.18a9.7,9.7,0,0,1,1.82,1.93c.59,1.13.79,2.45,1.37,3.58a2.44,2.44,0,0,0,1.61.93c.19,0,.84-.87.8-1.31a11.86,11.86,0,0,0-.77-3.81c-1.9-4.18-2-8.61-2.15-13,0-.43.59-.87.91-1.31a4.52,4.52,0,0,1,.84,1.11c.89,2.79,2,5.31,4.8,6.93s3,4.63,3,7.3c0,2.9-.76,5.79-1.11,8.69a7.34,7.34,0,0,0,.32,2c.62-.41,1.51-.69,1.8-1.26,1.94-3.84,1.54-8,1.48-12.11,0-.81.08-1.62.13-2.44a11.62,11.62,0,0,1,3.23.53c.68.32.93,1.42,1.56,2a12.13,12.13,0,0,0,2.28,1.23,6.86,6.86,0,0,0,0-2.71c-.56-1.35-1.65-2.49-2.24-3.83a9.13,9.13,0,0,1-.3-2.8,6,6,0,0,1,2,.72c2,1.77,4.36,1.72,6.92,1.88A16.92,16.92,0,0,1,63.39,485c1,1.07.79,3.19,1.06,4.84,0,.12-.55.46-.84.47-2.42,0-4.65.1-6.87-1.73-1.89-1.56-4.7-2.08-7.15-2.94-.33-.11-1,.43-1.37.82A12.59,12.59,0,0,0,47,488.26c.69-.11,1.38-.21,2.06-.34,3.22-.64,5.63,1.53,7.28,3.27,3.41,3.6,6.81,7.64,8.62,12.12,1.23,3.05-.23,7.15-.54,10.78,0,.18-.59.51-.83.45a1.36,1.36,0,0,1-.91-.71c-1.45-4.85-2.84-9.71-4.26-14.57a5.55,5.55,0,0,0-.63-1.81c-.81-1.06-1.78-2-2.68-3a19.53,19.53,0,0,0-.27,3.72c.32,2.65,1.65,5.08.17,8-.54,1.06,1.37,3.22,2,4.94a38.1,38.1,0,0,1,1.4,5.64c.06.39-.75.92-1.16,1.39-.4-.38-1-.68-1.16-1.14-1-2.64-2.12-5.28-2.91-8-.3-1,.11-2.23.22-3.36.06-.66.46-1.49.19-1.94a31,31,0,0,0-2.64-3.34c-.19,1.4-.42,2.8-.55,4.21a17.82,17.82,0,0,0,0,2.19c-.56-.27-1.1-.56-1.67-.81s-1.43-.76-1.61-.59a3.46,3.46,0,0,0-1.29,2.08,44.09,44.09,0,0,0,.57,6.37,2.27,2.27,0,0,0,1.1,1.53c3.66,1.48,5,4.83,6.72,7.87a5,5,0,0,1,.32,1.42,4.49,4.49,0,0,1-1.62-.4c-1.94-1.4-3.75-3-5.72-4.35a35.65,35.65,0,0,1-13-16.85c-.32-.83-1.34-1.39-2-2.07-.1,1-.67,2.38-.22,3.09,2.82,4.47,3.84,10,8.16,13.58q2.13,1.77,4.23,3.57a8.69,8.69,0,0,1,.77.83c-.47.09-1,.36-1.39.22-2.5-.93-2.57,1-2.74,2.38a52.54,52.54,0,0,0-.07,5.33,4.09,4.09,0,0,1-.43,1.21,13.22,13.22,0,0,1-1.2-.73c-1.21-.93-2.39-1.89-3.62-2.78,0,0-.78.73-.73.8a45.78,45.78,0,0,0,3,3.89c3.46,3.78,7.13,7.39,10.35,11.36.62.76-.45,2.85-.74,4.32a6.26,6.26,0,0,1-1.81-.65c-2.28-1.8-4.47-3.71-6.74-5.52-.29-.23-.88-.09-1.33-.12a6.32,6.32,0,0,0,.22,1.65c2.13,5.07,5.39,9.49,8.3,14.12a70.06,70.06,0,0,1,4.32,9.19c.2.46-.09,1.12-.15,1.69A7.51,7.51,0,0,1,49,567.13c-1.2-1.67-2.15-3.53-3.48-5.08A61.52,61.52,0,0,0,40,556.69c-.33-.3-1.41-.35-1.57-.12a1.93,1.93,0,0,0-.25,1.73c1.44,2.14,1.88,5,5.32,5.64,1.17.22,2.17,2.46,2.83,3.95,1.5,3.34,2.76,6.77,4,10.2.17.47-.16,1.11-.26,1.67a5.3,5.3,0,0,1-1.34-1c-4-5.36-8-10.76-12.08-16.11a7.41,7.41,0,0,0-1.91-1.31c0,.71-.16,1.57.17,2.1,2.14,3.4,4.37,6.73,6.62,10.06,2.1,3.1,4.29,6.15,6.37,9.27a5.23,5.23,0,0,1,.4,1.83,7,7,0,0,1-2.43.19c-.54-.15-1-.92-1.33-1.47-3.35-5-6.73-9.9-10-14.91-1.76-2.71-3.27-5.58-5-8.35-.28-.46-.9-1.06-1.33-1-5.94.29-7.37-4.94-10.18-8.25-.86-1-.34-3.36,0-5,.08-.36,2.18-.44,3.34-.4,2.12.08,3.75-1.33,3-3.7-.94-3-2.76-5.78-4.29-8.61-.2-.36-.93-.44-1.42-.65a4.42,4.42,0,0,0,.06,1.59c.93,2.19,2.08,4.3,2.9,6.52.29.81-.11,1.86-.2,2.81a21.14,21.14,0,0,1-2.09-1C16.49,540.54,15.21,537.62,14.37,534.44ZM66.81,531l-.81.2c-1.42-2.38-2.55-4.45-3.63-6.55a1.67,1.67,0,0,1-.11-1,1.25,1.25,0,0,1,.74-.1C64.29,526,65.55,528.48,66.81,531Zm-5.46-10.64-1.1.18c-.1-.79-.19-1.58-.29-2.37A4.41,4.41,0,0,1,61.35,520.33Zm-3.6,67.73c-.37-.41-1-.79-1.06-1.22-.2-2.16-.25-4.32-.35-6.49a19.7,19.7,0,0,1-2.14-5.15,27.19,27.19,0,0,1,.2-5.39,34.66,34.66,0,0,1,2.22,3.53c2.06,4.39,2,9.08,1.8,13.76C58.41,587.42,58,587.74,57.75,588.06Zm0,8.62a2.32,2.32,0,0,1-1.26.24,8.4,8.4,0,0,1-1-2.74,9.09,9.09,0,0,1,.48-2.57l1.58,1.78A9.07,9.07,0,0,1,57.75,596.68Zm-12.13-46.1c.5.19,1.16.24,1.46.59,1.83,2.08,3.57,4.24,5.34,6.37a18,18,0,0,0,.82,2,8.79,8.79,0,0,1,.11,1.79,5.18,5.18,0,0,1-1.6-1q-3-4-5.94-8.2C45.54,551.8,45.68,551.13,45.62,550.58Zm3.84-15.29c.06-.26.66-.46,1.06-.55,3.2-.69,4.43,1.44,5.52,3.76.39.82.8,1.63,1.21,2.45-.26,1.09-.52,2-.76,2a3,3,0,0,1-2.05-.68c-1.64-1.81-3.14-3.75-4.64-5.69A1.69,1.69,0,0,1,49.46,535.29Zm-1.25-4.66c-1.17-.94-2.23-2-3.34-3a25.06,25.06,0,0,1-1.44-2.15c.75,0,1.75-.34,2.19,0,2.35,1.89,4.57,3.94,6.77,6,.31.29.27.93.39,1.41-.47,0-1,.1-1.4-.11A25.22,25.22,0,0,1,48.21,530.63Zm4.32,20.44c-.22-.6.15-1.41.25-2.12.61.42,1.45.7,1.78,1.28a38.56,38.56,0,0,1,2.92,5.86c.34.91-.09,2.1-.17,3.17l-1.87-.54C54.45,555.78,53.4,553.46,52.53,551.07Zm2.82-2.52a9.52,9.52,0,0,1-.74-1.46c.69-.06,1.68-.44,2-.13A54.15,54.15,0,0,1,60.27,551,19.61,19.61,0,0,1,62,554.58c.13.41-.25,1-.4,1.48a5.13,5.13,0,0,1-1.35-.93C58.59,553,57,550.76,55.35,548.55Zm-3.06-35.33a5.15,5.15,0,0,1-1,.16c-.36-1-.64-2-.94-2.95.68.07.77.13.81.21C51.51,511.5,51.9,512.36,52.29,513.22ZM49.4,589.83l-1.81-1.06,1.51-1.31A3.31,3.31,0,0,1,49.4,589.83ZM16.83,559.38a9.75,9.75,0,0,1,0-3c0-.22,1-.6,1.17-.47,9.27,8.37,19.06,16.34,24.1,28.19a5.32,5.32,0,0,1,.07,1.88c-.75-.12-1.86,0-2.21-.4-2.39-2.93-4.72-5.92-6.84-9-1-1.45-1.08-3.53-3.37-3.84-2.18-.59-3.73-2.43-5.36-.07-1,1.45.17,5.13,2.24,6.46s4.2,2.44,6.27,3.7A10,10,0,0,1,34.31,584c-.59.18-1.29.65-1.73.48A54.11,54.11,0,0,1,27.27,582c-2.15-1.1-4.27-2.27-6.37-3.47-.44-.25-1.07-.8-1-1.16C20.47,571.11,18,565.36,16.83,559.38Zm24.81,32.44-3.11-1.1a4,4,0,0,1,2.85-.66C41.55,590.08,41.56,591.2,41.64,591.82ZM30.51,578.45c-.53-.05-1.41.09-1.55-.17-.73-1.33-1.28-2.76-1.9-4.15a13.81,13.81,0,0,1,3.16,3.13A3.16,3.16,0,0,1,30.51,578.45Zm-.59,11.75c.24,1.93-1.74,1.74-3.16.82-1.42-2.78-2.58-5.25-3.63-7.77a1.45,1.45,0,0,1,.34-1.35,1.5,1.5,0,0,1,1.35.25C27.36,584.32,29.51,587,29.92,590.2Zm-8.85-4.14a27.76,27.76,0,0,1,.23,3.77c-.48-.28-1.17-.46-1.4-.88a11.31,11.31,0,0,1-.69-2.38C19.86,585.59,20.63,583.84,21.07,586.06ZM19,580.31c-.06-.25.76-.71,1.18-1.08.08.87.15,1.74.23,2.6A2.4,2.4,0,0,1,19,580.31Zm-7.34,1.82c1,.2,1.54.3,1.83.61a21.33,21.33,0,0,1,1.49,2,12,12,0,0,1-2.4,0,4.91,4.91,0,0,1-1.72-.87c-.86-.59-1.68-1.24-2.52-1.87Zm11.59,17.13c-6.44-2.57-12.41-5.83-16.34-11.76a4.41,4.41,0,0,1-.32-1.59c.76.2,1.74.17,2.24.63a12,12,0,0,0,7.66,3.29,25.1,25.1,0,0,1,2.16,1.57c1.88,2,3.69,4,5.51,6a12.2,12.2,0,0,1,.88,1.25C24.44,598.85,23.69,599.44,23.26,599.26Zm8,.8a24.42,24.42,0,0,1-5.18-3.37c-.91-.9,0-1.71,1.3-1.52,3.73-.53,4.21,1.94,5.07,3.9C32.5,599.22,31.4,600.15,31.24,600.06Zm4.53.41c-.4,0-1.17-.41-1.18-.63,0-2.61-2.91-4.54-1.63-7.56.32-.76-1.1-2.21-1.68-3.35-.4-.8-.74-1.63-1.11-2.44a6.42,6.42,0,0,1,2,1.07,24.6,24.6,0,0,1,2.67,3.89,5.63,5.63,0,0,0,4.75,3.17,31,31,0,0,1,4.63,1.14,13.25,13.25,0,0,1,2.82,1.18l2.31,1.21c-.71.59-1.37,1.61-2.12,1.68C43.45,600.19,39.61,600.32,35.77,600.47ZM48.1,614.13c-.37-1.09-.74-2.18-1.12-3.26a6.6,6.6,0,0,1,1.08-2.08c.64,1,1.64,2,1.81,3.11C50,612.54,48.73,613.38,48.1,614.13Zm1.32-9.49a5.12,5.12,0,0,1-.93.6c-1.15,0-1.7.11-2.24.16,0-.43-.07-1,.16-1.28a4.87,4.87,0,0,1,2-1.76,7.52,7.52,0,0,1,2.81.31C50.62,603.33,50,604,49.42,604.64ZM51.62,591c.19-.52,1.14-.77,1.76-1.14L53,591.31A5.41,5.41,0,0,1,52,593.23C51.81,592.49,51.39,591.64,51.62,591Zm.31,6.92c.06-1.13.12-2.25.19-3.38a5.75,5.75,0,0,1,1,3.14A8.4,8.4,0,0,1,51.93,598Zm4.71,15.18c.36-.21.86-.67,1-.57A20.4,20.4,0,0,1,60,614.13C58.34,615.94,57.69,614,56.64,613.13Zm7.1-9.5c-.13.88-.38,1.75-.58,2.62-.64-.51-1.54-.91-1.83-1.57-.21-.48.37-1.31.62-2,.18-.49.7-1.1.55-1.4a1.71,1.71,0,0,0-1.4-.76c-1.69.47-3.3,1.2-5,1.69a4.6,4.6,0,0,1-2.18,0c-.31-.07-.5-.65-.74-1l2.16-1.31c1.91-1.17,4.11-2.06,5.66-3.58,1.18-1.16,2.28-3-.17-4.65-.71-.48-.47-2.38-.57-3.63-.42-5.35-.8-10.7-1.22-16-.06-.77-.2-1.54-.31-2.3.63.61,1.3,1.18,1.87,1.83a8.79,8.79,0,0,1,.86,1.42c.81,2.72,2,4.8,2.34,7A64.76,64.76,0,0,1,65,591.57c0,3.55-.88,7.09-1.33,10.64C63.61,602.67,63.82,603.17,63.74,603.63Zm2-34.24c.14-1.44.28-2.29.42-3.14a11.85,11.85,0,0,1,1.34,3c.36,2.59.46,5.21.64,7.83a16.37,16.37,0,0,1,0,1.85c-.62-.45-1.73-.84-1.8-1.36C65.93,574.85,65.86,572.12,65.7,569.39Zm2.41,13.54-.69.39c-.37-.7-.74-1.39-1.12-2.08A4.91,4.91,0,0,1,68.11,582.93ZM66.3,621.46l.84-.82c.42.6.85,1.19,1.27,1.78A4.62,4.62,0,0,1,66.3,621.46Zm3.93-2a4.74,4.74,0,0,1-.39-1.78l1.9,1Zm10.12,15.95a7.76,7.76,0,0,1-2-.48,5.31,5.31,0,0,1,1.26-.63,6.37,6.37,0,0,1,1.45,0C81.05,634.87,80.7,635.4,80.35,635.41Zm3.7,1.76a2.63,2.63,0,0,1-.2-1.07,1,1,0,0,1,.7-.61c1.16,0,2.32.17,3.48.26C87.44,638.37,85.48,636.8,84.05,637.17Zm11.44-1.78a56.67,56.67,0,0,1-5.65-.87c-.25,0-.4-.6-.6-.91.39-.18.79-.52,1.16-.49a27.18,27.18,0,0,1,2.77.56,16.51,16.51,0,0,1,2.11,0,6.6,6.6,0,0,1,1.21.45C96.15,634.59,95.78,635.42,95.49,635.39Zm7.67-.56a2.68,2.68,0,0,1-.33-1.15,2.7,2.7,0,0,1,1.38,1C103.85,634.75,103.29,635,103.16,634.83Zm12.68,2.69c-.49-.19-.83-.75-1.24-1.15l1.2,0c1.41.95,2.52,1.61,3.63,2.26C118.23,638.26,117,638,115.84,637.52Zm13.07-5.14-1.64-.77a2,2,0,0,1,1.82-.31ZM95,605.21c-6.2-.57-11.14.55-14-.52-.4-.15-1,.34-1.57.48-3,.77-4.78-.56-5.23-3.37-.66-4.14-1.67-8.22-2.31-12.36-.2-1.24.53-2.6.5-3.89-.07-2.69-.3-5.37-.58-8-.34-3.2-1-6.38-1.07-9.58,0-1.18,1.39-2.34,2-3.6a3.26,3.26,0,0,0,.28-2.31c-1.53-3.92-3.19-7.79-4.87-11.64a5.17,5.17,0,0,0-1.51-2c-.49-.35-1.34-.21-2-.29a4.38,4.38,0,0,0,0,1.58c1.61,4.08,3.36,8.11,4.9,12.22a9.09,9.09,0,0,1,.06,3.09c-.82-.65-1.93-1.14-2.4-2-3.42-6-4.73-12.73-6.23-19.38-.85-3.78-1.86-7.54-2.76-11.31a7.75,7.75,0,0,1,0-1.6c.49.21,1.2.29,1.42.66,1.81,3,5.41,2.51,8,3.92,1,.56,2.23.06,1.8-1.56-.78-2.93-1.5-5.89-2.47-8.77-.67-2-3.24-3.67-.54-5.9-2-3.64,1.72-6.19,1.83-9.44.14-4.16.42-8.32.56-12.49a21.7,21.7,0,0,0-.33-3.2c1.19.73,2.43,1.39,3.54,2.21a7,7,0,0,1,2.92,5.94c0,.62.83,1.24,1.28,1.87a7.77,7.77,0,0,0,1-1.85c.65-2.94-4.11-8.83-7-10.06A7.5,7.5,0,0,1,67,489.47c-.56-.81-.38-2.11-.53-3.19.84.53,1.69,1.06,2.53,1.61,1.81,1.18,4.1,2,5.33,3.63,2.28,3,4,6.46,5.87,9.73,1.93,5.46,3.58,10.61,5.19,15.78a3.84,3.84,0,0,1,.2,1.67c-.06.43-.47.81-.72,1.21a4.41,4.41,0,0,1-1-.93c-1.26-2.15-2.34-4.41-3.74-6.45a2.84,2.84,0,0,0-2.54-.8,2.83,2.83,0,0,0-1.51,2.2c.07,3,.44,5.91.74,8.85.59,5.81,2.77,11.51,1.06,17.49-.22.75.45,1.74.71,2.62.54-.87,1.43-1.7,1.58-2.63,1.2-7.51-.41-14.83-1.74-22.17a4.27,4.27,0,0,1,0-1.47,8.62,8.62,0,0,1,.51-1.45,5.83,5.83,0,0,1,1.34,1c4.87,6.53,6.8,14.1,7.06,22,.16,4.83-1,9.69-1.49,14.54a19.83,19.83,0,0,0-.13,4.07c0,.6.73,1.15,1.13,1.73.41-.56,1.08-1.08,1.18-1.69.5-3.18.84-6.38,1.26-9.57a13.76,13.76,0,0,1,.48-1.78c.44.73,1.27,1.46,1.26,2.18-.06,3.77-.31,7.54-.55,11.31-.13,2-.44,4-.58,6-.24,3.37-.56,6.75-.57,10.12,0,2.78-.34,5.89.8,8.23A6.51,6.51,0,0,0,96,586.35a95.25,95.25,0,0,1,10.11.54c1.43.1,2.84.45,4.28.55s2.76-.28,3.26,1.63c.11.4,1.31.7,2,.73,2.11.09,4.27-.23,6.32.12,1.17.21,2.18.81,4.18,2.08,2.87,1.81,6,3.8,7.89,7.35,0,0,1.73,3.26,1,5.6l0,.13c-.13.34-.52,1-1.94,1.83-3.2,1.82-6.69,1.41-9.86.94-7.33-1.07-9-1.86-13.17-2.33a45.57,45.57,0,0,0-10.33,0C97.67,605.45,96,605.31,95,605.21Zm40.16,42.25c.4-.25.9-.77,1.18-.68s.63.73.94,1.12A12.31,12.31,0,0,1,135.12,647.46ZM144,607.19a14.75,14.75,0,0,1-5.18.42,15.34,15.34,0,0,1-2.32-.42c.3-1.26.81-2.71,1.67-2.84.53-.08,1,.4,1.5.84A10,10,0,0,0,144,607.19Zm1.52-4.36a4.44,4.44,0,0,1-.47-2.92A22,22,0,0,0,137.7,593c-3.58-2-6.92-2.42-6.83-3s4.56-.54,6.66-.33a31.1,31.1,0,0,1,9.68,2.54c2.49,1.12,2.57,1.55,12.16,8.79,3.48,2.63,5.3,4,5,4.67s-2.37,0-8,.16a17.67,17.67,0,0,1-3.34,0,15.06,15.06,0,0,1-4.66-1A5.27,5.27,0,0,1,145.55,602.83Zm9.07,55c-3.11-2-4.08-5.34-5.52-8.38-.1-.23.18-.63.29-1l1.43,2.08c1.92,2.08,3.6,3.82,5.13,5.69a6.48,6.48,0,0,1,.72,2.2A8.32,8.32,0,0,1,154.62,657.82Zm1.43-6.34c-.44-.37-.49-1.18-.72-1.79l1.83,1.17c1.2,1,2.13,1.64,3,2.39.21.18.16.64.23,1a8.32,8.32,0,0,1-.85-.41A33.42,33.42,0,0,1,156.05,651.48ZM167,663a1.59,1.59,0,0,1-1.29.89,46.62,46.62,0,0,1-5.91-1.53c-.51-.17-.79-1-1.17-1.53l2.71-.44a29.39,29.39,0,0,1,4.85,1.27A1.62,1.62,0,0,1,167,663Zm-3.35-7.24a4,4,0,0,1,1.6.25c.44.3.63.93.92,1.42-.94-.14-1.36-.2-1.61-.43A8.08,8.08,0,0,1,163.69,655.71Zm-9.13-64.11-.11-.06c-.06,0-.15-.09-.24-.16-.31-.22-.59-.5-.89-.74a11.18,11.18,0,0,1,1.11-.69,1.39,1.39,0,0,1,.35-.06,10.52,10.52,0,0,1,3.75.63,3.29,3.29,0,0,0,1,.3,28.38,28.38,0,0,1,3,.87,17.89,17.89,0,0,1,5,3,19.36,19.36,0,0,1,5.67,8.66,9.94,9.94,0,0,0-3.5-3.66,15.23,15.23,0,0,0-3.67-1.45c-2.53-.75-2.41-.52-3.55-1C159,595.85,154.83,591.74,154.56,591.6Zm23,80.55c-1.63-.88-3.17-1.93-4.75-2.92a6.52,6.52,0,0,1-1.93-2.24,14.62,14.62,0,0,1,2.83.8,42.93,42.93,0,0,1,4.54,2.68c.43.28.61.91.9,1.38C178.65,672,178,672.35,177.6,672.15Zm36.56,5.31a6.74,6.74,0,0,1-2.37-.36l1.51-1.35c1.28.13,2,.25,2.64.38C215.35,676.59,214.82,677.32,214.16,677.46Zm4.59-4.89c-4.18,1.27-8.84,1-13.3,1.4-5.66-.39-10.72-.78-15.77-1.2a2,2,0,0,1-1.24-.59c-2.63-3.13-6.84-3.32-10.08-5.29a10.41,10.41,0,0,1-1.83-1.86c1-.15,2.36-.79,3-.38,6.74,4.31,14.67,4.94,22.14,6.79,3.18.79,6.83-.21,10.26-.44,3.17-.21,6.44,0,9.28-1.79,1-.59,2.27-1.24,2.55-2.13.6-1.86,1.92-1.32,3.09-1.36.17,0,.55.87.51.91C224.53,668.71,221.94,671.61,218.75,672.57Zm22.75-6.35c-2.32.9-4.71,1.63-7.07,2.42s-4.29,1.67-6.16,2.46c-.29.12-.69,0-1.05-.05.13-.35.15-.87.4-1,3-1.81,5.48-4.65,9.54-4.42,1.21.06,2.44-.79,3.7-1.08a4.78,4.78,0,0,1,1.68.22C242.2,665.26,242,666,241.5,666.22Zm-1.9-3.76a2.37,2.37,0,0,1,0-.55c1-.24,2-.46,3-.68A21.13,21.13,0,0,1,239.6,662.46Zm1.86-19.92c-.52-.23-.87-.86-1.3-1.3.63,0,1.47-.14,1.86.18,2.45,2.05,4.87,4.16,7.13,6.4.28.28-.43,1.51-.68,2.29l-1.06-1.32C246,645.75,244.19,643.69,241.46,642.54Zm6.55,27V669c.81,0,1.61,0,2.42,0A3.51,3.51,0,0,1,248,669.5Zm-.08-3.85c-.43-.13-.75-.57-1.12-.87a5,5,0,0,1,1.44-.85,10.48,10.48,0,0,0,8.17-6.13c.92-2-.25-3.19-1-4.69a10.83,10.83,0,0,1-.55-2.21,8.22,8.22,0,0,1,2.61.81,11.56,11.56,0,0,1,2,2.41c1.67,3.08-1.35,4-1.81,5.86-.22.84-1.16,1.47-1.63,2.28A6.82,6.82,0,0,1,247.93,665.65ZM263.51,663a11.52,11.52,0,0,1-1.54,1.5c-1.26,1-2.69,1.94-4,2.94a15.1,15.1,0,0,1-2.56,1c.44-.53.85-1.08,1.31-1.58a.1.1,0,0,1,0,0c1.7-1.84,3.5-3.61,5.09-5.54.5-.6.41-1.64.67-2.45a9.08,9.08,0,0,1,.74-1.5c.42.37,1.24.78,1.21,1.1C264.31,660,264.4,662,263.51,663Z"/></g></g></svg>