<svg xmlns="http://www.w3.org/2000/svg" viewBox="0 0 25.15 106.78"><g id="Layer_2" data-name="Layer 2"><g id="Contours"><path d="M12.82,39.37c-.64,5.35-1.31,10.54-1.57,15.75-.24,5-.17,10.09,0,15.13.06,1.58,1,3.11,1.41,4.69.75,2.85,1.22,5.78,2.15,8.56,1.2,3.61,3.14,7,4,10.7s.87,7.72,1.19,11.6c0,.31-.42.65-.64,1-.37-.28-.91-.48-1.07-.85-5.37-12.42-10.74-24.84-16-37.31A19.08,19.08,0,0,1,1.2,63.49C.72,59.54.38,55.57,0,51.6a2.55,2.55,0,0,1,.2-.79,7.26,7.26,0,0,1,.63.46c.41.4.81.82,1.21,1.23a11.35,11.35,0,0,0,.87-2.28c.29-1.87.28-3.79.69-5.63.17-.79,1.07-1.42,1.64-2.13a6.35,6.35,0,0,1,.61,2.17A97.55,97.55,0,0,1,4,56.85C2.93,61.12,3.65,65.09,5,69c2.5,7,5.23,14,8,20.88,1,2.61,2.3,5.14,3.56,7.66.23.44,1,.61,1.53.91a4.42,4.42,0,0,0,0-1.59c-1.45-3.33-3.25-6.53-4.42-10-2.49-7.23-5.06-14.53-5.25-22.26-.11-4.34.73-8.7,1-13.06a36.3,36.3,0,0,0,0-6C8.75,38.72,10.63,32.41,13,26.13c1.92-5,3.42-10.18,5.29-15.21C19.52,7.69,21,4.55,22.5,1.45c.31-.65,1.31-1,2-1.45a12.44,12.44,0,0,1,.66,2.81c0,3.13-3.26,4.4-4,7.37-2.39,9-5.39,17.79-8.1,26.69A24.37,24.37,0,0,0,12.82,39.37Z"/></g></g></svg>