<svg xmlns="http://www.w3.org/2000/svg" viewBox="0 0 2.85 7.96"><defs><style>.cls-1{fill:#9e0505;}</style></defs><g id="Layer_2" data-name="Layer 2"><g id="Layer_3" data-name="Layer 3"><path class="cls-1" d="M2.85,7.13s-.34.72-1,.81A1.63,1.63,0,0,1,.4,7.08a3.26,3.26,0,0,1-.21-.72A6.1,6.1,0,0,1,0,5.07,5.35,5.35,0,0,1,.18,3.56a5.74,5.74,0,0,1,.87-1.85A8.32,8.32,0,0,1,2.6,0L2.35.26,2.1.55c-.2.24-.35.39-.45.5a5.31,5.31,0,0,0-.59.84,5.51,5.51,0,0,0-.84,2,6.24,6.24,0,0,0,0,1.25,7.2,7.2,0,0,0,.08.77A2.69,2.69,0,0,0,1,7.59a1.12,1.12,0,0,0,.45.22,1.09,1.09,0,0,0,.58,0A1.41,1.41,0,0,0,2.85,7.13Z"/></g></g></svg>