<svg xmlns="http://www.w3.org/2000/svg" viewBox="0 0 31.21 26.87"><g id="Layer_2" data-name="Layer 2"><g id="Contours"><path d="M27.61,11.53C25.89,9.68,25.36,8,26.48,5.75c.51-1,.1-2.48.18-3.74A15.79,15.79,0,0,1,27,0c.62.24,1.56.3,1.78.74.9,1.77,2.07,3.62,2.23,5.52.33,4,0,8.1.13,12.16.06,2.27-.73,2.78-2.93,2.42a7.47,7.47,0,0,0-4,.89c-1.66.75-3.08,2.1-4.77,2.69a5.69,5.69,0,0,1-3.73-.32c-3-1.26-5.34.47-7.4,1.84-2.66,1.76-5.31.4-7.91.84A4.14,4.14,0,0,1,0,24.71c1.09-3.58,3.07-5.12,6.89-4.87,5.65.36,9.81-2.46,13.79-5.86.67-.57,1.19-1.32,1.91-1.82.28-.19.89.1,1.35.17-.08.34-.14.68-.25,1-.47,1.37-1,2.73-1.41,4.12a7.16,7.16,0,0,0-.08,1.74A6.92,6.92,0,0,0,24.35,18c1-1.22,1.64-1.35,2.72-.2a4.87,4.87,0,0,0,1,.65c.23-.39.71-.83.65-1.18-.31-1.81-.75-3.6-1.14-5.7M16.4,22.45c1.27-.29,2.53-.57,3.79-.89,0,0-.11-.52-.16-.8A10.07,10.07,0,0,0,16.4,22.45Z"/></g></g></svg>