<svg xmlns="http://www.w3.org/2000/svg" viewBox="0 0 2.31 7.56"><defs><style>.cls-1{fill:#9e0505;}</style></defs><g id="Layer_2" data-name="Layer 2"><g id="Layer_3" data-name="Layer 3"><path class="cls-1" d="M2.1,5a2.49,2.49,0,0,1,0,2,1.1,1.1,0,0,1-.86.5A1.14,1.14,0,0,1,.36,7a2,2,0,0,1-.22-.76,9.32,9.32,0,0,1,0-3.46c0-.18.09-.36.09-.36s0-.15.09-.31A8.71,8.71,0,0,1,1.1.58,3.15,3.15,0,0,1,1.52,0a7.59,7.59,0,0,0-.37.89A2.93,2.93,0,0,0,1,1.56a3,3,0,0,0,0,.69,4.84,4.84,0,0,0,.4,1.26c.08.19.19.46.34.78A6.45,6.45,0,0,1,2.1,5Z"/></g></g></svg>