<svg xmlns="http://www.w3.org/2000/svg" viewBox="0 0 22.35 26.25"><defs><style>.cls-1{fill:#9e0505;}</style></defs><g id="Layer_2" data-name="Layer 2"><g id="Layer_3" data-name="Layer 3"><path class="cls-1" d="M14.86,26.18c-1.68.75-5.69-4.3-8.22-9.39C5.22,13.93-1.7,6.65.39,2.2.93,1.06,2.59.7,4.62.11,7.36-.68,14.66,3,15.83,4c1.62,1.34.38.94,2.56,2.89,1.36,1.21,2.49,2,3.15,3.6a6.15,6.15,0,0,1,.4,1.63c0,.29,1.2,4.49-.53,6.91-1.24,1.73-2.32.48-3.59,2.05C15.76,23.62,16,25.67,14.86,26.18Z"/></g></g></svg>