<svg xmlns="http://www.w3.org/2000/svg" viewBox="0 0 224.29 89.82"><defs><style>.cls-1{fill:#9e0505;opacity:0.94;}</style></defs><g id="Layer_2" data-name="Layer 2"><g id="Layer_3" data-name="Layer 3"><path class="cls-1" d="M125.07,14.93c-1.37,2.12-7.87-2.29-13.33.11a18.14,18.14,0,0,1-6.12,1.73c-.35,0-.61.05-1.6.07-3,.08-4.48.12-6.89.11-6.17,0-7.88.29-14.61.17-3.8-.06-6.6-.12-10.44-.52-5.07-.53-5-.94-8.69-1.22-5.8-.43-6.26.57-12.52.35-5.87-.2-5.89-1.1-11-1-4.55.05-5,.78-10.47,1.15a52.66,52.66,0,0,1-12.12-.25C9.18,14.35,6.25,11.39,3.06,13.4a6.91,6.91,0,0,0-3,4.42A7.31,7.31,0,0,0,.73,22,19.45,19.45,0,0,0,5.46,29C28,47.33,40.78,49.64,40.78,49.64c12.29,2.22,17.11-1,30,1.83a78.36,78.36,0,0,1,16.18,5.71,53.08,53.08,0,0,1,5.32,3,71.25,71.25,0,0,1,8,5.89c.91.77,1.64,1.43,2.14,1.9s.71.66.73.68c9,8.51,35.74,16.39,35.74,16.39,8,2.35,12.06,3.54,16.39,4.09,5.36.7,12.2,1.51,20.37-.79a41.89,41.89,0,0,0,11.83-5.45c6.08-2.14,1.3-1.46,4.82-2.7a13.89,13.89,0,0,1,3.76-.8c4.18-.27,10.87,2.92,16.89,1.82.44-.08,6.29-1.24,9.44-6.31a13.26,13.26,0,0,0,1.91-6.09,14.4,14.4,0,0,0-2.78-9.56c-1.76-2.25-2.46-1.53-5.1-4.31-3-3.15-2.75-4.76-5.18-6.95-2.08-1.87-3.48-1.78-6.77-3.18C197,41.6,192.24,36.06,189.3,32.6c-2.37-2.8-3.59-4.23-4.72-6.67-3.25-7.06-2.17-14.72-2.58-14.72a16.9,16.9,0,0,1-1,3.27c-1,2-2.69,3.27-3.25,3-.09-.06-.11-.14-.26-.39a4.63,4.63,0,0,0-.31-.46c-.32-.45-2.31.38-3.31.44-1.92.11-3.13-2.44-4.75-4.28-.86-1-1.08-.89-10.92-5.2-6.74-3-8.69-3.89-9.6-5.93-.22-.48-.61-1.55-1.34-1.63-1.16-.15-2.35,2.37-2.49,2.68-2.38,5.17,2.32,10.2.73,12.1-2.72,3.25-19.81-7.46-21.6-5C123.13,10.9,126,13.45,125.07,14.93Z"/></g></g></svg>