<svg width="28" height="28" viewBox="0 0 28 28" fill="none" xmlns="http://www.w3.org/2000/svg">
<path fill-rule="evenodd" clip-rule="evenodd" d="M28 14C28 6.26861 21.7314 0 14 0C6.26861 0 0 6.26861 0 14C0 20.9872 5.11888 26.7793 11.8127 27.8308V18.0478H8.25706V14H11.8127V10.9149C11.8127 7.4065 13.9035 5.46724 17.1008 5.46724C18.6325 5.46724 20.2351 5.7409 20.2351 5.7409V9.18632H18.4691C16.7307 9.18632 16.1873 10.2652 16.1873 11.3736V13.9999H20.0697L19.4495 18.0477H16.1872V27.8307C22.881 26.7812 27.9999 20.989 27.9999 13.9999L28 14Z" fill="black"/>
<path fill-rule="evenodd" clip-rule="evenodd" d="M19.4496 18.0477L20.0698 13.9999H16.1874V11.3736C16.1874 10.2672 16.7288 9.18633 18.4692 9.18633H20.2352V5.74091C20.2352 5.74091 18.6327 5.46725 17.1009 5.46725C13.9036 5.46725 11.8128 7.40457 11.8128 10.9149V14H8.25714V18.0479H11.8128V27.8308C12.5255 27.9428 13.2559 28 14.0001 28C14.7443 28 15.4747 27.9409 16.1874 27.8308V18.0479H19.4497L19.4496 18.0477Z" fill="white"/>
</svg>
