<svg xmlns="http://www.w3.org/2000/svg" viewBox="0 0 1166.13 863.41">
  <defs>
    <style>
      .cls-1 {
        fill: #fff;
      }
    </style>
  </defs>
  <g id="Layer_1" data-name="Layer 1">
    <rect class="cls-1" width="1166.13" height="863.41" />
  </g>
  <g id="Layer_2" data-name="Layer 2">
    <path
      d="M788.1,209.28c4.94,1.24,5.4,2.84,5.46,3.35s-.31.86-2.16,4.73l-1.09,2.22c-2.59,5.1.81,9.57,5.24,10.35.57.1,1.13.24,1.71.32a2.61,2.61,0,0,1,2.23,1.73,13.21,13.21,0,0,0,2.61,3.9c1,1.11,2,2.27,3.79,1.83a1.33,1.33,0,0,1,1.62.82,8.25,8.25,0,0,1,1.34,4.2c-.07,1.16.12,2.34-.06,3.48-.51,3.12.44,6.07,1,9a9,9,0,0,0,3.68,5.17c2.06,1.6,4.44,2.95,7.3,2.55a4.17,4.17,0,0,1,.5,0c4.2,0,6.89,2.71,6.79,6.95a18.4,18.4,0,0,0-.09,2.22,7.05,7.05,0,0,0,6.63,6.55,9.22,9.22,0,0,0,8.71-3.52c2.15-2.53,3.5-5.59,5.81-8a2.48,2.48,0,0,0,.51-1.63,3.71,3.71,0,0,1,2.18-3.09c2.15-1.18,2.91-3.19,3.1-5.5a14.84,14.84,0,0,1,.28-2.21,10.52,10.52,0,0,0,.1-4.67,13.83,13.83,0,0,1-.13-4.21c.15-1.51.84-2,2.34-1.84a5.65,5.65,0,0,1,4.56,3.43,15.42,15.42,0,0,1,1.35,4.5c.19,1.38.35,2.62-1,3.59a2.07,2.07,0,0,0-.75,1.24c-.33,2.17-1.41,4-2.22,6a37.9,37.9,0,0,1-4.44,7.69,4.64,4.64,0,0,0-.84,1.21c-.79,2.88-2.87,5-4.31,7.48-1,1.79-2.13,3.57-3,5.39-1.06,2.24-.52,4.88-.23,7.34a1.58,1.58,0,0,0,1.17,1.18,4.34,4.34,0,0,1,2.15,2c1.89,3.08,4.87,4.34,8.26,4.9,1.26.21,2.87-.33,3.68,1,1.2,1.93,2.9,3.65,2.84,6.21-.07,2.89.07,5.8,0,8.69-.1,3.07,1,5.87,1.83,8.7a5.66,5.66,0,0,0,2.84,3c2.2,1.22,3.06,3.68,5,5.11.07,2.29,1.55,4.06,2.2,6.11a7.15,7.15,0,0,1-.42,4.39,5.33,5.33,0,0,0-.16,3.41,44.82,44.82,0,0,0,3.28,8.8,2.9,2.9,0,0,0,3,1.62c4.65-.06,7.15-3,9-6.64a68.42,68.42,0,0,0,4.92-13.17,9.92,9.92,0,0,1,3.51-5.28c3-2.4,5.09-5.6,7.62-8.41,1.39-1.54,3-2.9,4.31-4.45a2,2,0,0,1,.85-.51c.83-.3,1.54-.24,1.49.89a13.77,13.77,0,0,0,.83,4.37c.59,2,1.42,2.81,3.51,2.85,1.36,0,2.42.25,3.14,1.48.63,1.06,1.77,1.13,2.83,1.33v16.89c-.66.09-1.31.19-2,.26-1.83.19-2.36-.2-2.65-2.05-.21-1.39-.38-2.78-.54-4.18a5,5,0,0,0-4.52-4.77,17.16,17.16,0,0,1-4.23-1.37,4.07,4.07,0,0,0-5.51,1.74c-2.46,3.82-4.66,7.8-6.83,11.79a2.4,2.4,0,0,0-.31.67c-.62,3.24-2,6.28-2.51,9.57-.49,2.94-.53,5.91-1.08,8.83a26.08,26.08,0,0,1-1.44,4.73c-.79,2-1.09,4.13-2.07,6-.18.36-.15.9-.41,1.15-2,1.92-2.69,4.48-3.54,7a5.16,5.16,0,0,1-1.16,1.58c-1.22,1.35-2.47,2.66-3.73,4-1.57,1.64-2.62,1.55-4.86.86-4.62-1.42-7.44-1.88-10.09,2.15a2.92,2.92,0,0,1-1,1.07c-2.34,1.14-3.88,3.33-6.12,4.6-1.12.64-1.65,1.84-2.54,2.69-3.78,3.61-6.94,7.78-10.48,11.59-2,2.16-4,4.35-6,6.56-2.61,2.95-5.49,5.68-7.83,8.87a9.81,9.81,0,0,1-1.28,1.52,70.48,70.48,0,0,0-9.31,10.58,71.2,71.2,0,0,1-4.61,5.49,67.93,67.93,0,0,0-9.2,12.87c-2,3.57-4.41,7.25-3.86,11.8a11.43,11.43,0,0,1-.54,2.91,46.18,46.18,0,0,0-.37,14.56c.33,2,.1,4.09.35,6.14a22.53,22.53,0,0,0,1.12,4.29,2.65,2.65,0,0,0,1,1.37A43.27,43.27,0,0,1,812,506c.87.74,1.93,1.11,2.89.12a3.27,3.27,0,0,1,2.47-.86c3.08-.18,6-1.26,8.95-2a6.66,6.66,0,0,0,3.17-2.23c3-3.23,6-6.59,10.32-8.36a26.5,26.5,0,0,0,2.42-1.26c.36-.2.73-.61,1.07-.58,3.1.21,5.6-1.78,8.51-2.29,3.11-.55,4.8,1,4.14,4.17a11.85,11.85,0,0,1-1.18,2.71,37.48,37.48,0,0,1-6.88,9.62,53,53,0,0,0-4.87,6.25c-3.45,4.85-6.68,9.85-10,14.77a20.27,20.27,0,0,1-2.18,2.7,75,75,0,0,0-5.94,7.6,1.53,1.53,0,0,0-.27.41c-1.43,4.47-5.24,7.29-7.66,11.08a19.39,19.39,0,0,0-2.88,6c-.17.74-.27,1.63-.89,2-2.56,1.54-3,4.72-5.19,6.54a2.68,2.68,0,0,0-.71,1.29c-.88,3-2.76,5.41-4.45,8a18,18,0,0,0-3,7,7.37,7.37,0,0,1-2.13,4.37,4.56,4.56,0,0,0-1.35,2.6,30,30,0,0,1-2.59,8,6.18,6.18,0,0,0-.53,2.16,5.31,5.31,0,0,1-.38,1.93c-2,3.65-2.63,7.79-4.11,11.62a36.52,36.52,0,0,1-1.75,4.64c-1.1,2-1.39,4.22-2.06,6.33a8.82,8.82,0,0,1-1.92,3.43,9.09,9.09,0,0,0-2.69,6.48,4.38,4.38,0,0,1-.52,2.15A40.53,40.53,0,0,0,775,646.85a16.87,16.87,0,0,1-2.12,5.81c-1.39,2.57-3.91,2.58-5.47.14a5.89,5.89,0,0,1-.86-5.42c.8-2.22.36-4.59.6-6.89.18-1.78-2.81-5.2-4.58-5.68-.4-.11-.82-.15-1.22-.26-2.28-.66-2.28-.66-2.68,1.49a7.38,7.38,0,0,1-5.35-7c-.24-3.53,1.17-6.79,1.1-10.28-.06-2.56-.06-5.11-.15-7.67-.15-4.16-1.66-8.07-1.93-12.19-.12-1.77-.29-3.46,1-4.94a3.32,3.32,0,0,0,.66-2.35,3.66,3.66,0,0,1,1.93-3.5,3.69,3.69,0,0,0,1.81-3.21,15.78,15.78,0,0,1,2.44-6.89,83.54,83.54,0,0,0,5.94-11.37c1-2.16,2-4.36,4-5.86a7.23,7.23,0,0,0,1.67-1.82,5.29,5.29,0,0,1,1.81-2c3.72-1.9,3.6-5.38,3.66-8.76a20.34,20.34,0,0,1,.22-2.7,2.2,2.2,0,0,0-2.23-2.85,3.65,3.65,0,0,0-2.62.6c-1.85,1.38-3.73,2.76-4.56,5.07-.14.39-.29.91-.59,1.07-2.4,1.33-3.71,4-6.3,5.08a11.06,11.06,0,0,0-3.73,2.39,3,3,0,0,1-4.07.44,10.63,10.63,0,0,1-4.5-4.16c-.38-.76-.9-1.55-1.72-1.69-1.73-.27-3-1.41-4.37-2.23a5.93,5.93,0,0,0-3.68-1.2c-1.22.11-1.92-.84-2.05-2.06a5.25,5.25,0,0,1,1.12-4,15.54,15.54,0,0,0,3.58-8.81.51.51,0,0,1,0-.25c1.55-2.78.75-5.81.92-8.74a2.74,2.74,0,0,0-.07-1.22c-1.27-2.56-.88-5.34-1.17-8a7.64,7.64,0,0,0-.36-2.43c-2-4.07-1.27-8.46-1.52-12.69A72,72,0,0,0,738,487.05a6.5,6.5,0,0,0-.92-2.55,6.46,6.46,0,0,1-1.15-4.45,24.91,24.91,0,0,0,0-5,1.5,1.5,0,0,1,.13-1c1.14-1.88,1-4,1.1-6,.2-4.28,1.05-8.52.86-12.84-.09-2.06-.23-4.12-.44-6.18a6.5,6.5,0,0,0-2.58-4.6l-1-.77c-2.93-2.23-5.64-1.78-8.13,1-1.72,1.91-3.18,4-4.92,5.9a5.14,5.14,0,0,0-1.31,2.62,5.25,5.25,0,0,1-1,2.52c-2.42,2.76-3.15,6.32-4.72,9.47-1.14,2.29-1.78,4.8-3.24,6.94a8.56,8.56,0,0,1-1.36,1.75,5.08,5.08,0,0,0-1.74,3.19,8.78,8.78,0,0,1-2.1,4.44,11.56,11.56,0,0,0-2.4,4.29c-.79,2.6-2.86,4.42-4,6.81-1.54,3.18-4.07,5.84-5.14,9.3a2.39,2.39,0,0,1-.67,1,6,6,0,0,0-2,5.6,1.67,1.67,0,0,1-.23,1.19c-1.3,1.56-1.38,3.51-1.82,5.34a8.19,8.19,0,0,1-.94,2.29,6,6,0,0,0-.88,1.77c-.86,5.16-4.56,8.65-7.3,12.72-1.6,2.36-3.37,4.59-4.12,7.56-.56,2.24-.9,4.73-2.52,6.64a1.77,1.77,0,0,0-.33.93c-.4,4.92-3.7,8.32-6.29,12.09a4.44,4.44,0,0,0-.91,1.73,14.76,14.76,0,0,1-1.34,3.47,6.65,6.65,0,0,0-.67,1.59c-.58,3.66-2.41,7-2.59,10.76-.06,1.16-.89,1.92-1.57,2.75-1.27,1.56-2.5,3.09-2,5.35a2.46,2.46,0,0,1-1,2.42,11,11,0,0,0-3.25,4.6,4.93,4.93,0,0,1-2.39,2.44c-2.47,1.29-4.85.29-5.52-2.44a9.63,9.63,0,0,1-.35-3.19c.34-3.3,0-6.61.25-9.91.27-4.32-.73-8.54-1.74-12.72a6.27,6.27,0,0,1-.31-1.45c0-3.76-1.38-7.28-2-10.93-.42-2.38-.53-4.94-1.94-7.11a4,4,0,0,1-.38-2.18,7.94,7.94,0,0,0-.44-3.18,10.82,10.82,0,0,1-.53-5.85,17.26,17.26,0,0,0-.27-4.86c-.54-3.81-1.17-7.64-.68-11.57a21.1,21.1,0,0,0-.9-8.1c-.36-1.29-.43-2.4.61-3.43a3.19,3.19,0,0,0,.82-3c-.61-2.92,0-5.76.44-8.62.09-.65.13-1.32.23-2a8.34,8.34,0,0,0-1-5.66,9,9,0,0,1-1-7.18,5.07,5.07,0,0,0-.33-3.89,4,4,0,0,1-.08-4.22,2.27,2.27,0,0,0,.31-1.43c-.44-2.59.36-5.1.39-7.66a83,83,0,0,0-.59-14.1c-.58-3.6-2.27-7-1.79-10.83.2-1.66-.76-3.52-.77-5.36a4.83,4.83,0,0,1,0-1.47,15.82,15.82,0,0,0-.24-9.29,4.67,4.67,0,0,1-.06-2.46c1.26-5.05.78-10.18.78-15.29,0-2.13-1.09-2.92-3.22-2.78-2.57.17-3.88,1.15-4.65,3.71a8.79,8.79,0,0,1-2.14,4.12,3,3,0,0,0-.8,1.52,72.19,72.19,0,0,1-5,13.42,25.06,25.06,0,0,0-2.44,6.65,5.38,5.38,0,0,1-.82,2.33c-3.39,4.58-3.4,10.4-5.7,15.38-1,2.24-1.91,4.56-3.12,6.72a3.44,3.44,0,0,0-.67,1.83,14.87,14.87,0,0,1-1.59,6.44,8.24,8.24,0,0,0-.64,2.63c-.16,2.31-.36,4.61-.55,6.92a12.74,12.74,0,0,1-.58,2.14c-.85,3.6-1.88,7.15-3.06,10.65a1.7,1.7,0,0,0-.12.73c.9,5.13-2.08,9.43-3,14.16-.81,4-2.3,7.88-2.46,12.05a19.79,19.79,0,0,1-1,5.08,28.62,28.62,0,0,0-1.33,9,3.55,3.55,0,0,1-.09,1c-1.29,4.51-1.1,9.13-1,13.74,0,.25.1.56,0,.74-1.25,2-.56,4,.13,5.94a5.65,5.65,0,0,1,.12,2.71c-.68,4.45,0,8.91-.1,13.36A24.58,24.58,0,0,1,587,576.86c-.76,1.29-2.19,2.21-3.37,3.25a2.12,2.12,0,0,1-2.33.4c-1.75-.8-3.6-.24-5.39-.53a3.5,3.5,0,0,0-3.28,1.45c-2.52,3.15-5.78,5.62-8.13,8.94a3.33,3.33,0,0,1-.71.69,2.82,2.82,0,0,1-4.72-3,14,14,0,0,0,1-7.77c-.53-3.74,1.11-7.13,1-10.73a4,4,0,0,1,.71-2.09,4.84,4.84,0,0,0-1.3-6.53,5.38,5.38,0,0,1-2.7-6.1,7.12,7.12,0,0,0-.19-2.93,8.89,8.89,0,0,1,.79-6.71c1.24-2.1,1.37-4.59,1.44-7,.24-8,0-16,.86-24,.5-4.83.5-9.72.59-14.59a10.33,10.33,0,0,0-1.39-5,13,13,0,0,1-1.8-6.87,5.69,5.69,0,0,0-.44-2.43,14,14,0,0,1-.72-5.11c0-4.28.67-8.55.12-12.83a10.8,10.8,0,0,0-.16-1.73c-1-3.51-.76-7.16-1.19-10.73a77.8,77.8,0,0,1-.53-10.9,19.28,19.28,0,0,0-.87-6.62,3.05,3.05,0,0,1-.25-1.94c.63-1.92.11-3.78-.24-5.63a39.91,39.91,0,0,1-.69-5.67,46.12,46.12,0,0,0-1.61-9,6,6,0,0,0-6.17-4.08,2.35,2.35,0,0,0-1.56.67c-1.4,1.51-3.3,2.52-4.3,4.43a4.78,4.78,0,0,1-1.52,1.61,18.92,18.92,0,0,0-5.38,6.39A26.46,26.46,0,0,1,527.3,431a18.89,18.89,0,0,0-4.39,5.92,17.56,17.56,0,0,1-3.23,4.37,11.87,11.87,0,0,0-2.36,3.46,18.58,18.58,0,0,1-3.22,4.68,6.54,6.54,0,0,0-1.58,2.5c-.72,3.27-2.67,5.8-4.74,8.28a2.31,2.31,0,0,0-.61,1c-.44,3.08-2.46,5.37-3.92,7.94-.81,1.43-1.34,3-2.2,4.42A28.78,28.78,0,0,1,498,477.8a8.59,8.59,0,0,0-2.47,4.49,4.38,4.38,0,0,1-.85,1.78c-3,4.6-5.49,9.52-8.77,14a30.32,30.32,0,0,0-4.84,11,14,14,0,0,1-2.45,5.11c-1.62,2.14-2.43,4.7-4,6.86a2.54,2.54,0,0,0-.6,1.34c.05,2.2-1.11,4.1-1.44,6.2a2.91,2.91,0,0,1-.68,1.55,8.55,8.55,0,0,0-2.12,5.43,12.52,12.52,0,0,1-1.47,4.71c-1.66,3.46-2.36,7.23-3.62,10.81a4,4,0,0,0-.24,1.71,4.37,4.37,0,0,1-1,3.23,5.84,5.84,0,0,0-1.16,4c.21,2.64-1.06,5.18-.47,7.86.09.41-.31.92-.45,1.39a3.33,3.33,0,0,0-.33,1.42c.73,3.46.68,7,1.66,10.47a15.45,15.45,0,0,1,.39,8.58,6.22,6.22,0,0,0-.19,1.72,10.93,10.93,0,0,1-7.08,10,8.1,8.1,0,0,0-2.32,1.41,43.11,43.11,0,0,0-6,6,6.33,6.33,0,0,1-6.11,2.43c-.89-.09-1.12-.54-1.11-1.3a26.78,26.78,0,0,0,0-3,4.46,4.46,0,0,0-4.09-4.39c-.89-.15-1.21-.7-1.59-1.37a37.83,37.83,0,0,1-4.44-20.28,12.44,12.44,0,0,0-1.3-6.26,6.07,6.07,0,0,1-.94-3,8.92,8.92,0,0,0-1.45-4.9c-1.2-2.16-2.57-4.32-2.79-6.84a48.15,48.15,0,0,1-.08-6.9c.23-3.79,0-7.57,0-11.35s-1.36-7.23-1-10.83c.37-3.78-.47-7.42-1-11-.45-3.29-.55-6.55-.76-9.84-.17-2.63-.58-5.25-.89-7.87a88.84,88.84,0,0,1-.76-10.81,11.77,11.77,0,0,0-.58-4.16,20.16,20.16,0,0,1-.7-5.31c-.31-3.65-.71-7.43-3-10.61a7.77,7.77,0,0,0-.61-.78,4.71,4.71,0,0,0-7-.29,2,2,0,0,0-.66,1.56c.1,3.82-1.44,7.45-1.31,11.28a2.19,2.19,0,0,1-.42,1.4c-1.25,1.44-1.24,3.16-1.35,4.91a30,30,0,0,1-.78,5.38,40.78,40.78,0,0,0-.77,10.86,20.41,20.41,0,0,1-.23,4.94,20.52,20.52,0,0,0-.46,6.9c.4,3.4-.28,6.75-.5,10.13a10.22,10.22,0,0,0,.39,4.88,6.55,6.55,0,0,1,.33,2.45,15.47,15.47,0,0,0,.12,2.73,26.4,26.4,0,0,1-.64,11.92,11.86,11.86,0,0,0-.41,3,67,67,0,0,1-.83,10.87,4.73,4.73,0,0,0,.05,1.72c.63,2.93,0,5.92.49,8.87a13.41,13.41,0,0,1-.17,4.18c-.44,2.82-.07,5.61,0,8.4,0,1.91-.1,3.8-.19,5.7-.12,2.58-1.72,4.41-3.32,6.22a1.9,1.9,0,0,1-2.27.47,6.75,6.75,0,0,1-3.88-3.3c-.72-1.48-1.69-2.86-1.88-4.57a2.58,2.58,0,0,0-.55-1.35c-3-3.45-4.09-7.77-4.89-12a174.26,174.26,0,0,0-4.38-17.47c-1.4-4.74-2.67-9.5-2.48-14.6A39.22,39.22,0,0,0,375.16,533a6.13,6.13,0,0,1,0-2.22,13.3,13.3,0,0,0-.79-6.57,9.68,9.68,0,0,1-.67-4.39c.18-3.8-.88-7.38-1.59-11s-1.65-7.43-1.38-11.27a11.16,11.16,0,0,0-1.95-6.55,21.36,21.36,0,0,1-1.22-2.44,3.33,3.33,0,0,1,0-3.52c.4-.59.54-1.25-.15-1.75-2.75-2-3.88-5.09-5.37-7.94a15.17,15.17,0,0,0-1.84-2.93,24.52,24.52,0,0,1-4.09-5.84,16.79,16.79,0,0,0-3-4.23c-1.53-1.71-2.6-1.46-4.41-.1-3.34,2.51-4.62,6.1-5.83,9.82-.51,1.55-.85,3.2-2.11,4.43-.78.74-.64,1.84-.76,2.81s-.58,1.65-1.79,1.53a70.49,70.49,0,0,1-10.71-1.63,9.49,9.49,0,0,1-2.9-1.35,2.76,2.76,0,0,1-1.35-2.49,31.62,31.62,0,0,0-.2-3.22,8.16,8.16,0,0,1,.51-4.36c.63-1.46.35-3.1.54-4.66a15.54,15.54,0,0,0-2.21-10.43c-1.49-2.45-2.19-5.36-4-7.65-.1-.12-.14-.33-.26-.41-2.42-1.53-2.51-4.1-2.92-6.52a5.81,5.81,0,0,0-1.32-2.88,19,19,0,0,1-2.49-5.1,30.85,30.85,0,0,0-2.77-5.8,5.53,5.53,0,0,0-7.3-1.79c-1.77,1-2.84,2.76-4.32,4.06-.38.34-.31.92-.35,1.42-.23,3-.38,6.12-1.9,8.9a2.62,2.62,0,0,0-.29,1.2c0,3.41-1.7,6.35-2.65,9.5a5.24,5.24,0,0,1-.79,1.25c-.32.48-.83.91-.94,1.43-.44,2.21-1.9,4-2.53,6-.8,2.55-2.2,4.78-3,7.29-.87,2.75-2.26,5.43-2.61,8.24-.38,3.16-1.47,6.09-2.17,9.12-.59,2.54-.44,5.08-.91,7.52-.64,3.27-.13,6.78-1.95,9.83a3.89,3.89,0,0,0-.55,2.39,4.32,4.32,0,0,1-.81,3.51.78.78,0,0,0-.21.45c.14,2.39-.69,4.61-1.11,6.9-.66,3.63-.24,7.36-.9,11.05a27.61,27.61,0,0,0,.2,8.4,20.34,20.34,0,0,1,.15,4.2,17.17,17.17,0,0,0,.24,5,6.65,6.65,0,0,1,.15,2.22c-.59,4.73.54,9.36.79,14,.08,1.59-.25,3.13-.27,4.7-.05,3.71.19,7.42.08,11.15-.08,2.62.76,5.2.81,7.87a9.42,9.42,0,0,1-.79,4.09c-.66,1.46-1.3,1.59-2.75,1a4.17,4.17,0,0,1-2.79-3.89c-.22-2.2-.54-4.41-.64-6.64a19.38,19.38,0,0,0-5.62-12.6c-1.43-1.52-1.84-3.54-2.3-5.42a11.94,11.94,0,0,1,.39-8,8.21,8.21,0,0,0,.42-3.68,22.7,22.7,0,0,1,1-6.85,4.9,4.9,0,0,0,.24-1.7c-.17-3.47-.38-6.94-.43-10.41a13.47,13.47,0,0,0-.75-3.62c-1.44-4.86-1.59-10-2.72-14.85a1.08,1.08,0,0,1-.08-.49c.9-3.65-.74-7.12-.71-10.73a63.9,63.9,0,0,0-.69-10.87,5.59,5.59,0,0,1,0-1.73c.6-3.73-.05-7.37-.87-11a3.45,3.45,0,0,1-.24-1.45c.52-2.1-.42-3.94-1-5.78-1.77-5.31-3.77-10.55-4.76-16.09-.06-.32-.25-.68-.17-1,.8-2.73-.84-5.37-.27-8.07s-.69-5.4-.41-8.13a1.83,1.83,0,0,0-.06-.74c-1.6-5.24-.51-10.63-.91-15.93-.33-4.29.23-8.6-.5-12.86a7.52,7.52,0,0,1,.06-2.46,13.13,13.13,0,0,0,.17-4.68,5.57,5.57,0,0,1,.26-2.45,14.37,14.37,0,0,0,.37-7.1,8.4,8.4,0,0,1,0-3.2c.47-2.77.17-5.59.34-8.37a28.49,28.49,0,0,0-.5-8.75c-.71-2.79-.87-5.72-1.31-8.58a17.74,17.74,0,0,0-1.65-5.14,23,23,0,0,1-2-7.39,25,25,0,0,0-1.16-6.07c-.56-1.47-.22-3-.19-4.43.08-3.4,1.68-6.29,3.55-9,1.3-1.9,3.87-1.8,5.85.1a21.67,21.67,0,0,1,4,6,18.61,18.61,0,0,1,1.75,6.4c.35,2.78,1,5.52,1.1,8.34a82.16,82.16,0,0,0,1.4,11.06,58,58,0,0,0,1.57,8.25,23.59,23.59,0,0,1,.51,2.93c.69,3.56,1.42,7.1,2.09,10.66a34.76,34.76,0,0,1,.17,6.45,43.68,43.68,0,0,0,.57,7.91,8.9,8.9,0,0,0,2.78,5.13,4.8,4.8,0,0,0,6.33.51,15.5,15.5,0,0,0,3.23-3.38c1.77-2.31,2.84-5,4.44-7.39a17.64,17.64,0,0,0,2.2-5c1.24-4.33,3.52-8.19,5.54-12.14,1.52-3,2.94-6.07,5.19-8.7,1.49-1.74,2-4.17,2.81-6.32a11,11,0,0,1,1.94-3.43,10.1,10.1,0,0,0,2.37-4.31c.92-3.77,3-6.9,5.1-10.09s4.48-6.37,5.75-10.09a41.56,41.56,0,0,1,3.69-7.29c1.3-2.24,5.72-4,8.27-3.54,1.73.34,2.39,1.56,2.72,3.14,1.14,5.45,1.72,10.9.63,16.45a21.83,21.83,0,0,0,.16,8.89c.77,3.57.83,7.23,1.43,10.82a24.05,24.05,0,0,0,.63,3.15,4.83,4.83,0,0,1,.35,2.18c-.42,2.2.53,4,1.21,6,1,2.84,2.34,5.58,2.46,8.73a9,9,0,0,0,5.21,7.9c2,1.06,2.91.78,4.12-1.11,1.37-2.13,1.85-4.59,2.61-6.94a29.68,29.68,0,0,1,4.39-8.81c.69-.93,1.27-1.94,1.9-2.9,1.4-2.13,2.52-4.43,4.34-6.29a8.31,8.31,0,0,0,1.8-3.78c.26-1,.46-2.06,1.38-2.56,1.45-.79,1.83-2.24,2.65-3.45a79.15,79.15,0,0,1,5.38-7.39,54.46,54.46,0,0,0,7.48-10.4,10.54,10.54,0,0,1,2.23-3,2.59,2.59,0,0,1,3-.54,2.2,2.2,0,0,1,1.19,2.5c-.17,1.73-.38,3.46-.69,5.17a10.57,10.57,0,0,0,.14,4.91,19.78,19.78,0,0,1,.2,9.52,32,32,0,0,0-.65,7.15c0,2.05-.59,4.11-.56,6.16.05,5.55-.48,11.06-.9,16.59-.36,4.76-.53,9.54-.65,14.32-.06,2.74-.8,5.38-.72,8.15.05,1.73.16,3.46.24,5.19a21,21,0,0,1-1.46,8.74,4.9,4.9,0,0,0-.11,3.63,9.52,9.52,0,0,1,.54,3.91,37.19,37.19,0,0,0,1.56,13.67,1.86,1.86,0,0,1,.14.73c-.4,4,.87,7.85.5,11.81a3.16,3.16,0,0,0,.06,1.23c1.46,4.69.53,9.54,1,14.29.19,2.05,1,4,.84,6.11-.21,3.8,1.42,7.18,2.38,10.73.57,2.09,1.14,4.09,2.72,5.69,1,1,1.53,1.18,2.8.46a4.39,4.39,0,0,0,2.19-3.16,141.74,141.74,0,0,0,2.12-14.2c.36-4,0-7.92.23-11.87a8,8,0,0,1,.21-2c2.27-7.53,3.48-15.27,4.75-23a11.05,11.05,0,0,1,.65-2.38,5.19,5.19,0,0,0,.6-2.14c-.34-3.81,1.16-7.44.94-11.29-.17-3.09.82-6.22,1.22-9.33.81-6.21,2.31-12.34,2.29-18.65a14.37,14.37,0,0,0-.1-2,21.27,21.27,0,0,1,3.43-15.06c2-3.09,4.17-6.12,6.08-9.3a9.27,9.27,0,0,0,1.06-3.29,8.83,8.83,0,0,1,3.11-5.74,2.57,2.57,0,0,0,.91-1.15c.73-2.58,2.64-4.52,3.67-7a12.47,12.47,0,0,1,6.62-7.07c3.11-1.32,5.62-.39,7.17,2.61a10.14,10.14,0,0,1,.57,8.84c-2.12,5-2.25,10.28-2.22,15.57a13.76,13.76,0,0,1-.33,3.68,5.53,5.53,0,0,0-.1,2.71,5.65,5.65,0,0,1-.14,3.18,3,3,0,0,0-.18,1.21,141.81,141.81,0,0,0,2.2,16.17,8.35,8.35,0,0,0,.77,2.09,2.94,2.94,0,0,1,.26,2.62,2.48,2.48,0,0,0,.37,2.55,16.13,16.13,0,0,0,5.25,5.21c2.54,1.53,4.9,1.52,7-.58a19.16,19.16,0,0,0,4.86-9,21,21,0,0,1,1.91-4.5,17.38,17.38,0,0,1,4.78-5.77c2.1-1.66,3.54-4.11,6-5.46a4.56,4.56,0,0,0,1.31-1.47c1.89-2.71,3.84-5.4,4.59-8.73a3.77,3.77,0,0,1,2.15-2.29,2.86,2.86,0,0,0,1.6-2.6,6.4,6.4,0,0,1,1.44-3.63,58.55,58.55,0,0,1,4.29-5.44c2.08-2.23,3.77-4.81,5.75-7.14a100.28,100.28,0,0,1,7.59-8.47c3.55-3.33,7-6.8,10.56-10.07,3.84-3.51,7.81-6.87,11.59-10.46s7.17-7.3,11.28-10.35a68,68,0,0,1,9.28-5.66c3.87-2,7.92-3.77,11-7a2,2,0,0,1,.77-.61c2.89-.81,4.61-3.12,6.6-5.08a20.61,20.61,0,0,1,4.58-3.77c1.69-.91,2.38-2.7,3.12-4.36a7,7,0,0,1,1.56-2.5,2.64,2.64,0,0,1,2.73-.82c2.25.93,4.8,1.56,5.87,4.17s2.88,4.44,4.38,6.58a13.61,13.61,0,0,0,5.34,4.28,7.91,7.91,0,0,0,6.08-.05c2-.74,3.44.2,4.56,1.56a6.61,6.61,0,0,1,1.52,4.88c-.41,3.84-.31,7.77-1.68,11.48a16.3,16.3,0,0,1-.77,2.08,20.25,20.25,0,0,0-2.21,8.05,3.38,3.38,0,0,1-1,2.67,2.18,2.18,0,0,0-.62,2.27,9.4,9.4,0,0,1-.64,5.59c-.59,1.28-.15,2.62-.33,3.93-.34,2.45-.53,4.93-.74,7.4a3.6,3.6,0,0,1-.92,2.5,4,4,0,0,0-1,3.21c0,3.08-.1,6.12-1.54,9a4.7,4.7,0,0,0-.16,3.18,19.26,19.26,0,0,1,.1,5.67c-.12,2.87-.55,5.75.43,8.57a.91.91,0,0,1,.06.49c-.59,2.87.23,5.76-.12,8.63a3.26,3.26,0,0,0-.09,1.23c1,3.76.27,7.55.26,11.33,0,2.57,1,3.48,3.47,3.32.9-.05,1.81-.17,2.72-.24a6.18,6.18,0,0,0,4.56-2.56,58.49,58.49,0,0,0,6.28-9.75,12.31,12.31,0,0,1,3.8-4.2,15.56,15.56,0,0,0,3.33-3.3,7.79,7.79,0,0,1,2.62-2.58,3.12,3.12,0,0,0,1.25-1.51,10.22,10.22,0,0,0,.74-1.57c.75-2.44,3.37-3.42,4.39-5.61a14.69,14.69,0,0,1,4.35-5.57,33.77,33.77,0,0,0,5.61-5.21,46.36,46.36,0,0,0,4.26-6.62,7.46,7.46,0,0,0,.75-4.83c-.5-3.21-.18-6.44-.21-9.67,0-1.41.7-2.66.7-4.12,0-3.71.26-7.41.47-11.11A3.32,3.32,0,0,1,635,322a3,3,0,0,0,.23-2.62c-.51-1.31-.13-2.54.1-3.87.46-2.53,1.9-4.93,1-7.72a6,6,0,0,1,.43-3.4,35,35,0,0,0,1.44-11.25,26,26,0,0,1,2-9.66A5.54,5.54,0,0,1,644.6,280a12.4,12.4,0,0,1,4.93-.08,5,5,0,0,1,3.82,3.14c1.65,3.88,2.59,7.82,1.84,12.05a7.65,7.65,0,0,0,.31,3.19c.69,2.68.09,5.23-.57,7.78a7.38,7.38,0,0,0-.14,4.62,5,5,0,0,1,0,2.7,85,85,0,0,0-1.09,12,3.88,3.88,0,0,0,.95,2.47c2,2.94,4,5.85,5.15,9.28a5.75,5.75,0,0,1,.49,2.41c-.48,4.06-.54,8.2-2.56,11.94a32.68,32.68,0,0,0-3.38,10.57,27.18,27.18,0,0,0-.25,5.41c.25,4.62.75,9.23,1.18,13.84a10.56,10.56,0,0,1,0,3,18.25,18.25,0,0,0,0,6.91,4.75,4.75,0,0,1,.06,1.72c-.61,3.21-.28,6.45-.36,9.67a84.53,84.53,0,0,1-1.71,16.71,26.19,26.19,0,0,0-.4,7.17,39.15,39.15,0,0,1-1.17,9.55c-.4,2-.34,4.1-.8,6.13-.23,1.05,1.34,2.37,2.65,2.51a3.3,3.3,0,0,0,1.94-.34c2.81-1.56,5.27-3.65,6.29-6.72,1.29-3.85,3-7.52,4.43-11.28a9.32,9.32,0,0,0,1-3.81,3.74,3.74,0,0,1,.38-1.93c1.54-2.74,2.28-5.86,4-8.49a7.8,7.8,0,0,0,.87-1.5c1.26-3.35,3.89-5.93,5.14-9.3.59-1.58,2.14-2.49,3.17-3.79,1.78-2.25,2.25-5.14,3.88-7.45.29-.4.45-.89.76-1.27,3.89-4.7,5.9-10.48,8.66-15.79,2.46-4.75,5.2-9.38,7.36-14.31.7-1.61,1.49-3.23,2.25-4.86,1.66-3.58,3.1-7.28,5.11-10.7a12.78,12.78,0,0,0,.78-1.82c2-5.08,4.14-10.08,7.84-14.23a4.39,4.39,0,0,0,.93-1.45c1-2.9,3.23-5,5-7.34a115.62,115.62,0,0,1,10.23-11.41,31,31,0,0,1,6.32-5.45,1.86,1.86,0,0,1,.43-.25c2.78-1,5.57-2,8.37-2.89a1.74,1.74,0,0,1,1.21,0c1.53.71,2.67.07,3.84-.86,2.54-2,5.24-3.78,7.05-6.55a1.88,1.88,0,0,1,.51-.54c.79-.54,1.47-1.48,2.61-1,.73.29,1.29,2.5.67,3.4-1.48,2.13-2,4.76-3.52,6.82a3.13,3.13,0,0,0-.73,1.56c-.57,6-2.83,11.51-4.33,17.25a13.24,13.24,0,0,0,0,7.28c.94,3.31,1.51,6.75,2.25,10.13a81.27,81.27,0,0,1,1.48,16.78,46.07,46.07,0,0,0,.82,7.13c.13.79,1.12,2-.77,2.19a.48.48,0,0,0-.17.39c.55,1.18.26,2.67,1.39,3.64,1.79,1.53,3.56,2.94,6.21,2.35a11.53,11.53,0,0,1,3.71-.09,5.7,5.7,0,0,0,5.06-2.1,18.94,18.94,0,0,1,9.21-6,14.35,14.35,0,0,0,6.29-3.8,34.35,34.35,0,0,0,7.13-10,90,90,0,0,1,4.66-7.88c2.09-3.38,4.7-6.32,7-9.53a7,7,0,0,0,.85-3.33,18.23,18.23,0,0,0-.5-8.24c-1-3.27-2.37-6.32-3.59-9.47a3.54,3.54,0,0,0-1.57-2.16c-2.59-1.18-4-3.67-6.13-5.36a1.26,1.26,0,0,1-.46-.57c-1.06-3.81-4.37-6.23-5.85-9.89-1.61-3.93-4.85-6.83-8.69-8.86-.51-.27-1.09-.44-1.57-.74a10.41,10.41,0,0,0-8.35-1.18,9.9,9.9,0,0,1-4.85-.12,6.06,6.06,0,0,0-4.53.59c-.75.39-1.51.78-2.29.1s-.48-1.34-.41-2.09a6.1,6.1,0,0,1,1.37-3.15,71.47,71.47,0,0,0,5-8.24c.89-1.53.95-3.37,1.68-4.88a11.68,11.68,0,0,0,.72-6.78,18.21,18.21,0,0,0-.86-3.87,31.29,31.29,0,0,1-1.52-13.2,4.75,4.75,0,0,1,1.62-3.7,11.41,11.41,0,0,0,4.13-7.14c.29-1.45.64-2.9,1.06-4.33a6.71,6.71,0,0,0,.28-1.63,8.23,8.23,0,0,0-1.12-4.34,9.21,9.21,0,0,0-.63-1.06,12,12,0,0,1,14-6ZM512.5,385c1.82-.65,4.1-.62,6.18-1.48,3.77-1.58,7.73-2.94,11-5.4,2.46-1.87,5.18-3.6,7.14-6,2.34-2.85,4.35-6,7-8.58a4.78,4.78,0,0,0,1.36-2.33c.5-2,1-4,1.56-6a3.14,3.14,0,0,0-.3-2.15,12,12,0,0,1-.76-8.46c.37-1.24-.42-2.08-1.73-2a5.52,5.52,0,0,0-1.67.45,3.64,3.64,0,0,1-3.33-.33c-.64-.38-1.25-.8-1.88-1.21-1.75-1.12-3.52-1.14-4.93.39-3.19,3.46-6.81,6.53-9.34,10.58-1.31,2.09-2.82,4.06-4.26,6.05a131.65,131.65,0,0,1-10.45,12.87,26,26,0,0,0-1.87,2.32c-2.08,2.8-1,5.68.32,8.2C507.59,383.89,509.81,384.83,512.5,385Zm248.74,57.38c.27,1.18-.31,3.06,0,5,.74,5.14.74,10.36,1.48,15.51.32,2.21,2.11,5.06,4.19,5.53a21.19,21.19,0,0,0,5.89.73,2.9,2.9,0,0,0,2.27-.82c2.43-3,4.43-6.19,4.53-10.2.08-3.13-.07-6.27-.06-9.4a15,15,0,0,0-1.62-6.63,4.9,4.9,0,0,1-.61-1.87,6,6,0,0,0-1.8-4,4.62,4.62,0,0,1-1.49-3.58,56.32,56.32,0,0,0,.3-7.34c-.13-3,.94-5.87,1.78-8.71,1-3.54.35-7.06.06-10.58a6.42,6.42,0,0,0-1.42-3.14c-.93-1.27-1.87-2.54-2.89-3.73a4.18,4.18,0,0,0-7.19,1.35c-.74,2.61-1.84,5.11-2.39,7.81-.43,2.08-.16,4.12-.47,6.15a39.16,39.16,0,0,0-.2,7.18c.06,2.32.3,4.62.23,6.94C761.66,432.92,760.87,437.26,761.24,442.35Zm-317.72,36.8a4.08,4.08,0,0,0,.12,1.23c1,2.37.81,4.87.85,7.34a5.5,5.5,0,0,0,.26,1.71,2.54,2.54,0,0,0,3.38,1.64,3.84,3.84,0,0,0,2.51-2.25,16.89,16.89,0,0,0,1.05-3.3,22.19,22.19,0,0,1,3.26-7.66,53.29,53.29,0,0,1,7-8.67c2.42-2.58,3.5-5.94,5.59-8.67a2.73,2.73,0,0,0,.37-1.18,22.69,22.69,0,0,1,2.06-7.11,2.14,2.14,0,0,0-.14-2.36c-.63-.8-1.48-.49-2.29-.28-1.83.49-3.67,1-5.51,1.43a2.35,2.35,0,0,1-1.93-.11c-1.22-.83-2.77-1.53-3.47-2.71-1.15-2-3.07-3.21-4.22-5.12a2.12,2.12,0,0,0-2.54-1c-5,1.2-8.93,6.66-8.54,11.93.29,3.86,1.18,7.65,1.29,11.53a3.31,3.31,0,0,0,.33,1.44c1.19,2.15,1.06,4.46,1,6.78A24.74,24.74,0,0,1,443.52,479.15Zm377.29-85c3.18.32,5.3-1.59,7.14-4.13,1.45-2,2.41-4.35,4.11-6.17a8.65,8.65,0,0,0,1.84-3.46c.52-1.64-7.76-7.11-6.54-8.35,2.52-2.56,12.56-2,13.68-5.33.77-2.27,1.89-4.42,2.19-6.83.33-2.76-.05-5.32-2.35-7.2a29.93,29.93,0,0,0-3.64-2.58,4.79,4.79,0,0,0-5.6.07,15.4,15.4,0,0,0-4,4.35c-2.62,4.49-5,9.14-7.88,13.45-1.77,2.62-2.54,5.73-4.09,8.45a3.43,3.43,0,0,0-.31,1.2c-.45,3.43-.87,6.87-1.34,10.29a4.93,4.93,0,0,0,2.11,5.14C817.56,394.08,819,394.15,820.81,394.14Zm-98.16-.49c0,1.16-.1,2.38.78,3.29a23.1,23.1,0,0,0,3.09,2.85c2.26,1.63,6.65.73,8.17-1.61a9.22,9.22,0,0,1,2.06-2.46,3.39,3.39,0,0,0,1.27-2.05,26.4,26.4,0,0,0-.52-12.49,2.06,2.06,0,0,0-1.44-1.59c-2.11-.5-4-1.63-6-2.35-.55-.2-1.18-.46-1.65,0-1.22,1.1-2.76,2.09-3.07,3.77s-1.11,3.48-.88,5.35a3.42,3.42,0,0,1-.61,2.35A9,9,0,0,0,722.65,393.65Z"
    />
    <path
      d="M447.43,275.06a6.21,6.21,0,0,1-.89,2.88,6.45,6.45,0,0,0-.85,4.28,11.41,11.41,0,0,1,.1,2.47c-.89,5.49.11,10.86,1,16.24.35,2.17,1.65,4,2.56,5.9a7.63,7.63,0,0,1,.74,3.59c-.13,3.55-2.68,5.34-5.91,3.95a20.41,20.41,0,0,0-8.21-1.64c-2.22,0-4.43-.07-6.64-.11-2.39,0-4-1.44-5.35-3.15a3.21,3.21,0,0,1-.54-2.84c.65-2.22.66-4.63,1.75-6.7,1.29-2.44,1.42-5.08,1.55-7.71a13.86,13.86,0,0,1,.6-3.39c.78-2.6,1.48-5.23,2.29-7.82.72-2.3,2.21-4.23,3.22-6.4a2.26,2.26,0,0,1,1.25-1.16c1.78-.69,2.91-2.15,4.09-3.51,2-2.32,4.31-2.48,6.58-.37C446.22,271,447.61,272.38,447.43,275.06Z"
    />
  </g>
</svg>
